<?xml version="1.0" encoding="iso-8859-1"?>
<!-- Generator: Adobe Illustrator 18.0.0, SVG Export Plug-In . SVG Version: 6.00 Build 0)  -->
<!DOCTYPE svg PUBLIC "-//W3C//DTD SVG 1.1//EN" "http://www.w3.org/Graphics/SVG/1.1/DTD/svg11.dtd">
<svg version="1.1" id="Capa_1" xmlns="http://www.w3.org/2000/svg" xmlns:xlink="http://www.w3.org/1999/xlink" x="0px" y="0px"
	 viewBox="0 0 305.625 305.625" style="enable-background:new 0 0 305.625 305.625;" xml:space="preserve">
<g>
	
		<circle style="fill:none;stroke:#000000;stroke-width:8;stroke-linecap:round;stroke-linejoin:round;stroke-miterlimit:10;" cx="152.809" cy="104.566" r="78.581"/>
	<path style="fill:none;stroke:#000000;stroke-width:8;stroke-linecap:round;stroke-linejoin:round;stroke-miterlimit:10;" d="
		M75.984,161.947c17.138,23.904,45.168,39.475,76.828,39.475s59.678-15.571,76.817-39.475"/>
	<path style="fill:none;stroke:#000000;stroke-width:8;stroke-linecap:round;stroke-linejoin:round;stroke-miterlimit:10;" d="
		M215.32,56.948h20.361c11.806,0,21.377,9.571,21.377,21.377V100.6c0,4.587-3.718,8.305-8.305,8.305h-17.485"/>
	<path style="fill:none;stroke:#000000;stroke-width:8;stroke-linecap:round;stroke-linejoin:round;stroke-miterlimit:10;" d="
		M74.346,108.905H56.872c-4.587,0-8.305-3.718-8.305-8.305V78.325c0-11.806,9.571-21.377,21.377-21.377h20.361"/>
	
		<line style="fill:none;stroke:#000000;stroke-width:8;stroke-linecap:round;stroke-linejoin:round;stroke-miterlimit:10;" x1="52.221" y1="166.314" x2="52.221" y2="108.905"/>
	
		<line style="fill:none;stroke:#000000;stroke-width:8;stroke-linecap:round;stroke-linejoin:round;stroke-miterlimit:10;" x1="253.392" y1="166.314" x2="253.392" y2="108.905"/>
	<path style="fill:none;stroke:#000000;stroke-width:8;stroke-linecap:round;stroke-linejoin:round;stroke-miterlimit:10;" d="
		M206.503,161.947h25.331c27.476,0,49.753,22.278,49.753,49.753v89.924H24.038v-89.924c0-27.476,22.266-49.753,49.742-49.753h25.342
		"/>
	
		<line style="fill:none;stroke:#000000;stroke-width:8;stroke-linecap:round;stroke-linejoin:round;stroke-miterlimit:10;" x1="152.812" y1="203.202" x2="152.812" y2="301.428"/>
	
		<line style="fill:none;stroke:#000000;stroke-width:8;stroke-linecap:round;stroke-linejoin:round;stroke-miterlimit:10;" x1="76.196" y1="164.305" x2="76.196" y2="301.428"/>
	
		<line style="fill:none;stroke:#000000;stroke-width:8;stroke-linecap:round;stroke-linejoin:round;stroke-miterlimit:10;" x1="229.429" y1="164.305" x2="229.429" y2="301.428"/>
	
		<rect x="171.054" y="236.933" style="fill:none;stroke:#000000;stroke-width:8;stroke-linecap:round;stroke-linejoin:round;stroke-miterlimit:10;" width="40.314" height="17.251"/>
	<path style="fill:none;stroke:#000000;stroke-width:8;stroke-linecap:round;stroke-linejoin:round;stroke-miterlimit:10;" d="
		M215.32,56.948h17.056V24.338C232.376,13.106,223.27,4,212.037,4H109.223C89.355,4,73.249,20.106,73.249,39.974v16.974h17.056"/>
	<path style="fill:none;stroke:#000000;stroke-width:8;stroke-linecap:round;stroke-linejoin:round;stroke-miterlimit:10;" d="
		M219.893,33.468h-15.707V16.395h5.677c5.54,0,10.03,4.491,10.03,10.03V33.468z"/>
	
		<polyline style="fill:none;stroke:#000000;stroke-width:8;stroke-linecap:round;stroke-linejoin:round;stroke-miterlimit:10;" points="
		281.338,206.746 257.29,206.746 257.29,232.538 281.583,232.538 	"/>
	<path style="fill:none;stroke:#000000;stroke-width:8;stroke-linecap:round;stroke-linejoin:round;stroke-miterlimit:10;" d="
		M91.931,107.72c0,32.715,27.256,59.236,60.877,59.236s60.877-26.521,60.877-59.236s-27.256-47.12-60.877-47.12
		S91.931,75.005,91.931,107.72z"/>
	<path style="fill:none;stroke:#000000;stroke-width:8;stroke-linecap:round;stroke-linejoin:round;stroke-miterlimit:10;" d="
		M166.383,75.338c-0.879-0.163-1.762-0.308-2.647-0.435"/>
	<path style="fill:none;stroke:#000000;stroke-width:8;stroke-linecap:round;stroke-linejoin:round;stroke-miterlimit:10;" d="
		M198.591,110.57c-0.003-13.084-5.322-24.946-18.671-30.817"/>
</g>
<g>
</g>
<g>
</g>
<g>
</g>
<g>
</g>
<g>
</g>
<g>
</g>
<g>
</g>
<g>
</g>
<g>
</g>
<g>
</g>
<g>
</g>
<g>
</g>
<g>
</g>
<g>
</g>
<g>
</g>
</svg>
