<?xml version="1.0" encoding="iso-8859-1"?>
<!-- Generator: Adobe Illustrator 18.0.0, SVG Export Plug-In . SVG Version: 6.00 Build 0)  -->
<!DOCTYPE svg PUBLIC "-//W3C//DTD SVG 1.1//EN" "http://www.w3.org/Graphics/SVG/1.1/DTD/svg11.dtd">
<svg version="1.1" id="Capa_1" xmlns="http://www.w3.org/2000/svg" xmlns:xlink="http://www.w3.org/1999/xlink" x="0px" y="0px"
	 viewBox="0 0 284.345 284.345" style="enable-background:new 0 0 284.345 284.345;" xml:space="preserve">
<g>
	
		<polygon style="fill:none;stroke:#000000;stroke-width:8;stroke-linecap:round;stroke-linejoin:round;stroke-miterlimit:10;" points="
		247.877,242.134 241.67,254.712 227.789,256.729 237.833,266.52 235.462,280.345 247.877,273.817 260.293,280.345 257.922,266.52 
		267.966,256.729 254.085,254.712 	"/>
	<path style="fill:none;stroke:#000000;stroke-width:8;stroke-linecap:round;stroke-linejoin:round;stroke-miterlimit:10;" d="
		M48.42,36.062c-3.976-2.479-7.984-4.905-12.025-7.277"/>
	<path style="fill:none;stroke:#000000;stroke-width:8;stroke-linecap:round;stroke-linejoin:round;stroke-miterlimit:10;" d="
		M228.532,225.154c-15.463-27.782-33.482-54.135-53.752-78.633c-20.249-24.472-42.736-47.087-67.086-67.482
		C93.853,67.447,79.412,56.569,64.448,46.466"/>
	<path style="fill:none;stroke:#000000;stroke-width:8;stroke-linecap:round;stroke-linejoin:round;stroke-miterlimit:10;" d="
		M88.556,96.971C66.354,79.448,41.874,64.982,16.379,52.138"/>
	<path style="fill:none;stroke:#000000;stroke-width:8;stroke-linecap:round;stroke-linejoin:round;stroke-miterlimit:10;" d="
		M115.004,117.921c-2.821-2.387-5.668-4.745-8.539-7.072"/>
	<path style="fill:none;stroke:#000000;stroke-width:8;stroke-linecap:round;stroke-linejoin:round;stroke-miterlimit:10;" d="
		M216.761,233.81c-18.962-29.388-40.859-56.874-65.283-81.909c-6.963-7.137-14.129-14.075-21.49-20.801"/>
	<path style="fill:none;stroke:#000000;stroke-width:8;stroke-linecap:round;stroke-linejoin:round;stroke-miterlimit:10;" d="
		M168.471,105.426C135.344,66.095,97.511,31.6,54.508,4"/>
	<path style="fill:none;stroke:#000000;stroke-width:8;stroke-linecap:round;stroke-linejoin:round;stroke-miterlimit:10;" d="
		M233.357,202.392c-14.575-28.589-32.575-56.589-53.07-82.416"/>
	<path style="fill:none;stroke:#000000;stroke-width:8;stroke-linecap:round;stroke-linejoin:round;stroke-miterlimit:10;" d="
		M243.253,222.849c-1.008-2.212-2.032-4.416-3.072-6.613"/>
</g>
<g>
</g>
<g>
</g>
<g>
</g>
<g>
</g>
<g>
</g>
<g>
</g>
<g>
</g>
<g>
</g>
<g>
</g>
<g>
</g>
<g>
</g>
<g>
</g>
<g>
</g>
<g>
</g>
<g>
</g>
</svg>
