<?xml version="1.0" encoding="iso-8859-1"?>
<!-- Generator: Adobe Illustrator 18.0.0, SVG Export Plug-In . SVG Version: 6.00 Build 0)  -->
<!DOCTYPE svg PUBLIC "-//W3C//DTD SVG 1.1//EN" "http://www.w3.org/Graphics/SVG/1.1/DTD/svg11.dtd">
<svg version="1.1" id="Capa_1" xmlns="http://www.w3.org/2000/svg" xmlns:xlink="http://www.w3.org/1999/xlink" x="0px" y="0px"
	 viewBox="0 0 341.797 341.797" style="enable-background:new 0 0 341.797 341.797;" xml:space="preserve">
<g>
	<path style="fill:none;stroke:#000000;stroke-width:8;stroke-linejoin:round;stroke-miterlimit:10;" d="M288.1,152.154
		c7.194-13.128,11.196-27.684,11.196-43.006C299.296,51.077,241.81,4,170.898,4S42.501,51.077,42.501,109.149
		c0,15.322,4.002,29.878,11.196,43.006c7.363,13.436,8.509,29.245,4.343,43.982c-4.305,9.684-3.746,20.888,3.516,31.052
		l61.416,85.951c23.493,32.878,72.36,32.878,95.853,0l61.416-85.951c7.262-10.163,7.822-21.368,3.516-31.052
		C279.592,181.399,280.737,165.59,288.1,152.154z"/>
	<path style="fill:none;stroke:#000000;stroke-width:8;stroke-linecap:round;stroke-linejoin:round;stroke-miterlimit:10;" d="
		M147.484,297.237c7.004,2.625,16.106,4.212,26.059,4.212c9.942,0,19.039-1.585,26.043-4.212"/>
	<path style="fill:none;stroke:#000000;stroke-width:8;stroke-linecap:round;stroke-linejoin:round;stroke-miterlimit:10;" d="
		M158.217,270.543c4.086,0,7.398-5.362,7.398-11.977c0-6.615-3.312-11.977-7.398-11.977s-7.398,5.362-7.398,11.977"/>
	<path style="fill:none;stroke:#000000;stroke-width:8;stroke-linecap:round;stroke-linejoin:round;stroke-miterlimit:10;" d="
		M183.58,270.543c-4.086,0-7.398-5.362-7.398-11.977c0-6.615,3.312-11.977,7.398-11.977c4.086,0,7.398,5.362,7.398,11.977"/>
	<path style="fill:none;stroke:#000000;stroke-width:8;stroke-linejoin:round;stroke-miterlimit:10;" d="M150.621,210.657
		c0,0-1.409-35.932-43.682-46.5c-42.273-10.568-46.5,22.546-46.5,22.546s9.186,28.032,29.591,31.705
		C125.257,224.748,134.416,202.907,150.621,210.657z"/>
	<path style="fill:none;stroke:#000000;stroke-width:8;stroke-linejoin:round;stroke-miterlimit:10;" d="M191.408,210.657
		c0,0,1.409-35.932,43.682-46.5c42.273-10.568,46.5,22.546,46.5,22.546s-9.186,28.032-29.591,31.705
		C216.772,224.748,207.613,202.907,191.408,210.657z"/>
	<path style="fill:none;stroke:#000000;stroke-width:8;stroke-linejoin:round;stroke-miterlimit:10;" d="M135.37,179.213
		c1.859,4.144,2.876,8.741,2.876,13.576c0,7.133-2.235,13.739-6.041,19.177v0.013"/>
	<path style="fill:none;stroke:#000000;stroke-width:8;stroke-linejoin:round;stroke-miterlimit:10;" d="M77.891,212.781
		c-4.157-5.588-6.618-12.508-6.618-19.993c0-13.751,8.289-25.569,20.131-30.718"/>
	<path style="fill:none;stroke:#000000;stroke-width:8;stroke-linejoin:round;stroke-miterlimit:10;" d="M209.49,211.827
		c-3.755-5.4-5.94-11.968-5.94-19.038c0-4.672,0.954-9.117,2.675-13.161l0.013-0.013"/>
	<path style="fill:none;stroke:#000000;stroke-width:8;stroke-linejoin:round;stroke-miterlimit:10;" d="M250.392,162.071
		c11.843,5.149,20.131,16.966,20.131,30.718c0,7.698-2.6,14.794-6.982,20.445"/>
	<path style="fill:none;stroke:#000000;stroke-width:8;stroke-linecap:round;stroke-linejoin:round;stroke-miterlimit:10;" d="
		M254.446,49.971c24.072,20.358,35.072,54.358,24.072,84.358"/>
	<path style="fill:none;stroke:#000000;stroke-width:8;stroke-linecap:round;stroke-linejoin:round;stroke-miterlimit:10;" d="
		M232.518,34.329c3.279,1.686,6.412,3.682,9.448,5.767"/>
</g>
<g>
</g>
<g>
</g>
<g>
</g>
<g>
</g>
<g>
</g>
<g>
</g>
<g>
</g>
<g>
</g>
<g>
</g>
<g>
</g>
<g>
</g>
<g>
</g>
<g>
</g>
<g>
</g>
<g>
</g>
</svg>
