<?xml version="1.0" encoding="iso-8859-1"?>
<!-- Generator: Adobe Illustrator 18.0.0, SVG Export Plug-In . SVG Version: 6.00 Build 0)  -->
<!DOCTYPE svg PUBLIC "-//W3C//DTD SVG 1.1//EN" "http://www.w3.org/Graphics/SVG/1.1/DTD/svg11.dtd">
<svg version="1.1" id="Capa_1" xmlns="http://www.w3.org/2000/svg" xmlns:xlink="http://www.w3.org/1999/xlink" x="0px" y="0px"
	 viewBox="0 0 401.294 401.294" style="enable-background:new 0 0 401.294 401.294;" xml:space="preserve">
<g>
	<path style="fill:none;stroke:#000000;stroke-width:8;stroke-linecap:round;stroke-linejoin:round;stroke-miterlimit:10;" d="
		M88.767,209.24c3.547,10.591,13.541,18.226,25.326,18.226c14.751,0,26.71-11.958,26.71-26.71c0-14.751-11.958-26.71-26.71-26.71
		c-11.784,0-21.779,7.635-25.326,18.226c-3.547-10.591-13.541-18.226-25.326-18.226H4v53.419h59.441
		C75.225,227.466,85.22,219.831,88.767,209.24z"/>
	
		<line style="fill:none;stroke:#000000;stroke-width:8;stroke-linecap:round;stroke-linejoin:round;stroke-miterlimit:10;" x1="88.678" y1="190.234" x2="88.678" y2="209.24"/>
	
		<line style="fill:none;stroke:#000000;stroke-width:8;stroke-linecap:round;stroke-linejoin:round;stroke-miterlimit:10;" x1="20.689" y1="174.046" x2="20.689" y2="226.818"/>
	
		<line style="fill:none;stroke:#000000;stroke-width:8;stroke-linejoin:round;stroke-miterlimit:10;" x1="65.367" y1="174.046" x2="65.367" y2="226.818"/>
	
		<line style="fill:none;stroke:#000000;stroke-width:8;stroke-linejoin:round;stroke-miterlimit:10;" x1="172.099" y1="174.046" x2="172.099" y2="226.818"/>
	
		<line style="fill:none;stroke:#000000;stroke-width:8;stroke-linejoin:round;stroke-miterlimit:10;" x1="245.989" y1="186.961" x2="245.989" y2="216.32"/>
	
		<line style="fill:none;stroke:#000000;stroke-width:8;stroke-linecap:round;stroke-linejoin:round;stroke-miterlimit:10;" x1="50.727" y1="174.046" x2="50.727" y2="226.818"/>
	
		<line style="fill:none;stroke:#000000;stroke-width:8;stroke-linecap:round;stroke-linejoin:round;stroke-miterlimit:10;" x1="195.52" y1="326.659" x2="195.52" y2="229.138"/>
	
		<line style="fill:none;stroke:#000000;stroke-width:8;stroke-linecap:round;stroke-linejoin:round;stroke-miterlimit:10;" x1="195.52" y1="173.781" x2="195.52" y2="73.764"/>
	
		<circle style="fill:none;stroke:#000000;stroke-width:8;stroke-linecap:round;stroke-linejoin:round;stroke-miterlimit:10;" cx="115.342" cy="200.756" r="8.741"/>
	
		<line style="fill:none;stroke:#000000;stroke-width:8;stroke-linejoin:round;stroke-miterlimit:10;" x1="28.083" y1="177.047" x2="28.083" y2="161.62"/>
	
		<line style="fill:none;stroke:#000000;stroke-width:8;stroke-linejoin:round;stroke-miterlimit:10;" x1="40.652" y1="177.047" x2="40.652" y2="161.62"/>
	
		<line style="fill:none;stroke:#000000;stroke-width:8;stroke-linejoin:round;stroke-miterlimit:10;" x1="28.083" y1="240.393" x2="28.083" y2="226.966"/>
	
		<line style="fill:none;stroke:#000000;stroke-width:8;stroke-linejoin:round;stroke-miterlimit:10;" x1="40.652" y1="240.393" x2="40.652" y2="226.966"/>
	
		<line style="fill:none;stroke:#000000;stroke-width:8;stroke-linejoin:round;stroke-miterlimit:10;" x1="380.684" y1="175.814" x2="380.684" y2="162.852"/>
	
		<line style="fill:none;stroke:#000000;stroke-width:8;stroke-linejoin:round;stroke-miterlimit:10;" x1="380.684" y1="238.071" x2="380.684" y2="226.288"/>
	
		<rect x="17.758" y="89.214" style="fill:none;stroke:#000000;stroke-width:8;stroke-linejoin:round;stroke-miterlimit:10;" width="33.219" height="70.927"/>
	
		<rect x="17.758" y="241.371" style="fill:none;stroke:#000000;stroke-width:8;stroke-linejoin:round;stroke-miterlimit:10;" width="33.219" height="70.927"/>
	
		<line style="fill:none;stroke:#000000;stroke-width:8;stroke-linejoin:round;stroke-miterlimit:10;" x1="50.528" y1="106.722" x2="18.207" y2="106.722"/>
	
		<line style="fill:none;stroke:#000000;stroke-width:8;stroke-linejoin:round;stroke-miterlimit:10;" x1="50.528" y1="124.678" x2="18.207" y2="124.678"/>
	
		<line style="fill:none;stroke:#000000;stroke-width:8;stroke-linejoin:round;stroke-miterlimit:10;" x1="50.528" y1="142.634" x2="18.207" y2="142.634"/>
	
		<line style="fill:none;stroke:#000000;stroke-width:8;stroke-linejoin:round;stroke-miterlimit:10;" x1="50.528" y1="258.878" x2="18.207" y2="258.878"/>
	
		<line style="fill:none;stroke:#000000;stroke-width:8;stroke-linejoin:round;stroke-miterlimit:10;" x1="50.528" y1="276.834" x2="18.207" y2="276.834"/>
	
		<line style="fill:none;stroke:#000000;stroke-width:8;stroke-linejoin:round;stroke-miterlimit:10;" x1="50.528" y1="294.79" x2="18.207" y2="294.79"/>
	
		<rect x="175.451" y="73.281" style="fill:none;stroke:#000000;stroke-width:8;stroke-linejoin:round;stroke-miterlimit:10;" width="40.265" height="85.972"/>
	
		<rect x="175.451" y="242.04" style="fill:none;stroke:#000000;stroke-width:8;stroke-linejoin:round;stroke-miterlimit:10;" width="40.265" height="85.972"/>
	
		<line style="fill:none;stroke:#000000;stroke-width:8;stroke-linejoin:round;stroke-miterlimit:10;" x1="215.173" y1="94.502" x2="175.995" y2="94.502"/>
	
		<line style="fill:none;stroke:#000000;stroke-width:8;stroke-linejoin:round;stroke-miterlimit:10;" x1="215.173" y1="116.267" x2="175.995" y2="116.267"/>
	
		<line style="fill:none;stroke:#000000;stroke-width:8;stroke-linejoin:round;stroke-miterlimit:10;" x1="215.173" y1="138.032" x2="175.995" y2="138.032"/>
	
		<line style="fill:none;stroke:#000000;stroke-width:8;stroke-linejoin:round;stroke-miterlimit:10;" x1="215.173" y1="263.261" x2="175.995" y2="263.261"/>
	
		<line style="fill:none;stroke:#000000;stroke-width:8;stroke-linejoin:round;stroke-miterlimit:10;" x1="215.173" y1="285.026" x2="175.995" y2="285.026"/>
	
		<line style="fill:none;stroke:#000000;stroke-width:8;stroke-linejoin:round;stroke-miterlimit:10;" x1="215.173" y1="306.791" x2="175.995" y2="306.791"/>
	
		<rect x="364.075" y="89.214" style="fill:none;stroke:#000000;stroke-width:8;stroke-linejoin:round;stroke-miterlimit:10;" width="33.219" height="70.927"/>
	
		<rect x="364.075" y="241.371" style="fill:none;stroke:#000000;stroke-width:8;stroke-linejoin:round;stroke-miterlimit:10;" width="33.219" height="70.927"/>
	
		<line style="fill:none;stroke:#000000;stroke-width:8;stroke-linejoin:round;stroke-miterlimit:10;" x1="396.845" y1="106.722" x2="364.524" y2="106.722"/>
	
		<line style="fill:none;stroke:#000000;stroke-width:8;stroke-linejoin:round;stroke-miterlimit:10;" x1="396.845" y1="124.678" x2="364.524" y2="124.678"/>
	
		<line style="fill:none;stroke:#000000;stroke-width:8;stroke-linejoin:round;stroke-miterlimit:10;" x1="396.845" y1="142.634" x2="364.524" y2="142.634"/>
	
		<line style="fill:none;stroke:#000000;stroke-width:8;stroke-linejoin:round;stroke-miterlimit:10;" x1="396.845" y1="258.878" x2="364.524" y2="258.878"/>
	
		<line style="fill:none;stroke:#000000;stroke-width:8;stroke-linejoin:round;stroke-miterlimit:10;" x1="396.845" y1="276.834" x2="364.524" y2="276.834"/>
	
		<line style="fill:none;stroke:#000000;stroke-width:8;stroke-linejoin:round;stroke-miterlimit:10;" x1="396.845" y1="294.79" x2="364.524" y2="294.79"/>
	<polygon style="fill:none;stroke:#000000;stroke-width:8;stroke-linejoin:round;stroke-miterlimit:10;" points="277.696,186.961 
		246.348,186.961 239.033,173.777 153.052,173.777 153.052,227.516 239.033,227.516 246.348,214.332 277.696,214.332 	"/>
	<path style="fill:none;stroke:#000000;stroke-width:8;stroke-linejoin:round;stroke-miterlimit:10;" d="M397.119,177.14h-58.027
		v0.01c-5.309-4.434-12.142-7.104-19.6-7.104c-16.901,0-30.601,13.701-30.601,30.601s13.701,30.601,30.601,30.601
		c7.448,0,14.273-2.664,19.58-7.087h58.047V177.14z"/>
	
		<line style="fill:none;stroke:#000000;stroke-width:8;stroke-linejoin:round;stroke-miterlimit:10;" x1="288.891" y1="200.751" x2="277.696" y2="200.751"/>
	
		<line style="fill:none;stroke:#000000;stroke-width:8;stroke-linejoin:round;stroke-miterlimit:10;" x1="153.055" y1="200.751" x2="140.808" y2="200.751"/>
	
		<line style="fill:none;stroke:#000000;stroke-width:8;stroke-linejoin:round;stroke-miterlimit:10;" x1="341.332" y1="177.15" x2="341.332" y2="224.161"/>
	
		<line style="fill:none;stroke:#000000;stroke-width:8;stroke-linejoin:round;stroke-miterlimit:10;" x1="307.832" y1="172.434" x2="307.832" y2="228.877"/>
</g>
<g>
</g>
<g>
</g>
<g>
</g>
<g>
</g>
<g>
</g>
<g>
</g>
<g>
</g>
<g>
</g>
<g>
</g>
<g>
</g>
<g>
</g>
<g>
</g>
<g>
</g>
<g>
</g>
<g>
</g>
</svg>
