<?xml version="1.0" encoding="iso-8859-1"?>
<!-- Generator: Adobe Illustrator 18.0.0, SVG Export Plug-In . SVG Version: 6.00 Build 0)  -->
<!DOCTYPE svg PUBLIC "-//W3C//DTD SVG 1.1//EN" "http://www.w3.org/Graphics/SVG/1.1/DTD/svg11.dtd">
<svg version="1.1" id="Capa_1" xmlns="http://www.w3.org/2000/svg" xmlns:xlink="http://www.w3.org/1999/xlink" x="0px" y="0px"
	 viewBox="0 0 368.213 368.213" style="enable-background:new 0 0 368.213 368.213;" xml:space="preserve">
<g>
	
		<rect x="246.035" y="203.494" transform="matrix(0.7071 -0.7071 0.7071 0.7071 -117.0261 282.526)" style="fill:none;stroke:#000000;stroke-width:8;stroke-linejoin:round;stroke-miterlimit:10;" width="72.982" height="158.063"/>
	
		<rect x="49.196" y="6.655" transform="matrix(0.7071 -0.7071 0.7071 0.7071 -35.4926 85.6868)" style="fill:none;stroke:#000000;stroke-width:8;stroke-linejoin:round;stroke-miterlimit:10;" width="72.982" height="158.063"/>
	<polyline style="fill:none;stroke:#000000;stroke-width:8;stroke-linejoin:round;stroke-miterlimit:10;" points="252.481,172.578 
		164.243,260.816 107.397,203.97 195.635,115.732 	"/>
	<polyline style="fill:none;stroke:#000000;stroke-width:8;stroke-linejoin:round;stroke-miterlimit:10;" points="153.213,249.786 
		131.153,271.846 96.367,237.06 118.426,215 	"/>
	<polygon style="fill:none;stroke:#000000;stroke-width:8;stroke-linejoin:round;stroke-miterlimit:10;" points="263.423,183.52 
		184.693,104.79 211.113,93.878 274.335,157.1 	"/>
	
		<line style="fill:none;stroke:#000000;stroke-width:8;stroke-linejoin:round;stroke-miterlimit:10;" x1="297.153" y1="347.911" x2="347.211" y2="297.852"/>
	
		<line style="fill:none;stroke:#000000;stroke-width:8;stroke-linejoin:round;stroke-miterlimit:10;" x1="281.275" y1="332.033" x2="331.333" y2="281.974"/>
	
		<line style="fill:none;stroke:#000000;stroke-width:8;stroke-linejoin:round;stroke-miterlimit:10;" x1="265.397" y1="316.154" x2="315.455" y2="266.096"/>
	
		<line style="fill:none;stroke:#000000;stroke-width:8;stroke-linejoin:round;stroke-miterlimit:10;" x1="249.519" y1="300.276" x2="299.577" y2="250.218"/>
	
		<line style="fill:none;stroke:#000000;stroke-width:8;stroke-linejoin:round;stroke-miterlimit:10;" x1="233.641" y1="284.398" x2="283.699" y2="234.34"/>
	
		<line style="fill:none;stroke:#000000;stroke-width:8;stroke-linejoin:round;stroke-miterlimit:10;" x1="217.763" y1="268.52" x2="267.821" y2="218.462"/>
	
		<line style="fill:none;stroke:#000000;stroke-width:8;stroke-linejoin:round;stroke-miterlimit:10;" x1="99.692" y1="150.45" x2="149.751" y2="100.392"/>
	
		<line style="fill:none;stroke:#000000;stroke-width:8;stroke-linejoin:round;stroke-miterlimit:10;" x1="83.814" y1="134.572" x2="133.873" y2="84.514"/>
	
		<line style="fill:none;stroke:#000000;stroke-width:8;stroke-linejoin:round;stroke-miterlimit:10;" x1="67.936" y1="118.694" x2="117.995" y2="68.636"/>
	
		<line style="fill:none;stroke:#000000;stroke-width:8;stroke-linejoin:round;stroke-miterlimit:10;" x1="52.058" y1="102.816" x2="102.117" y2="52.758"/>
	
		<line style="fill:none;stroke:#000000;stroke-width:8;stroke-linejoin:round;stroke-miterlimit:10;" x1="36.18" y1="86.938" x2="86.239" y2="36.88"/>
	
		<line style="fill:none;stroke:#000000;stroke-width:8;stroke-linejoin:round;stroke-miterlimit:10;" x1="20.302" y1="71.06" x2="70.361" y2="21.002"/>
	
		<line style="fill:none;stroke:#000000;stroke-width:8;stroke-linejoin:round;stroke-miterlimit:10;" x1="240.603" y1="184.456" x2="183.757" y2="127.61"/>
	
		<line style="fill:none;stroke:#000000;stroke-width:8;stroke-linejoin:round;stroke-miterlimit:10;" x1="175.697" y1="246.817" x2="121.396" y2="192.516"/>
	
		<line style="fill:none;stroke:#000000;stroke-width:8;stroke-linejoin:round;stroke-miterlimit:10;" x1="141.759" y1="141.61" x2="155.758" y2="155.609"/>
	
		<line style="fill:none;stroke:#000000;stroke-width:8;stroke-linejoin:round;stroke-miterlimit:10;" x1="212.604" y1="212.455" x2="225.755" y2="225.606"/>
	
		<rect x="160.813" y="163.604" transform="matrix(-0.7071 -0.7071 0.7071 -0.7071 177.1173 447.3671)" style="fill:none;stroke:#000000;stroke-width:8;stroke-linejoin:round;stroke-miterlimit:10;" width="40.796" height="46.795"/>
	
		<line style="fill:none;stroke:#000000;stroke-width:8;stroke-linecap:round;stroke-linejoin:round;stroke-miterlimit:10;" x1="243.572" y1="124.641" x2="259.693" y2="108.52"/>
</g>
<g>
</g>
<g>
</g>
<g>
</g>
<g>
</g>
<g>
</g>
<g>
</g>
<g>
</g>
<g>
</g>
<g>
</g>
<g>
</g>
<g>
</g>
<g>
</g>
<g>
</g>
<g>
</g>
<g>
</g>
</svg>
