<?xml version="1.0" encoding="iso-8859-1"?>
<!-- Generator: Adobe Illustrator 18.0.0, SVG Export Plug-In . SVG Version: 6.00 Build 0)  -->
<!DOCTYPE svg PUBLIC "-//W3C//DTD SVG 1.1//EN" "http://www.w3.org/Graphics/SVG/1.1/DTD/svg11.dtd">
<svg version="1.1" id="Capa_1" xmlns="http://www.w3.org/2000/svg" xmlns:xlink="http://www.w3.org/1999/xlink" x="0px" y="0px"
	 viewBox="0 0 462.309 462.309" style="enable-background:new 0 0 462.309 462.309;" xml:space="preserve">
<g>
	<path style="fill:none;stroke:#000000;stroke-width:8;stroke-linecap:round;stroke-linejoin:round;stroke-miterlimit:10;" d="
		M261.423,424.7h-60.538V70.282c0-25.438,11.044-49.623,30.269-66.282l0,0l0,0c19.224,16.659,30.269,40.844,30.269,66.282V424.7z"/>
	
		<rect x="212.514" y="424.7" style="fill:none;stroke:#000000;stroke-width:8;stroke-linecap:round;stroke-linejoin:round;stroke-miterlimit:10;" width="37.281" height="14.091"/>
	
		<line style="fill:none;stroke:#000000;stroke-width:8;stroke-linecap:round;stroke-linejoin:round;stroke-miterlimit:10;" x1="170.617" y1="337.536" x2="170.617" y2="253.242"/>
	<polyline style="fill:none;stroke:#000000;stroke-width:8;stroke-linejoin:round;stroke-miterlimit:10;" points="170.617,430.871 
		170.617,444.229 178.135,444.229 193.269,444.229 200.885,444.229 200.885,392.479 200.885,163.022 187.216,163.022 
		170.617,188.409 170.617,192.9 	"/>
	<path style="fill:none;stroke:#000000;stroke-width:8;stroke-linecap:round;stroke-linejoin:round;stroke-miterlimit:10;" d="
		M184.286,253.828h-9.543c-7.132,0-12.914-5.782-12.914-12.914v-35.686c0-7.132,5.782-12.914,12.914-12.914h9.543V253.828z"/>
	<path style="fill:none;stroke:#000000;stroke-width:8;stroke-linecap:round;stroke-linejoin:round;stroke-miterlimit:10;" d="
		M177.631,370.998v-20.325c0-8.727-7.075-15.802-15.802-15.802h0v81.839c0,8.727,7.075,15.802,15.802,15.802h6.656v-54.858
		C184.286,373.978,181.307,370.998,177.631,370.998L177.631,370.998z"/>
	
		<line style="fill:none;stroke:#000000;stroke-width:8;stroke-linecap:round;stroke-linejoin:round;stroke-miterlimit:10;" x1="186.239" y1="204.519" x2="199.421" y2="204.519"/>
	
		<line style="fill:none;stroke:#000000;stroke-width:8;stroke-linecap:round;stroke-linejoin:round;stroke-miterlimit:10;" x1="186.239" y1="217.701" x2="199.421" y2="217.701"/>
	
		<line style="fill:none;stroke:#000000;stroke-width:8;stroke-linecap:round;stroke-linejoin:round;stroke-miterlimit:10;" x1="185.751" y1="412.983" x2="199.909" y2="412.983"/>
	
		<polyline style="fill:none;stroke:#000000;stroke-width:8;stroke-linecap:round;stroke-linejoin:round;stroke-miterlimit:10;" points="
		193.269,444.229 193.269,458.309 178.135,458.309 178.135,444.229 	"/>
	
		<polyline style="fill:none;stroke:#000000;stroke-width:8;stroke-linecap:round;stroke-linejoin:round;stroke-miterlimit:10;" points="
		239.454,440.323 239.454,458.309 224.319,458.309 224.319,440.323 	"/>
	
		<line style="fill:none;stroke:#000000;stroke-width:8;stroke-linecap:round;stroke-linejoin:round;stroke-miterlimit:10;" x1="291.692" y1="253.242" x2="291.692" y2="337.536"/>
	<polyline style="fill:none;stroke:#000000;stroke-width:8;stroke-linejoin:round;stroke-miterlimit:10;" points="291.692,192.9 
		291.692,188.409 275.093,163.022 261.423,163.022 261.423,392.479 261.423,444.229 269.039,444.229 284.173,444.229 
		291.692,444.229 291.692,430.871 	"/>
	<path style="fill:none;stroke:#000000;stroke-width:8;stroke-linecap:round;stroke-linejoin:round;stroke-miterlimit:10;" d="
		M278.022,253.828h9.543c7.132,0,12.914-5.782,12.914-12.914v-35.686c0-7.132-5.782-12.914-12.914-12.914h-9.543V253.828z"/>
	<path style="fill:none;stroke:#000000;stroke-width:8;stroke-linecap:round;stroke-linejoin:round;stroke-miterlimit:10;" d="
		M284.678,370.998v-20.325c0-8.727,7.075-15.802,15.802-15.802l0,0v81.839c0,8.727-7.075,15.802-15.802,15.802h-6.656v-54.858
		C278.022,373.978,281.002,370.998,284.678,370.998L284.678,370.998z"/>
	
		<line style="fill:none;stroke:#000000;stroke-width:8;stroke-linecap:round;stroke-linejoin:round;stroke-miterlimit:10;" x1="276.069" y1="204.519" x2="262.888" y2="204.519"/>
	
		<line style="fill:none;stroke:#000000;stroke-width:8;stroke-linecap:round;stroke-linejoin:round;stroke-miterlimit:10;" x1="276.069" y1="217.701" x2="262.888" y2="217.701"/>
	
		<line style="fill:none;stroke:#000000;stroke-width:8;stroke-linecap:round;stroke-linejoin:round;stroke-miterlimit:10;" x1="276.557" y1="412.983" x2="262.399" y2="412.983"/>
	
		<polyline style="fill:none;stroke:#000000;stroke-width:8;stroke-linecap:round;stroke-linejoin:round;stroke-miterlimit:10;" points="
		284.173,444.229 284.173,458.309 269.039,458.309 269.039,444.229 	"/>
	
		<line style="fill:none;stroke:#000000;stroke-width:8;stroke-linecap:round;stroke-linejoin:round;stroke-miterlimit:10;" x1="202.35" y1="170.345" x2="258.494" y2="170.345"/>
	
		<line style="fill:none;stroke:#000000;stroke-width:8;stroke-linecap:round;stroke-linejoin:round;stroke-miterlimit:10;" x1="202.35" y1="186.561" x2="258.494" y2="186.561"/>
	
		<line style="fill:none;stroke:#000000;stroke-width:8;stroke-linecap:round;stroke-linejoin:round;stroke-miterlimit:10;" x1="202.35" y1="124.942" x2="258.494" y2="124.942"/>
	
		<line style="fill:none;stroke:#000000;stroke-width:8;stroke-linecap:round;stroke-linejoin:round;stroke-miterlimit:10;" x1="202.35" y1="84.421" x2="258.494" y2="84.421"/>
	
		<line style="fill:none;stroke:#000000;stroke-width:8;stroke-linecap:round;stroke-linejoin:round;stroke-miterlimit:10;" x1="212.602" y1="100.043" x2="249.706" y2="100.043"/>
</g>
<g>
</g>
<g>
</g>
<g>
</g>
<g>
</g>
<g>
</g>
<g>
</g>
<g>
</g>
<g>
</g>
<g>
</g>
<g>
</g>
<g>
</g>
<g>
</g>
<g>
</g>
<g>
</g>
<g>
</g>
</svg>
