<?xml version="1.0" encoding="iso-8859-1"?>
<!-- Generator: Adobe Illustrator 18.0.0, SVG Export Plug-In . SVG Version: 6.00 Build 0)  -->
<!DOCTYPE svg PUBLIC "-//W3C//DTD SVG 1.1//EN" "http://www.w3.org/Graphics/SVG/1.1/DTD/svg11.dtd">
<svg version="1.1" id="Capa_1" xmlns="http://www.w3.org/2000/svg" xmlns:xlink="http://www.w3.org/1999/xlink" x="0px" y="0px"
	 viewBox="0 0 431.604 431.604" style="enable-background:new 0 0 431.604 431.604;" xml:space="preserve">
<g>
	<path style="fill:none;stroke:#000000;stroke-width:8;stroke-miterlimit:10;" d="M172.262,368.484V133.703
		c0-38.998,7.1-77.67,20.953-114.124l0,0c7.893-20.771,37.277-20.771,45.171,0l0,0c13.853,36.454,20.953,75.126,20.953,114.124
		v234.781"/>
	
		<line style="fill:none;stroke:#000000;stroke-width:8;stroke-miterlimit:10;" x1="226.597" y1="391.857" x2="204.998" y2="391.857"/>
	<path style="fill:none;stroke:#000000;stroke-width:8;stroke-miterlimit:10;" d="M302.107,255.209c2.56,3.29,5.22,6.5,7.99,9.64
		l29.79,33.74c7.49,8.48,11.63,19.42,11.63,30.74v24.98l-92.18,14.17v16.93v6.45"/>
	<path style="fill:none;stroke:#000000;stroke-width:8;stroke-miterlimit:10;" d="M129.497,255.199c-2.56,3.29-5.23,6.51-8,9.65
		l-29.78,33.74c-7.5,8.48-11.63,19.42-11.63,30.74v24.98l92.18,14.17v16.93v6.45"/>
	
		<line style="fill:none;stroke:#000000;stroke-width:8;stroke-miterlimit:10;" x1="351.519" y1="336.327" x2="259.333" y2="336.327"/>
	<line style="fill:none;stroke:#000000;stroke-width:8;stroke-miterlimit:10;" x1="172.262" y1="336.327" x2="80.09" y2="336.327"/>
	
		<line style="fill:none;stroke:#000000;stroke-width:8;stroke-miterlimit:10;" x1="170.887" y1="137.504" x2="255.443" y2="137.504"/>
	<line style="fill:none;stroke:#000000;stroke-width:8;stroke-miterlimit:10;" x1="186.928" y1="40.574" x2="244.673" y2="40.574"/>
	<path style="fill:none;stroke:#000000;stroke-width:8;stroke-miterlimit:10;" d="M190.589,105.538c0-11.2,9.079-20.28,20.28-20.28"
		/>
	<path style="fill:none;stroke:#000000;stroke-width:8;stroke-miterlimit:10;" d="M220.732,85.258c11.2,0,20.28,9.079,20.28,20.28"
		/>
	<path style="fill:none;stroke:#000000;stroke-width:8;stroke-linejoin:round;stroke-miterlimit:10;" d="M204.996,427.604h-32.734
		v-42.197c0-18.078,14.656-32.734,32.734-32.734h0V427.604z"/>
	<path style="fill:none;stroke:#000000;stroke-width:8;stroke-linejoin:round;stroke-miterlimit:10;" d="M259.338,427.604h-32.734
		v-74.931h0c18.078,0,32.734,14.656,32.734,32.734V427.604z"/>
	
		<line style="fill:none;stroke:#000000;stroke-width:8;stroke-linejoin:round;stroke-miterlimit:10;" x1="173.037" y1="167.259" x2="257.037" y2="167.259"/>
	
		<line style="fill:none;stroke:#000000;stroke-width:8;stroke-linejoin:round;stroke-miterlimit:10;" x1="173.037" y1="220.259" x2="257.037" y2="220.259"/>
	
		<line style="fill:none;stroke:#000000;stroke-width:8;stroke-linejoin:round;stroke-miterlimit:10;" x1="173.037" y1="317.259" x2="257.037" y2="317.259"/>
	
		<rect x="129.494" y="167.259" style="fill:none;stroke:#000000;stroke-width:8;stroke-linejoin:round;stroke-miterlimit:10;" width="42.768" height="150"/>
	
		<rect x="259.338" y="167.259" style="fill:none;stroke:#000000;stroke-width:8;stroke-linejoin:round;stroke-miterlimit:10;" width="42.768" height="150"/>
	
		<circle style="fill:none;stroke:#000000;stroke-width:8;stroke-linejoin:round;stroke-miterlimit:10;" cx="215.8" cy="194.759" r="13.5"/>
	
		<circle style="fill:none;stroke:#000000;stroke-width:8;stroke-linejoin:round;stroke-miterlimit:10;" cx="215.8" cy="258.759" r="22.5"/>
	<circle cx="215.8" cy="258.759" r="9.342"/>
	<polyline style="fill:none;stroke:#000000;stroke-width:8;stroke-linejoin:round;stroke-miterlimit:10;" points="243.297,317.259 
		243.297,293.259 188.297,293.259 188.297,317.259 	"/>
	
		<line style="fill:none;stroke:#000000;stroke-width:8;stroke-linejoin:round;stroke-miterlimit:10;" x1="131.037" y1="188.259" x2="169.037" y2="188.259"/>
	
		<line style="fill:none;stroke:#000000;stroke-width:8;stroke-linejoin:round;stroke-miterlimit:10;" x1="131.037" y1="210.059" x2="169.037" y2="210.059"/>
	
		<line style="fill:none;stroke:#000000;stroke-width:8;stroke-linejoin:round;stroke-miterlimit:10;" x1="131.037" y1="231.859" x2="169.037" y2="231.859"/>
	
		<line style="fill:none;stroke:#000000;stroke-width:8;stroke-linejoin:round;stroke-miterlimit:10;" x1="131.037" y1="253.659" x2="169.037" y2="253.659"/>
	
		<line style="fill:none;stroke:#000000;stroke-width:8;stroke-linejoin:round;stroke-miterlimit:10;" x1="131.037" y1="275.459" x2="169.037" y2="275.459"/>
	
		<line style="fill:none;stroke:#000000;stroke-width:8;stroke-linejoin:round;stroke-miterlimit:10;" x1="131.037" y1="297.259" x2="169.037" y2="297.259"/>
	
		<line style="fill:none;stroke:#000000;stroke-width:8;stroke-linejoin:round;stroke-miterlimit:10;" x1="262.037" y1="188.259" x2="300.037" y2="188.259"/>
	
		<line style="fill:none;stroke:#000000;stroke-width:8;stroke-linejoin:round;stroke-miterlimit:10;" x1="262.037" y1="210.059" x2="300.037" y2="210.059"/>
	
		<line style="fill:none;stroke:#000000;stroke-width:8;stroke-linejoin:round;stroke-miterlimit:10;" x1="262.037" y1="231.859" x2="300.037" y2="231.859"/>
	
		<line style="fill:none;stroke:#000000;stroke-width:8;stroke-linejoin:round;stroke-miterlimit:10;" x1="262.037" y1="253.659" x2="300.037" y2="253.659"/>
	
		<line style="fill:none;stroke:#000000;stroke-width:8;stroke-linejoin:round;stroke-miterlimit:10;" x1="262.037" y1="275.459" x2="300.037" y2="275.459"/>
	
		<line style="fill:none;stroke:#000000;stroke-width:8;stroke-linejoin:round;stroke-miterlimit:10;" x1="262.037" y1="297.259" x2="300.037" y2="297.259"/>
</g>
<g>
</g>
<g>
</g>
<g>
</g>
<g>
</g>
<g>
</g>
<g>
</g>
<g>
</g>
<g>
</g>
<g>
</g>
<g>
</g>
<g>
</g>
<g>
</g>
<g>
</g>
<g>
</g>
<g>
</g>
</svg>
