<?xml version="1.0" encoding="iso-8859-1"?>
<!-- Generator: Adobe Illustrator 18.0.0, SVG Export Plug-In . SVG Version: 6.00 Build 0)  -->
<!DOCTYPE svg PUBLIC "-//W3C//DTD SVG 1.1//EN" "http://www.w3.org/Graphics/SVG/1.1/DTD/svg11.dtd">
<svg version="1.1" id="Capa_1" xmlns="http://www.w3.org/2000/svg" xmlns:xlink="http://www.w3.org/1999/xlink" x="0px" y="0px"
	 viewBox="0 0 431 431" style="enable-background:new 0 0 431 431;" xml:space="preserve">
<g>
	<polygon style="fill:none;stroke:#000000;stroke-width:8;stroke-linejoin:round;stroke-miterlimit:10;" points="367.464,207.253 
		63.536,207.253 26.346,179.041 404.654,179.041 	"/>
	<polyline style="fill:none;stroke:#000000;stroke-width:8;stroke-linejoin:round;stroke-miterlimit:10;" points="326.06,179.04 
		292.34,140.9 291.99,140.5 291.42,140.5 272.32,140.5 158.68,140.5 139.58,140.5 139.01,140.5 138.66,140.9 104.94,179.04 	"/>
	<polyline style="fill:none;stroke:#000000;stroke-width:8;stroke-linejoin:round;stroke-miterlimit:10;" points="277.419,179.04 
		258.534,140.9 258.338,140.5 258.019,140.5 247.322,140.5 183.679,140.5 172.982,140.5 172.662,140.5 172.466,140.9 
		153.582,179.04 	"/>
	<polyline style="fill:none;stroke:#000000;stroke-width:8;stroke-linejoin:round;stroke-miterlimit:10;" points="233.206,179.04 
		227.806,140.9 227.75,140.5 227.659,140.5 224.6,140.5 206.401,140.5 203.342,140.5 203.251,140.5 203.195,140.9 197.795,179.04 	
		"/>
	<polyline style="fill:none;stroke:#000000;stroke-width:8;stroke-linejoin:round;stroke-miterlimit:10;" points="308.779,179.04 
		280.329,140.9 280.034,140.5 279.553,140.5 263.439,140.5 167.562,140.5 151.448,140.5 150.967,140.5 150.671,140.9 
		122.222,179.04 	"/>
	<polyline style="fill:none;stroke:#000000;stroke-width:8;stroke-linejoin:round;stroke-miterlimit:10;" points="272.32,140.5 
		264.76,131.95 256.41,122.5 174.59,122.5 166.24,131.95 158.68,140.5 	"/>
	<path style="fill:none;stroke:#000000;stroke-width:8;stroke-linejoin:round;stroke-miterlimit:10;" d="M139.58,140.5
		c-0.3,0.13-0.61,0.26-0.91,0.39l-0.01,0.01"/>
	<path style="fill:none;stroke:#000000;stroke-width:8;stroke-linejoin:round;stroke-miterlimit:10;" d="M119.03,224.3
		c21.74,15.28,56.86,25.2,96.47,25.2s74.73-9.92,96.47-25.2h0.01"/>
	<path style="fill:none;stroke:#000000;stroke-width:8;stroke-linejoin:round;stroke-miterlimit:10;" d="M292.34,140.9l-0.01-0.01
		c-0.3-0.13-0.61-0.26-0.91-0.39"/>
	<path style="fill:none;stroke:#000000;stroke-width:8;stroke-linejoin:round;stroke-miterlimit:10;" d="M194.68,207.25
		c1.34,10.3,10.15,18.25,20.82,18.25s19.48-7.95,20.82-18.25"/>
	<path style="fill:none;stroke:#000000;stroke-width:8;stroke-linejoin:round;stroke-miterlimit:10;" d="M91.18,207.25
		c1.34,10.3,10.15,18.25,20.82,18.25s19.48-7.95,20.82-18.25"/>
	<path style="fill:none;stroke:#000000;stroke-width:8;stroke-linejoin:round;stroke-miterlimit:10;" d="M298.18,207.25
		c1.34,10.3,10.15,18.25,20.82,18.25c10.67,0,19.48-7.95,20.82-18.25"/>
	
		<line style="fill:none;stroke:#000000;stroke-width:8;stroke-linecap:round;stroke-linejoin:round;stroke-miterlimit:10;" x1="4" y1="179.041" x2="427" y2="179.041"/>
	
		<line style="fill:none;stroke:#000000;stroke-width:8;stroke-linecap:round;stroke-linejoin:round;stroke-miterlimit:10;" x1="44.66" y1="193.147" x2="386.34" y2="193.147"/>
	
		<line style="fill:none;stroke:#000000;stroke-width:8;stroke-linecap:round;stroke-linejoin:round;stroke-miterlimit:10;" x1="131.87" y1="231.92" x2="90.48" y2="317.62"/>
	
		<line style="fill:none;stroke:#000000;stroke-width:8;stroke-linecap:round;stroke-linejoin:round;stroke-miterlimit:10;" x1="340.58" y1="317.73" x2="299.14" y2="231.91"/>
	
		<line style="fill:none;stroke:#000000;stroke-width:8;stroke-linecap:round;stroke-linejoin:round;stroke-miterlimit:10;" x1="215.5" y1="346.5" x2="215.5" y2="236.5"/>
	
		<circle style="fill:none;stroke:#000000;stroke-width:8;stroke-linecap:round;stroke-linejoin:round;stroke-miterlimit:10;" cx="85.64" cy="327.5" r="11"/>
	
		<circle style="fill:none;stroke:#000000;stroke-width:8;stroke-linecap:round;stroke-linejoin:round;stroke-miterlimit:10;" cx="215.5" cy="357.5" r="11"/>
	
		<line style="fill:none;stroke:#000000;stroke-width:8;stroke-linecap:round;stroke-linejoin:round;stroke-miterlimit:10;" x1="215.501" y1="81.167" x2="215.501" y2="121.167"/>
	
		<circle style="fill:none;stroke:#000000;stroke-width:8;stroke-linecap:round;stroke-linejoin:round;stroke-miterlimit:10;" cx="215.5" cy="71.833" r="9.333"/>
	
		<circle style="fill:none;stroke:#000000;stroke-width:8;stroke-linecap:round;stroke-linejoin:round;stroke-miterlimit:10;" cx="345.64" cy="327.5" r="11"/>
</g>
<g>
</g>
<g>
</g>
<g>
</g>
<g>
</g>
<g>
</g>
<g>
</g>
<g>
</g>
<g>
</g>
<g>
</g>
<g>
</g>
<g>
</g>
<g>
</g>
<g>
</g>
<g>
</g>
<g>
</g>
</svg>
