<?xml version="1.0" encoding="iso-8859-1"?>
<!-- Generator: Adobe Illustrator 18.0.0, SVG Export Plug-In . SVG Version: 6.00 Build 0)  -->
<!DOCTYPE svg PUBLIC "-//W3C//DTD SVG 1.1//EN" "http://www.w3.org/Graphics/SVG/1.1/DTD/svg11.dtd">
<svg version="1.1" id="Capa_1" xmlns="http://www.w3.org/2000/svg" xmlns:xlink="http://www.w3.org/1999/xlink" x="0px" y="0px"
	 viewBox="0 0 435.026 435.026" style="enable-background:new 0 0 435.026 435.026;" xml:space="preserve">
<g>
	
		<circle style="fill:none;stroke:#000000;stroke-width:8;stroke-linecap:round;stroke-linejoin:round;stroke-miterlimit:10;" cx="135.972" cy="135.185" r="46.717"/>
	<path style="fill:none;stroke:#000000;stroke-width:8;stroke-linecap:round;stroke-linejoin:round;stroke-miterlimit:10;" d="
		M101.447,137.226c0,18.554,15.458,33.595,34.526,33.595s34.526-15.041,34.526-33.595s-15.458-26.723-34.526-26.723
		S101.447,118.672,101.447,137.226z"/>
	<path style="fill:none;stroke:#000000;stroke-width:8;stroke-linecap:round;stroke-linejoin:round;stroke-miterlimit:10;" d="
		M141.433,120.971c-1.448-0.157-2.905-0.23-4.361-0.229"/>
	<path style="fill:none;stroke:#000000;stroke-width:8;stroke-linecap:round;stroke-linejoin:round;stroke-miterlimit:10;" d="
		M159.876,138.392c-0.001-5.815-2.919-11.11-7.887-14.15"/>
	<path style="fill:none;stroke:#000000;stroke-width:8;stroke-linecap:round;stroke-linejoin:round;stroke-miterlimit:10;" d="
		M167.887,169.298h23.44h5.25h59.58c9.96,0,18.44,7.75,18.79,17.7c0.38,10.45-7.99,19.04-18.35,19.04h-60.02v151.63
		c8.5,0,15.39,6.9,15.39,15.4v15.27h-15.39h-36.61h-12.96l-4.29-84h-12.32l-4.29,84h-14.14h-35.07h-16.93v-15.27
		c0-8.5,6.9-15.4,15.4-15.4h1.53v-136.77l-41.54,41.53c-3.58,3.59-8.29,5.39-12.99,5.39s-9.4-1.8-12.99-5.39
		c-7.17-7.17-7.17-18.8,0-25.98l58.32-58.31c5.66-5.66,13.34-8.84,21.34-8.84h15.02"/>
	
		<line style="fill:none;stroke:#000000;stroke-width:8;stroke-linecap:round;stroke-linejoin:round;stroke-miterlimit:10;" x1="75.366" y1="357.671" x2="97.474" y2="357.671"/>
	
		<line style="fill:none;stroke:#000000;stroke-width:8;stroke-linecap:round;stroke-linejoin:round;stroke-miterlimit:10;" x1="174.033" y1="357.671" x2="196.141" y2="357.671"/>
	
		<line style="fill:none;stroke:#000000;stroke-width:8;stroke-linecap:round;stroke-linejoin:round;stroke-miterlimit:10;" x1="129.408" y1="323.668" x2="76.897" y2="323.668"/>
	
		<line style="fill:none;stroke:#000000;stroke-width:8;stroke-linecap:round;stroke-linejoin:round;stroke-miterlimit:10;" x1="196.577" y1="323.668" x2="144.807" y2="323.668"/>
	
		<line style="fill:none;stroke:#000000;stroke-width:8;stroke-linecap:round;stroke-linejoin:round;stroke-miterlimit:10;" x1="127.474" y1="338.335" x2="76.897" y2="338.335"/>
	
		<line style="fill:none;stroke:#000000;stroke-width:8;stroke-linecap:round;stroke-linejoin:round;stroke-miterlimit:10;" x1="196.577" y1="338.335" x2="146.141" y2="338.335"/>
	
		<line style="fill:none;stroke:#000000;stroke-width:8;stroke-linecap:round;stroke-linejoin:round;stroke-miterlimit:10;" x1="9.379" y1="236.45" x2="35.361" y2="262.433"/>
	
		<line style="fill:none;stroke:#000000;stroke-width:8;stroke-linejoin:round;stroke-miterlimit:10;" x1="37.379" y1="208.45" x2="63.361" y2="234.433"/>
	
		<line style="fill:none;stroke:#000000;stroke-width:8;stroke-linejoin:round;stroke-miterlimit:10;" x1="256.157" y1="169.298" x2="256.157" y2="203.671"/>
	
		<line style="fill:none;stroke:#000000;stroke-width:8;stroke-linejoin:round;stroke-miterlimit:10;" x1="218.157" y1="169.298" x2="218.157" y2="203.671"/>
	
		<line style="fill:none;stroke:#000000;stroke-width:8;stroke-linecap:round;stroke-linejoin:round;stroke-miterlimit:10;" x1="78.808" y1="285.005" x2="194.141" y2="285.005"/>
	
		<rect x="124.306" y="209.005" style="fill:none;stroke:#000000;stroke-width:8;stroke-linecap:round;stroke-linejoin:round;stroke-miterlimit:10;" width="23.333" height="36.667"/>
	<path style="fill:none;stroke:#000000;stroke-width:8;stroke-linecap:round;stroke-linejoin:round;stroke-miterlimit:10;" d="
		M148.807,237.005h10.667c9.205,0,16.667,7.462,16.667,16.667v0c0,9.205,7.462,16.667,16.667,16.667h3.333"/>
	
		<line style="fill:none;stroke:#000000;stroke-width:8;stroke-linecap:round;stroke-linejoin:round;stroke-miterlimit:10;" x1="148.141" y1="224.371" x2="195.474" y2="224.371"/>
	
		<circle style="fill:none;stroke:#000000;stroke-width:8;stroke-linecap:round;stroke-linejoin:round;stroke-miterlimit:10;" cx="135.972" cy="265.005" r="8"/>
	<path style="fill:none;stroke:#000000;stroke-width:8;stroke-linecap:round;stroke-linejoin:round;stroke-miterlimit:10;" d="
		M148.141,211.671h4.6c7.216,0,13.066-5.85,13.066-13.066v-23.787"/>
	<path style="fill:none;stroke:#000000;stroke-width:8;stroke-linecap:round;stroke-linejoin:round;stroke-miterlimit:10;" d="
		M127.972,265.005h-14.831c-8.468,0-15.333-6.865-15.333-15.333v0c0-8.468-6.865-15.333-15.333-15.333h-4.667"/>
	<path style="fill:none;stroke:#000000;stroke-width:8;stroke-linecap:round;stroke-linejoin:round;stroke-miterlimit:10;" d="
		M90.808,172.838v31.115c0,7.392,5.993,13.385,13.385,13.385h19.115"/>
	
		<line style="fill:none;stroke:#000000;stroke-width:8;stroke-linejoin:round;stroke-miterlimit:10;" x1="210.807" y1="375.668" x2="146.357" y2="375.668"/>
	
		<line style="fill:none;stroke:#000000;stroke-width:8;stroke-linejoin:round;stroke-miterlimit:10;" x1="126.757" y1="375.668" x2="60.138" y2="375.668"/>
	
		<line style="fill:none;stroke:#000000;stroke-width:8;stroke-linecap:round;stroke-linejoin:round;stroke-miterlimit:10;" x1="75.041" y1="377.005" x2="75.041" y2="385.671"/>
	
		<line style="fill:none;stroke:#000000;stroke-width:8;stroke-linecap:round;stroke-linejoin:round;stroke-miterlimit:10;" x1="92.707" y1="377.005" x2="92.707" y2="385.671"/>
	
		<line style="fill:none;stroke:#000000;stroke-width:8;stroke-linecap:round;stroke-linejoin:round;stroke-miterlimit:10;" x1="110.374" y1="377.005" x2="110.374" y2="385.671"/>
	
		<line style="fill:none;stroke:#000000;stroke-width:8;stroke-linecap:round;stroke-linejoin:round;stroke-miterlimit:10;" x1="161.708" y1="377.005" x2="161.708" y2="385.671"/>
	
		<line style="fill:none;stroke:#000000;stroke-width:8;stroke-linecap:round;stroke-linejoin:round;stroke-miterlimit:10;" x1="179.374" y1="377.005" x2="179.374" y2="385.671"/>
	
		<line style="fill:none;stroke:#000000;stroke-width:8;stroke-linecap:round;stroke-linejoin:round;stroke-miterlimit:10;" x1="197.041" y1="377.005" x2="197.041" y2="385.671"/>
	
		<line style="fill:none;stroke:#000000;stroke-width:8;stroke-linecap:round;stroke-linejoin:round;stroke-miterlimit:10;" x1="264.017" y1="170.998" x2="264.017" y2="142.69"/>
	
		<line style="fill:none;stroke:#000000;stroke-width:8;stroke-linecap:round;stroke-linejoin:round;stroke-miterlimit:10;" x1="264.017" y1="388.338" x2="264.017" y2="204.468"/>
	
		<rect x="264.017" y="46.688" style="fill:none;stroke:#000000;stroke-width:8;stroke-linecap:round;stroke-linejoin:round;stroke-miterlimit:10;" width="167.009" height="112.771"/>
</g>
<g>
</g>
<g>
</g>
<g>
</g>
<g>
</g>
<g>
</g>
<g>
</g>
<g>
</g>
<g>
</g>
<g>
</g>
<g>
</g>
<g>
</g>
<g>
</g>
<g>
</g>
<g>
</g>
<g>
</g>
</svg>
