<?xml version="1.0" encoding="iso-8859-1"?>
<!-- Generator: Adobe Illustrator 18.0.0, SVG Export Plug-In . SVG Version: 6.00 Build 0)  -->
<!DOCTYPE svg PUBLIC "-//W3C//DTD SVG 1.1//EN" "http://www.w3.org/Graphics/SVG/1.1/DTD/svg11.dtd">
<svg version="1.1" id="Capa_1" xmlns="http://www.w3.org/2000/svg" xmlns:xlink="http://www.w3.org/1999/xlink" x="0px" y="0px"
	 viewBox="0 0 435.73 435.73" style="enable-background:new 0 0 435.73 435.73;" xml:space="preserve">
<g>
	<path style="fill:none;stroke:#000000;stroke-width:8;stroke-linejoin:round;stroke-miterlimit:10;" d="M263.728,61.972
		c2.815-5.137,4.381-10.833,4.381-16.828C268.109,22.421,245.615,4,217.868,4s-50.241,18.421-50.241,41.144
		c0,5.995,1.566,11.691,4.381,16.828c2.881,5.257,3.329,11.443,1.699,17.21c-1.685,3.789-1.466,8.173,1.376,12.15l24.032,33.632
		c9.193,12.865,28.314,12.865,37.507,0l24.032-33.632c2.842-3.977,3.061-8.361,1.376-12.15
		C260.398,73.415,260.847,67.229,263.728,61.972z"/>
	<path style="fill:none;stroke:#000000;stroke-width:8;stroke-linejoin:round;stroke-miterlimit:10;" d="M235.725,126.13
		c7.199,1.528,17.498,3.109,19.427,6.912c19.55,38.547,30.901,123.225,30.44,172.462c-0.038,3.873-2.861,7.06-6.466,7.322
		c-0.047,0-0.094,0-0.141,0.01c-4.029,0.292-7.408-3.187-7.37-7.524c0.405-39.263-7.135-106.543-20.491-138.898l-2.082,27.279
		c-0.691,9.054-1.037,18.131-1.037,27.212v204.191c0,3.664-3.759,6.634-8.395,6.634h0c-4.636,0-8.395-2.97-8.395-6.634V265.188h0
		c-8.309,4.587-18.392,4.587-26.701,0h0v159.908c0,3.664-3.759,6.634-8.395,6.634h0c-4.636,0-8.395-2.97-8.395-6.634V220.905
		c0-9.08-0.346-18.157-1.037-27.211l-2.082-27.279c-13.347,32.354-20.886,99.635-20.491,138.898c0.047,4.337-3.332,7.816-7.37,7.524
		c-0.047-0.01-0.094-0.01-0.141-0.01c-3.596-0.262-6.429-3.449-6.466-7.312c-0.442-47.725,10.212-134.682,28.661-172.472
		c2.466-5.053,13.984-5.374,21.206-6.912"/>
	<path style="fill:none;stroke:#000000;stroke-width:8;stroke-linejoin:round;stroke-miterlimit:10;" d="M174.439,76.807
		c0,0.011,0,0.011,0,0.011c2.721,6.444,10.211,11.056,19.019,11.056c4.413,0,8.492-1.158,11.805-3.123
		c5.934-3.52,5.936-12.35,0.003-15.872c-3.315-1.968-7.396-3.128-11.809-3.128c-8.822,0-16.312,4.624-19.019,11.067V76.807z"/>
	<path style="fill:none;stroke:#000000;stroke-width:8;stroke-linejoin:round;stroke-miterlimit:10;" d="M258.548,76.819
		c-2.707-6.444-10.197-11.067-19.019-11.067c-4.412,0-8.493,1.16-11.809,3.128c-5.933,3.522-5.931,12.352,0.003,15.872
		c3.314,1.966,7.392,3.123,11.805,3.123C248.337,87.875,255.827,83.262,258.548,76.819c0,0,0,0,0-0.011V76.819z"/>
	
		<line style="fill:none;stroke:#000000;stroke-width:8;stroke-linecap:round;stroke-linejoin:round;stroke-miterlimit:10;" x1="211.07" y1="116.873" x2="222.515" y2="116.873"/>
	
		<line style="fill:none;stroke:#000000;stroke-width:8;stroke-linecap:round;stroke-linejoin:round;stroke-miterlimit:10;" x1="217.865" y1="238.19" x2="217.865" y2="241.624"/>
</g>
<g>
</g>
<g>
</g>
<g>
</g>
<g>
</g>
<g>
</g>
<g>
</g>
<g>
</g>
<g>
</g>
<g>
</g>
<g>
</g>
<g>
</g>
<g>
</g>
<g>
</g>
<g>
</g>
<g>
</g>
</svg>
