<?xml version="1.0" encoding="iso-8859-1"?>
<!-- Generator: Adobe Illustrator 18.0.0, SVG Export Plug-In . SVG Version: 6.00 Build 0)  -->
<!DOCTYPE svg PUBLIC "-//W3C//DTD SVG 1.1//EN" "http://www.w3.org/Graphics/SVG/1.1/DTD/svg11.dtd">
<svg version="1.1" id="Capa_1" xmlns="http://www.w3.org/2000/svg" xmlns:xlink="http://www.w3.org/1999/xlink" x="0px" y="0px"
	 viewBox="0 0 435.309 435.309" style="enable-background:new 0 0 435.309 435.309;" xml:space="preserve">
<g>
	<path style="fill:none;stroke:#000000;stroke-width:8;stroke-linecap:round;stroke-linejoin:round;stroke-miterlimit:10;" d="
		M32.685,336.267l-10.135-4.675c-11.598-5.349-16.056-19.534-9.603-30.556l30.664-52.376c5.621-9.601,17.61-13.368,27.712-8.709l0,0
		c10.183,4.697,15.085,16.4,11.288,26.952l-20.529,57.051C57.789,335.885,44.198,341.577,32.685,336.267z"/>
	
		<line style="fill:none;stroke:#000000;stroke-width:8;stroke-linecap:round;stroke-linejoin:round;stroke-miterlimit:10;" x1="87.037" y1="263.947" x2="43.025" y2="243.648"/>
	
		<line style="fill:none;stroke:#000000;stroke-width:8;stroke-linecap:round;stroke-linejoin:round;stroke-miterlimit:10;" x1="64.919" y1="333.145" x2="4" y2="305.048"/>
	
		<line style="fill:none;stroke:#000000;stroke-width:8;stroke-linecap:round;stroke-linejoin:round;stroke-miterlimit:10;" x1="71.2" y1="316.193" x2="12.983" y2="289.341"/>
	
		<line style="fill:none;stroke:#000000;stroke-width:8;stroke-linecap:round;stroke-linejoin:round;stroke-miterlimit:10;" x1="76.986" y1="299.011" x2="22.523" y2="273.892"/>
	
		<line style="fill:none;stroke:#000000;stroke-width:8;stroke-linecap:round;stroke-linejoin:round;stroke-miterlimit:10;" x1="82.76" y1="281.825" x2="32.051" y2="258.436"/>
	
		<line style="fill:none;stroke:#000000;stroke-width:8;stroke-linecap:round;stroke-linejoin:round;stroke-miterlimit:10;" x1="68.225" y1="236.854" x2="79.328" y2="212.238"/>
	
		<line style="fill:none;stroke:#000000;stroke-width:8;stroke-linecap:round;stroke-linejoin:round;stroke-miterlimit:10;" x1="81.181" y1="246.429" x2="92.284" y2="221.814"/>
	<path style="fill:none;stroke:#000000;stroke-width:8;stroke-linecap:round;stroke-linejoin:round;stroke-miterlimit:10;" d="
		M151.417,238.791l-7.593,16.166c-5.362,11.401-18.949,16.313-30.35,10.95c-11.401-5.351-16.313-18.937-10.95-30.35l3.537-7.525"/>
	<path style="fill:none;stroke:#000000;stroke-width:8;stroke-linecap:round;stroke-linejoin:round;stroke-miterlimit:10;" d="
		M186.07,186.855h100.258c0.001-0.082,0.006-0.164,0.006-0.246c0-29.554-49.429-53.512-110.403-53.512
		S65.528,157.055,65.528,186.609s49.429,53.512,110.403,53.512c3.419,0,6.799-0.079,10.139-0.227V186.855z"/>
	<path style="fill:none;stroke:#000000;stroke-width:8;stroke-linecap:round;stroke-linejoin:round;stroke-miterlimit:10;" d="
		M186.07,229.857c47.71-1.667,85.348-20.267,85.607-43.001"/>
	
		<line style="fill:none;stroke:#000000;stroke-width:8;stroke-linecap:round;stroke-linejoin:round;stroke-miterlimit:10;" x1="208.038" y1="237.461" x2="208.038" y2="187.172"/>
	
		<line style="fill:none;stroke:#000000;stroke-width:8;stroke-linecap:round;stroke-linejoin:round;stroke-miterlimit:10;" x1="229.442" y1="232.397" x2="229.442" y2="187.172"/>
	
		<line style="fill:none;stroke:#000000;stroke-width:8;stroke-linecap:round;stroke-linejoin:round;stroke-miterlimit:10;" x1="250.847" y1="222.803" x2="250.847" y2="187.172"/>
	
		<circle style="fill:none;stroke:#000000;stroke-width:8;stroke-linecap:round;stroke-linejoin:round;stroke-miterlimit:10;" cx="142.697" cy="186.609" r="19.715"/>
	
		<polyline style="fill:none;stroke:#000000;stroke-width:8;stroke-linecap:round;stroke-linejoin:round;stroke-miterlimit:10;" points="
		69.088,200.127 45.813,200.127 45.813,173.09 69.088,173.09 	"/>
	
		<line style="fill:none;stroke:#000000;stroke-width:8;stroke-linecap:round;stroke-linejoin:round;stroke-miterlimit:10;" x1="179.31" y1="144.926" x2="179.31" y2="133.131"/>
	
		<line style="fill:none;stroke:#000000;stroke-width:8;stroke-linecap:round;stroke-linejoin:round;stroke-miterlimit:10;" x1="196.209" y1="144.926" x2="196.209" y2="133.998"/>
	
		<line style="fill:none;stroke:#000000;stroke-width:8;stroke-linecap:round;stroke-linejoin:round;stroke-miterlimit:10;" x1="213.107" y1="144.926" x2="213.107" y2="136.206"/>
	<path style="fill:none;stroke:#000000;stroke-width:8;stroke-linecap:round;stroke-linejoin:round;stroke-miterlimit:10;" d="
		M165.364,133.345v-14.893h38.596l-16.47-21.405h-16.211c-29.854,0-59.257,7.356-85.607,21.405h38.573v20.864"/>
	
		<line style="fill:none;stroke:#000000;stroke-width:8;stroke-linecap:round;stroke-linejoin:round;stroke-miterlimit:10;" x1="124.244" y1="118.452" x2="168.045" y2="118.452"/>
	
		<line style="fill:none;stroke:#000000;stroke-width:8;stroke-linecap:round;stroke-linejoin:round;stroke-miterlimit:10;" x1="129.553" y1="173.465" x2="155.841" y2="199.752"/>
	<path style="fill:none;stroke:#000000;stroke-width:8;stroke-linecap:round;stroke-linejoin:round;stroke-miterlimit:10;" d="
		M121.236,255.16c-5.407-6.906-6.928-15.614-4.878-23.489"/>
	
		<line style="fill:none;stroke:#000000;stroke-width:8;stroke-linejoin:round;stroke-miterlimit:10;" x1="343.225" y1="198.719" x2="268.016" y2="198.719"/>
	
		<line style="fill:none;stroke:#000000;stroke-width:8;stroke-linejoin:round;stroke-miterlimit:10;" x1="343.225" y1="174.498" x2="283.495" y2="174.498"/>
	
		<rect x="343.225" y="168.826" style="fill:none;stroke:#000000;stroke-width:8;stroke-linejoin:round;stroke-miterlimit:10;" width="56.863" height="35.566"/>
	
		<line style="fill:none;stroke:#000000;stroke-width:8;stroke-linecap:round;stroke-linejoin:round;stroke-miterlimit:10;" x1="361.813" y1="163.514" x2="361.813" y2="209.703"/>
	
		<line style="fill:none;stroke:#000000;stroke-width:8;stroke-linecap:round;stroke-linejoin:round;stroke-miterlimit:10;" x1="381.81" y1="163.514" x2="381.81" y2="209.703"/>
	
		<line style="fill:none;stroke:#000000;stroke-width:8;stroke-linecap:round;stroke-linejoin:round;stroke-miterlimit:10;" x1="403.146" y1="186.609" x2="411.595" y2="186.609"/>
	
		<circle style="fill:none;stroke:#000000;stroke-width:8;stroke-linejoin:round;stroke-miterlimit:10;" cx="421.734" cy="186.609" r="9.575"/>
</g>
<g>
</g>
<g>
</g>
<g>
</g>
<g>
</g>
<g>
</g>
<g>
</g>
<g>
</g>
<g>
</g>
<g>
</g>
<g>
</g>
<g>
</g>
<g>
</g>
<g>
</g>
<g>
</g>
<g>
</g>
</svg>
