<?xml version="1.0" encoding="iso-8859-1"?>
<!-- Generator: Adobe Illustrator 18.0.0, SVG Export Plug-In . SVG Version: 6.00 Build 0)  -->
<!DOCTYPE svg PUBLIC "-//W3C//DTD SVG 1.1//EN" "http://www.w3.org/Graphics/SVG/1.1/DTD/svg11.dtd">
<svg version="1.1" id="Capa_1" xmlns="http://www.w3.org/2000/svg" xmlns:xlink="http://www.w3.org/1999/xlink" x="0px" y="0px"
	 viewBox="0 0 406.824 406.824" style="enable-background:new 0 0 406.824 406.824;" xml:space="preserve">
<g>
	<path style="fill:none;stroke:#000000;stroke-width:8;stroke-linecap:round;stroke-linejoin:round;stroke-miterlimit:10;" d="
		M191.053,45.785L191.053,45.785c-39.941,0-72.319,32.378-72.319,72.319v179.802h144.639V118.104
		C263.372,78.163,230.994,45.785,191.053,45.785z"/>
	
		<ellipse style="fill:none;stroke:#000000;stroke-width:8;stroke-linecap:round;stroke-linejoin:round;stroke-miterlimit:10;" cx="169.752" cy="142.03" rx="35.511" ry="27.671"/>
	
		<line style="fill:none;stroke:#000000;stroke-width:8;stroke-linecap:round;stroke-linejoin:round;stroke-miterlimit:10;" x1="168.368" y1="134.454" x2="168.368" y2="149.409"/>
	<path style="fill:none;stroke:#000000;stroke-width:8;stroke-linecap:round;stroke-linejoin:round;stroke-miterlimit:10;" d="
		M146.227,162.746v30.936h16.727c11.454,0,21.469,6.165,26.908,15.359c4.149,7.014-1.043,15.882-9.192,15.882h-18.754
		l-10.963,72.982h76.227l-5.314-43.347v-78.406v-61.706c0-13.296-10.778-24.074-24.074-24.074H170.3
		c-13.296,0-24.074,10.778-24.074,24.074v6.876"/>
	
		<line style="fill:none;stroke:#000000;stroke-width:8;stroke-linecap:round;stroke-linejoin:round;stroke-miterlimit:10;" x1="154.096" y1="224.767" x2="176.669" y2="224.767"/>
	
		<line style="fill:none;stroke:#000000;stroke-width:8;stroke-linecap:round;stroke-linejoin:round;stroke-miterlimit:10;" x1="138.852" y1="193.683" x2="164.679" y2="193.683"/>
	<path style="fill:none;stroke:#000000;stroke-width:8;stroke-linecap:round;stroke-linejoin:round;stroke-miterlimit:10;" d="
		M223.251,150.957c11.788,3.143,19.825-17.323,19.825-17.323v21.736c0,10.916-8.841,19.771-19.757,19.771h-1.453"/>
	<path style="fill:none;stroke:#000000;stroke-width:8;stroke-linecap:round;stroke-linejoin:round;stroke-miterlimit:10;" d="
		M185.53,182.391c0,0,14.145,0.786,21.218-11.002"/>
	
		<line style="fill:none;stroke:#000000;stroke-width:8;stroke-linecap:round;stroke-linejoin:round;stroke-miterlimit:10;" x1="153.31" y1="196.536" x2="153.31" y2="206.752"/>
	
		<line style="fill:none;stroke:#000000;stroke-width:8;stroke-linecap:round;stroke-linejoin:round;stroke-miterlimit:10;" x1="169.813" y1="196.536" x2="169.813" y2="206.752"/>
	
		<line style="fill:none;stroke:#000000;stroke-width:8;stroke-linecap:round;stroke-linejoin:round;stroke-miterlimit:10;" x1="163.526" y1="240.543" x2="176.886" y2="240.543"/>
	
		<line style="fill:none;stroke:#000000;stroke-width:8;stroke-linecap:round;stroke-linejoin:round;stroke-miterlimit:10;" x1="177.672" y1="268.048" x2="177.672" y2="294.766"/>
	
		<line style="fill:none;stroke:#000000;stroke-width:8;stroke-linecap:round;stroke-linejoin:round;stroke-miterlimit:10;" x1="200.461" y1="277.478" x2="200.461" y2="294.766"/>
	
		<line style="fill:none;stroke:#000000;stroke-width:8;stroke-linecap:round;stroke-linejoin:round;stroke-miterlimit:10;" x1="191.053" y1="45.785" x2="191.053" y2="5.576"/>
	<path style="fill:none;stroke:#000000;stroke-width:8;stroke-linecap:round;stroke-linejoin:round;stroke-miterlimit:10;" d="
		M198.928,64.975c-2.357-0.305-4.734-0.46-7.111-0.461"/>
	<path style="fill:none;stroke:#000000;stroke-width:8;stroke-linecap:round;stroke-linejoin:round;stroke-miterlimit:10;" d="
		M244.62,100.724c-5.521-14.273-16.967-25.828-31.038-31.773"/>
	
		<rect x="103.846" y="297.906" style="fill:none;stroke:#000000;stroke-width:8;stroke-linecap:round;stroke-linejoin:round;stroke-miterlimit:10;" width="174.414" height="39.49"/>
	
		<line style="fill:none;stroke:#000000;stroke-width:8;stroke-linecap:round;stroke-linejoin:round;stroke-miterlimit:10;" x1="203.604" y1="246.044" x2="221.865" y2="246.044"/>
	<path style="fill:none;stroke:#000000;stroke-width:8;stroke-linecap:round;stroke-linejoin:round;stroke-miterlimit:10;" d="
		M131.307,337.395v0.2c0,35.151-28.503,63.653-63.653,63.653c-17.575,0-33.489-7.12-45.005-18.648C11.12,371.084,4,355.17,4,337.595
		v-2.358c0-35.151,28.503-63.653,63.653-63.653h13.556c11.387,0,20.628-9.242,20.628-20.628c0-5.693-2.31-10.845-6.047-14.581
		c-3.737-3.737-8.888-6.047-14.581-6.047"/>
	<path style="fill:none;stroke:#000000;stroke-width:8;stroke-linecap:round;stroke-linejoin:round;stroke-miterlimit:10;" d="
		M250.716,337.395c7.108,35.08,38.11,61.496,75.288,61.496c21.218,0,40.42-8.605,54.329-22.503
		c13.898-13.898,22.491-33.112,22.491-54.318v-2.853c0-42.424-34.385-76.82-76.82-76.82h-16.361
		c-13.744,0-24.896-11.139-24.896-24.896c0-6.872,2.794-13.096,7.297-17.599c4.503-4.515,10.727-7.297,17.599-7.297"/>
	<path style="fill:none;stroke:#000000;stroke-width:8;stroke-linecap:round;stroke-linejoin:round;stroke-miterlimit:10;" d="
		M104.195,389.854c0,0,84.007-62.868,185.381,0"/>
</g>
<g>
</g>
<g>
</g>
<g>
</g>
<g>
</g>
<g>
</g>
<g>
</g>
<g>
</g>
<g>
</g>
<g>
</g>
<g>
</g>
<g>
</g>
<g>
</g>
<g>
</g>
<g>
</g>
<g>
</g>
</svg>
