<?xml version="1.0" encoding="iso-8859-1"?>
<!-- Generator: Adobe Illustrator 18.0.0, SVG Export Plug-In . SVG Version: 6.00 Build 0)  -->
<!DOCTYPE svg PUBLIC "-//W3C//DTD SVG 1.1//EN" "http://www.w3.org/Graphics/SVG/1.1/DTD/svg11.dtd">
<svg version="1.1" id="Capa_1" xmlns="http://www.w3.org/2000/svg" xmlns:xlink="http://www.w3.org/1999/xlink" x="0px" y="0px"
	 viewBox="0 0 420.332 420.332" style="enable-background:new 0 0 420.332 420.332;" xml:space="preserve">
<g>
	<path style="fill:none;stroke:#000000;stroke-width:8;stroke-linejoin:round;stroke-miterlimit:10;" d="M255.521,43.393
		L255.521,43.393c-29.037,12.048-61.673,12.048-90.71,0l0,0c-3.997-1.658-8.319-2.4-12.638-2.14
		c-28.57,1.719-55.594,13.954-75.774,34.482l0,0l0,0c87.429,24.98,180.106,24.98,267.534,0l0,0l0,0
		c-20.18-20.528-47.204-32.762-75.774-34.482C263.839,40.993,259.518,41.734,255.521,43.393z"/>
	<path style="fill:none;stroke:#000000;stroke-width:8;stroke-linejoin:round;stroke-miterlimit:10;" d="M156.63,41.337
		C164.644,19.546,185.588,4,210.166,4s45.522,15.546,53.536,37.337"/>
	<path style="fill:none;stroke:#000000;stroke-width:8;stroke-linecap:round;stroke-linejoin:round;stroke-miterlimit:10;" d="
		M227.364,20.114c6.288,2.637,12.042,6.977,15.173,13.158"/>
	
		<line style="fill:none;stroke:#000000;stroke-width:8;stroke-linejoin:round;stroke-miterlimit:10;" x1="78.75" y1="73.383" x2="340.405" y2="73.383"/>
	<path style="fill:none;stroke:#000000;stroke-width:8;stroke-linejoin:round;stroke-miterlimit:10;" d="M162.627,92.139
		c5.457,9.502,24.672,16.522,47.539,16.522s42.082-7.021,47.539-16.522"/>
	
		<line style="fill:none;stroke:#000000;stroke-width:8;stroke-linecap:round;stroke-linejoin:round;stroke-miterlimit:10;" x1="347.11" y1="416.332" x2="221.856" y2="137.221"/>
	
		<line style="fill:none;stroke:#000000;stroke-width:8;stroke-linecap:round;stroke-linejoin:round;stroke-miterlimit:10;" x1="198.475" y1="137.221" x2="73.221" y2="416.332"/>
	<polyline style="fill:none;stroke:#000000;stroke-width:8;stroke-linejoin:round;stroke-miterlimit:10;" points="226.868,107.343 
		226.868,123.132 193.465,123.132 193.465,107.343 	"/>
	<path style="fill:none;stroke:#000000;stroke-width:8;stroke-linecap:round;stroke-linejoin:round;stroke-miterlimit:10;" d="
		M261.834,311.543c1.465-6.235-2.617-12.429-8.937-13.464c-38.184-6.252-49.989-19.526-53.343-25.093
		c-1.096-1.82-2.59-3.365-4.41-4.461l0,0c-4.685-2.824-10.651-2.354-14.817,1.191c-2.646,2.252-6.094,5.072-10.385,8.36
		c18.161,10.592,16.428,23.097,18.526,41.894c0,0,15.938,16.887,52.779,26.235C254.332,349.526,259.974,319.458,261.834,311.543z"/>
	<path style="fill:none;stroke:#000000;stroke-width:8;stroke-linecap:round;stroke-linejoin:round;stroke-miterlimit:10;" d="
		M177.492,347.1c0,0,9.904-9.621,10.976-27.13"/>
	<path style="fill:none;stroke:#000000;stroke-width:8;stroke-linecap:round;stroke-linejoin:round;stroke-miterlimit:10;" d="
		M194.375,356.347c0,0,8.618-16.149,8.006-25.908"/>
	<path style="fill:none;stroke:#000000;stroke-width:8;stroke-linecap:round;stroke-linejoin:round;stroke-miterlimit:10;" d="
		M219.199,360.912c0,0,11.363-7.116,13.701-16.508"/>
	<path style="fill:none;stroke:#000000;stroke-width:8;stroke-linecap:round;stroke-linejoin:round;stroke-miterlimit:10;" d="
		M239.499,369.983c0,0,8.378-9.502,10.24-24.996"/>
	
		<line style="fill:none;stroke:#000000;stroke-width:8;stroke-linecap:round;stroke-linejoin:round;stroke-miterlimit:10;" x1="181.822" y1="256.745" x2="187.417" y2="265.97"/>
	
		<line style="fill:none;stroke:#000000;stroke-width:8;stroke-linecap:round;stroke-linejoin:round;stroke-miterlimit:10;" x1="194.389" y1="258.113" x2="199.983" y2="267.337"/>
	<path style="fill:none;stroke:#000000;stroke-width:8;stroke-linecap:round;stroke-linejoin:round;stroke-miterlimit:10;" d="
		M215.845,286.781c-1.247,1.871-1.971,4.109-1.971,6.514c0,6.458,5.233,11.691,11.691,11.691c5.957,0,10.867-4.454,11.602-10.21"/>
	<path style="fill:none;stroke:#000000;stroke-width:8;stroke-linecap:round;stroke-linejoin:round;stroke-miterlimit:10;" d="
		M254.781,335.349c-3.062-0.189-6.569-0.98-10.11-2.394c-9.23-3.674-15.298-10.21-13.55-14.597
		c1.748-4.376,10.644-4.944,19.875-1.258c3.262,1.303,6.135,2.962,8.395,4.743"/>
	<path style="fill:none;stroke:#000000;stroke-width:8;stroke-linecap:round;stroke-linejoin:round;stroke-miterlimit:10;" d="
		M190.86,322.188c1.381,0.401,2.884,0.612,4.465,0.612c6.758,0,12.248-3.986,12.248-8.907c0-4.91-11.791-14.096-18.561-14.096
		c-1.08,0-1.971,0.234-2.694,0.646"/>
</g>
<g>
</g>
<g>
</g>
<g>
</g>
<g>
</g>
<g>
</g>
<g>
</g>
<g>
</g>
<g>
</g>
<g>
</g>
<g>
</g>
<g>
</g>
<g>
</g>
<g>
</g>
<g>
</g>
<g>
</g>
</svg>
