<?xml version="1.0" encoding="iso-8859-1"?>
<!-- Generator: Adobe Illustrator 18.0.0, SVG Export Plug-In . SVG Version: 6.00 Build 0)  -->
<!DOCTYPE svg PUBLIC "-//W3C//DTD SVG 1.1//EN" "http://www.w3.org/Graphics/SVG/1.1/DTD/svg11.dtd">
<svg version="1.1" id="Capa_1" xmlns="http://www.w3.org/2000/svg" xmlns:xlink="http://www.w3.org/1999/xlink" x="0px" y="0px"
	 viewBox="0 0 359.256 359.256" style="enable-background:new 0 0 359.256 359.256;" xml:space="preserve">
<g>
	
		<circle style="fill:none;stroke:#000000;stroke-width:8;stroke-linecap:round;stroke-linejoin:round;stroke-miterlimit:10;" cx="179.628" cy="182.008" r="134.465"/>
	<path style="fill:none;stroke:#000000;stroke-width:8;stroke-linecap:round;stroke-linejoin:round;stroke-miterlimit:10;" d="
		M179.628,4.962l12.329,12.722c10.678,11.018,26.86,14.68,41.242,9.334l18.257-6.788l4.686,15.044
		c4.82,15.473,18.777,26.299,34.962,27.118l19.76,1.001l-2.273,14.86c-2.61,17.068,6.412,33.799,22.108,40.995l16.881,7.739
		l-8.565,13.423c-9.597,15.04-7.658,34.693,4.692,47.567l11.549,12.039l-14.458,10.296c-14.358,10.225-19.984,28.867-13.679,45.327
		l5.445,14.215l-18.858,4.71c-16.225,4.053-28.005,18.076-29.198,34.756l-1.08,15.104l-19.736-2.89
		c-15.476-2.266-30.793,5.014-38.808,18.445l-8.54,14.312l-15.799-10.162c-12.741-8.195-29.093-8.195-41.834,0l-15.799,10.162
		l-8.54-14.312c-8.015-13.432-23.332-20.712-38.808-18.445l-19.736,2.89l-1.08-15.104c-1.193-16.68-12.974-30.704-29.198-34.756
		l-18.858-4.71l5.445-14.215c6.305-16.461,0.679-35.102-13.679-45.327L4,200.017l11.549-12.039
		c12.35-12.875,14.289-32.528,4.692-47.567l-8.565-13.423l16.881-7.739c15.696-7.196,24.718-23.927,22.108-40.995l-2.273-14.86
		l19.76-1.001c16.185-0.82,30.142-11.645,34.962-27.118L107.8,20.23l18.257,6.788c14.381,5.347,30.564,1.684,41.242-9.334
		L179.628,4.962z"/>
</g>
<g>
</g>
<g>
</g>
<g>
</g>
<g>
</g>
<g>
</g>
<g>
</g>
<g>
</g>
<g>
</g>
<g>
</g>
<g>
</g>
<g>
</g>
<g>
</g>
<g>
</g>
<g>
</g>
<g>
</g>
</svg>
