<?xml version="1.0" encoding="iso-8859-1"?>
<!-- Generator: Adobe Illustrator 18.0.0, SVG Export Plug-In . SVG Version: 6.00 Build 0)  -->
<!DOCTYPE svg PUBLIC "-//W3C//DTD SVG 1.1//EN" "http://www.w3.org/Graphics/SVG/1.1/DTD/svg11.dtd">
<svg version="1.1" id="Capa_1" xmlns="http://www.w3.org/2000/svg" xmlns:xlink="http://www.w3.org/1999/xlink" x="0px" y="0px"
	 viewBox="0 0 325.402 325.402" style="enable-background:new 0 0 325.402 325.402;" xml:space="preserve">
<g>
	<path d="M189.317,26.616c-75.038,0-136.085,61.048-136.085,136.085s61.047,136.085,136.085,136.085s136.085-61.047,136.085-136.085
		S264.354,26.616,189.317,26.616z M303.854,105.415c-19.285,81.007-76.736,147.79-154.087,179.114
		c-5.259-1.711-10.371-3.751-15.309-6.102c80.857-31.451,141.937-101.332,162.187-185.549
		C299.274,96.907,301.683,101.092,303.854,105.415z M163.18,139.149c26.371-28.772,46.301-63.476,57.841-100.56
		c13.174,3.367,25.536,8.784,36.729,15.887c-19.382,87.483-83.595,159.155-168.504,188.074c-8.839-11.054-15.885-23.598-20.7-37.19
		C104.28,190.595,136.942,167.777,163.18,139.149z M66.097,197.717c-1.438-5.053-2.572-10.232-3.383-15.516
		C125,152.771,174.179,99.363,198.318,34.937c5.041,0.352,10.001,0.997,14.865,1.918c-11.221,35.723-30.474,69.147-55.901,96.888
		C131.978,161.352,100.519,183.39,66.097,197.717z M189.317,34.616c0.192,0,0.382,0.006,0.573,0.007
		c-23.415,60.543-69.7,110.809-128.17,139.196c-0.317-3.665-0.488-7.372-0.488-11.118C61.232,92.075,118.69,34.616,189.317,34.616z
		 M94.827,249.08c85.048-30.115,149.458-102,170.022-189.755c9.626,7.052,18.236,15.411,25.562,24.818
		c-18.383,87.024-81.532,159.278-165.428,189.276C113.732,266.857,103.567,258.632,94.827,249.08z M162.244,287.898
		c71.824-32.367,125.65-94.933,146.817-170.653c4.421,11.608,7.2,24.017,8.052,36.946c-20.52,57.053-60.724,105.217-113.336,135.774
		c-4.748,0.536-9.571,0.821-14.46,0.821C180.03,290.786,170.975,289.784,162.244,287.898z M225.693,285.516
		c39.622-27.44,71.097-65.121,90.95-108.895C311.017,228.441,274.36,271.077,225.693,285.516z"/>
	<path d="M23.633,45.849C10.602,45.849,0,56.451,0,69.483s10.602,23.633,23.633,23.633s23.633-10.602,23.633-23.633
		S36.665,45.849,23.633,45.849z M23.633,85.116C15.013,85.116,8,78.103,8,69.483s7.013-15.633,15.633-15.633
		s15.633,7.013,15.633,15.633S32.253,85.116,23.633,85.116z"/>
</g>
<g>
</g>
<g>
</g>
<g>
</g>
<g>
</g>
<g>
</g>
<g>
</g>
<g>
</g>
<g>
</g>
<g>
</g>
<g>
</g>
<g>
</g>
<g>
</g>
<g>
</g>
<g>
</g>
<g>
</g>
</svg>
