<?xml version="1.0" encoding="iso-8859-1"?>
<!-- Generator: Adobe Illustrator 18.0.0, SVG Export Plug-In . SVG Version: 6.00 Build 0)  -->
<!DOCTYPE svg PUBLIC "-//W3C//DTD SVG 1.1//EN" "http://www.w3.org/Graphics/SVG/1.1/DTD/svg11.dtd">
<svg version="1.1" id="Capa_1" xmlns="http://www.w3.org/2000/svg" xmlns:xlink="http://www.w3.org/1999/xlink" x="0px" y="0px"
	 viewBox="0 0 272.171 272.171" style="enable-background:new 0 0 272.171 272.171;" xml:space="preserve">
<g>
	<path d="M20.362,76.387h19.063c2.209,0,4-1.791,4-4s-1.791-4-4-4h-12.09c1.582-2.54,3.263-5.035,5.029-7.47h62.659
		c2.209,0,4-1.791,4-4s-1.791-4-4-4H30.346c-1.259,0-2.444,0.593-3.2,1.6c-3.815,5.088-7.277,10.453-10.29,15.946
		c-0.68,1.239-0.655,2.745,0.064,3.961C17.641,75.641,18.949,76.387,20.362,76.387z"/>
	<path d="M7.808,108.516h57.797c2.209,0,4-1.791,4-4s-1.791-4-4-4H13.008c0.723-2.508,1.529-5.003,2.413-7.47h24.005
		c2.209,0,4-1.791,4-4s-1.791-4-4-4H12.64c-1.656,0-3.141,1.021-3.734,2.566c-2.003,5.216-3.68,10.586-4.984,15.959
		c-0.29,1.192-0.017,2.452,0.742,3.416C5.422,107.953,6.581,108.516,7.808,108.516z"/>
	<path d="M76.019,183.053c0-2.209-1.791-4-4-4H15.39c-0.874-2.452-1.676-4.948-2.398-7.47h109.005c2.209,0,4-1.791,4-4s-1.791-4-4-4
		H7.796c-1.227,0-2.386,0.563-3.145,1.527c-0.758,0.965-1.032,2.224-0.742,3.416c1.317,5.429,2.985,10.797,4.958,15.955
		c0.593,1.549,2.078,2.571,3.736,2.571h59.415C74.228,187.053,76.019,185.262,76.019,183.053z"/>
	<path d="M123.616,215.182c0-2.209-1.791-4-4-4H32.31c-1.767-2.44-3.444-4.936-5.021-7.47h12.138c2.209,0,4-1.791,4-4s-1.791-4-4-4
		H20.314c-1.413,0-2.722,0.746-3.442,1.962c-0.72,1.216-0.744,2.722-0.064,3.961c3,5.471,6.457,10.834,10.274,15.941
		c0.756,1.01,1.942,1.605,3.204,1.605h89.33C121.825,219.182,123.616,217.391,123.616,215.182z"/>
	<path d="M136.086,0c-35.003,0-68.263,13.267-93.654,37.356c-1.188,1.127-1.569,2.863-0.963,4.384
		c0.607,1.521,2.079,2.518,3.716,2.518h35.89c2.209,0,4-1.791,4-4s-1.791-4-4-4H55.827C78.53,17.967,106.654,8,136.086,8
		c69.288,0,125.896,55.304,128.016,124.087H8.07c0.072-2.311,0.199-4.62,0.395-6.912H125.17c2.209,0,4-1.791,4-4s-1.791-4-4-4H4.845
		c-2.033,0-3.743,1.526-3.975,3.546C0.293,125.779,0,130.948,0,136.085c0,5.076,0.289,10.218,0.858,15.286
		c0.227,2.023,1.938,3.553,3.975,3.553h86.95c2.209,0,4-1.791,4-4s-1.791-4-4-4H8.459c-0.192-2.276-0.317-4.559-0.389-6.837h256.032
		c-0.071,2.295-0.204,4.574-0.395,6.837h-49.291c-2.209,0-4,1.791-4,4s1.791,4,4,4h48.365c-0.432,2.92-0.966,5.806-1.593,8.659
		h-22.379c-2.209,0-4,1.791-4,4s1.791,4,4,4h20.352c-2.436,8.431-5.719,16.505-9.747,24.129h-64.153c-2.209,0-4,1.791-4,4
		s1.791,4,4,4h59.551c-22.642,36.271-62.91,60.458-108.728,60.458c-29.485,0-57.64-9.99-80.348-28.33H77.6c2.209,0,4-1.791,4-4
		s-1.791-4-4-4H45.113c-1.636,0-3.107,0.997-3.715,2.516c-0.606,1.52-0.228,3.255,0.959,4.383
		c25.388,24.138,58.674,37.431,93.729,37.431c75.037,0,136.085-61.048,136.085-136.085S211.123,0,136.086,0z"/>
	<path d="M210.776,124.526c2.879,0,5.704-0.47,8.397-1.396c16.567-5.696,24.175-27.405,16.959-48.393
		c-5.896-17.149-20.181-29.127-34.736-29.127c-2.878,0-5.703,0.469-8.396,1.395c-16.567,5.696-24.175,27.405-16.959,48.393
		C181.938,112.548,196.222,124.526,210.776,124.526z M195.602,54.571c1.854-0.638,3.804-0.96,5.795-0.96
		c11.194,0,22.367,9.757,27.172,23.728c5.781,16.816,0.399,33.965-11.996,38.227c-1.854,0.638-3.804,0.961-5.796,0.961
		c-11.193,0-22.366-9.758-27.171-23.729C177.824,75.981,183.206,58.832,195.602,54.571z"/>
	<ellipse transform="matrix(0.3251 0.9457 -0.9457 0.3251 219.5266 -137.4806)" cx="206.087" cy="85.068" rx="9.047" ry="6.932"/>
</g>
<g>
</g>
<g>
</g>
<g>
</g>
<g>
</g>
<g>
</g>
<g>
</g>
<g>
</g>
<g>
</g>
<g>
</g>
<g>
</g>
<g>
</g>
<g>
</g>
<g>
</g>
<g>
</g>
<g>
</g>
</svg>
