<?xml version="1.0" encoding="iso-8859-1"?>
<!-- Generator: Adobe Illustrator 18.0.0, SVG Export Plug-In . SVG Version: 6.00 Build 0)  -->
<!DOCTYPE svg PUBLIC "-//W3C//DTD SVG 1.1//EN" "http://www.w3.org/Graphics/SVG/1.1/DTD/svg11.dtd">
<svg version="1.1" id="Capa_1" xmlns="http://www.w3.org/2000/svg" xmlns:xlink="http://www.w3.org/1999/xlink" x="0px" y="0px"
	 viewBox="0 0 449.51 449.51" style="enable-background:new 0 0 449.51 449.51;" xml:space="preserve">
<g>
	<path d="M350.523,216.825c0.18,0,0.363-0.012,0.546-0.037c2.189-0.299,3.721-2.316,3.422-4.505
		c-0.849-6.206-2.161-12.41-3.901-18.438c-0.613-2.122-2.828-3.345-4.953-2.734c-2.123,0.613-3.346,2.83-2.734,4.953
		c1.633,5.658,2.865,11.479,3.661,17.303C346.839,215.372,348.555,216.825,350.523,216.825z"/>
	<path d="M351.542,222.601c-2.208,0.058-3.952,1.895-3.894,4.104c0.869,33.081-11.864,65.598-34.934,89.216
		c-1.544,1.58-1.514,4.113,0.066,5.656c0.778,0.76,1.787,1.139,2.794,1.139c1.04,0,2.078-0.403,2.862-1.205
		c24.572-25.155,38.134-59.787,37.208-95.016C355.588,224.286,353.736,222.542,351.542,222.601z"/>
	<path d="M303.862,324.128c-7.014,5.885-14.741,11.011-22.967,15.235c-21.084,10.826-44.637,15.318-68.112,13.001
		c-22.871-2.261-44.584-10.819-62.795-24.75c-1.754-1.343-4.265-1.007-5.607,0.747c-1.342,1.754-1.008,4.265,0.747,5.607
		c19.393,14.836,42.516,23.95,66.868,26.357c4.285,0.424,8.569,0.634,12.845,0.634c20.681,0,41.1-4.925,59.708-14.479
		c8.757-4.497,16.985-9.955,24.456-16.224c1.692-1.42,1.913-3.943,0.493-5.635C308.078,322.929,305.554,322.708,303.862,324.128z"/>
	<path d="M129.463,307.696c-1.394-1.714-3.913-1.973-5.627-0.579c-1.714,1.394-1.973,3.914-0.579,5.627
		c3.243,3.987,6.759,7.82,10.451,11.393c0.777,0.751,1.78,1.125,2.781,1.125c1.046,0,2.09-0.408,2.875-1.218
		c1.536-1.588,1.495-4.12-0.093-5.656C135.807,315.034,132.507,311.437,129.463,307.696z"/>
	<path d="M88.488,211.188c0.226,0.039,0.45,0.057,0.672,0.057c1.916,0,3.609-1.381,3.939-3.333c0.301-1.781,0.641-3.572,1.011-5.324
		c0.456-2.161-0.927-4.283-3.089-4.739c-2.16-0.456-4.283,0.928-4.739,3.089c-0.392,1.856-0.751,3.754-1.07,5.64
		C84.843,208.756,86.31,210.82,88.488,211.188z"/>
	<path d="M92.215,193.232c0.393,0.121,0.79,0.179,1.181,0.179c1.708,0,3.291-1.104,3.821-2.821c1.216-3.94,2.628-7.863,4.196-11.66
		c7.083-17.148,17.999-33.006,31.565-45.86c1.604-1.52,1.672-4.051,0.153-5.655c-1.52-1.604-4.052-1.672-5.655-0.153
		c-14.378,13.623-25.947,30.433-33.457,48.613c-1.663,4.024-3.159,8.181-4.447,12.355C88.921,190.341,90.104,192.581,92.215,193.232
		z"/>
	<path d="M144.258,122.554c0.81,0,1.627-0.246,2.335-0.755c15.51-11.175,33.64-19.045,52.43-22.761
		c20.784-4.108,42.608-3.115,63.115,2.874c12.657,3.697,24.676,9.232,35.723,16.453c1.85,1.209,4.328,0.689,5.537-1.16
		c1.209-1.849,0.689-4.328-1.16-5.537c-11.707-7.652-24.444-13.518-37.857-17.436c-21.734-6.348-44.87-7.4-66.91-3.042
		c-19.909,3.936-39.12,12.276-55.555,24.117c-1.792,1.292-2.198,3.792-0.907,5.584C141.79,121.977,143.015,122.554,144.258,122.554z
		"/>
	<path d="M449.177,115.083c-0.843-1.935-3.044-2.883-5.028-2.164l-70.314,25.441c-8.641,3.125-17.684,4.71-26.878,4.71
		c-17.07,0-33.437-5.361-47.332-15.503c-21.604-15.761-48.23-24.441-74.974-24.441c-19.964,0-39.967,4.853-57.848,14.033
		c-42.921,22.038-69.338,65.721-68.943,114.003c0.217,26.73-12.67,51.626-34.474,66.597l-61.65,42.315
		c-1.74,1.194-2.253,3.535-1.171,5.347c1.081,1.813,3.385,2.473,5.262,1.509l116.025-59.572
		c20.813,37.412,59.916,60.486,102.998,60.486c18.8,0,36.871-4.384,53.709-13.029c27.987-14.37,48.704-38.781,58.335-68.737
		c9.221-28.684,7.22-59.159-5.582-86.266l116.024-59.573C449.214,119.274,450.02,117.018,449.177,115.083z M324.159,174.491
		c-0.944,0.484-1.656,1.324-1.981,2.334c-0.325,1.01-0.235,2.107,0.25,3.051c13.395,26.086,15.827,55.83,6.851,83.752
		s-28.287,50.676-54.373,64.069c-15.696,8.06-32.538,12.146-50.055,12.146c-41.408,0-78.87-22.863-97.768-59.668
		c-0.708-1.38-2.109-2.174-3.562-2.174c-0.615,0-1.239,0.143-1.824,0.442L58.055,311.12l9.86-6.768
		c23.999-16.478,38.185-43.863,37.946-73.257c-0.371-45.241,24.382-86.172,64.597-106.821c16.994-8.726,35.228-13.15,54.193-13.15
		c25.062,0,50.013,8.134,70.258,22.904c15.273,11.148,33.271,17.041,52.047,17.041c10.125,0,20.083-1.745,29.6-5.188l11.246-4.069
		L324.159,174.491z"/>
	<path d="M289.515,209.26c-2.139,0.552-3.426,2.733-2.874,4.873c2.254,8.735,2.625,17.692,1.104,26.623
		c-0.371,2.178,1.094,4.244,3.271,4.615c0.228,0.039,0.454,0.057,0.677,0.057c1.914,0,3.606-1.378,3.938-3.329
		c1.712-10.05,1.294-20.131-1.244-29.965C293.836,209.994,291.651,208.71,289.515,209.26z"/>
	<path d="M282.165,266.555c-1.792-1.29-4.292-0.881-5.583,0.912c-1.534,2.132-3.216,4.188-5,6.111
		c-1.503,1.62-1.408,4.15,0.211,5.653c0.77,0.715,1.746,1.068,2.72,1.068c1.074,0,2.145-0.43,2.933-1.279
		c2.009-2.166,3.903-4.48,5.63-6.882C284.366,270.345,283.958,267.845,282.165,266.555z"/>
	<path d="M253.894,286.963c-12.896,6.623-27.215,8.66-41.412,5.892c-2.167-0.424-4.269,0.993-4.691,3.161
		c-0.422,2.168,0.993,4.269,3.161,4.691c4.632,0.903,9.275,1.351,13.889,1.351c11.295,0,22.406-2.689,32.708-7.978
		c1.965-1.009,2.74-3.42,1.731-5.386C258.27,286.729,255.859,285.954,253.894,286.963z"/>
	<path d="M188.273,282.669c-3.315-2.289-6.424-4.905-9.242-7.775c-1.548-1.578-4.081-1.601-5.656-0.053
		c-1.577,1.547-1.601,4.08-0.053,5.656c3.172,3.232,6.673,6.178,10.405,8.755c0.694,0.479,1.485,0.709,2.27,0.709
		c1.27,0,2.519-0.604,3.295-1.728C190.547,286.416,190.091,283.925,188.273,282.669z"/>
	<path d="M281.565,168.446c0.153-1.326-0.364-2.641-1.381-3.506c-15.477-13.173-35.2-20.429-55.536-20.429
		c-13.634,0-26.738,3.179-38.95,9.449c-30.914,15.873-49.024,48.524-46.138,83.183c0.111,1.33,0.878,2.518,2.045,3.166
		c0.603,0.334,1.271,0.502,1.941,0.502c0.626,0,1.253-0.147,1.827-0.441l134.045-68.825
		C280.606,170.934,281.411,169.772,281.565,168.446z M147.262,230.406c-0.173-29.112,15.882-55.873,42.091-69.329
		c11.069-5.684,22.945-8.566,35.295-8.566c16.404,0,32.367,5.206,45.569,14.764L147.262,230.406z"/>
	<path d="M130.016,241.908c0.111,0,0.224-0.004,0.336-0.014c2.202-0.184,3.837-2.117,3.654-4.318
		c-0.808-9.704-0.057-19.443,2.234-28.948c0.518-2.147-0.804-4.308-2.952-4.826c-2.146-0.516-4.308,0.804-4.826,2.952
		c-2.491,10.335-3.308,20.929-2.429,31.486C126.208,240.329,127.957,241.908,130.016,241.908z"/>
	<path d="M135.455,197.148c0.501,0.208,1.02,0.306,1.531,0.306c1.569,0,3.058-0.929,3.696-2.469
		c8.242-19.879,23.339-36.248,42.511-46.091c22.664-11.636,48.364-13.305,72.364-4.699c2.077,0.746,4.37-0.335,5.115-2.415
		c0.746-2.079-0.335-4.37-2.415-5.115c-25.728-9.227-54.419-7.363-78.718,5.112c-20.855,10.708-37.279,28.517-46.246,50.144
		C132.446,193.962,133.415,196.302,135.455,197.148z"/>
	<path d="M266.196,148.789c6.352,3.233,12.316,7.207,17.727,11.813c0.753,0.641,1.674,0.954,2.591,0.954
		c1.132,0,2.257-0.478,3.048-1.407c1.432-1.682,1.229-4.207-0.453-5.639c-5.887-5.011-12.375-9.334-19.284-12.851
		c-1.971-1.003-4.377-0.218-5.379,1.75S264.228,147.787,266.196,148.789z"/>
	<path d="M321.311,161.079l-7.78,3.994c-1.965,1.009-2.741,3.42-1.732,5.385c0.709,1.381,2.11,2.174,3.562,2.174
		c0.615,0,1.239-0.143,1.823-0.442l7.78-3.994c1.965-1.009,2.741-3.42,1.732-5.385C325.687,160.845,323.275,160.071,321.311,161.079
		z"/>
	<path d="M299.804,180.621c0.615,0,1.239-0.143,1.824-0.443l3.59-1.843c1.965-1.009,2.74-3.42,1.731-5.385
		c-1.009-1.965-3.421-2.742-5.385-1.731l-3.59,1.843c-1.965,1.009-2.74,3.42-1.731,5.385
		C296.951,179.828,298.352,180.621,299.804,180.621z"/>
	<path d="M286.603,178.899l-88.562,45.472c-1.965,1.009-2.74,3.42-1.731,5.386c0.709,1.38,2.11,2.174,3.562,2.174
		c0.615,0,1.239-0.143,1.824-0.442l88.562-45.472c1.965-1.009,2.74-3.42,1.731-5.386
		C290.979,178.666,288.568,177.892,286.603,178.899z"/>
	<path d="M187.27,229.901l-43.683,22.429c-1.965,1.009-2.74,3.42-1.731,5.386c0.709,1.38,2.11,2.174,3.562,2.174
		c0.615,0,1.239-0.143,1.824-0.442l43.683-22.429c1.965-1.009,2.74-3.42,1.731-5.386
		C191.646,229.668,189.236,228.892,187.27,229.901z"/>
	<path d="M136.406,260.514c-1.009-1.964-3.419-2.74-5.386-1.731l-12.566,6.452c-1.965,1.009-2.74,3.42-1.731,5.386
		c0.709,1.38,2.11,2.174,3.562,2.174c0.615,0,1.239-0.143,1.824-0.442l12.566-6.452C136.64,264.891,137.415,262.479,136.406,260.514
		z"/>
	<path d="M104.706,301.784l-15.558,7.989c-1.965,1.009-2.74,3.42-1.731,5.385c0.708,1.38,2.109,2.174,3.562,2.174
		c0.615,0,1.239-0.143,1.824-0.443l15.558-7.989c1.965-1.009,2.74-3.42,1.731-5.385S106.67,300.774,104.706,301.784z"/>
	<path d="M75.982,316.532l-42.485,21.814c-1.965,1.009-2.74,3.42-1.731,5.386c0.709,1.38,2.11,2.174,3.562,2.174
		c0.615,0,1.239-0.143,1.824-0.442l42.485-21.814c1.965-1.009,2.74-3.42,1.731-5.386C80.358,316.298,77.947,315.523,75.982,316.532z
		"/>
	<path d="M415.908,150.498c0.615,0,1.239-0.143,1.824-0.443l11.369-5.838c1.965-1.009,2.74-3.42,1.731-5.385
		c-1.009-1.965-3.421-2.742-5.385-1.731l-11.369,5.838c-1.965,1.009-2.74,3.42-1.731,5.385
		C413.055,149.705,414.456,150.498,415.908,150.498z"/>
	<path d="M400.912,154.195c-1.01-1.965-3.42-2.74-5.386-1.731l-5.386,2.765c-1.965,1.009-2.74,3.42-1.731,5.386
		c0.709,1.38,2.11,2.174,3.562,2.174c0.615,0,1.239-0.143,1.824-0.442l5.386-2.765C401.145,158.571,401.921,156.16,400.912,154.195z
		"/>
	<path d="M379.37,160.759l-25.133,12.904c-1.965,1.009-2.74,3.42-1.731,5.386c0.709,1.38,2.11,2.174,3.562,2.174
		c0.615,0,1.239-0.143,1.824-0.442l25.133-12.904c1.965-1.009,2.74-3.42,1.731-5.386C383.747,160.525,381.336,159.75,379.37,160.759
		z"/>
	<path d="M309.694,181.915l-173.535,89.101c-1.965,1.009-2.74,3.42-1.731,5.386c0.709,1.38,2.11,2.174,3.562,2.174
		c0.615,0,1.239-0.143,1.824-0.442l10.794-5.542c15.237,26.592,43.309,42.954,74.212,42.956c0.001,0,0.003,0,0.004,0
		c13.646,0,26.762-3.182,38.984-9.458c20.317-10.432,35.356-28.151,42.347-49.895c6.581-20.469,5.281-42.195-3.597-61.622
		l10.789-5.54c1.965-1.009,2.74-3.42,1.731-5.386C314.07,181.681,311.661,180.907,309.694,181.915z M298.539,253.746
		c-6.336,19.709-19.968,35.771-38.385,45.226c-11.082,5.69-22.967,8.575-35.33,8.575c0,0-0.003,0-0.004,0
		c-27.891-0.001-53.243-14.693-67.097-38.609l137.716-70.71C303.345,215.75,304.465,235.312,298.539,253.746z"/>
	<path d="M35.659,269.738c11.124,0,20.174-9.05,20.174-20.174s-9.05-20.174-20.174-20.174c-11.124,0-20.173,9.05-20.173,20.174
		S24.535,269.738,35.659,269.738z M35.659,237.39c6.713,0,12.174,5.461,12.174,12.174s-5.461,12.174-12.174,12.174
		c-6.712,0-12.173-5.461-12.173-12.174S28.946,237.39,35.659,237.39z"/>
	<path d="M422.211,271.442c-13.799,0-25.026,11.227-25.026,25.026s11.227,25.026,25.026,25.026s25.026-11.227,25.026-25.026
		S436.011,271.442,422.211,271.442z M422.211,313.494c-9.388,0-17.026-7.638-17.026-17.026s7.638-17.026,17.026-17.026
		s17.026,7.638,17.026,17.026S431.6,313.494,422.211,313.494z"/>
</g>
<g>
</g>
<g>
</g>
<g>
</g>
<g>
</g>
<g>
</g>
<g>
</g>
<g>
</g>
<g>
</g>
<g>
</g>
<g>
</g>
<g>
</g>
<g>
</g>
<g>
</g>
<g>
</g>
<g>
</g>
</svg>
