<?xml version="1.0" encoding="iso-8859-1"?>
<!-- Generator: Adobe Illustrator 18.0.0, SVG Export Plug-In . SVG Version: 6.00 Build 0)  -->
<!DOCTYPE svg PUBLIC "-//W3C//DTD SVG 1.1//EN" "http://www.w3.org/Graphics/SVG/1.1/DTD/svg11.dtd">
<svg version="1.1" id="Capa_1" xmlns="http://www.w3.org/2000/svg" xmlns:xlink="http://www.w3.org/1999/xlink" x="0px" y="0px"
	 viewBox="0 0 315.829 315.829" style="enable-background:new 0 0 315.829 315.829;" xml:space="preserve">
<g>
	<path d="M136.385,81.332c-2.209,0-4,1.791-4,4s1.791,4,4,4c11.246,0,21.532,4.156,29.429,11h-35.448c-2.209,0-4,1.791-4,4
		s1.791,4,4,4h42.714c3.72,5.236,6.348,11.294,7.552,17.849H92.12c0.767-4.211,2.131-8.278,4.094-12.153
		c0.998-1.971,0.21-4.377-1.761-5.376c-1.968-0.997-4.377-0.21-5.376,1.761c-3.777,7.457-5.692,15.504-5.692,23.919v95.096
		c0,29.224,23.775,53,53,53s53-23.776,53-53v-95.096C189.385,105.108,165.609,81.332,136.385,81.332z M181.381,134.181
		c0,0.051,0.004,0.1,0.004,0.151v17.699h-59.02c-2.209,0-4,1.791-4,4s1.791,4,4,4h59.02v17.849h-90v-17.849h14c2.209,0,4-1.791,4-4
		s-1.791-4-4-4h-14v-17.699c0-0.051,0.004-0.1,0.004-0.151H181.381z M106.956,263.428h58.857c-7.896,6.844-18.183,11-29.429,11
		S114.853,270.272,106.956,263.428z M173.079,255.428H99.691c-3.72-5.236-6.348-11.294-7.552-17.849h74.227c2.209,0,4-1.791,4-4
		s-1.791-4-4-4H91.389c0-0.051-0.004-0.1-0.004-0.151v-17.699h58.48c2.209,0,4-1.791,4-4s-1.791-4-4-4h-58.48V185.88h90v17.849
		h-10.52c-2.209,0-4,1.791-4,4s1.791,4,4,4h10.52v17.699C181.385,239.109,178.301,248.079,173.079,255.428z"/>
	<path d="M136.385,64.332c-37.764,0-68.487,30.723-68.487,68.487v97.513c0,37.764,30.724,68.487,68.487,68.487c2.209,0,4-1.791,4-4
		s-1.791-4-4-4c-33.353,0-60.487-27.134-60.487-60.487v-97.513c0-33.353,27.135-60.487,60.487-60.487s60.487,27.134,60.487,60.487
		v97.513c0,2.209,1.791,4,4,4s4-1.791,4-4v-97.513C204.872,95.055,174.148,64.332,136.385,64.332z"/>
	<path d="M31.102,187.997c-8.822,0-15.999,7.177-15.999,16c0,8.822,7.177,15.999,15.999,15.999c2.209,0,4-1.791,4-4s-1.791-4-4-4
		c-4.411,0-7.999-3.588-7.999-7.999c0-4.411,3.588-8,7.999-8s7.999,3.588,7.999,8c0,2.209,1.791,4,4,4s4-1.791,4-4
		C47.101,195.174,39.924,187.997,31.102,187.997z"/>
	<path d="M43.248,91.507c0-2.209-1.791-4-4-4C22.018,87.507,8,73.489,8,56.258S22.018,25.01,39.248,25.01
		s31.248,14.018,31.248,31.248c0,2.209,1.791,4,4,4s4-1.791,4-4c0-21.642-17.606-39.248-39.248-39.248S0,34.617,0,56.258
		s17.606,39.249,39.248,39.249C41.457,95.507,43.248,93.716,43.248,91.507z"/>
	<path d="M39.248,29.391c-2.209,0-4,1.791-4,4s1.791,4,4,4c10.403,0,18.867,8.464,18.867,18.867
		c0,10.404-8.464,18.868-18.867,18.868s-18.867-8.464-18.867-18.868c0-2.209-1.791-4-4-4s-4,1.791-4,4
		c0,14.815,12.053,26.868,26.867,26.868s26.867-12.053,26.867-26.868C66.115,41.444,54.063,29.391,39.248,29.391z"/>
	<path d="M270.248,180.344c-25.134,0-45.582,20.448-45.582,45.582s20.448,45.582,45.582,45.582c2.209,0,4-1.791,4-4s-1.791-4-4-4
		c-20.723,0-37.582-16.859-37.582-37.582s16.859-37.582,37.582-37.582s37.581,16.859,37.581,37.582c0,2.209,1.791,4,4,4s4-1.791,4-4
		C315.829,200.792,295.382,180.344,270.248,180.344z"/>
	<path d="M270.248,193.164c-2.209,0-4,1.791-4,4s1.791,4,4,4c13.653,0,24.762,11.108,24.762,24.762
		c0,13.653-11.108,24.761-24.762,24.761s-24.762-11.108-24.762-24.761c0-2.209-1.791-4-4-4s-4,1.791-4,4
		c0,18.064,14.697,32.761,32.762,32.761s32.762-14.697,32.762-32.761C303.01,207.86,288.313,193.164,270.248,193.164z"/>
</g>
<g>
</g>
<g>
</g>
<g>
</g>
<g>
</g>
<g>
</g>
<g>
</g>
<g>
</g>
<g>
</g>
<g>
</g>
<g>
</g>
<g>
</g>
<g>
</g>
<g>
</g>
<g>
</g>
<g>
</g>
</svg>
