<?xml version="1.0" encoding="iso-8859-1"?>
<!-- Generator: Adobe Illustrator 18.0.0, SVG Export Plug-In . SVG Version: 6.00 Build 0)  -->
<!DOCTYPE svg PUBLIC "-//W3C//DTD SVG 1.1//EN" "http://www.w3.org/Graphics/SVG/1.1/DTD/svg11.dtd">
<svg version="1.1" id="Capa_1" xmlns="http://www.w3.org/2000/svg" xmlns:xlink="http://www.w3.org/1999/xlink" x="0px" y="0px"
	 viewBox="0 0 376.887 376.887" style="enable-background:new 0 0 376.887 376.887;" xml:space="preserve">
<g>
	<path d="M268.822,345.886c10.294,10.293,23.98,15.963,38.537,15.963c14.558,0,28.244-5.669,38.538-15.963
		c10.293-10.294,15.962-23.98,15.962-38.538c0-14.557-5.669-28.244-15.962-38.538c-7.011-7.011-15.598-11.871-24.961-14.261
		L186.439,2.119c-1.039-1.949-3.459-2.687-5.411-1.649c-1.95,1.039-2.688,3.461-1.649,5.411l131.66,247.104
		c-1.22-0.081-2.445-0.136-3.679-0.136c-4.792,0-9.486,0.626-13.999,1.818L167.329,81.051c-1.297-1.788-3.798-2.186-5.586-0.887
		c-1.788,1.297-2.185,3.799-0.887,5.586l124.619,171.67c-6.131,2.69-11.776,6.514-16.653,11.39
		c-4.877,4.877-8.701,10.521-11.39,16.653L85.761,160.845c-1.787-1.299-4.29-0.9-5.586,0.887c-1.298,1.788-0.901,4.289,0.887,5.586
		L254.677,293.35c-1.191,4.513-1.818,9.207-1.818,13.999c0,1.234,0.056,2.458,0.136,3.678L5.891,179.368
		c-1.949-1.038-4.373-0.301-5.411,1.649c-1.039,1.95-0.3,4.372,1.649,5.411l252.431,134.497
		C256.951,330.288,261.811,338.875,268.822,345.886z M260.86,307.349c0-12.42,4.836-24.098,13.62-32.88
		c8.782-8.783,20.459-13.62,32.88-13.62c2.802,0,5.562,0.259,8.263,0.741l7.299,13.699c0.72,1.351,2.103,2.12,3.534,2.12
		c0.634,0,1.278-0.152,1.877-0.471c1.95-1.039,2.688-3.461,1.649-5.411l-3.506-6.58c5.06,2.284,9.721,5.479,13.764,9.522
		c8.783,8.783,13.62,20.46,13.62,32.88c0,12.421-4.836,24.098-13.62,32.88c-8.782,8.783-20.459,13.62-32.88,13.62
		c-12.42,0-24.098-4.837-32.88-13.62c-4.043-4.043-7.238-8.704-9.522-13.764l6.58,3.506c0.599,0.319,1.243,0.471,1.877,0.471
		c1.43,0,2.814-0.77,3.534-2.12c1.039-1.95,0.3-4.372-1.649-5.411l-13.699-7.299C261.119,312.91,260.86,310.15,260.86,307.349z"/>
	<path d="M271.606,357.464c-2.779-1.983-5.397-4.197-7.782-6.582c-1.563-1.562-4.095-1.561-5.657,0.001
		c-1.562,1.563-1.561,4.095,0.001,5.657c2.696,2.695,5.654,5.197,8.791,7.435c0.705,0.503,1.516,0.745,2.32,0.745
		c1.249,0,2.479-0.583,3.259-1.677C273.821,361.246,273.404,358.748,271.606,357.464z"/>
	<path d="M371.337,279.981c-0.867-2.032-3.217-2.977-5.249-2.108c-2.032,0.867-2.976,3.217-2.108,5.249
		c7.495,17.562,6.152,38.774-3.505,55.358c-9.454,16.234-26.411,27.409-45.359,29.891c-10.808,1.418-21.823-0.094-31.856-4.369
		c-2.033-0.865-4.382,0.08-5.248,2.113c-0.866,2.032,0.08,4.382,2.113,5.248c8.583,3.656,17.803,5.524,27.076,5.524
		c2.985,0,5.977-0.194,8.954-0.583c21.389-2.802,40.542-15.437,51.233-33.798C378.457,323.497,379.933,300.123,371.337,279.981z"/>
	<path d="M356.265,269.937c0.788,1.026,1.975,1.563,3.175,1.563c0.85,0,1.707-0.27,2.434-0.828c1.752-1.346,2.082-3.857,0.736-5.609
		c-1.854-2.414-3.892-4.737-6.058-6.905c-1.562-1.564-4.095-1.564-5.657-0.003c-1.563,1.561-1.564,4.094-0.003,5.657
		C352.814,265.736,354.622,267.797,356.265,269.937z"/>
	<path d="M288.861,343.649c1.97,0.988,4.041,1.825,6.157,2.486c0.397,0.124,0.799,0.183,1.194,0.183
		c1.703,0,3.282-1.096,3.817-2.808c0.659-2.108-0.516-4.352-2.625-5.011c-1.704-0.533-3.372-1.206-4.956-2.001
		c-1.973-0.991-4.378-0.194-5.369,1.781C286.089,340.254,286.886,342.658,288.861,343.649z"/>
	<path d="M308.939,347.889c0.076,0,0.152-0.002,0.229-0.006c14.382-0.812,27.329-9.298,33.788-22.148
		c0.992-1.974,0.197-4.378-1.777-5.37c-1.974-0.994-4.378-0.197-5.37,1.777c-5.178,10.3-15.558,17.103-27.091,17.753
		c-2.206,0.125-3.893,2.013-3.769,4.219C305.069,346.244,306.832,347.889,308.939,347.889z"/>
</g>
<g>
</g>
<g>
</g>
<g>
</g>
<g>
</g>
<g>
</g>
<g>
</g>
<g>
</g>
<g>
</g>
<g>
</g>
<g>
</g>
<g>
</g>
<g>
</g>
<g>
</g>
<g>
</g>
<g>
</g>
</svg>
