<?xml version="1.0" encoding="iso-8859-1"?>
<!-- Generator: Adobe Illustrator 18.0.0, SVG Export Plug-In . SVG Version: 6.00 Build 0)  -->
<!DOCTYPE svg PUBLIC "-//W3C//DTD SVG 1.1//EN" "http://www.w3.org/Graphics/SVG/1.1/DTD/svg11.dtd">
<svg version="1.1" id="Capa_1" xmlns="http://www.w3.org/2000/svg" xmlns:xlink="http://www.w3.org/1999/xlink" x="0px" y="0px"
	 viewBox="0 0 305.625 305.625" style="enable-background:new 0 0 305.625 305.625;" xml:space="preserve">
<g>
	<path d="M257.392,164.423V109.35c2.261-2.233,3.666-5.329,3.666-8.75V78.325c0-13.76-11.011-24.989-24.683-25.359V24.339
		C236.375,10.918,225.458,0,212.037,0H109.223C87.182,0,69.25,17.932,69.25,39.974v12.992c-13.672,0.37-24.682,11.599-24.682,25.359
		V100.6c0,3.415,1.4,6.507,3.654,8.739v55.087c-16.771,9.108-28.183,26.883-28.183,47.275v89.924c0,2.209,1.791,4,4,4h257.549
		c2.209,0,4-1.791,4-4v-89.924C285.587,191.307,274.17,173.53,257.392,164.423z M277.587,228.538H261.29v-17.792h16.273
		C277.569,211.065,277.587,228.538,277.587,228.538z M249.392,160.908c-5.507-1.909-11.411-2.96-17.559-2.96h-16.09
		c10.545-12.414,17.505-27.962,19.226-45.042c0,0,14.209-0.021,14.423-0.032V160.908z M152.809,29.985
		c41.124,0,74.581,33.457,74.581,74.581s-33.457,74.581-74.581,74.581s-74.581-33.457-74.581-74.581S111.685,29.985,152.809,29.985z
		 M97.635,165.948c14.636,13.169,33.983,21.199,55.174,21.199s40.538-8.03,55.174-21.199h13.412
		c-17.101,19.839-42.186,31.475-68.583,31.475c-26.403,0-51.493-11.636-68.594-31.475H97.635z M80.196,173.462
		c17.642,19.217,42.386,30.795,68.616,31.868v92.294H80.196V173.462z M156.813,205.331c26.23-1.074,50.975-12.656,68.616-31.881
		v124.175h-68.616V205.331z M253.058,78.325V100.6c0,2.374-1.932,4.306-4.306,4.306h-13.371c0-0.114,0.009-0.226,0.009-0.34
		c0-16.005-4.591-30.95-12.504-43.618h12.796C245.263,60.948,253.058,68.743,253.058,78.325z M109.223,8h102.814
		c9.009,0,16.338,7.33,16.338,16.339v28.609h-11.174c-15.148-18.859-38.377-30.963-64.392-30.963S103.564,34.09,88.416,52.948
		H77.279L77.25,39.974C77.25,22.344,91.593,8,109.223,8z M52.567,78.325c0-9.582,7.795-17.376,17.376-17.376h12.789
		c-7.913,12.667-12.505,27.613-12.505,43.618c0,0.114,0.008,0.226,0.009,0.34H56.873c-2.374,0-4.305-1.932-4.305-4.306V78.325z
		 M56.221,112.873c0.217,0.011,14.427,0.033,14.427,0.033c1.721,17.08,8.68,32.628,19.226,45.042H73.78
		c-6.148,0-12.052,1.052-17.559,2.962V112.873z M28.038,211.701c0-24.697,19.668-44.874,44.158-45.713v131.637H28.038V211.701z
		 M233.429,297.625V165.988c21.452,0.74,39.198,16.309,43.273,36.758H257.29c-2.209,0-4,1.791-4,4v25.792c0,2.209,1.791,4,4,4
		h20.297v61.087H233.429z"/>
	<path d="M211.368,232.933h-40.314c-2.209,0-4,1.791-4,4v17.25c0,2.209,1.791,4,4,4h40.314c2.209,0,4-1.791,4-4v-17.25
		C215.368,234.724,213.577,232.933,211.368,232.933z M207.368,250.184h-32.314v-9.25h32.314V250.184z"/>
	<path d="M204.186,37.468h15.707c2.209,0,4-1.791,4-4v-7.042c0-7.737-6.294-14.031-14.03-14.031h-5.677c-2.209,0-4,1.791-4,4v17.073
		C200.186,35.677,201.977,37.468,204.186,37.468z M208.186,20.395h1.677c3.325,0,6.03,2.706,6.03,6.031v3.042h-7.707V20.395z"/>
	<path d="M152.809,170.957c35.773,0,64.877-28.368,64.877-63.236c0-16.66-6.757-30.184-19.541-39.108
		c-11.257-7.858-26.934-12.012-45.336-12.012c-18.403,0-34.08,4.154-45.336,12.012C94.689,77.537,87.932,91.06,87.932,107.72
		C87.932,142.589,117.036,170.957,152.809,170.957z M112.052,75.172c9.907-6.916,24-10.572,40.757-10.572
		c16.756,0,30.85,3.656,40.757,10.572c10.696,7.467,16.12,18.417,16.12,32.548c0,30.458-25.515,55.236-56.877,55.236
		s-56.877-24.779-56.877-55.236C95.932,93.59,101.355,82.639,112.052,75.172z"/>
	<path d="M163.168,78.863c0.831,0.119,1.658,0.255,2.483,0.408c0.247,0.046,0.493,0.068,0.736,0.068c1.89,0,3.57-1.344,3.928-3.269
		c0.404-2.172-1.029-4.26-3.201-4.664c-0.934-0.174-1.871-0.327-2.811-0.462c-2.191-0.315-4.214,1.205-4.527,3.392
		C159.463,76.522,160.981,78.549,163.168,78.863z"/>
	<path d="M178.31,83.415c13.453,5.916,16.279,18.033,16.281,27.156c0,2.209,1.791,3.999,4,3.999h0.001c2.209,0,4-1.792,3.999-4.001
		c-0.003-16.262-7.483-28.506-21.061-34.478c-2.022-0.89-4.382,0.029-5.272,2.051C175.369,80.165,176.288,82.525,178.31,83.415z"/>
</g>
<g>
</g>
<g>
</g>
<g>
</g>
<g>
</g>
<g>
</g>
<g>
</g>
<g>
</g>
<g>
</g>
<g>
</g>
<g>
</g>
<g>
</g>
<g>
</g>
<g>
</g>
<g>
</g>
<g>
</g>
</svg>
