<?xml version="1.0" encoding="iso-8859-1"?>
<!-- Generator: Adobe Illustrator 18.0.0, SVG Export Plug-In . SVG Version: 6.00 Build 0)  -->
<!DOCTYPE svg PUBLIC "-//W3C//DTD SVG 1.1//EN" "http://www.w3.org/Graphics/SVG/1.1/DTD/svg11.dtd">
<svg version="1.1" id="Capa_1" xmlns="http://www.w3.org/2000/svg" xmlns:xlink="http://www.w3.org/1999/xlink" x="0px" y="0px"
	 viewBox="0 0 341.797 341.797" style="enable-background:new 0 0 341.797 341.797;" xml:space="preserve">
<g>
	<path d="M303.297,109.149C303.297,48.964,243.903,0,170.899,0C97.894,0,38.501,48.964,38.501,109.149
		c0,15.659,3.933,30.775,11.688,44.927c6.589,12.025,8.033,26.471,4.075,40.709c-4.999,11.492-3.534,24.133,4.037,34.729
		l61.416,85.951c11.958,16.735,30.613,26.333,51.182,26.333c20.567,0,39.223-9.598,51.181-26.333l61.417-85.951
		c7.57-10.595,9.035-23.236,4.036-34.728c-3.957-14.239-2.513-28.685,4.075-40.708C299.364,139.924,303.297,124.808,303.297,109.149
		z M199.666,195.736c0.253,3.267,0.948,6.449,2.022,9.499c-1.044-0.158-2.095-0.264-3.167-0.264c-0.735,0-1.462,0.04-2.183,0.121
		C196.956,202.523,197.987,199.27,199.666,195.736z M212.183,208.62c-3.022-4.713-4.633-10.156-4.633-15.832
		c0-3.771,0.707-7.437,2.085-10.911c6.75-6.485,15.58-11.129,26.426-13.841c4.84-1.21,9.364-1.858,13.474-1.944
		c10.341,4.841,16.989,15.22,16.989,26.696c0,6.444-2.043,12.528-5.889,17.638c-2.769,1.956-5.881,3.42-9.343,4.043
		c-4.084,0.735-8.04,1.108-11.76,1.108c-11.29,0-18.993-3.339-25.789-6.286C213.219,209.066,212.701,208.842,212.183,208.62z
		 M267.402,170.832c7.354,5.13,9.529,12.913,10.068,15.519c-0.467,1.253-1.449,3.716-2.951,6.686
		c0.001-0.083,0.005-0.165,0.005-0.248C274.523,184.726,271.927,177.095,267.402,170.832z M284.593,150.232
		c-3.329,6.076-5.522,12.673-6.557,19.535c-5.447-6.404-14.206-11.693-27.566-11.693c-5.007,0-10.508,0.741-16.349,2.201
		c-14.217,3.554-24.022,9.897-30.762,16.599l-0.019-0.018c-0.053,0.055-0.093,0.12-0.143,0.178
		c-4.194,4.204-7.191,8.541-9.309,12.414c-6.019,11.001-6.461,20.645-6.477,21.05c-0.055,1.401,0.628,2.728,1.799,3.499
		c1.17,0.771,2.66,0.872,3.924,0.267c1.822-0.871,3.584-1.294,5.388-1.294c3.593,0,7.32,1.616,12.039,3.662
		c7.138,3.094,16.021,6.946,28.971,6.946c4.193,0,8.627-0.416,13.178-1.235c13.809-2.485,22.82-14.409,27.819-23.537
		c3.487,8.733,2.256,17.944-3.541,26.056l-61.417,85.951c-10.437,14.607-26.719,22.984-44.671,22.984
		c-17.953,0-34.235-8.377-44.672-22.984l-61.416-85.951c-5.852-8.188-7.051-17.493-3.443-26.299
		c4.972,9.158,14.023,21.272,27.953,23.78c4.551,0.819,8.984,1.235,13.178,1.235c0.001,0,0,0,0.001,0
		c12.947,0,21.832-3.852,28.97-6.946c4.719-2.046,8.446-3.662,12.039-3.662c1.804,0,3.565,0.423,5.388,1.294
		c1.264,0.605,2.754,0.504,3.924-0.267c1.171-0.771,1.854-2.098,1.799-3.499c-0.016-0.405-0.458-10.048-6.477-21.05
		c-5.526-10.102-16.992-23.364-40.233-29.174c-5.841-1.46-11.342-2.201-16.349-2.201c-13.525,0-22.332,5.422-27.764,11.932
		c-1.02-6.948-3.223-13.628-6.592-19.776c-7.103-12.961-10.704-26.783-10.704-41.083C46.501,53.375,102.305,8,170.899,8
		c68.593,0,124.397,45.375,124.397,101.149C295.297,123.449,291.695,137.271,284.593,150.232z M145.729,205.096
		c-0.733-0.083-1.473-0.125-2.221-0.125c-1.159,0-2.295,0.117-3.421,0.3c1.15-3.248,1.854-6.645,2.07-10.126
		C144.002,198.902,145.092,202.376,145.729,205.096z M131.972,181.45c1.504,3.567,2.275,7.376,2.275,11.338
		c0,5.712-1.646,11.205-4.733,15.975c-0.408,0.176-0.815,0.35-1.226,0.529c-6.796,2.946-14.499,6.286-25.789,6.286
		c-3.72,0-7.676-0.373-11.76-1.108c-3.703-0.667-7.003-2.309-9.918-4.484c-3.623-5.04-5.548-10.971-5.548-17.198
		c0-11.479,6.651-21.862,16.997-26.7c4.17,0.067,8.77,0.717,13.699,1.949C117.692,170.968,126.031,175.926,131.972,181.45z
		 M67.282,192.55c-1.37-2.752-2.277-5.018-2.721-6.201c0.533-2.57,2.633-10.052,9.588-15.171
		C69.821,177.313,67.332,184.723,67.282,192.55z"/>
	<path d="M148.888,293.491c-2.068-0.777-4.374,0.274-5.149,2.342c-0.774,2.069,0.273,4.375,2.343,5.149
		c7.687,2.88,17.439,4.467,27.462,4.467c10.02,0,19.768-1.586,27.447-4.467c2.069-0.776,3.117-3.082,2.341-5.15
		c-0.776-2.067-3.082-3.12-5.149-2.34c-6.805,2.552-15.555,3.958-24.639,3.958C164.456,297.449,155.7,296.043,148.888,293.491z"/>
	<path d="M150.819,262.566c2.209,0,4-1.791,4-4c0-4.871,2.23-7.977,3.397-7.977s3.398,3.106,3.398,7.977s-2.231,7.978-3.398,7.978
		c-2.209,0-4,1.791-4,4s1.791,4,4,4c6.392,0,11.398-7.018,11.398-15.978c0-8.959-5.007-15.977-11.398-15.977
		c-6.391,0-11.397,7.018-11.397,15.977C146.819,260.775,148.61,262.566,150.819,262.566z"/>
	<path d="M172.183,258.566c0,8.959,5.007,15.978,11.397,15.978c2.209,0,4-1.791,4-4s-1.791-4-4-4c-1.167,0-3.397-3.107-3.397-7.978
		s2.23-7.977,3.397-7.977s3.397,3.106,3.397,7.977c0,2.209,1.791,4,4,4s4-1.791,4-4c0-8.959-5.007-15.977-11.397-15.977
		S172.183,249.607,172.183,258.566z"/>
	<path d="M257.029,46.917c-1.688-1.427-4.21-1.215-5.638,0.471c-1.426,1.687-1.215,4.211,0.472,5.637
		c11.253,9.517,19.754,22.531,23.937,36.646c4.337,14.637,3.979,29.604-1.037,43.281c-0.76,2.074,0.305,4.372,2.379,5.132
		c0.454,0.167,0.919,0.246,1.377,0.246c1.63,0,3.161-1.004,3.756-2.624C293.563,104.916,283.419,69.234,257.029,46.917z"/>
	<path d="M244.231,36.799c-3.734-2.565-6.875-4.48-9.884-6.027c-1.963-1.012-4.377-0.238-5.387,1.728
		c-1.01,1.965-0.236,4.376,1.729,5.386c2.7,1.389,5.564,3.138,9.013,5.507c0.692,0.475,1.48,0.703,2.261,0.703
		c1.273,0,2.525-0.607,3.301-1.736C246.514,40.54,246.052,38.05,244.231,36.799z"/>
</g>
<g>
</g>
<g>
</g>
<g>
</g>
<g>
</g>
<g>
</g>
<g>
</g>
<g>
</g>
<g>
</g>
<g>
</g>
<g>
</g>
<g>
</g>
<g>
</g>
<g>
</g>
<g>
</g>
<g>
</g>
</svg>
