<?xml version="1.0" encoding="iso-8859-1"?>
<!-- Generator: Adobe Illustrator 18.0.0, SVG Export Plug-In . SVG Version: 6.00 Build 0)  -->
<!DOCTYPE svg PUBLIC "-//W3C//DTD SVG 1.1//EN" "http://www.w3.org/Graphics/SVG/1.1/DTD/svg11.dtd">
<svg version="1.1" id="Capa_1" xmlns="http://www.w3.org/2000/svg" xmlns:xlink="http://www.w3.org/1999/xlink" x="0px" y="0px"
	 viewBox="0 0 312.103 312.103" style="enable-background:new 0 0 312.103 312.103;" xml:space="preserve">
<g>
	<path d="M176.018,19.966c-75.038,0-136.085,61.047-136.085,136.085s61.048,136.085,136.085,136.085s136.085-61.048,136.085-136.085
		S251.055,19.966,176.018,19.966z M300.279,124.962l-22.499-1.282c-1.66-0.094-3.2,0.845-3.878,2.359
		c-0.678,1.515-0.351,3.291,0.824,4.464l7.51,7.504c1.412,1.412,2.143,3.288,2.058,5.283c-0.086,1.996-0.976,3.804-2.505,5.09
		c-3.653,3.072-5.787,4.683-6.991,5.52c-2.502-2.6-7.928-9.22-15.849-19.869l2.317-7.889c1.165-3.967-0.649-8.237-4.313-10.152
		l-31.488-16.458c-0.963-0.503-2.088-0.593-3.117-0.25l-16.802,5.597c-0.129,0.042-0.271,0.019-0.381-0.066l-7.203-5.6
		c-0.047-0.037-0.173-0.135-0.158-0.354c0.009-0.121,0.055-0.199,0.103-0.25l23.65-9.68c1.453-0.595,2.423-1.983,2.482-3.552
		s-0.805-3.026-2.208-3.728l-16.519-8.259l9.453-12.493c3.28-4.333,8.5-6.826,13.911-6.678l8.011,0.224l-3.093,2.857
		c-1.586,1.465-1.723,3.924-0.31,5.557l10.305,11.899c0.718,0.829,1.745,1.327,2.84,1.377c1.098,0.053,2.164-0.352,2.955-1.111
		l13.522-12.987C280.913,78.69,294.141,100.435,300.279,124.962z M256.874,174.316c0.429,1.609,1.81,2.784,3.467,2.949l6.865,0.687
		l0.089,0.135l-20.902,65.844c-0.287,0.904-1.117,1.512-2.066,1.512h-9.432c-1.038,0-1.933-0.739-2.128-1.758l-10.938-56.875
		c-0.319-1.66-1.648-2.94-3.319-3.198l-20.329-3.131l-14.311-32.585l28.614-13.285l35.524,6.459L256.874,174.316z M250.437,51.863
		c2.189,1.568,4.324,3.205,6.408,4.904l-9.963,9.569l-5.012-5.788C241.869,60.549,250.236,52.536,250.437,51.863z M140.058,35.219
		c0.071,0.66,0.031,1.88-0.928,2.976c-0.763,0.871-1.347,1.883-1.885,2.908l-13.581,25.871c-0.788,1.501-2.323,2.461-4.017,2.513
		l-8.33,0.257c-2.495,0.077-5.043,0.729-7.575,1.937c-0.93,0.444-2.034,0.494-3.027,0.141c-0.696-0.249-1.648-0.803-2.225-2.028
		c0,0-5.213-11.354-5.192-11.451c13.297-11.274,28.915-19.887,46.027-25.013C139.718,33.877,139.983,34.515,140.058,35.219z
		 M70.703,83.239l-0.395,8.635c-0.281,6.139,4.289,11.415,10.405,12.012c3.309,0.323,6.328,2.051,8.285,4.741
		c1.842,2.532,2.499,5.559,1.849,8.524c-0.361,1.649-1.013,3.209-1.938,4.637l-11.877,18.334
		c-4.927,7.604-6.923,16.787-5.766,25.668l-23.317-8.529c-0.004-0.404-0.015-0.806-0.015-1.211
		C47.932,129.023,56.355,103.928,70.703,83.239z M176.018,284.136c-67.308,0-122.657-52.187-127.709-118.223l26.988,9.871
		c0,0,21.17,31.134,23.359,35.329c1.415,2.711,11.932,28.97,11.932,28.97c0.504,1.238,0.883,2.521,1.165,3.828
		c1.456,6.742,7.777,25.58,33.543,32.021c0.322,0.081,0.648,0.12,0.97,0.12c1.61,0,3.14-0.974,3.761-2.626
		c0.444-1.182,0.225-2.511-0.427-3.592c-18.101-30,4.417-52.269,5.378-53.197c0.828-0.791,1.278-1.898,1.235-3.042l-1.19-32.129
		c-0.077-2.088-1.749-3.765-3.837-3.849l-28.746-1.15l-19.364-11.391c-0.86-0.506-1.877-0.673-2.853-0.466l-20.188,4.25
		c-2.283-8.217-0.95-17.196,3.71-24.389l11.877-18.334c1.449-2.237,2.472-4.685,3.039-7.276c1.128-5.153-0.036-10.599-3.195-14.941
		c-3.294-4.528-8.375-7.44-13.944-7.993c-1.876-0.186-3.312-1.741-3.226-3.624l0.918-20.039c2.462-2.841,5.053-5.568,7.752-8.182
		l4.286,9.117c1.364,2.898,3.771,5.084,6.775,6.157c1.301,0.464,2.669,0.694,4.034,0.694c1.766,0,3.526-0.386,5.126-1.149
		c1.525-0.728,2.999-1.118,4.378-1.161l8.33-0.257c4.577-0.141,8.724-2.736,10.852-6.791l13.39-25.507
		c0.383-0.73,0.801-1.445,1.318-2.087c1.974-2.445,2.898-5.55,2.557-8.732c-0.117-1.097-0.393-2.145-0.783-3.138
		c9.256-2.134,18.893-3.263,28.788-3.263c24.323,0,47.084,6.816,66.474,18.637L228.9,46.223c-8.01-0.212-15.678,3.458-20.514,9.848
		l-12.284,16.233c-0.431,0.569-0.751,1.229-0.847,1.937c-0.241,1.773,0.678,3.404,2.174,4.153l12.942,6.471
		c0,0-16.164,6.628-16.313,6.712c-2.958,1.681-4.652,4.992-4.175,8.494c0.305,2.239,1.59,4.231,3.374,5.618l6.997,5.44
		c2.224,1.731,5.148,2.233,7.821,1.34l15.189-5.06l29.983,15.671c0.293,0.153,0.436,0.491,0.343,0.808c0,0-2.673,9.233-2.716,9.569
		l-38.208-6.947c-0.812-0.148-1.65-0.04-2.399,0.307l-33.319,15.469c-1.974,0.917-2.853,3.244-1.978,5.236l16.769,38.183
		c0.55,1.252,1.702,2.137,3.054,2.345l19.712,3.036l10.405,54.107c0.919,4.778,5.119,8.247,9.985,8.247h9.432
		c4.45,0,8.344-2.85,9.691-7.091l20.902-65.844c0.856-2.696,0.263-5.63-1.642-7.811c-1.398-1.601-3.423-2.519-5.538-2.731
		l-3.849-0.385l-6.475-24.283c13.195,17.299,14.967,17.315,16.972,17.315c1.756,0,3.579-0.564,12.55-8.109
		c3.219-2.707,5.168-6.668,5.349-10.87c0.181-4.2-1.421-8.313-4.396-11.285l-0.084-0.084l14.228,0.811
		c1.356,7.456,2.068,15.134,2.068,22.975C304.103,226.677,246.644,284.136,176.018,284.136z M138.247,264.96
		c-13.574-6.561-17.636-18.63-18.792-23.374c-0.289-1.185-1.596-4.859-1.596-4.859l-9.814-24.089
		c-0.662-1.804-2.995-6.804-4.906-9.513l-18.096-27.144l15.312-3.224l18.892,11.113c0.569,0.334,1.211,0.523,1.87,0.55l26.048,1.042
		l0.992,26.77C143.38,217.623,127.61,238.225,138.247,264.96z"/>
	<path d="M47.267,43.618c0-13.031-10.602-23.633-23.633-23.633S0,30.587,0,43.618s10.602,23.633,23.633,23.633
		S47.267,56.649,47.267,43.618z M23.633,59.251C15.013,59.251,8,52.238,8,43.618s7.013-15.633,15.633-15.633
		s15.633,7.013,15.633,15.633S32.253,59.251,23.633,59.251z"/>
</g>
<g>
</g>
<g>
</g>
<g>
</g>
<g>
</g>
<g>
</g>
<g>
</g>
<g>
</g>
<g>
</g>
<g>
</g>
<g>
</g>
<g>
</g>
<g>
</g>
<g>
</g>
<g>
</g>
<g>
</g>
</svg>
