<?xml version="1.0" encoding="iso-8859-1"?>
<!-- Generator: Adobe Illustrator 18.0.0, SVG Export Plug-In . SVG Version: 6.00 Build 0)  -->
<!DOCTYPE svg PUBLIC "-//W3C//DTD SVG 1.1//EN" "http://www.w3.org/Graphics/SVG/1.1/DTD/svg11.dtd">
<svg version="1.1" id="Capa_1" xmlns="http://www.w3.org/2000/svg" xmlns:xlink="http://www.w3.org/1999/xlink" x="0px" y="0px"
	 viewBox="0 0 399.755 399.755" style="enable-background:new 0 0 399.755 399.755;" xml:space="preserve">
<g>
	<path d="M199.881,184.183c11.855,0,21.5-9.645,21.5-21.5s-9.645-21.5-21.5-21.5s-21.5,9.645-21.5,21.5
		S188.026,184.183,199.881,184.183z M199.881,149.183c7.444,0,13.5,6.056,13.5,13.5s-6.056,13.5-13.5,13.5s-13.5-6.056-13.5-13.5
		S192.437,149.183,199.881,149.183z"/>
	<path d="M169.582,356.755c0,16.707,13.592,30.299,30.299,30.299s30.299-13.592,30.299-30.299s-13.592-30.299-30.299-30.299
		S169.582,340.048,169.582,356.755z M222.18,356.755c0,12.295-10.003,22.299-22.299,22.299s-22.299-10.003-22.299-22.299
		s10.003-22.299,22.299-22.299S222.18,344.46,222.18,356.755z"/>
	<path d="M305.158,364.228c-1.656-55.276-46.105-99.981-101.277-102.054v-37.937c7.634-1.741,13.422-8.34,13.943-16.365
		c12.399-4.938,22.305-14.852,27.229-27.248c8.03-0.515,14.636-6.303,16.378-13.941h19.577c1.826,8.004,8.988,14,17.536,14
		c9.925,0,18-8.075,18-18s-8.075-18-18-18c-8.549,0-15.71,5.996-17.536,14h-19.577c-1.744-7.645-8.361-13.438-16.402-13.943
		c-4.931-12.372-14.826-22.261-27.202-27.183c-0.494-8.053-6.292-14.683-13.946-16.428V72.333h12.467
		c1.533,6.713,6.82,12,13.533,13.532v11.468c0,2.209,1.791,4,4,4s4-1.791,4-4V85.867c6.715-1.531,12.005-6.819,13.539-13.534h8.691
		c1.63,4.373,5.836,7.501,10.77,7.501c6.342,0,11.502-5.16,11.502-11.501c0-6.342-5.16-11.502-11.502-11.502
		c-4.934,0-9.14,3.129-10.77,7.502h-8.69c-1.531-6.718-6.823-12.009-13.54-13.541V39.333c0-2.209-1.791-4-4-4s-4,1.791-4,4v11.461
		c-6.715,1.533-12.004,6.823-13.534,13.539h-12.466V35.536c8.003-1.826,14-8.988,14-17.536c0-9.925-8.075-18-18-18s-18,8.075-18,18
		c0,8.549,5.997,15.711,14,17.536v28.797h-12.46c-1.531-6.718-6.823-12.009-13.54-13.541V39.333c0-2.209-1.791-4-4-4s-4,1.791-4,4
		v11.461c-6.715,1.533-12.004,6.823-13.534,13.539h-8.696c-1.63-4.373-5.836-7.502-10.77-7.502c-6.342,0-11.502,5.16-11.502,11.502
		c0,6.342,5.16,11.501,11.502,11.501c4.934,0,9.14-3.129,10.77-7.501h8.697c1.533,6.713,6.82,12,13.533,13.532v11.468
		c0,2.209,1.791,4,4,4s4-1.791,4-4V85.867c6.715-1.531,12.005-6.819,13.539-13.534h12.461v28.797
		c-7.653,1.747-13.449,8.377-13.942,16.43c-12.379,4.922-22.275,14.809-27.206,27.18c-8.043,0.503-14.663,6.296-16.408,13.943
		h-19.578c-1.826-8.004-8.988-14-17.536-14c-9.925,0-18,8.075-18,18s8.075,18,18,18c8.549,0,15.71-5.996,17.536-14h19.578
		c1.743,7.64,8.352,13.429,16.385,13.942c4.926,12.402,14.833,22.315,27.233,27.247c0.52,8.024,6.306,14.623,13.939,16.365v37.938
		c-55.175,2.07-99.628,46.776-101.284,102.054c-7.985,1.839-13.964,8.991-13.964,17.527c0,9.925,8.075,18,18,18s18-8.075,18-18
		c0-8.56-6.011-15.73-14.03-17.544c1.659-50.859,42.521-91.971,93.278-94.032v43.769c-21.841,2.025-39,20.446-39,42.807
		c0,23.71,19.29,43,43,43s43-19.29,43-43c0-22.361-17.159-40.782-39-42.807V270.18c50.755,2.064,91.613,43.175,93.271,94.031
		c-8.019,1.814-14.03,8.984-14.03,17.544c0,9.925,8.075,18,18,18s18-8.075,18-18C319.122,373.219,313.144,366.067,305.158,364.228z
		 M270.881,64.832c1.931,0,3.502,1.571,3.502,3.502c0,1.931-1.571,3.501-3.502,3.501s-3.502-1.571-3.502-3.501
		C267.379,66.402,268.95,64.832,270.881,64.832z M233.884,58.33c5.514,0,10,4.486,10,10s-4.486,10-10,10s-10-4.486-10-10
		S228.37,58.33,233.884,58.33z M189.881,18c0-5.514,4.486-10,10-10s10,4.486,10,10s-4.486,10-10,10S189.881,23.514,189.881,18z
		 M128.881,71.835c-1.931,0-3.502-1.571-3.502-3.501c0-1.931,1.571-3.502,3.502-3.502s3.502,1.571,3.502,3.502
		C132.383,70.264,130.812,71.835,128.881,71.835z M165.884,78.33c-5.514,0-10-4.486-10-10s4.486-10,10-10s10,4.486,10,10
		S171.398,78.33,165.884,78.33z M101.211,172.683c-5.514,0-10-4.486-10-10s4.486-10,10-10s10,4.486,10,10
		S106.725,172.683,101.211,172.683z M108.633,381.755c0,5.514-4.486,10-10,10s-10-4.486-10-10s4.486-10,10-10
		S108.633,376.241,108.633,381.755z M298.544,152.683c5.514,0,10,4.486,10,10s-4.486,10-10,10s-10-4.486-10-10
		S293.031,152.683,298.544,152.683z M253.895,162.683c0,5.514-4.486,10-10,10s-10-4.486-10-10s4.486-10,10-10
		S253.895,157.169,253.895,162.683z M199.883,108.667c5.514,0,10,4.486,10,10s-4.486,10-10,10s-10-4.486-10-10
		S194.369,108.667,199.883,108.667z M145.862,162.683c0-5.514,4.486-10,10-10s10,4.486,10,10s-4.486,10-10,10
		S145.862,168.197,145.862,162.683z M162.833,179.277c6.473-2.73,11.028-9.139,11.028-16.594c0-7.446-4.545-13.85-11.006-16.585
		c4.073-9.058,11.384-16.358,20.449-20.422c2.739,6.453,9.139,10.99,16.578,10.99c7.44,0,13.84-4.538,16.579-10.991
		c9.062,4.063,16.371,11.364,20.444,20.421c-6.464,2.734-11.011,9.139-11.011,16.587c0,7.456,4.558,13.867,11.033,16.595
		c-4.066,9.07-11.375,16.386-20.446,20.465c-2.726-6.48-9.139-11.043-16.599-11.043s-13.873,4.563-16.599,11.043
		C174.212,195.669,166.901,188.352,162.833,179.277z M189.883,206.7c0-5.514,4.486-10,10-10s10,4.486,10,10s-4.486,10-10,10
		S189.883,212.214,189.883,206.7z M234.881,356.755c0,19.299-15.701,35-35,35s-35-15.701-35-35s15.701-35,35-35
		S234.881,337.457,234.881,356.755z M301.122,391.755c-5.514,0-10-4.486-10-10s4.486-10,10-10s10,4.486,10,10
		S306.636,391.755,301.122,391.755z"/>
</g>
<g>
</g>
<g>
</g>
<g>
</g>
<g>
</g>
<g>
</g>
<g>
</g>
<g>
</g>
<g>
</g>
<g>
</g>
<g>
</g>
<g>
</g>
<g>
</g>
<g>
</g>
<g>
</g>
<g>
</g>
</svg>
