<?xml version="1.0" encoding="iso-8859-1"?>
<!-- Generator: Adobe Illustrator 18.0.0, SVG Export Plug-In . SVG Version: 6.00 Build 0)  -->
<!DOCTYPE svg PUBLIC "-//W3C//DTD SVG 1.1//EN" "http://www.w3.org/Graphics/SVG/1.1/DTD/svg11.dtd">
<svg version="1.1" id="Capa_1" xmlns="http://www.w3.org/2000/svg" xmlns:xlink="http://www.w3.org/1999/xlink" x="0px" y="0px"
	 viewBox="0 0 454.04 454.04" style="enable-background:new 0 0 454.04 454.04;" xml:space="preserve">
<path d="M452.869,160.233l-25.236-25.236c-1.562-1.562-4.095-1.562-5.657,0l0,0c-1.562,1.562-1.562,4.095,0,5.657l8.843,8.843
	l-5.165,5.165l-8.843-8.843c-1.562-1.562-4.095-1.562-5.657,0v0c-1.562,1.562-1.562,4.095,0,5.657l8.843,8.843l-5.165,5.165
	l-8.843-8.843c-1.562-1.562-4.095-1.562-5.657,0l0,0c-1.562,1.562-1.562,4.095,0,5.657l8.843,8.843l-5.165,5.165l-8.843-8.843
	c-1.562-1.562-4.095-1.562-5.657,0l0,0c-1.562,1.562-1.562,4.095,0,5.657l8.843,8.843l-5.165,5.165l-8.843-8.843
	c-1.562-1.562-4.095-1.562-5.657,0l0,0c-1.562,1.562-1.562,4.095,0,5.657l8.843,8.843l-5.165,5.165l-8.843-8.843
	c-1.562-1.562-4.095-1.562-5.657,0l0,0c-1.562,1.562-1.562,4.095,0,5.657l8.843,8.843l-5.165,5.165l-8.843-8.843
	c-1.562-1.562-4.095-1.562-5.657,0l0,0c-1.562,1.562-1.562,4.095,0,5.657l8.842,8.842l-5.165,5.165l-8.842-8.842
	c-1.562-1.562-4.095-1.562-5.657,0l0,0c-1.562,1.562-1.562,4.095,0,5.657l8.842,8.842l-5.165,5.165l-8.842-8.843
	c-1.562-1.562-4.095-1.562-5.657,0l0,0c-1.562,1.562-1.562,4.095,0,5.657l8.842,8.843l-61.561,61.561l-41.115-33.581V145.609
	c0-21.993-3.594-43.703-10.709-64.607c-0.547-1.625-2.084-2.675-3.799-2.678h-0.006c-1.701,0-3.229,1.074-3.777,2.684
	c-7.106,20.849-10.708,42.584-10.708,64.602v118.358l-41.215,33.663l-61.561-61.561l8.842-8.843c1.562-1.562,1.562-4.095,0-5.657
	l0,0c-1.562-1.562-4.095-1.562-5.657,0l-8.842,8.842l-5.165-5.165l8.842-8.842c1.562-1.562,1.562-4.095,0-5.657v0
	c-1.562-1.562-4.095-1.562-5.657,0l-8.842,8.842l-5.165-5.165l8.843-8.843c1.562-1.562,1.562-4.095,0-5.657l0,0
	c-1.562-1.562-4.095-1.562-5.657,0l-8.843,8.843l-5.165-5.165l8.843-8.843c1.562-1.562,1.562-4.095,0-5.657l0,0
	c-1.562-1.562-4.095-1.562-5.657,0l-8.843,8.843l-5.165-5.165l8.843-8.843c1.562-1.562,1.562-4.095,0-5.657v0
	c-1.562-1.562-4.095-1.562-5.657,0l-8.843,8.843l-5.165-5.165l8.843-8.843c1.562-1.562,1.562-4.095,0-5.657l0,0
	c-1.562-1.562-4.095-1.562-5.657,0l-8.843,8.843l-5.165-5.165l8.843-8.843c1.562-1.562,1.562-4.095,0-5.657l0,0
	c-1.562-1.562-4.095-1.562-5.657,0l-8.843,8.843l-5.165-5.165l8.843-8.843c1.562-1.562,1.562-4.095,0-5.657l0,0
	c-1.562-1.562-4.095-1.562-5.657,0l-8.843,8.843l-5.165-5.165l8.843-8.843c1.562-1.562,1.562-4.095,0-5.657l0,0
	c-1.562-1.562-4.095-1.562-5.657,0L1.171,160.233C0.421,160.983,0,162,0,163.061s0.421,2.078,1.171,2.829l108.673,108.673
	l27.476,63.363c0.322,0.743,0.863,1.371,1.55,1.8l25.078,15.673v16.316c0,2.209,1.791,4,4,4h118.145c2.209,0,4-1.791,4-4V355.4
	l25.078-15.673c0.687-0.429,1.227-1.057,1.55-1.8l27.476-63.363L452.869,165.89c0.75-0.75,1.171-1.768,1.171-2.829
	S453.619,160.983,452.869,160.233z M178.825,316.413l-7.908,7.908l-30.059-30.059l7.908-7.908L178.825,316.413z M9.657,163.061
	l7.908-7.908l125.545,125.544l-7.908,7.908L9.657,163.061z M144.165,333.601l-18.925-43.643l42.848,42.848
	c0.781,0.781,1.805,1.171,2.829,1.171s2.047-0.391,2.829-1.171l8.415-8.415l22.742,24.792h-35.807L144.165,333.601z M210,367.716
	h-38.052v-10.533H210V367.716z M212.57,345.706l-17-18.531l17-24.297V345.706z M212.57,288.923l-22.539,32.214l-2.257-2.46
	c0.455-0.662,0.708-1.448,0.708-2.263c0-1.061-0.421-2.078-1.171-2.829l-0.601-0.601l25.861-26.189V288.923z M212.57,275.408
	l-31.518,31.918l-4.011-4.011l35.529-29.019V275.408z M305.274,286.354l7.908,7.908l-30.059,30.059l-7.908-7.908L305.274,286.354z
	 M241.57,274.378l35.43,28.937l-4.011,4.011l-31.418-31.817V274.378z M241.57,286.895l25.761,26.088l-0.601,0.601
	c-0.75,0.75-1.171,1.768-1.171,2.829c0,0.815,0.253,1.601,0.708,2.263l-2.257,2.46l-22.44-32.072V286.895z M227.07,96.037
	c1.157,4.329,2.148,8.694,2.997,13.083h-5.994C224.922,104.731,225.913,100.366,227.07,96.037z M233.57,367.716h-13v-17.557h13
	V367.716z M233.57,342.159h-13v-103.5h13V342.159z M233.57,230.659h-13v-8h13V230.659z M233.57,214.659h-13v-69.05
	c0-9.571,0.734-19.082,2.143-28.488h8.713c1.409,9.406,2.143,18.918,2.143,28.488V214.659z M241.57,303.02l16.9,24.155l-16.9,18.423
	V303.02z M282.092,367.716H244.04v-10.533h38.052V367.716z M309.875,333.601l-24.93,15.582h-35.807l22.742-24.792l8.415,8.415
	c0.781,0.781,1.805,1.171,2.829,1.171s2.047-0.391,2.829-1.171l42.848-42.848L309.875,333.601z M318.839,288.605l-7.908-7.908
	l125.545-125.544l7.908,7.908L318.839,288.605z"/>
<g>
</g>
<g>
</g>
<g>
</g>
<g>
</g>
<g>
</g>
<g>
</g>
<g>
</g>
<g>
</g>
<g>
</g>
<g>
</g>
<g>
</g>
<g>
</g>
<g>
</g>
<g>
</g>
<g>
</g>
</svg>
