<?xml version="1.0" encoding="iso-8859-1"?>
<!-- Generator: Adobe Illustrator 18.0.0, SVG Export Plug-In . SVG Version: 6.00 Build 0)  -->
<!DOCTYPE svg PUBLIC "-//W3C//DTD SVG 1.1//EN" "http://www.w3.org/Graphics/SVG/1.1/DTD/svg11.dtd">
<svg version="1.1" id="Capa_1" xmlns="http://www.w3.org/2000/svg" xmlns:xlink="http://www.w3.org/1999/xlink" x="0px" y="0px"
	 viewBox="0 0 401.294 401.294" style="enable-background:new 0 0 401.294 401.294;" xml:space="preserve">
<g>
	<path d="M115.342,188.015c-7.025,0-12.741,5.716-12.741,12.741s5.716,12.741,12.741,12.741c7.026,0,12.742-5.716,12.742-12.741
		S122.368,188.015,115.342,188.015z M115.342,205.497c-2.614,0-4.741-2.127-4.741-4.741s2.127-4.741,4.741-4.741
		c2.615,0,4.742,2.127,4.742,4.741S117.957,205.497,115.342,205.497z"/>
	<path d="M397.294,164.141c2.209,0,4-1.791,4-4V89.215c0-2.209-1.791-4-4-4h-33.219c-2.209,0-4,1.791-4,4v70.926
		c0,2.209,1.791,4,4,4h12.61v8.999h-36.205c-6.008-4.585-13.401-7.094-20.986-7.094c-17.762,0-32.434,13.455-34.376,30.706h-3.421
		v-9.79c0-2.209-1.791-4-4-4h-28.993l-6.173-11.125c-0.705-1.271-2.044-2.059-3.498-2.059h-39.513v-6.524h16.196
		c2.209,0,4-1.791,4-4V73.281c0-2.209-1.791-4-4-4h-40.266c-2.209,0-4,1.791-4,4v85.972c0,2.209,1.791,4,4,4h16.069v6.524h-38.468
		c-2.209,0-4,1.791-4,4v22.974h-4.52c-1.97-15.047-14.865-26.705-30.44-26.705c-10.313,0-19.703,5.125-25.326,13.331
		c-5.623-8.206-15.012-13.331-25.326-13.331H44.653v-5.905h6.324c2.209,0,4-1.791,4-4V89.215c0-2.209-1.791-4-4-4H17.758
		c-2.209,0-4,1.791-4,4v70.926c0,2.209,1.791,4,4,4h6.325v5.905H4c-2.209,0-4,1.791-4,4v53.419c0,2.209,1.791,4,4,4h20.083v5.905
		h-6.325c-2.209,0-4,1.791-4,4v70.927c0,2.209,1.791,4,4,4h33.219c2.209,0,4-1.791,4-4v-70.927c0-2.209-1.791-4-4-4h-6.325v-5.905
		h18.789c10.313,0,19.703-5.125,25.326-13.331c5.624,8.205,15.013,13.331,25.326,13.331c15.578,0,28.476-11.663,30.441-26.714h4.518
		v22.765c0,2.209,1.791,4,4,4h38.468v6.524h-16.069c-2.209,0-4,1.791-4,4v85.972c0,2.209,1.791,4,4,4h40.266c2.209,0,4-1.791,4-4
		V242.04c0-2.209-1.791-4-4-4h-16.196v-6.524h39.513c1.454,0,2.792-0.789,3.498-2.059l6.173-11.125h28.993c2.209,0,4-1.791,4-4
		v-9.581h3.447c2.037,17.151,16.66,30.497,34.35,30.497c7.581,0,14.972-2.507,20.978-7.087h36.214v9.209h-12.61
		c-2.209,0-4,1.791-4,4v70.927c0,2.209,1.791,4,4,4h33.219c2.209,0,4-1.791,4-4v-70.927c0-2.209-1.791-4-4-4h-12.609v-9.209h12.435
		c2.209,0,4-1.791,4-4V177.14c0-2.209-1.791-4-4-4h-12.435v-8.999H397.294z M199.521,155.253v-13.221h12.196v13.221H199.521z
		 M191.521,112.267h-12.069V98.502h12.069V112.267z M199.521,98.502h12.196v13.765h-12.196V98.502z M191.521,120.267v13.765h-12.069
		v-13.765H191.521z M199.521,120.267h12.196v13.765h-12.196V120.267z M211.717,90.502h-12.196V77.281h12.196V90.502z
		 M191.521,77.281v13.221h-12.069V77.281H191.521z M179.451,155.253v-13.221h12.069v13.221H179.451z M24.689,223.466v-45.419h22.038
		v45.419H24.689z M54.727,178.046h6.641v45.419h-6.641V178.046z M46.977,128.678v9.956H21.758v-9.956H46.977z M21.758,120.678
		v-9.957h25.219v9.957H21.758z M46.977,93.215v9.507H21.758v-9.507H46.977z M21.758,146.634h25.219v9.507H21.758V146.634z
		 M32.083,164.141h4.569v5.905h-4.569V164.141z M8,178.046h8.689v45.419H8V178.046z M21.758,272.834v-9.956h25.219v9.956H21.758z
		 M46.977,280.834v9.956H21.758v-9.956H46.977z M21.758,308.298v-9.507h25.219v9.507H21.758z M46.977,254.878H21.758v-9.507h25.219
		V254.878z M36.652,237.371h-4.569v-5.905h4.569V237.371z M69.368,222.667v-43.822c6.952,1.876,12.703,6.983,15.31,13.918v15.987
		C82.071,215.684,76.32,220.791,69.368,222.667z M114.093,223.466c-9.664,0-18.222-6.091-21.415-15.184v-15.05
		c3.193-9.094,11.751-15.185,21.415-15.185c12.522,0,22.709,10.188,22.709,22.71C136.802,213.278,126.615,223.466,114.093,223.466z
		 M191.521,246.04v13.221h-12.069V246.04H191.521z M199.521,289.027h12.196v13.765h-12.196V289.027z M191.521,302.792h-12.069
		v-13.765h12.069V302.792z M199.521,281.027v-13.765h12.196v13.765H199.521z M191.521,281.027h-12.069v-13.765h12.069V281.027z
		 M179.451,310.792h12.069v13.221h-12.069V310.792z M199.521,324.012v-13.221h12.196v13.221H199.521z M211.717,246.04v13.221
		h-12.196V246.04H211.717z M157.052,177.778h11.046v45.739h-11.046V177.778z M236.678,223.516h-60.58v-45.739h60.58l5.311,9.571
		v26.596L236.678,223.516z M273.696,210.332h-23.707v-19.371h23.707V210.332z M368.075,272.834v-9.956h25.219v9.956H368.075z
		 M393.294,280.834v9.956h-25.219v-9.956H393.294z M368.075,308.298v-9.507h25.219v9.507H368.075z M393.294,254.878h-25.219v-9.507
		h25.219V254.878z M292.892,200.647c0-8.817,4.315-16.641,10.94-21.484v42.968C297.207,217.288,292.892,209.463,292.892,200.647z
		 M319.493,227.248c-2.663,0-5.234-0.398-7.661-1.129v-50.944c2.428-0.731,4.998-1.129,7.661-1.129
		c6.217,0,12.267,2.193,17.036,6.175c0.248,0.208,0.521,0.368,0.803,0.506v39.849c-0.29,0.141-0.57,0.304-0.821,0.513
		C331.747,225.061,325.703,227.248,319.493,227.248z M393.119,220.161h-47.787V181.14h47.787V220.161z M393.294,128.678v9.956
		h-25.219v-9.956H393.294z M368.075,120.678v-9.957h25.219v9.957H368.075z M393.294,93.215v9.507h-25.219v-9.507H393.294z
		 M368.075,146.634h25.219v9.507h-25.219V146.634z"/>
</g>
<g>
</g>
<g>
</g>
<g>
</g>
<g>
</g>
<g>
</g>
<g>
</g>
<g>
</g>
<g>
</g>
<g>
</g>
<g>
</g>
<g>
</g>
<g>
</g>
<g>
</g>
<g>
</g>
<g>
</g>
</svg>
