<?xml version="1.0" encoding="iso-8859-1"?>
<!-- Generator: Adobe Illustrator 18.0.0, SVG Export Plug-In . SVG Version: 6.00 Build 0)  -->
<!DOCTYPE svg PUBLIC "-//W3C//DTD SVG 1.1//EN" "http://www.w3.org/Graphics/SVG/1.1/DTD/svg11.dtd">
<svg version="1.1" id="Capa_1" xmlns="http://www.w3.org/2000/svg" xmlns:xlink="http://www.w3.org/1999/xlink" x="0px" y="0px"
	 viewBox="0 0 338.651 338.651" style="enable-background:new 0 0 338.651 338.651;" xml:space="preserve">
<g>
	<path d="M337.479,291.58L228.798,182.898c-1.563-1.562-4.096-1.562-5.656,0l-16.993,16.993l-9.658-9.658l18.379-18.379
		c1.563-1.563,1.563-4.095,0-5.657l-18.38-18.38l9.057-9.057l16.994,16.994c0.75,0.75,1.768,1.171,2.828,1.171
		s2.078-0.421,2.828-1.171L336.879,47.072c0.75-0.75,1.172-1.768,1.172-2.829s-0.422-2.078-1.172-2.829L297.236,1.772
		c-1.563-1.562-4.096-1.562-5.656,0l-87.219,87.219c-0.001,0.001-0.002,0.001-0.003,0.002s-0.001,0.002-0.002,0.003l-21.458,21.458
		c-1.563,1.563-1.563,4.095,0,5.657l16.991,16.992l-9.057,9.057l-18.379-18.379c-0.75-0.75-1.768-1.171-2.828-1.171
		s-2.078,0.421-2.828,1.171l-18.379,18.379l-9.658-9.658l16.992-16.992c1.563-1.563,1.563-4.095,0-5.657L47.071,1.171
		C46.321,0.421,45.304,0,44.243,0s-2.078,0.421-2.828,1.171L1.772,40.814c-0.75,0.75-1.172,1.768-1.172,2.829
		s0.422,2.078,1.172,2.829l108.683,108.682c0.75,0.75,1.768,1.171,2.828,1.171s2.078-0.421,2.828-1.171l16.993-16.993l9.658,9.657
		l-18.379,18.379c-1.563,1.563-1.563,4.095,0,5.657l18.378,18.378l-10.259,10.259l-16.992-16.992c-1.563-1.562-4.096-1.562-5.656,0
		L1.172,292.181C0.422,292.931,0,293.948,0,295.009s0.422,2.078,1.172,2.829l39.643,39.642c0.781,0.781,1.805,1.171,2.828,1.171
		s2.048-0.391,2.828-1.171l108.682-108.682c0.75-0.75,1.172-1.768,1.172-2.829s-0.422-2.078-1.172-2.829l-16.994-16.993
		l10.259-10.259l18.38,18.38c0.75,0.75,1.768,1.171,2.828,1.171s2.078-0.421,2.828-1.171l18.38-18.38l9.658,9.658l-16.993,16.992
		c-0.75,0.75-1.172,1.768-1.172,2.829s0.422,2.078,1.172,2.829l108.682,108.682c0.781,0.781,1.805,1.171,2.828,1.171
		s2.048-0.391,2.828-1.171l39.643-39.642c0.75-0.75,1.172-1.768,1.172-2.829S338.229,292.331,337.479,291.58z M225.368,147.269
		l-14.165-14.166l15.804-15.804l14.165,14.165L225.368,147.269z M229.107,75.559l14.163,14.163l-16.264,16.264l-14.163-14.163
		L229.107,75.559z M251.027,53.639l14.163,14.164l-16.264,16.263l-14.163-14.163L251.027,53.639z M272.948,31.718l14.164,14.164
		l-16.264,16.264l-14.164-14.164L272.948,31.718z M290.669,81.967l-14.165-14.165l16.264-16.264l14.165,14.165L290.669,81.967z
		 M268.749,103.887l-14.165-14.165l16.264-16.263l14.165,14.165L268.749,103.887z M248.927,95.379l14.165,14.165l-16.263,16.263
		l-14.165-14.165L248.927,95.379z M312.59,60.047l-14.165-14.165l15.803-15.803l14.165,14.165L312.59,60.047z M294.408,10.258
		l14.164,14.164l-15.803,15.803l-14.164-14.164L294.408,10.258z M191.384,113.283l15.803-15.803l14.163,14.163l-15.804,15.804
		L191.384,113.283z M133.104,126.846L117.3,111.043l14.164-14.164l15.803,15.803L133.104,126.846z M75.559,108.943l14.164-14.164
		l16.264,16.264l-14.164,14.164L75.559,108.943z M53.639,87.023l14.164-14.164l16.264,16.263l-14.164,14.165L53.639,87.023z
		 M31.718,65.103l14.164-14.164l16.263,16.263L47.982,81.366L31.718,65.103z M81.967,47.381L67.803,61.545L51.539,45.282
		l14.164-14.164L81.967,47.381z M103.887,69.301L89.723,83.465L73.459,67.202l14.164-14.164L103.887,69.301z M95.38,89.122
		l14.164-14.164l16.264,16.264l-14.164,14.164L95.38,89.122z M44.243,9.657l15.804,15.804L45.883,39.625L30.079,23.821L44.243,9.657
		z M24.422,29.478l15.804,15.804L26.062,59.446L10.258,43.643L24.422,29.478z M113.283,146.667l-15.804-15.804l14.164-14.164
		l15.804,15.803L113.283,146.667z M112.682,191.984l14.164,14.164l-15.803,15.803l-14.164-14.164L112.682,191.984z M108.943,263.694
		l-14.165-14.165l16.264-16.264l14.165,14.165L108.943,263.694z M87.023,285.614l-14.165-14.166l16.263-16.263l14.165,14.165
		L87.023,285.614z M65.103,307.534l-14.166-14.166l16.263-16.263l14.165,14.166L65.103,307.534z M47.381,257.285l14.163,14.163
		l-16.263,16.263l-14.163-14.163L47.381,257.285z M69.301,235.365l14.163,14.164l-16.263,16.263l-14.163-14.163L69.301,235.365z
		 M89.121,243.872l-14.163-14.164l16.264-16.264l14.164,14.164L89.121,243.872z M25.461,279.206l14.163,14.163L23.82,309.172
		L9.657,295.009L25.461,279.206z M43.643,328.995l-14.166-14.166l15.804-15.804l14.166,14.166L43.643,328.995z M146.667,225.97
		l-15.803,15.803l-14.165-14.165l15.803-15.803L146.667,225.97z M169.626,205.784l-36.758-36.759l36.758-36.759l18.364,18.364
		c0.005,0.005,0.008,0.011,0.013,0.016c0.005,0.005,0.011,0.008,0.016,0.013l18.365,18.365L169.626,205.784z M257.285,290.67
		l14.165-14.165l16.264,16.264l-14.165,14.165L257.285,290.67z M235.365,268.75l14.164-14.165l16.263,16.263l-14.165,14.165
		L235.365,268.75z M213.445,246.829l14.164-14.164l16.264,16.263l-14.164,14.165L213.445,246.829z M263.693,229.107l-14.164,14.164
		l-16.264-16.263l14.165-14.164L263.693,229.107z M285.614,251.028l-14.164,14.164l-16.263-16.263l14.164-14.164L285.614,251.028z
		 M277.106,270.848l14.164-14.164l16.264,16.264l-14.164,14.164L277.106,270.848z M225.97,191.383l15.804,15.804l-14.165,14.164
		l-15.804-15.804L225.97,191.383z M206.148,211.205l15.804,15.804l-14.164,14.164l-15.803-15.804L206.148,211.205z M295.009,328.394
		l-15.803-15.803l14.165-14.165l15.803,15.803L295.009,328.394z M314.83,308.573l-15.803-15.803l14.164-14.164l15.803,15.803
		L314.83,308.573z"/>
	<path d="M169.626,154.025c-4.007,0-7.773,1.56-10.606,4.393c-5.849,5.849-5.849,15.365,0,21.214
		c2.833,2.833,6.6,4.394,10.606,4.394s7.773-1.561,10.606-4.394c5.849-5.849,5.849-15.365,0-21.214
		C177.399,155.585,173.633,154.025,169.626,154.025z M174.576,173.975c-1.322,1.322-3.08,2.051-4.95,2.051s-3.628-0.729-4.95-2.051
		c-2.729-2.729-2.729-7.17,0-9.899c1.322-1.322,3.08-2.05,4.95-2.05s3.628,0.728,4.95,2.05
		C177.306,166.805,177.306,171.246,174.576,173.975z"/>
</g>
<g>
</g>
<g>
</g>
<g>
</g>
<g>
</g>
<g>
</g>
<g>
</g>
<g>
</g>
<g>
</g>
<g>
</g>
<g>
</g>
<g>
</g>
<g>
</g>
<g>
</g>
<g>
</g>
<g>
</g>
</svg>
