<?xml version="1.0" encoding="iso-8859-1"?>
<!-- Generator: Adobe Illustrator 18.0.0, SVG Export Plug-In . SVG Version: 6.00 Build 0)  -->
<!DOCTYPE svg PUBLIC "-//W3C//DTD SVG 1.1//EN" "http://www.w3.org/Graphics/SVG/1.1/DTD/svg11.dtd">
<svg version="1.1" id="Capa_1" xmlns="http://www.w3.org/2000/svg" xmlns:xlink="http://www.w3.org/1999/xlink" x="0px" y="0px"
	 viewBox="0 0 374.457 374.457" style="enable-background:new 0 0 374.457 374.457;" xml:space="preserve">
<g>
	<path d="M295.032,101.74c5.961,0,11.564-2.321,15.779-6.536c8.701-8.701,8.701-22.858,0-31.558
		c-4.214-4.215-9.818-6.537-15.779-6.537c-5.96,0-11.564,2.321-15.779,6.536c-8.701,8.701-8.701,22.858,0,31.559
		C283.468,99.418,289.072,101.74,295.032,101.74z M284.909,69.302c2.704-2.704,6.3-4.193,10.123-4.193
		c3.824,0,7.419,1.489,10.123,4.193c5.581,5.581,5.581,14.663,0,20.245c-2.704,2.704-6.299,4.193-10.123,4.193
		c-3.823,0-7.419-1.489-10.123-4.192C279.328,83.965,279.328,74.883,284.909,69.302z"/>
	<path d="M205.317,169.14c-3.504-3.504-8.163-5.435-13.119-5.435s-9.615,1.93-13.119,5.435c-7.233,7.233-7.233,19.004,0,26.238
		c3.504,3.504,8.163,5.434,13.119,5.434s9.614-1.93,13.118-5.434c3.505-3.504,5.435-8.163,5.435-13.119
		S208.821,172.644,205.317,169.14z M199.66,189.721c-1.993,1.993-4.644,3.09-7.462,3.09c-2.819,0-5.47-1.098-7.463-3.09
		c-4.114-4.115-4.114-10.81,0-14.924c1.993-1.994,4.644-3.091,7.463-3.091c2.818,0,5.469,1.098,7.462,3.091
		c1.993,1.993,3.091,4.643,3.091,7.462S201.653,187.728,199.66,189.721z"/>
	<path d="M373.285,318.413L268.203,213.331c-1.561-1.562-4.094-1.562-5.656,0L250.078,225.8l-8.31-8.31l30.934-30.934
		c15.946-15.946,21.417-39.169,14.869-60.187c5.746,1.775,11.77,2.696,17.796,2.696c16.01,0,31.06-6.234,42.378-17.552
		c11.326-11.326,17.563-26.384,17.563-42.4c0-7.711-1.459-15.194-4.223-22.151l10.536-10.536c0.75-0.75,1.172-1.768,1.172-2.829
		s-0.422-2.078-1.172-2.829L343.688,2.834c-1.563-1.562-4.096-1.562-5.656,0l-10.536,10.536c-6.957-2.763-14.44-4.222-22.151-4.222
		c-16.017,0-31.074,6.237-42.399,17.563c-15.947,15.946-21.419,39.168-14.87,60.188c-5.745-1.775-11.77-2.696-17.796-2.696
		c-16.009,0-31.06,6.233-42.378,17.552l-30.935,30.935l-8.31-8.31l12.468-12.468c1.563-1.563,1.563-4.095,0-5.657L56.043,1.171
		C55.293,0.421,54.275,0,53.215,0s-2.078,0.421-2.828,1.171L1.172,50.387c-1.563,1.563-1.563,4.095,0,5.657l105.082,105.082
		c0.75,0.75,1.768,1.171,2.828,1.171s2.078-0.421,2.828-1.171l12.468-12.468l8.31,8.31l-8.124,8.124
		c-0.001,0-0.001,0.001-0.002,0.001c0,0-0.001,0.001-0.001,0.002l-24.724,24.724c-1.563,1.563-1.563,4.095,0,5.657l79.144,79.144
		c0.75,0.75,1.768,1.171,2.828,1.171s2.078-0.421,2.828-1.171l32.852-32.852l8.31,8.31l-12.468,12.468
		c-0.75,0.75-1.172,1.768-1.172,2.829s0.422,2.078,1.172,2.829l105.082,105.082c0.78,0.781,1.805,1.171,2.828,1.171
		s2.048-0.391,2.828-1.171l49.216-49.215c0.75-0.75,1.172-1.768,1.172-2.829S374.035,319.164,373.285,318.413z M274.357,317.916
		l43.559-43.559l20.946,20.947l-43.559,43.558L274.357,317.916z M247.754,291.313l43.559-43.558l20.946,20.946L268.7,312.259
		L247.754,291.313z M206.535,241.409l-73.487-73.487l43.269-43.269l73.487,73.487L206.535,241.409z M342.089,32.368
		c9.296,9.296,14.628,21.494,15.166,34.551l-49.717-49.717C320.595,17.74,332.793,23.072,342.089,32.368z M340.86,11.32
		l22.276,22.276l-5.735,5.736c-2.617-4.557-5.84-8.805-9.656-12.621c-3.816-3.816-8.063-7.039-12.62-9.656L340.86,11.32z
		 M268.602,32.368c7.786-7.786,17.61-12.783,28.266-14.522l59.743,59.743c-1.739,10.656-6.737,20.481-14.522,28.266
		c-9.808,9.808-22.849,15.209-36.722,15.209c-8.007,0-16.006-1.874-23.137-5.417l-23.423-23.423
		C248.869,72.216,252.8,48.169,268.602,32.368z M252.436,97.167l24.877,24.877c8.168,17.35,6.07,37.543-5.026,52.731l-72.606-72.606
		c8.831-6.467,19.445-9.966,30.599-9.966C237.924,92.203,245.554,93.928,252.436,97.167z M193.558,107.412
		c0.009-0.009,0.018-0.017,0.027-0.026l73.486,73.487c-0.009,0.009-0.016,0.017-0.025,0.026l-11.585,11.585l-73.488-73.488
		L193.558,107.412z M62.198,105.757l43.558-43.559l20.947,20.947l-43.559,43.558L62.198,105.757z M35.595,79.153l43.558-43.558
		l20.946,20.947L56.541,100.1L35.595,79.153z M53.215,9.657l20.281,20.281L29.938,73.497L9.657,53.216L53.215,9.657z
		 M109.082,152.641L88.801,132.36l43.559-43.558l20.281,20.281l-31.087,31.088c-0.001,0.001-0.002,0.001-0.003,0.002
		s-0.001,0.002-0.002,0.003L109.082,152.641z M130.035,143.001l12.966-12.966l8.31,8.31l-12.966,12.966L130.035,143.001z
		 M181.809,266.135l-73.486-73.487l19.069-19.069l73.487,73.487L181.809,266.135z M223.146,236.112l12.965-12.965l8.31,8.31
		l-12.966,12.965L223.146,236.112z M265.375,221.816l20.281,20.281l-43.559,43.558l-20.281-20.281L265.375,221.816z M321.241,364.8
		l-20.281-20.281l43.559-43.558l20.281,20.281L321.241,364.8z"/>
</g>
<g>
</g>
<g>
</g>
<g>
</g>
<g>
</g>
<g>
</g>
<g>
</g>
<g>
</g>
<g>
</g>
<g>
</g>
<g>
</g>
<g>
</g>
<g>
</g>
<g>
</g>
<g>
</g>
<g>
</g>
</svg>
