<?xml version="1.0" encoding="iso-8859-1"?>
<!-- Generator: Adobe Illustrator 18.0.0, SVG Export Plug-In . SVG Version: 6.00 Build 0)  -->
<!DOCTYPE svg PUBLIC "-//W3C//DTD SVG 1.1//EN" "http://www.w3.org/Graphics/SVG/1.1/DTD/svg11.dtd">
<svg version="1.1" id="Capa_1" xmlns="http://www.w3.org/2000/svg" xmlns:xlink="http://www.w3.org/1999/xlink" x="0px" y="0px"
	 viewBox="0 0 400.226 400.226" style="enable-background:new 0 0 400.226 400.226;" xml:space="preserve">
<path d="M399.054,326.783l-30.627-30.627c-0.75-0.75-1.768-1.172-2.829-1.172s-2.078,0.422-2.829,1.172l-15.165,15.165l-3.532-3.531
	l15.166-15.166c0.75-0.75,1.171-1.768,1.171-2.828s-0.421-2.078-1.171-2.828l-30.627-30.627c-1.562-1.562-4.094-1.562-5.657,0
	l-15.165,15.165l-3.531-3.531l15.165-15.165c1.562-1.562,1.562-4.095,0-5.656l-30.627-30.628c-0.75-0.75-1.768-1.172-2.829-1.172
	s-2.078,0.422-2.829,1.172l-15.165,15.165l-7.145-7.146l54.792-54.792c0.611-0.61,1.007-1.402,1.13-2.258l8.921-61.916
	c0.18-1.248-0.239-2.507-1.13-3.398l-26.498-26.497c-0.892-0.892-2.149-1.31-3.399-1.131l-61.916,8.921
	c-0.855,0.123-1.647,0.52-2.258,1.131l-54.792,54.792l-7.146-7.146l15.165-15.166c1.562-1.562,1.562-4.095,0-5.656l-30.627-30.627
	c-0.75-0.75-1.768-1.172-2.829-1.172s-2.078,0.422-2.829,1.172l-15.165,15.165l-3.531-3.531l15.165-15.165
	c1.562-1.562,1.562-4.095,0-5.656l-30.627-30.628c-0.75-0.75-1.768-1.172-2.829-1.172s-2.078,0.422-2.829,1.172L92.435,56.152
	l-3.531-3.531l15.165-15.165c0.75-0.75,1.171-1.768,1.171-2.828s-0.421-2.078-1.171-2.828L73.442,1.172
	c-1.563-1.563-4.095-1.563-5.657,0L52.621,16.336l-7.125-7.125c-1.563-1.563-4.095-1.563-5.657,0c-1.562,1.562-1.562,4.095,0,5.656
	l7.126,7.126l-24.97,24.97l-7.125-7.125c-1.563-1.563-4.095-1.563-5.657,0c-1.562,1.562-1.562,4.095,0,5.656l7.126,7.126
	L1.171,67.785C0.421,68.535,0,69.553,0,70.613s0.421,2.078,1.171,2.828l30.627,30.627c0.781,0.781,1.805,1.172,2.829,1.172
	c1.023,0,2.047-0.391,2.829-1.172L52.62,88.904l3.531,3.532l-15.165,15.165c-1.562,1.562-1.562,4.095,0,5.656l30.627,30.627
	c0.781,0.781,1.805,1.172,2.829,1.172c1.023,0,2.047-0.391,2.829-1.172l15.165-15.165l3.531,3.532l-15.165,15.165
	c-1.562,1.562-1.562,4.095,0,5.656l30.627,30.627c0.75,0.75,1.768,1.172,2.829,1.172s2.078-0.422,2.829-1.172l15.165-15.165
	l7.145,7.145l-15.165,15.165c-1.562,1.562-1.562,4.095,0,5.656l18.113,18.113l-29.578,8.318c-1.367,0.385-2.428,1.465-2.787,2.839
	c-0.359,1.374,0.038,2.836,1.042,3.84l59.593,59.593c0.76,0.76,1.781,1.172,2.829,1.172c0.337,0,0.677-0.043,1.011-0.13
	c1.374-0.358,2.455-1.419,2.839-2.786l8.325-29.573l18.107,18.107c0.75,0.75,1.768,1.172,2.829,1.172s2.078-0.422,2.829-1.172
	l15.165-15.165l7.145,7.146l-15.165,15.165c-1.562,1.562-1.562,4.095,0,5.656l30.627,30.627c0.781,0.781,1.805,1.172,2.829,1.172
	c1.023,0,2.047-0.391,2.829-1.172l15.165-15.165l3.531,3.531l-15.165,15.165c-1.562,1.562-1.562,4.095,0,5.656l30.627,30.627
	c0.781,0.781,1.805,1.172,2.829,1.172s2.047-0.391,2.829-1.172l15.165-15.165l3.532,3.531l-15.166,15.166
	c-1.562,1.562-1.562,4.095,0,5.656l30.627,30.627c0.75,0.75,1.768,1.172,2.829,1.172s2.078-0.422,2.829-1.172l15.165-15.165
	l7.125,7.125c0.781,0.781,1.805,1.172,2.829,1.172s2.047-0.391,2.829-1.172c1.562-1.562,1.562-4.095,0-5.656l-7.126-7.125
	l24.97-24.971l7.125,7.125c0.781,0.781,1.805,1.172,2.829,1.172c1.023,0,2.047-0.391,2.828-1.172c1.563-1.562,1.563-4.095,0-5.656
	l-7.125-7.126l15.165-15.165C400.616,330.878,400.616,328.345,399.054,326.783z M217.849,256.212l-18.01-18.01l47.138-47.139
	c5.051-5.05,7.832-11.765,7.832-18.907s-2.781-13.857-7.832-18.907c-5.05-5.051-11.765-7.833-18.908-7.833
	c-7.142,0-13.857,2.782-18.908,7.833l-47.138,47.138l-18.01-18.01l77.802-77.802l73.835,73.835L217.849,256.212z M167.877,205.846
	l46.941-46.94c3.54-3.539,8.245-5.489,13.25-5.489s9.711,1.95,13.251,5.489c3.539,3.54,5.488,8.245,5.488,13.251
	s-1.949,9.711-5.489,13.251l-46.94,46.94L167.877,205.846z M307.136,166.925l-5.829,5.829l-73.835-73.835l5.829-5.829
	L307.136,166.925z M317.469,106.421l-7.496,52.027l-68.196-68.195l52.027-7.496L317.469,106.421z M34.627,95.583l-24.97-24.97
	L70.614,9.657l24.97,24.97L34.627,95.583z M58.277,83.247l24.97-24.97l3.531,3.531l-24.97,24.97L58.277,83.247z M74.442,135.398
	l-24.97-24.97l60.957-60.957l24.97,24.971L74.442,135.398z M98.092,123.063l24.971-24.97l3.531,3.531l-24.971,24.971L98.092,123.063
	z M114.257,175.214l-24.97-24.97l60.957-60.957l24.97,24.97L114.257,175.214z M137.907,162.878l24.97-24.97l7.146,7.146
	l-24.97,24.97L137.907,162.878z M171.442,278.719l-49.935-49.935l27.323-7.684l30.301,30.301L171.442,278.719z M206.552,267.509
	l-73.836-73.836l5.64-5.64l73.836,73.836L206.552,267.509z M230.203,255.172l24.97-24.97l7.145,7.146l-24.97,24.97L230.203,255.172z
	 M249.981,310.938l-24.97-24.97l60.957-60.957l24.97,24.971L249.981,310.938z M273.631,298.602l24.971-24.971l3.531,3.531
	l-24.971,24.971L273.631,298.602z M289.796,350.753l-24.97-24.97l60.957-60.957l24.971,24.97L289.796,350.753z M313.446,338.417
	l24.971-24.971l3.532,3.531l-24.971,24.971L313.446,338.417z M329.612,390.568l-24.97-24.97l60.957-60.957l24.97,24.97
	L329.612,390.568z"/>
<g>
</g>
<g>
</g>
<g>
</g>
<g>
</g>
<g>
</g>
<g>
</g>
<g>
</g>
<g>
</g>
<g>
</g>
<g>
</g>
<g>
</g>
<g>
</g>
<g>
</g>
<g>
</g>
<g>
</g>
</svg>
