<?xml version="1.0" encoding="iso-8859-1"?>
<!-- Generator: Adobe Illustrator 18.0.0, SVG Export Plug-In . SVG Version: 6.00 Build 0)  -->
<!DOCTYPE svg PUBLIC "-//W3C//DTD SVG 1.1//EN" "http://www.w3.org/Graphics/SVG/1.1/DTD/svg11.dtd">
<svg version="1.1" id="Capa_1" xmlns="http://www.w3.org/2000/svg" xmlns:xlink="http://www.w3.org/1999/xlink" x="0px" y="0px"
	 viewBox="0 0 431.955 431.955" style="enable-background:new 0 0 431.955 431.955;" xml:space="preserve">
<g>
	<path d="M131.547,295.24c-3.676,0.018-7.125,1.466-9.712,4.078c-2.586,2.611-4.001,6.074-3.984,9.751
		c0.037,7.552,6.21,13.695,13.761,13.695h0.068c3.676-0.018,7.125-1.466,9.712-4.078c2.586-2.611,4.001-6.074,3.984-9.751
		C145.339,301.383,139.165,295.24,131.547,295.24z M135.707,313.057c-1.083,1.094-2.527,1.7-4.066,1.707h-0.029
		c-3.161,0-5.746-2.572-5.761-5.734c-0.007-1.539,0.585-2.989,1.668-4.083c1.083-1.094,2.527-1.7,4.096-1.707
		c3.161,0,5.746,2.572,5.761,5.734C137.383,310.513,136.791,311.963,135.707,313.057z"/>
	<path d="M246.583,295.24c-3.676,0.018-7.125,1.466-9.712,4.078c-2.586,2.611-4.001,6.074-3.984,9.751
		c0.037,7.552,6.21,13.695,13.761,13.695h0.068c3.676-0.018,7.125-1.466,9.712-4.078c2.586-2.611,4.001-6.074,3.984-9.751
		C260.375,301.383,254.201,295.24,246.583,295.24z M250.743,313.057c-1.083,1.094-2.527,1.7-4.066,1.707h-0.029
		c-3.161,0-5.746-2.572-5.761-5.734c-0.007-1.539,0.585-2.989,1.668-4.083c1.083-1.094,2.527-1.7,4.096-1.707
		c3.161,0,5.746,2.572,5.761,5.734C252.419,310.513,251.827,311.963,250.743,313.057z"/>
	<path d="M361.684,322.764h0.068c3.676-0.018,7.125-1.466,9.712-4.078c2.586-2.611,4.001-6.074,3.984-9.751
		c-0.037-7.552-6.21-13.695-13.829-13.695c-3.676,0.018-7.125,1.466-9.712,4.078c-2.586,2.611-4.001,6.074-3.984,9.751
		C347.96,316.621,354.133,322.764,361.684,322.764z M357.591,304.947c1.083-1.094,2.527-1.7,4.096-1.707
		c3.161,0,5.746,2.572,5.761,5.734c0.007,1.539-0.585,2.989-1.668,4.083c-1.083,1.094-2.527,1.7-4.066,1.707h-0.029
		c-3.161,0-5.746-2.572-5.761-5.734C355.915,307.491,356.507,306.041,357.591,304.947z"/>
	<path d="M327.627,261.98h33.855c1.016,0,1.932-0.391,2.638-1.014l0.03,0.033l66.48-59.788c0.843-0.759,1.325-1.84,1.325-2.975
		s-0.482-2.216-1.325-2.975l-33.01-29.684c-1.521-1.367-3.829-1.368-5.35,0.001l-32.576,29.301h-24.819v-13.037c0-2.209-1.791-4-4-4
		h-39.05c-2.209,0-4,1.791-4,4v13.037h-82.053c-1.514-10.033-8.435-18.308-17.677-21.769v-38.275h21.348c2.209,0,4-1.791,4-4V84.17
		c0-2.209-1.791-4-4-4h-62c-2.209,0-4,1.791-4,4v46.666c0,2.209,1.791,4,4,4h21.342v38.278c-9.237,3.47-16.162,11.762-17.669,21.766
		h-19.294c-2.209,0-4,1.791-4,4v36.248l-35.406,21.503l-46.63-46.63c4.045-7.009,3.093-16.135-2.895-22.123l-15.792-15.792
		c-1.563-1.563-4.095-1.563-5.657,0c-1.562,1.562-1.562,4.095,0,5.656l15.792,15.792c4.029,4.029,4.029,10.585,0,14.614
		c-1.952,1.951-4.546,3.026-7.306,3.026c-2.76,0-5.355-1.075-7.307-3.026L6.829,192.357c-1.563-1.563-4.095-1.563-5.657,0
		c-1.562,1.562-1.562,4.095,0,5.656l15.792,15.792c3.462,3.463,8.066,5.37,12.964,5.37c3.79,0,7.397-1.154,10.443-3.276
		l48.609,48.609c0.771,0.771,1.795,1.172,2.83,1.172c0.713,0,1.432-0.19,2.075-0.581l33.938-20.611v13.492c0,2.209,1.791,4,4,4
		h26.687l-17.157,9.213c-1.925-0.498-3.907-0.848-5.933-1.046c-0.039-2.178-1.812-3.929-3.994-3.929c-0.006,0-0.013,0-0.02,0
		c-2.19,0.011-3.955,1.781-3.976,3.963c-7.597,0.804-14.711,3.791-20.604,8.652c-1.572-1.509-4.068-1.487-5.608,0.066
		c-1.54,1.555-1.537,4.051-0.013,5.609c-4.804,5.941-7.722,13.083-8.453,20.688c-2.182,0.042-3.934,1.824-3.923,4.013
		c0.011,2.19,1.78,3.957,3.963,3.977c0.834,7.758,3.958,14.844,8.674,20.573c-1.535,1.572-1.519,4.088,0.044,5.636
		c0.78,0.772,1.797,1.158,2.815,1.158c1.023,0,2.044-0.392,2.824-1.17c5.773,4.66,12.887,7.715,20.656,8.473
		c0.04,2.177,1.812,3.928,3.994,3.928c0.007,0,0.014,0,0.02,0c2.189-0.011,3.954-1.78,3.975-3.962
		c7.597-0.804,14.711-3.792,20.605-8.652c0.774,0.742,1.768,1.118,2.765,1.118c1.03,0,2.06-0.396,2.842-1.186
		c1.539-1.554,1.537-4.05,0.013-5.607c4.804-5.941,7.722-13.083,8.453-20.688c2.182-0.042,3.934-1.824,3.923-4.013
		c-0.011-2.19-1.78-3.957-3.963-3.977c-0.834-7.758-3.958-14.844-8.675-20.574c1.536-1.571,1.52-4.089-0.044-5.637
		c-1.564-1.549-4.084-1.541-5.639,0.013c-1.608-1.298-3.322-2.467-5.123-3.501l24.469-13.139h105.458l-18.568,11.278
		c-3.693-1.628-7.678-2.704-11.855-3.111c-0.039-2.178-1.812-3.929-3.994-3.929c-0.007,0-0.014,0-0.02,0
		c-2.19,0.011-3.955,1.781-3.975,3.963c-7.597,0.804-14.711,3.791-20.604,8.652c-1.572-1.509-4.068-1.487-5.608,0.066
		c-1.54,1.555-1.537,4.051-0.013,5.609c-4.804,5.941-7.722,13.083-8.453,20.688c-2.182,0.042-3.934,1.824-3.923,4.013
		c0.011,2.19,1.78,3.957,3.963,3.977c0.834,7.758,3.958,14.844,8.674,20.573c-1.535,1.572-1.519,4.088,0.044,5.636
		c0.78,0.772,1.797,1.158,2.815,1.158c1.023,0,2.044-0.392,2.825-1.17c5.773,4.66,12.887,7.715,20.656,8.473
		c0.04,2.177,1.812,3.928,3.994,3.928c0.007,0,0.014,0,0.02,0c2.189-0.011,3.954-1.78,3.975-3.962
		c7.597-0.804,14.711-3.791,20.605-8.652c0.773,0.742,1.768,1.118,2.765,1.118c1.03,0,2.06-0.396,2.842-1.186
		c1.539-1.554,1.537-4.05,0.013-5.607c4.804-5.941,7.722-13.083,8.453-20.688c2.182-0.042,3.934-1.824,3.923-4.013
		c-0.011-2.19-1.78-3.957-3.963-3.977c-0.834-7.758-3.958-14.844-8.675-20.574c1.536-1.571,1.52-4.089-0.044-5.637
		c-1.564-1.549-4.084-1.541-5.639,0.013c-0.319-0.258-0.641-0.511-0.968-0.759l21.815-13.25c2.439,3.886,6.75,6.487,11.655,6.487
		h0.066c5.128-0.025,9.588-2.872,11.935-7.053l22.616,13.736c-0.451,0.34-0.895,0.691-1.333,1.052
		c-1.572-1.509-4.068-1.487-5.608,0.066c-1.54,1.555-1.537,4.051-0.013,5.609c-4.804,5.941-7.722,13.083-8.453,20.688
		c-2.182,0.042-3.934,1.824-3.923,4.013c0.011,2.19,1.78,3.957,3.963,3.977c0.834,7.758,3.958,14.844,8.674,20.573
		c-1.535,1.572-1.519,4.088,0.044,5.636c0.78,0.772,1.797,1.158,2.815,1.158c1.023,0,2.044-0.392,2.825-1.17
		c5.773,4.66,12.887,7.715,20.656,8.473c0.04,2.177,1.812,3.928,3.994,3.928c0.006,0,0.013,0,0.02,0
		c2.19-0.011,3.954-1.78,3.975-3.962c7.597-0.804,14.711-3.791,20.605-8.652c0.773,0.742,1.768,1.118,2.765,1.118
		c1.03,0,2.06-0.396,2.842-1.186c1.539-1.554,1.537-4.05,0.013-5.607c4.804-5.941,7.722-13.083,8.453-20.688
		c2.182-0.042,3.934-1.824,3.923-4.013c-0.011-2.19-1.78-3.957-3.963-3.977c-0.834-7.758-3.958-14.844-8.675-20.574
		c1.536-1.571,1.52-4.089-0.044-5.637c-1.564-1.549-4.084-1.541-5.639,0.013c-5.773-4.66-12.887-7.715-20.656-8.473
		c-0.039-2.178-1.812-3.929-3.994-3.929c-0.007,0-0.014,0-0.02,0c-2.19,0.011-3.955,1.781-3.975,3.963
		c-3.972,0.42-7.809,1.444-11.412,3.013L327.627,261.98z M152.093,288.322c0.78,0.772,1.797,1.158,2.814,1.158
		c0.25,0,0.5-0.025,0.746-0.072c3.682,4.506,6.127,10.058,6.807,16.132c-1.057,0.725-1.748,1.943-1.742,3.321
		c0.007,1.378,0.71,2.59,1.775,3.304c-0.598,5.948-2.88,11.535-6.618,16.2c-1.261-0.237-2.613,0.136-3.584,1.116
		c-0.97,0.98-1.33,2.336-1.081,3.594c-4.629,3.783-10.194,6.12-16.137,6.775c-0.721-1.052-1.931-1.743-3.301-1.743
		c-0.007,0-0.014,0-0.02,0c-1.379,0.007-2.592,0.711-3.306,1.777c-6.084-0.621-11.656-3.018-16.196-6.656
		c0.223-1.25-0.148-2.585-1.119-3.547c-0.971-0.962-2.311-1.321-3.56-1.085c-3.682-4.507-6.128-10.058-6.808-16.133
		c1.057-0.725,1.748-1.943,1.742-3.321c-0.007-1.378-0.71-2.59-1.775-3.304c0.598-5.949,2.881-11.536,6.62-16.202
		c0.245,0.046,0.493,0.071,0.741,0.071c1.03,0,2.06-0.396,2.842-1.185c0.971-0.981,1.331-2.336,1.082-3.595
		c4.629-3.783,10.194-6.12,16.137-6.775c0.721,1.052,1.93,1.742,3.3,1.742c0.006,0,0.013,0,0.02,0
		c1.379-0.007,2.591-0.711,3.306-1.776c6.084,0.621,11.656,3.018,16.197,6.656C150.751,286.026,151.122,287.361,152.093,288.322z
		 M267.13,288.322c0.78,0.772,1.797,1.158,2.814,1.158c0.25,0,0.5-0.025,0.746-0.072c3.682,4.506,6.127,10.058,6.807,16.132
		c-1.057,0.725-1.748,1.943-1.742,3.321c0.007,1.378,0.71,2.59,1.775,3.304c-0.598,5.948-2.88,11.535-6.618,16.2
		c-1.261-0.237-2.613,0.136-3.584,1.116c-0.97,0.98-1.33,2.336-1.081,3.594c-4.629,3.783-10.194,6.12-16.136,6.775
		c-0.721-1.052-1.931-1.743-3.301-1.743c-0.007,0-0.014,0-0.02,0c-1.379,0.007-2.592,0.711-3.306,1.777
		c-6.084-0.621-11.656-3.018-16.196-6.656c0.223-1.25-0.149-2.585-1.119-3.547c-0.971-0.962-2.311-1.321-3.56-1.085
		c-3.682-4.507-6.128-10.058-6.808-16.133c1.057-0.725,1.748-1.943,1.742-3.321c-0.007-1.378-0.71-2.59-1.775-3.304
		c0.598-5.949,2.881-11.536,6.62-16.202c0.245,0.046,0.493,0.071,0.741,0.071c1.03,0,2.06-0.396,2.842-1.185
		c0.971-0.981,1.331-2.336,1.082-3.595c4.63-3.783,10.194-6.12,16.137-6.775c0.721,1.052,1.93,1.742,3.3,1.742
		c0.007,0,0.014,0,0.02,0c1.379-0.007,2.591-0.711,3.305-1.776c6.084,0.621,11.656,3.018,16.196,6.656
		C265.787,286.026,266.159,287.361,267.13,288.322z M365.482,220.918l40.855-36.742l3.36,3.021l-44.215,39.762V220.918z
		 M365.482,249.041V237.72l50.197-45.143l6.294,5.66L365.482,249.041z M394.946,173.933l5.41,4.865l-34.874,31.361v-9.724
		L394.946,173.933z M295.825,185.843h31.05v9.037h-31.05V185.843z M205.443,126.836h-4.678V88.17h4.678V126.836z M151.443,88.17
		h41.322v38.666h-41.322V88.17z M176.785,134.836h3.31v36.581c-0.55-0.033-1.103-0.055-1.661-0.055c-0.042,0-0.086,0-0.128,0
		c-0.511,0.002-1.018,0.021-1.521,0.052V134.836z M178.343,179.363c0.031,0,0.061,0,0.091,0c9.402,0,17.3,6.655,19.209,15.518
		h-38.398C161.14,186.071,168.996,179.406,178.343,179.363z M135.822,253.98v-14.351l11.496-6.981
		c2.499,2.537,5.966,4.116,9.791,4.116h0.068c3.676-0.018,7.125-1.466,9.713-4.078c2.586-2.611,4.001-6.075,3.983-9.751
		c-0.036-7.552-6.209-13.695-13.829-13.695c-3.676,0.018-7.125,1.466-9.713,4.078c-2.586,2.611-4.001,6.075-3.983,9.751
		c0.004,0.848,0.096,1.674,0.248,2.479l-7.774,4.721V202.88h221.66v51.1h-40.539c-1.509-5.966-6.924-10.407-13.397-10.407
		c-2.172,0.011-4.219,0.54-6.043,1.449l-37.331-22.68c0.012-0.247,0.035-0.49,0.034-0.74c-0.037-7.552-6.211-13.696-13.83-13.696
		c-7.588,0.037-13.732,6.241-13.696,13.83c0.001,0.136,0.018,0.269,0.022,0.404l-59.295,31.84H135.822z M151.347,223.03
		c-0.008-1.539,0.585-2.989,1.668-4.083s2.527-1.7,4.096-1.707c3.161,0,5.746,2.572,5.761,5.734
		c0.008,1.539-0.585,2.989-1.668,4.083s-2.527,1.7-4.067,1.707h-0.029C153.947,228.764,151.362,226.192,151.347,223.03z
		 M252.206,221.641c0.015,3.177-2.558,5.774-5.735,5.79h-0.029c-3.161,0-5.746-2.572-5.761-5.734
		c-0.015-3.178,2.558-5.775,5.762-5.791C249.605,215.906,252.19,218.479,252.206,221.641z M235.364,229.792
		c2.51,3.411,6.539,5.639,11.077,5.639h0.068c4.431-0.022,8.358-2.155,10.861-5.429l34.161,20.754
		c-0.549,1.005-0.965,2.088-1.251,3.224h-99.962L235.364,229.792z M303.641,263.098h-0.028c-3.163,0-5.748-2.573-5.763-5.735
		c-0.015-3.177,2.558-5.774,5.764-5.79c3.161,0,5.746,2.572,5.761,5.734C309.391,260.485,306.818,263.083,303.641,263.098z
		 M358.224,278.153c0.721,1.052,1.93,1.742,3.3,1.742c0.007,0,0.014,0,0.02,0c1.379-0.007,2.591-0.711,3.305-1.776
		c6.084,0.621,11.656,3.018,16.196,6.656c-0.223,1.25,0.149,2.586,1.12,3.547c0.78,0.772,1.797,1.158,2.814,1.158
		c0.25,0,0.5-0.025,0.746-0.072c3.682,4.506,6.127,10.058,6.807,16.132c-1.057,0.725-1.748,1.943-1.742,3.321
		c0.007,1.378,0.71,2.59,1.775,3.304c-0.598,5.948-2.88,11.535-6.618,16.2c-1.261-0.237-2.613,0.136-3.584,1.116
		c-0.97,0.98-1.33,2.336-1.081,3.594c-4.629,3.783-10.194,6.12-16.136,6.775c-0.721-1.052-1.931-1.743-3.301-1.743
		c-0.006,0-0.013,0-0.02,0c-1.38,0.007-2.592,0.711-3.306,1.777c-6.084-0.621-11.656-3.018-16.196-6.656
		c0.223-1.25-0.149-2.585-1.119-3.547c-0.971-0.962-2.311-1.321-3.56-1.085c-3.682-4.507-6.128-10.058-6.808-16.133
		c1.057-0.725,1.748-1.943,1.742-3.321c-0.007-1.378-0.71-2.59-1.775-3.304c0.598-5.949,2.881-11.536,6.62-16.202
		c0.245,0.046,0.493,0.071,0.741,0.071c1.03,0,2.06-0.396,2.842-1.185c0.971-0.981,1.331-2.336,1.082-3.595
		C346.717,281.144,352.281,278.808,358.224,278.153z"/>
	<path d="M171.71,93.063c-7.588,0.037-13.732,6.24-13.696,13.829c0.037,7.552,6.211,13.696,13.763,13.696h0.066
		c7.588-0.037,13.732-6.241,13.696-13.83C185.502,99.207,179.329,93.063,171.71,93.063z M171.805,112.588h-0.028
		c-3.163,0-5.748-2.573-5.763-5.735c-0.015-3.177,2.558-5.774,5.764-5.79c3.161,0,5.746,2.572,5.761,5.734
		C177.554,109.975,174.982,112.573,171.805,112.588z"/>
	<path d="M313.432,220.346h30c2.209,0,4-1.791,4-4s-1.791-4-4-4h-30c-2.209,0-4,1.791-4,4S311.223,220.346,313.432,220.346z"/>
	<path d="M313.432,231.68h30c2.209,0,4-1.791,4-4s-1.791-4-4-4h-30c-2.209,0-4,1.791-4,4S311.223,231.68,313.432,231.68z"/>
</g>
<g>
</g>
<g>
</g>
<g>
</g>
<g>
</g>
<g>
</g>
<g>
</g>
<g>
</g>
<g>
</g>
<g>
</g>
<g>
</g>
<g>
</g>
<g>
</g>
<g>
</g>
<g>
</g>
<g>
</g>
</svg>
