<?xml version="1.0" encoding="iso-8859-1"?>
<!-- Generator: Adobe Illustrator 18.0.0, SVG Export Plug-In . SVG Version: 6.00 Build 0)  -->
<!DOCTYPE svg PUBLIC "-//W3C//DTD SVG 1.1//EN" "http://www.w3.org/Graphics/SVG/1.1/DTD/svg11.dtd">
<svg version="1.1" id="Capa_1" xmlns="http://www.w3.org/2000/svg" xmlns:xlink="http://www.w3.org/1999/xlink" x="0px" y="0px"
	 viewBox="0 0 446.495 446.495" style="enable-background:new 0 0 446.495 446.495;" xml:space="preserve">
<g>
	<path d="M316.238,328.324V120.185l-17.58-39.183c-1.345-3.01-4.229-4.88-7.528-4.88s-6.184,1.87-7.525,4.874l-9.962,22.203
		c-2.488-36.915-17.255-71.915-42.216-99.563c-2.086-2.312-5.067-3.638-8.181-3.637c-3.113,0-6.094,1.326-8.177,3.636
		c-24.962,27.647-39.729,62.647-42.217,99.563l-9.959-22.198c-1.346-3.01-4.23-4.879-7.529-4.879c-3.298,0-6.182,1.87-7.525,4.874
		l-17.583,39.188v208.136c-3.71,5.81-5.718,12.588-5.718,19.579v17.434c0,1.975,1.44,3.653,3.392,3.953l2.326,0.358v24.64
		l-4.067,35.282c-0.131,1.133,0.229,2.269,0.988,3.119c0.759,0.852,1.845,1.339,2.986,1.339h8.206l-0.506,8.225
		c-0.067,1.102,0.323,2.183,1.079,2.986s1.811,1.26,2.914,1.26h27.019c1.104,0,2.158-0.456,2.914-1.26s1.146-1.885,1.079-2.986
		l-0.506-8.225h8.208c1.141,0,2.227-0.487,2.986-1.339c0.759-0.851,1.119-1.986,0.988-3.119l-4.069-35.303v-16.897l8.389,1.29
		v37.826c0,2.209,1.791,4,4,4h22.844c2.209,0,4-1.791,4-4v-20.946h7.08v20.946c0,2.209,1.791,4,4,4h22.844c2.209,0,4-1.791,4-4
		l-0.003-37.826l8.396-1.291v16.906l-4.068,35.295c-0.131,1.133,0.229,2.269,0.987,3.119c0.76,0.852,1.846,1.339,2.986,1.339h8.207
		l-0.506,8.225c-0.068,1.102,0.322,2.183,1.078,2.986s1.811,1.26,2.914,1.26h27.02c1.104,0,2.158-0.456,2.914-1.26
		s1.146-1.885,1.078-2.986l-0.506-8.225h8.207c1.141,0,2.227-0.487,2.986-1.339c0.759-0.851,1.118-1.986,0.987-3.119l-4.068-35.295
		v-24.627l2.327-0.358c1.952-0.3,3.393-1.979,3.393-3.953v-17.434C321.958,340.917,319.949,334.14,316.238,328.324z
		 M257.628,370.563v-18.663h56.33v10.002L257.628,370.563z M172.472,125.041v149.304c-4.962,9.23-10.995,17.93-18.034,25.908
		l-16.183,18.334V125.041H172.472z M139.654,329.092l20.782-23.546c12.675-14.363,22.27-30.938,28.425-48.729v87.082h-56.039
		C133.597,338.423,135.953,333.273,139.654,329.092z M205.483,150.39h35.523c5.595,19.373,8.484,39.358,8.607,59.644h-52.737
		C196.998,189.748,199.888,169.762,205.483,150.39z M207.947,142.39c1.022-3.094,2.112-6.172,3.275-9.231
		c2.323-6.113,7.733-8.292,12.022-8.292c4.288,0,9.699,2.178,12.022,8.292c1.162,3.059,2.252,6.137,3.275,9.231H207.947z
		 M196.861,218.033h52.767v129.801h-52.767V218.033z M257.628,343.899v-87.073c6.155,17.788,15.749,34.359,28.423,48.721
		l20.792,23.546c3.697,4.187,6.053,9.337,6.83,14.807H257.628z M274.021,125.041h34.217v193.547l-16.19-18.335
		c-7.036-7.973-13.066-16.668-18.026-25.893V125.041z M290.906,84.266c0.034-0.077,0.063-0.144,0.224-0.144s0.189,0.066,0.227,0.149
		l14.703,32.77H276.2L290.906,84.266z M221.007,8.995c1.158-1.283,3.319-1.285,4.481,0.002
		c20.353,22.544,33.583,50.226,38.444,79.788h-81.37C187.422,59.222,200.652,31.541,221.007,8.995z M180.472,114.373
		c0-5.907,0.335-11.777,0.987-17.588h83.551v-0.239c0.669,5.889,1.012,11.839,1.012,17.827v142.172
		c-5.506-15.03-8.396-31.025-8.396-47.31h-0.021c-0.251-27.058-5.238-53.599-14.859-78.919c-3.105-8.171-10.76-13.45-19.501-13.45
		c-8.741,0-16.395,5.279-19.5,13.45c-9.621,25.32-14.608,51.861-14.859,78.919h-0.024c0,16.276-2.887,32.264-8.389,47.288V114.373z
		 M155.139,84.266c0.035-0.077,0.064-0.144,0.224-0.144s0.192,0.07,0.227,0.149l14.702,32.77h-29.859L155.139,84.266z
		 M164.619,438.495h-18.511l0.275-4.471h17.96L164.619,438.495z M134.65,426.024l3.17-27.503h35.09l3.17,27.503H134.65z
		 M172.472,390.492h-34.217v-19.618l34.217,5.262V390.492z M132.537,361.901v-10.002h56.323v18.664L132.537,361.901z
		 M211.704,412.482h-14.844v-25.447c0-9.019,6.369-16.577,14.844-18.417V412.482z M226.784,364.191v23.345h-7.08v-23.345
		c0-2.209-1.791-4-4-4c-7.337,0-13.993,2.961-18.844,7.749v-12.106h52.767v12.106c-4.85-4.787-11.507-7.749-18.844-7.749
		C228.575,360.191,226.784,361.982,226.784,364.191z M234.784,412.482v-43.864c8.455,1.835,14.809,9.362,14.841,18.35l0.003,25.514
		H234.784z M300.385,438.495h-18.512l0.275-4.471h17.962L300.385,438.495z M270.414,426.024l3.17-27.503h35.091l3.17,27.503H270.414
		z M308.238,390.492h-34.217v-14.357l34.217-5.261V390.492z"/>
	<path d="M210.813,191.725c0-5.598,4.554-10.152,10.152-10.152v-8c-10.009,0-18.152,8.144-18.152,18.152H210.813z"/>
	<path d="M235.676,191.725h8c0-10.009-8.144-18.152-18.152-18.152v8C231.121,181.572,235.676,186.127,235.676,191.725z"/>
</g>
<g>
</g>
<g>
</g>
<g>
</g>
<g>
</g>
<g>
</g>
<g>
</g>
<g>
</g>
<g>
</g>
<g>
</g>
<g>
</g>
<g>
</g>
<g>
</g>
<g>
</g>
<g>
</g>
<g>
</g>
</svg>
