<?xml version="1.0" encoding="iso-8859-1"?>
<!-- Generator: Adobe Illustrator 18.0.0, SVG Export Plug-In . SVG Version: 6.00 Build 0)  -->
<!DOCTYPE svg PUBLIC "-//W3C//DTD SVG 1.1//EN" "http://www.w3.org/Graphics/SVG/1.1/DTD/svg11.dtd">
<svg version="1.1" id="Capa_1" xmlns="http://www.w3.org/2000/svg" xmlns:xlink="http://www.w3.org/1999/xlink" x="0px" y="0px"
	 viewBox="0 0 402.585 402.585" style="enable-background:new 0 0 402.585 402.585;" xml:space="preserve">
<g>
	<path d="M115.108,279.739c-1.9-0.776-3.898-1.17-5.938-1.17c-6.42,0-12.136,3.841-14.562,9.785
		c-1.588,3.888-1.565,8.162,0.062,12.034s4.664,6.879,8.553,8.466c1.9,0.776,3.898,1.17,5.938,1.17
		c6.42,0,12.136-3.841,14.562-9.785C127,292.213,123.136,283.017,115.108,279.739z M116.316,297.216
		c-1.192,2.921-4.001,4.809-7.155,4.809c-0.998,0-1.979-0.194-2.915-0.576c-1.91-0.78-3.401-2.257-4.201-4.159
		c-0.799-1.901-0.81-4.001-0.03-5.911c1.192-2.921,4.001-4.809,7.155-4.809c0.998,0,1.979,0.194,2.915,0.576
		C116.027,288.756,117.926,293.273,116.316,297.216z"/>
	<path d="M398.619,255.066l-0.934-0.008c-0.464-2.287-1.342-4.457-2.597-6.423l0.663-0.652c1.575-1.55,1.597-4.082,0.048-5.657
		c-1.55-1.575-4.082-1.597-5.657-0.048l-0.663,0.652c-1.945-1.289-4.1-2.202-6.378-2.705l0.008-0.933
		c0.019-2.209-1.757-4.016-3.966-4.034c-0.012,0-0.023,0-0.035,0c-2.193,0-3.98,1.769-3.999,3.966l-0.008,0.931
		c-2.375,0.489-4.587,1.429-6.557,2.715l-9.198-9.198c-0.75-0.75-1.768-1.172-2.828-1.172h-8.308l9.538-75.646h10.684
		c1.735,0,3.273-1.119,3.807-2.771c0.533-1.651-0.06-3.459-1.468-4.474c-39.333-28.342-97.929-44.597-160.764-44.597
		c-40.653,0-79.523,6.812-112.558,19.292v-21.362c0-2.209-1.791-4-4-4H87.33V84.007h17.633v9.491c0,2.209,1.791,4,4,4s4-1.791,4-4
		v-9.491h6.839v9.491c0,2.209,1.791,4,4,4s4-1.791,4-4v-9.491h6.84v9.491c0,2.209,1.791,4,4,4s4-1.791,4-4v-9.491h6.84v9.491
		c0,2.209,1.791,4,4,4s4-1.791,4-4v-9.491h6.84v9.491c0,2.209,1.791,4,4,4s4-1.791,4-4v-9.491h6.84v9.491c0,2.209,1.791,4,4,4
		s4-1.791,4-4v-9.491h6.84v9.491c0,2.209,1.791,4,4,4s4-1.791,4-4v-9.491h6.84v9.491c0,2.209,1.791,4,4,4s4-1.791,4-4v-9.491h6.84
		v9.491c0,2.209,1.791,4,4,4s4-1.791,4-4v-9.491h6.84v9.491c0,2.209,1.791,4,4,4s4-1.791,4-4V65.167c0-2.209-1.791-4-4-4
		s-4,1.791-4,4v10.84h-6.84v-10.84c0-2.209-1.791-4-4-4s-4,1.791-4,4v10.84h-6.84v-10.84c0-2.209-1.791-4-4-4s-4,1.791-4,4v10.84
		h-6.84v-10.84c0-2.209-1.791-4-4-4s-4,1.791-4,4v10.84h-6.84v-10.84c0-2.209-1.791-4-4-4s-4,1.791-4,4v10.84h-6.84v-10.84
		c0-2.209-1.791-4-4-4s-4,1.791-4,4v10.84h-6.84v-10.84c0-2.209-1.791-4-4-4s-4,1.791-4,4v10.84h-6.84v-10.84c0-2.209-1.791-4-4-4
		s-4,1.791-4,4v10.84h-6.84v-10.84c0-2.209-1.791-4-4-4s-4,1.791-4,4v10.84h-6.839v-10.84c0-2.209-1.791-4-4-4s-4,1.791-4,4v10.84
		H83.33c-2.209,0-4,1.791-4,4v18.935h-6.118c-2.209,0-4,1.791-4,4v34.189c-7.095,3.849-13.772,8.013-19.969,12.478
		c-1.408,1.015-2.001,2.822-1.468,4.474c0.533,1.652,2.071,2.771,3.807,2.771h10.683l4.868,38.606l-41.196,19.649
		c-2.716-3.101-6.693-5.071-11.129-5.071C6.644,210.037,0,216.68,0,224.845s6.644,14.808,14.809,14.808s14.808-6.643,14.808-14.808
		c0-0.86-0.089-1.698-0.231-2.518l38.802-18.507l3.617,28.679h-8.309c-2.209,0-4,1.791-4,4s1.791,4,4,4h9.318l2.796,22.175
		c-2.922,3.112-5.432,6.658-7.434,10.57l-0.619-0.253c-2.044-0.834-4.38,0.146-5.215,2.191c-0.835,2.046,0.146,4.38,2.191,5.215
		l0.626,0.255c-2.892,9.303-2.669,18.956,0.158,27.732l-0.632,0.266c-2.036,0.855-2.994,3.2-2.138,5.237
		c0.644,1.53,2.127,2.451,3.689,2.451c0.517,0,1.042-0.101,1.548-0.313l0.632-0.266c4.29,8.161,11.03,15.075,19.698,19.521
		l-0.255,0.625c-0.835,2.045,0.146,4.38,2.191,5.215c0.495,0.202,1.007,0.298,1.511,0.298c1.576,0,3.071-0.938,3.704-2.489
		l0.253-0.62c4.422,1.378,8.99,2.084,13.63,2.084c4.892,0,9.643-0.767,14.123-2.2l0.246,0.585c0.644,1.53,2.127,2.451,3.689,2.451
		c0.517,0,1.042-0.101,1.548-0.313c2.036-0.855,2.994-3.2,2.138-5.237l-0.241-0.573c8.253-4.341,15.107-11.166,19.503-19.756
		l0.619,0.253c0.495,0.202,1.007,0.298,1.511,0.298c1.577,0,3.071-0.939,3.704-2.489c0.835-2.046-0.146-4.381-2.191-5.215
		l-0.626-0.255c2.891-9.303,2.669-18.956-0.158-27.731l0.633-0.266c2.036-0.855,2.994-3.2,2.138-5.237
		c-0.856-2.036-3.201-2.995-5.237-2.138l-0.633,0.266c-0.474-0.902-0.979-1.789-1.512-2.659h22.337
		c-0.609,0.996-1.183,2.019-1.721,3.069l-0.619-0.253c-2.045-0.835-4.38,0.146-5.215,2.191c-0.835,2.046,0.146,4.38,2.191,5.215
		l0.626,0.255c-2.891,9.303-2.669,18.956,0.158,27.731l-0.633,0.266c-2.036,0.855-2.994,3.2-2.138,5.237
		c0.644,1.53,2.127,2.451,3.689,2.451c0.517,0,1.042-0.101,1.548-0.313l0.633-0.266c4.29,8.161,11.029,15.075,19.698,19.521
		l-0.255,0.625c-0.835,2.045,0.146,4.38,2.191,5.215c0.495,0.202,1.007,0.298,1.511,0.298c1.576,0,3.071-0.938,3.704-2.489
		l0.253-0.62c4.422,1.378,8.99,2.084,13.63,2.084c4.893,0,9.643-0.767,14.124-2.2l0.246,0.585c0.643,1.531,2.127,2.452,3.689,2.452
		c0.517,0,1.041-0.101,1.547-0.313c2.037-0.855,2.994-3.2,2.139-5.236l-0.241-0.574c8.253-4.341,15.107-11.166,19.503-19.756
		l0.619,0.253c0.495,0.202,1.007,0.298,1.511,0.298c1.577,0,3.071-0.939,3.704-2.489c0.835-2.046-0.146-4.381-2.191-5.215
		l-0.626-0.255c2.891-9.303,2.669-18.956-0.158-27.731l0.633-0.266c2.036-0.855,2.994-3.2,2.138-5.237
		c-0.856-2.036-3.202-2.995-5.237-2.138l-0.633,0.266c-0.474-0.902-0.979-1.789-1.512-2.659h22.337
		c-0.609,0.996-1.183,2.019-1.721,3.069l-0.619-0.253c-2.046-0.835-4.38,0.146-5.215,2.191c-0.835,2.046,0.146,4.381,2.191,5.215
		l0.626,0.255c-2.891,9.303-2.669,18.956,0.158,27.731l-0.633,0.266c-2.036,0.855-2.994,3.2-2.138,5.237
		c0.644,1.53,2.127,2.451,3.689,2.451c0.517,0,1.042-0.101,1.548-0.313l0.633-0.266c4.29,8.161,11.029,15.075,19.698,19.521
		l-0.255,0.625c-0.835,2.045,0.146,4.38,2.191,5.215c0.495,0.202,1.007,0.298,1.511,0.298c1.576,0,3.071-0.938,3.704-2.489
		l0.253-0.62c4.422,1.378,8.99,2.084,13.63,2.084c4.893,0,9.643-0.767,14.124-2.2l0.246,0.585c0.643,1.531,2.127,2.452,3.689,2.452
		c0.517,0,1.041-0.101,1.547-0.313c2.037-0.855,2.994-3.2,2.139-5.236l-0.241-0.574c8.253-4.341,15.107-11.166,19.503-19.756
		l0.619,0.253c0.495,0.202,1.007,0.298,1.511,0.298c1.577,0,3.071-0.939,3.704-2.489c0.835-2.046-0.146-4.38-2.191-5.215
		l-0.626-0.255c2.891-9.303,2.669-18.956-0.158-27.731l0.633-0.266c2.036-0.855,2.994-3.2,2.138-5.237
		c-0.856-2.036-3.202-2.995-5.237-2.138l-0.633,0.266c-1.923-3.658-4.342-7.063-7.202-10.112l2.802-22.223h7.659l8.036,8.036
		c-1.217,1.873-2.122,3.964-2.624,6.207l-0.938-0.008c-0.012,0-0.023,0-0.035,0c-2.193,0-3.98,1.769-3.999,3.966
		c-0.019,2.209,1.757,4.016,3.966,4.034l0.934,0.008c0.475,2.318,1.375,4.48,2.608,6.413l-0.675,0.663
		c-1.575,1.55-1.597,4.082-0.048,5.657c0.783,0.796,1.817,1.195,2.853,1.195c1.013,0,2.025-0.382,2.805-1.147l0.675-0.664
		c1.912,1.265,4.058,2.201,6.367,2.715l-0.008,0.934c-0.019,2.209,1.757,4.016,3.966,4.034c0.012,0,0.023,0,0.035,0
		c2.193,0,3.98-1.769,3.999-3.966l0.008-0.93c2.314-0.476,4.47-1.386,6.403-2.621l0.673,0.684c0.783,0.796,1.817,1.195,2.853,1.195
		c1.013,0,2.025-0.382,2.805-1.147c1.575-1.55,1.597-4.082,0.048-5.657l-0.67-0.681c1.267-1.911,2.202-4.057,2.718-6.361
		l0.938,0.008c0.012,0,0.023,0,0.035,0c2.193,0,3.98-1.769,3.999-3.966C402.604,256.892,400.828,255.085,398.619,255.066z
		 M14.809,231.652c-3.754,0-6.809-3.054-6.809-6.808s3.055-6.808,6.809-6.808s6.808,3.054,6.808,6.808
		S18.563,231.652,14.809,231.652z M245.031,148.854v-34.092c18.906,1.905,37.078,5.343,54.038,10.183v23.909H245.031z
		 M307.069,127.358c17.697,5.645,33.923,12.862,48.087,21.496h-48.087V127.358z M237.031,114.052v34.802h-54.05v-34.802
		c8.881-0.685,17.904-1.04,27.024-1.04C219.127,113.012,228.15,113.368,237.031,114.052z M120.932,148.854v-23.906
		c16.963-4.842,35.139-8.281,54.05-10.186v34.093H120.932z M77.212,106.941h12.236v20.545c-4.185,1.75-8.271,3.589-12.236,5.527
		V106.941z M112.932,127.361v21.492H64.856C79.017,140.222,95.239,133.005,112.932,127.361z M349.684,156.854l-0.906,7.189H71.235
		l-0.907-7.189H349.684z M75.793,200.192l18.794-8.964c1.994-0.951,2.84-3.339,1.889-5.332c-0.95-1.994-3.338-2.837-5.332-1.889
		l-16.405,7.825l-2.495-19.789h275.525l-7.623,60.456H79.868L75.793,200.192z M127.121,327.892
		c-1.111-0.927-2.678-1.233-4.105-0.632c-1.429,0.601-2.31,1.938-2.422,3.385c-3.636,1.138-7.484,1.748-11.445,1.748
		c-3.755,0-7.456-0.557-11.044-1.652c-0.134-1.437-1.025-2.755-2.454-3.338c-1.426-0.583-2.983-0.267-4.084,0.663
		c-6.999-3.641-12.461-9.238-15.977-15.835c0.912-1.11,1.209-2.665,0.614-4.082c-0.596-1.416-1.914-2.293-3.345-2.418
		c-2.25-7.126-2.426-14.941-0.132-22.486c1.436-0.135,2.75-1.035,3.333-2.462c0.581-1.423,0.268-2.974-0.656-4.075
		c3.597-6.929,9.136-12.441,15.794-16c0.718,0.6,1.627,0.939,2.568,0.939c0.517,0,1.041-0.101,1.547-0.313
		c1.43-0.601,2.31-1.938,2.422-3.385c3.637-1.138,7.485-1.748,11.447-1.748c3.755,0,7.456,0.557,11.044,1.652
		c0.134,1.437,1.025,2.755,2.454,3.338c0.495,0.202,1.007,0.298,1.511,0.298c0.949,0,1.865-0.345,2.585-0.955
		c6.993,3.641,12.452,9.236,15.966,15.829c-0.912,1.11-1.209,2.665-0.613,4.082c0.596,1.417,1.914,2.302,3.347,2.426
		c2.249,7.126,2.423,14.942,0.127,22.487c-1.434,0.136-2.749,1.027-3.332,2.454c-0.581,1.423-0.268,2.975,0.656,4.076
		C139.327,318.82,133.784,324.334,127.121,327.892z M227.965,327.891c-1.111-0.927-2.678-1.232-4.104-0.632
		c-1.43,0.601-2.31,1.938-2.422,3.384c-3.637,1.138-7.485,1.749-11.447,1.749c-3.755,0-7.456-0.557-11.044-1.652
		c-0.134-1.437-1.025-2.755-2.454-3.338c-1.425-0.583-2.983-0.267-4.084,0.663c-6.999-3.642-12.461-9.238-15.977-15.835
		c0.912-1.11,1.209-2.665,0.613-4.082c-0.595-1.416-1.914-2.293-3.345-2.418c-2.251-7.126-2.427-14.941-0.132-22.486
		c1.435-0.135,2.75-1.035,3.333-2.462c0.581-1.423,0.268-2.974-0.656-4.075c3.597-6.929,9.136-12.441,15.794-16
		c0.718,0.6,1.627,0.939,2.568,0.939c0.517,0,1.041-0.101,1.547-0.313c1.43-0.601,2.31-1.938,2.422-3.385
		c3.637-1.138,7.485-1.748,11.447-1.748c3.755,0,7.456,0.557,11.044,1.652c0.134,1.437,1.025,2.755,2.454,3.338
		c0.495,0.202,1.007,0.298,1.511,0.298c0.949,0,1.865-0.345,2.585-0.955c6.993,3.641,12.452,9.236,15.966,15.829
		c-0.912,1.11-1.209,2.665-0.613,4.082c0.596,1.417,1.914,2.302,3.347,2.426c2.249,7.126,2.423,14.942,0.127,22.487
		c-1.434,0.136-2.749,1.027-3.332,2.454c-0.581,1.423-0.268,2.975,0.656,4.076C240.17,318.819,234.628,324.333,227.965,327.891z
		 M328.808,327.891c-1.111-0.927-2.678-1.232-4.104-0.632c-1.43,0.601-2.31,1.938-2.422,3.384
		c-3.637,1.138-7.485,1.749-11.447,1.749c-3.755,0-7.456-0.557-11.044-1.652c-0.134-1.437-1.025-2.755-2.454-3.338
		c-1.426-0.583-2.983-0.267-4.084,0.663c-6.999-3.641-12.461-9.238-15.977-15.835c0.912-1.11,1.209-2.665,0.613-4.082
		c-0.596-1.416-1.914-2.293-3.345-2.418c-2.251-7.126-2.427-14.941-0.132-22.486c1.436-0.135,2.751-1.034,3.334-2.462
		c0.581-1.423,0.268-2.975-0.656-4.076c3.597-6.928,9.135-12.44,15.793-15.999c0.718,0.6,1.627,0.939,2.568,0.939
		c0.517,0,1.041-0.101,1.547-0.313c1.43-0.601,2.31-1.938,2.422-3.385c3.637-1.138,7.485-1.748,11.447-1.748
		c3.755,0,7.456,0.557,11.044,1.652c0.134,1.437,1.025,2.755,2.454,3.338c0.495,0.202,1.007,0.298,1.511,0.298
		c0.949,0,1.865-0.345,2.585-0.955c6.993,3.641,12.452,9.236,15.966,15.829c-0.912,1.11-1.209,2.665-0.613,4.082
		c0.596,1.417,1.914,2.302,3.347,2.426c2.249,7.127,2.423,14.942,0.127,22.487c-1.433,0.137-2.748,1.028-3.33,2.453
		c-0.581,1.423-0.268,2.974,0.656,4.075C341.014,318.819,335.471,324.333,328.808,327.891z M337.125,256.446
		c-1.652-1.147-3.395-2.194-5.224-3.132l0.255-0.625c0.835-2.045-0.146-4.38-2.191-5.215c-2.043-0.834-4.38,0.145-5.215,2.191
		l-0.253,0.62c-4.422-1.378-8.99-2.084-13.631-2.084c-4.893,0-9.643,0.767-14.124,2.2l-0.246-0.585
		c-0.854-2.038-3.2-2.996-5.236-2.139c-2.037,0.855-2.994,3.2-2.139,5.236l0.241,0.574c-4.292,2.257-8.203,5.188-11.59,8.687
		h-34.738c-3.411-3.518-7.428-6.529-11.977-8.861l0.255-0.625c0.835-2.045-0.146-4.38-2.191-5.215
		c-2.044-0.834-4.38,0.145-5.215,2.191l-0.253,0.62c-4.422-1.378-8.99-2.084-13.631-2.084c-4.893,0-9.643,0.767-14.124,2.2
		l-0.246-0.585c-0.854-2.038-3.2-2.996-5.236-2.139c-2.037,0.855-2.994,3.2-2.139,5.236l0.241,0.574
		c-4.292,2.257-8.203,5.188-11.59,8.687h-34.738c-3.411-3.518-7.428-6.529-11.977-8.861l0.255-0.625
		c0.835-2.045-0.146-4.38-2.191-5.215c-2.042-0.834-4.38,0.145-5.215,2.191l-0.253,0.62c-4.422-1.378-8.99-2.084-13.631-2.084
		c-4.893,0-9.643,0.767-14.124,2.2l-0.246-0.585c-0.854-2.038-3.199-2.996-5.236-2.139c-2.037,0.855-2.994,3.2-2.139,5.236
		l0.241,0.574c-1.659,0.873-3.259,1.85-4.796,2.917l-2.006-15.906h258.26L337.125,256.446z M367.806,258.807
		c0.013-1.565,0.358-3.052,0.96-4.402l6.78,6.78c0.78,0.781,1.805,1.172,2.828,1.172s2.048-0.391,2.828-1.172
		c1.563-1.562,1.563-4.095,0-5.656l-6.775-6.775c1.407-0.63,2.964-0.989,4.61-0.989c2.974,0.024,5.761,1.207,7.846,3.328
		c2.086,2.121,3.221,4.927,3.195,7.902c-0.051,6.088-5.045,11.042-11.132,11.042l-0.099-0.001
		C372.708,269.984,367.754,264.947,367.806,258.807z"/>
	<path d="M215.951,279.739c-1.9-0.776-3.898-1.17-5.938-1.17c-6.42,0-12.136,3.841-14.562,9.785
		c-3.277,8.026,0.587,17.223,8.614,20.5c1.9,0.776,3.898,1.17,5.938,1.17c6.42,0,12.136-3.841,14.562-9.785
		c1.588-3.888,1.565-8.162-0.062-12.034S219.84,281.326,215.951,279.739z M217.159,297.216c-1.192,2.921-4.001,4.809-7.155,4.809
		c-0.998,0-1.979-0.194-2.915-0.576c-3.942-1.61-5.841-6.127-4.231-10.07c1.192-2.921,4.001-4.809,7.155-4.809
		c0.998,0,1.979,0.194,2.915,0.576c1.91,0.78,3.401,2.257,4.201,4.159C217.928,293.206,217.938,295.306,217.159,297.216z"/>
	<path d="M316.794,279.739c-1.9-0.776-3.898-1.17-5.938-1.17c-6.42,0-12.136,3.841-14.562,9.785
		c-1.588,3.888-1.565,8.162,0.062,12.034s4.664,6.879,8.553,8.466c1.9,0.776,3.898,1.17,5.938,1.17
		c6.42,0,12.136-3.841,14.562-9.785C328.686,292.213,324.821,283.017,316.794,279.739z M318.002,297.216
		c-1.192,2.921-4.001,4.809-7.155,4.809c-0.998,0-1.979-0.194-2.915-0.576c-1.91-0.78-3.401-2.257-4.201-4.159
		c-0.799-1.901-0.81-4.001-0.03-5.911c1.192-2.921,4.001-4.809,7.155-4.809c0.998,0,1.979,0.194,2.915,0.576
		C317.713,288.756,319.611,293.273,318.002,297.216z"/>
	<path d="M210.006,184.818c-10.482,0-19.011,8.528-19.011,19.011s8.528,19.011,19.011,19.011s19.011-8.528,19.011-19.011
		S220.488,184.818,210.006,184.818z M210.006,214.84c-6.071,0-11.011-4.939-11.011-11.011s4.939-11.011,11.011-11.011
		s11.011,4.939,11.011,11.011S216.077,214.84,210.006,214.84z"/>
	<path d="M136.752,184.818c-10.482,0-19.011,8.528-19.011,19.011s8.528,19.011,19.011,19.011s19.011-8.528,19.011-19.011
		S147.234,184.818,136.752,184.818z M136.752,214.84c-6.071,0-11.011-4.939-11.011-11.011s4.939-11.011,11.011-11.011
		s11.011,4.939,11.011,11.011S142.823,214.84,136.752,214.84z"/>
	<path d="M283.26,184.818c-10.482,0-19.011,8.528-19.011,19.011s8.528,19.011,19.011,19.011c10.483,0,19.012-8.528,19.012-19.011
		S293.743,184.818,283.26,184.818z M283.26,214.84c-6.071,0-11.011-4.939-11.011-11.011s4.939-11.011,11.011-11.011
		c6.072,0,11.012,4.939,11.012,11.011S289.332,214.84,283.26,214.84z"/>
</g>
<g>
</g>
<g>
</g>
<g>
</g>
<g>
</g>
<g>
</g>
<g>
</g>
<g>
</g>
<g>
</g>
<g>
</g>
<g>
</g>
<g>
</g>
<g>
</g>
<g>
</g>
<g>
</g>
<g>
</g>
</svg>
