<?xml version="1.0" encoding="iso-8859-1"?>
<!-- Generator: Adobe Illustrator 18.0.0, SVG Export Plug-In . SVG Version: 6.00 Build 0)  -->
<!DOCTYPE svg PUBLIC "-//W3C//DTD SVG 1.1//EN" "http://www.w3.org/Graphics/SVG/1.1/DTD/svg11.dtd">
<svg version="1.1" id="Capa_1" xmlns="http://www.w3.org/2000/svg" xmlns:xlink="http://www.w3.org/1999/xlink" x="0px" y="0px"
	 viewBox="0 0 311.94 311.94" style="enable-background:new 0 0 311.94 311.94;" xml:space="preserve">
<g>
	<path d="M148.297,39.769c-36.35,0-70.524,14.155-96.227,39.858c-53.06,53.06-53.06,139.394,0,192.454
		c25.703,25.703,59.877,39.858,96.227,39.858c36.35,0,70.524-14.155,96.227-39.858c53.06-53.06,53.06-139.394,0-192.454
		C218.821,53.924,184.647,39.769,148.297,39.769z M271.474,165.86c-8.235-5.915-18.998-2.783-29.532,8.588
		c-8.691,9.382-15.31,21.945-19.67,37.341c-0.602,2.125,0.633,4.336,2.759,4.938c2.127,0.601,4.336-0.634,4.938-2.759
		c4.013-14.169,10.016-25.637,17.842-34.084c3.54-3.822,12.475-12.208,18.997-7.527c8.074,5.799,7.154,21.44,6.385,27.895
		c-1.709,14.318-7.573,26.757-15.687,33.274c-2.358,1.895-5.645,3.751-7.902,1.84c-2.635-2.23-3.822-7.371-3.344-14.476
		c0.148-2.204-1.519-4.111-3.723-4.26c-2.226-0.138-4.111,1.519-4.26,3.723c-0.672,9.986,1.399,17.091,6.158,21.119
		c2.164,1.832,4.646,2.741,7.302,2.741c1.832,0,3.748-0.447,5.699-1.306c-5.142,8.369-11.327,16.273-18.569,23.516
		c-1.59,1.59-3.216,3.13-4.873,4.625c-3.667-4.799-6.198-12.047-7.225-20.88c-0.256-2.194-2.241-3.763-4.437-3.511
		c-2.194,0.255-3.766,2.241-3.511,4.436c1.23,10.565,4.34,19.14,9.059,25.132c-16.61,13.223-36.039,21.995-56.813,25.702
		c5.189-6.479,10.531-16.472,12.156-31.099c0.244-2.196-1.338-4.173-3.534-4.417c-2.186-0.244-4.173,1.338-4.417,3.534
		c-2.288,20.594-12.727,30.327-17.241,33.631c-3.223,0.241-6.469,0.364-9.735,0.364c-34.213,0-66.378-13.323-90.57-37.516
		c-33.004-33.004-44.189-79.685-33.57-121.967c11.195,1.303,26.82,4.299,43.035,11.16c0.509,0.215,1.037,0.317,1.557,0.317
		c1.559,0,3.04-0.917,3.686-2.442c0.861-2.034-0.09-4.381-2.125-5.242c-16.441-6.957-32.288-10.139-43.936-11.586
		c6.01-18.804,16.459-36.485,31.354-51.379C68.941,74.071,81.87,65.197,95.92,58.898c-0.781,0.832-1.538,1.704-2.252,2.627
		c-5.132,6.638-6.665,13.818-4.432,20.764c0.676,2.103,2.932,3.261,5.032,2.584c2.104-0.676,3.26-2.929,2.584-5.032
		c-3.119-9.701,6.766-18.895,16.179-23.821c8.789-4.599,19.379-7.341,31.542-8.193c1.239-0.035,2.48-0.058,3.724-0.058
		c12.251,0,24.237,1.717,35.691,5.022c2.36,0.884,4.63,1.872,6.793,2.972c5.949,3.025,9.001,6.12,9.604,9.737
		c0.85,5.096-4.18,9.225-6.381,10.763c-11.526,8.055-26.655,7.89-37.317,6.332c-2.189-0.324-4.217,1.194-4.536,3.38
		c-0.319,2.186,1.194,4.217,3.38,4.536c3.699,0.54,7.881,0.924,12.299,0.924c10.028,0,21.264-1.981,30.757-8.614
		c7.284-5.089,10.815-11.882,9.689-18.635c-0.103-0.615-0.243-1.208-0.409-1.783c8.589,4.523,16.694,10.047,24.165,16.52
		c-8.145,14.582-23.589,20.575-35.122,23.032c-2.16,0.46-3.538,2.585-3.078,4.746c0.4,1.88,2.061,3.167,3.908,3.167
		c0.276,0,0.557-0.029,0.838-0.089c12.722-2.711,29.678-9.305,39.469-25.296c0.273,0.269,0.551,0.531,0.823,0.803
		c23.661,23.662,36.104,54.354,37.344,85.415C274.927,168.867,273.37,167.222,271.474,165.86z"/>
	<path d="M137.556,85.235c0.603,0.324,1.251,0.478,1.891,0.478c1.425,0,2.804-0.764,3.526-2.106
		c1.046-1.946,0.317-4.371-1.628-5.417c-1.062-0.571-6.264-3.626-4.383-7.716c1.226-2.667,4.829-4.64,11.012-6.032
		c6.876-1.548,17.445-1.943,24.605,2.034c1.188,0.66,1.884,1.448,1.862,2.11c-0.027,0.803-0.928,2.024-2.877,2.94
		c-2,0.94-2.858,3.322-1.919,5.322c0.94,1.999,3.322,2.859,5.321,1.918c4.54-2.133,7.332-5.838,7.47-9.91
		c0.128-3.778-2.05-7.195-5.973-9.374c-9.12-5.066-21.604-4.792-30.247-2.845c-5.602,1.261-13.409,3.721-16.523,10.494
		C126.632,73.785,129.792,81.061,137.556,85.235z"/>
	<path d="M100.492,96.756c2.997,2.273,6.354,4.294,10.263,6.181c0.561,0.271,1.152,0.398,1.735,0.398
		c1.487,0,2.916-0.833,3.605-2.263c0.96-1.99,0.125-4.381-1.864-5.341c-3.424-1.652-6.337-3.402-8.906-5.35
		c-1.76-1.335-4.27-0.991-5.604,0.77C98.387,92.913,98.732,95.422,100.492,96.756z"/>
	<path d="M179.091,111.757c0.047,0.001,4.807-0.026,7.63-0.253c2.202-0.177,3.844-2.106,3.667-4.308
		c-0.177-2.203-2.137-3.843-4.308-3.667c-4.037,0.325-6.639,0.235-6.68,0.233c-2.181-0.089-4.063,1.634-4.149,3.84
		C175.165,109.81,176.884,111.67,179.091,111.757z"/>
	<path d="M201.867,133.619c0.336,0,9.337-2.448,13.524-3.81c2.101-0.683,3.25-2.94,2.566-5.041c-0.684-2.101-2.938-3.25-5.041-2.567
		c-4.04,1.314-8.099,2.507-12.062,3.547c-2.138,0.561-3.415,2.748-2.854,4.884C198.472,132.43,200.092,133.619,201.867,133.619z"/>
	<path d="M187.617,128.737c-46.298,8.716-77.082-4.029-94.75-16.257c-1.817-1.257-4.309-0.804-5.565,1.013
		c-1.257,1.816-0.804,4.308,1.013,5.565c14.605,10.108,37.502,20.561,69.73,20.561c9.526,0,19.871-0.914,31.054-3.02
		c2.171-0.409,3.6-2.5,3.19-4.671C191.879,129.756,189.781,128.326,187.617,128.737z"/>
	<path d="M77.141,110.083c0.771,0.723,1.753,1.081,2.733,1.081c1.068,0,2.133-0.425,2.92-1.266c1.51-1.612,1.427-4.144-0.185-5.654
		c-3.733-3.497-5.615-5.951-5.675-6.029c-1.327-1.763-3.831-2.119-5.596-0.795c-1.768,1.326-2.125,3.833-0.8,5.6
		C70.63,103.141,72.805,106.021,77.141,110.083z"/>
	<path d="M41.149,171.992c-1.633-0.278-3.294-0.535-4.938-0.763c-2.188-0.302-4.208,1.224-4.512,3.411
		c-0.304,2.188,1.223,4.208,3.412,4.513c1.563,0.217,5.149,0.783,5.373,0.783c1.915,0,3.607-1.379,3.938-3.33
		C44.792,174.428,43.327,172.362,41.149,171.992z"/>
	<path d="M53.789,182.977c13.524,3.751,45.748,15.723,52.875,45.778c0.436,1.839,2.077,3.078,3.889,3.078
		c0.306,0,0.616-0.035,0.926-0.109c2.149-0.51,3.479-2.666,2.969-4.815c-3.121-13.162-10.671-24.582-22.441-33.944
		c-9.71-7.724-22.186-13.843-36.079-17.697c-2.125-0.589-4.333,0.656-4.924,2.785C50.414,180.182,51.66,182.386,53.789,182.977z"/>
	<path d="M110.315,242.16c-2.004-0.927-4.382-0.057-5.311,1.948c-1.013,2.187-2.39,4.152-4.093,5.843
		c-1.568,1.557-1.577,4.089-0.02,5.657c0.782,0.788,1.81,1.182,2.838,1.182c1.019,0,2.039-0.387,2.818-1.162
		c2.378-2.362,4.301-5.106,5.715-8.157C113.191,245.466,112.319,243.088,110.315,242.16z"/>
	<path d="M90.255,255.468c-8.356,1.642-17.778-1.182-24.588-7.365c-12.756-11.582-12.75-24.255-8.729-29.174
		c3.817-4.669,8.713-5.013,12.147-4.479c6.578,1.022,13.085,6.143,15.473,12.175c0.813,2.054,3.139,3.062,5.191,2.247
		c2.054-0.813,3.06-3.137,2.247-5.191c-3.473-8.774-12.187-15.66-21.683-17.136c-7.773-1.208-14.724,1.392-19.57,7.321
		c-10.192,12.469-0.554,30.991,9.545,40.16c6.995,6.351,16.232,9.895,25.219,9.894c2.12,0,4.228-0.197,6.288-0.602
		c2.168-0.426,3.58-2.528,3.155-4.696C94.525,256.455,92.424,255.042,90.255,255.468z"/>
	<path d="M82.824,236.937c-2.256,1.781-4.846,1.359-6.622,0.692c-3.652-1.372-6.874-4.924-7.496-8.263
		c-0.404-2.171-2.489-3.603-4.665-3.2c-2.172,0.405-3.604,2.493-3.2,4.665c1.129,6.061,6.289,11.936,12.547,14.287
		c1.924,0.723,3.86,1.08,5.739,1.08c3.157,0,6.152-1.008,8.651-2.98c1.734-1.368,2.031-3.883,0.663-5.618
		C87.074,235.865,84.558,235.568,82.824,236.937z"/>
	<path d="M109.058,172.892c-1.629-1.493-4.159-1.385-5.652,0.243c-1.494,1.628-1.385,4.158,0.243,5.652
		c10.774,9.886,29.278,29.985,32.162,53.524c1.465,11.963-1.974,23.543-9.683,32.606c-3.238,3.808-6.859,6.886-10.763,9.15
		c-1.911,1.108-2.562,3.556-1.453,5.467c0.742,1.279,2.084,1.994,3.464,1.994c0.681,0,1.372-0.174,2.003-0.541
		c4.693-2.722,9.014-6.385,12.843-10.887c9.176-10.787,13.271-24.552,11.53-38.762C140.556,205.252,120.643,183.523,109.058,172.892
		z"/>
	<path d="M94.011,170.834c0.716,0.531,1.551,0.788,2.379,0.788c1.223,0,2.431-0.56,3.216-1.618c1.316-1.774,0.944-4.28-0.831-5.595
		c-1.901-1.41-3.876-2.792-5.871-4.108c-1.844-1.217-4.325-0.708-5.542,1.135c-1.217,1.844-0.708,4.325,1.135,5.542
		C90.371,168.213,92.226,169.511,94.011,170.834z"/>
	<path d="M151.585,173.576c-1.26-1.815-3.749-2.266-5.564-1.009s-2.268,3.749-1.012,5.564c0.312,0.451,30.974,45.477,13.988,80.185
		c-0.971,1.984-0.149,4.38,1.835,5.351c0.565,0.277,1.165,0.408,1.755,0.408c1.479,0,2.901-0.824,3.596-2.243
		c7.945-16.236,7.9-36.706-0.13-59.195C160.089,185.937,151.928,174.072,151.585,173.576z"/>
	<path d="M257.729,197.605c2.204-1.072,3.393,3.135,3.063,8.028c-0.148,2.204,1.518,4.112,3.722,4.26
		c0.092,0.006,0.183,0.009,0.273,0.009c2.086,0,3.845-1.618,3.987-3.73c0.482-7.146-1.438-12.739-5.267-15.344
		c-2.692-1.832-5.965-1.991-9.21-0.45c-1.996,0.948-2.845,3.334-1.897,5.33C253.348,197.704,255.744,198.571,257.729,197.605z"/>
	<path d="M219.052,227.503c-0.246,1.928-0.436,3.879-0.563,5.801c-0.147,2.204,1.521,4.11,3.725,4.257
		c0.091,0.006,0.181,0.009,0.271,0.009c2.088,0,3.846-1.62,3.987-3.734c0.117-1.762,0.291-3.552,0.517-5.322
		c0.279-2.191-1.271-4.194-3.463-4.473C221.339,223.759,219.331,225.313,219.052,227.503z"/>
	<path d="M215.557,170.546c-1.205,1.852-0.681,4.33,1.171,5.535c0.674,0.438,1.43,0.647,2.178,0.647c1.309,0,2.59-0.641,3.356-1.819
		c11.387-17.501,23.308-27.803,36.441-31.495c2.127-0.598,3.366-2.806,2.769-4.933c-0.598-2.126-2.809-3.368-4.933-2.768
		C241.455,139.953,228.048,151.347,215.557,170.546z"/>
	<path d="M206.98,213.368c0.409-2.171-1.019-4.263-3.189-4.672c-2.163-0.412-4.263,1.018-4.672,3.189
		c-6.977,36.974,4.454,68.118,4.943,69.425c0.603,1.606,2.126,2.596,3.745,2.596c0.466,0,0.939-0.082,1.4-0.254
		c2.068-0.773,3.118-3.077,2.348-5.146C211.443,278.206,200.433,248.065,206.98,213.368z"/>
	<path d="M271.124,0c-15.738,0-28.542,12.804-28.542,28.542c0,15.738,12.804,28.542,28.542,28.542
		c15.737,0,28.541-12.804,28.541-28.542C299.665,12.804,286.861,0,271.124,0z M271.124,49.083c-11.327,0-20.542-9.215-20.542-20.542
		S259.797,8,271.124,8c11.326,0,20.541,9.215,20.541,20.542S282.45,49.083,271.124,49.083z"/>
</g>
<g>
</g>
<g>
</g>
<g>
</g>
<g>
</g>
<g>
</g>
<g>
</g>
<g>
</g>
<g>
</g>
<g>
</g>
<g>
</g>
<g>
</g>
<g>
</g>
<g>
</g>
<g>
</g>
<g>
</g>
</svg>
