<?xml version="1.0" encoding="iso-8859-1"?>
<!-- Generator: Adobe Illustrator 18.0.0, SVG Export Plug-In . SVG Version: 6.00 Build 0)  -->
<!DOCTYPE svg PUBLIC "-//W3C//DTD SVG 1.1//EN" "http://www.w3.org/Graphics/SVG/1.1/DTD/svg11.dtd">
<svg version="1.1" id="Capa_1" xmlns="http://www.w3.org/2000/svg" xmlns:xlink="http://www.w3.org/1999/xlink" x="0px" y="0px"
	 viewBox="0 0 462.309 462.309" style="enable-background:new 0 0 462.309 462.309;" xml:space="preserve">
<g>
	<path d="M304.48,240.914v-35.686c0-6.382-3.556-11.947-8.788-14.827v-1.994c0-0.777-0.227-1.538-0.652-2.189l-16.599-25.387
		c-0.738-1.13-1.998-1.811-3.348-1.811h-9.67V70.282c0-26.614-11.535-51.875-31.649-69.305c-1.502-1.305-3.736-1.303-5.238,0
		c-20.114,17.43-31.65,42.69-31.65,69.305v88.739h-9.67c-1.35,0-2.609,0.681-3.348,1.811l-16.599,25.387
		c-0.426,0.651-0.652,1.412-0.652,2.189v1.994c-5.232,2.879-8.788,8.444-8.788,14.827v35.686c0,6.382,3.556,11.947,8.788,14.827
		v75.739c-1.536-0.384-3.135-0.61-4.788-0.61c-2.209,0-4,1.791-4,4v81.84c0,6.845,3.493,12.888,8.788,16.446v11.073
		c0,2.209,1.791,4,4,4h3.519v10.08c0,2.209,1.791,4,4,4h15.135c2.209,0,4-1.791,4-4v-10.08h3.615c2.209,0,4-1.791,4-4V428.7h3.629
		v10.092c0,2.209,1.791,4,4,4h7.806v15.517c0,2.209,1.791,4,4,4h15.134c2.209,0,4-1.791,4-4v-15.517h6.341c2.209,0,4-1.791,4-4
		V428.7h3.629v15.528c0,2.209,1.791,4,4,4h3.616v10.08c0,2.209,1.791,4,4,4h15.134c2.209,0,4-1.791,4-4v-10.08h3.519
		c2.209,0,4-1.791,4-4v-11.073c5.295-3.558,8.788-9.601,8.788-16.446v-81.84c0-2.209-1.791-4-4-4c-1.654,0-3.252,0.226-4.788,0.61
		v-75.739C300.924,252.862,304.48,247.297,304.48,240.914z M296.48,240.914c0,4.915-3.999,8.914-8.914,8.914h-5.544v-53.514h5.544
		c4.915,0,8.914,3.999,8.914,8.914V240.914z M272.929,167.022l13.922,21.293h-8.83c-2.209,0-4,1.791-4,4v8.205h-8.599v-33.498
		H272.929z M188.287,208.52h8.599v5.182h-8.599V208.52z M204.885,128.942h52.538v37.403h-52.538V128.942z M257.423,120.942h-52.538
		V88.421h52.538V120.942z M204.885,174.345h52.538v8.216h-52.538V174.345z M265.423,208.52h8.599v5.182h-8.599V208.52z
		 M231.155,9.392c16.737,15.784,26.269,37.778,26.269,60.891v10.139h-52.538V70.282C204.885,47.17,214.418,25.175,231.155,9.392z
		 M189.38,167.022h7.506v33.498h-8.599v-8.205c0-2.209-1.791-4-4-4h-8.83L189.38,167.022z M165.829,205.229
		c0-4.915,3.999-8.914,8.914-8.914h5.544v53.514h-5.544c-4.915,0-8.914-3.999-8.914-8.914V205.229z M174.617,257.828
		c0.042,0,9.67,0,9.67,0c2.209,0,4-1.791,4-4v-32.127h8.599v187.282h-8.599v-31.33c0-4.461-2.756-8.291-6.655-9.876v-17.104
		c0-6.045-2.73-11.459-7.015-15.094V257.828z M165.829,339.568c4.545,1.643,7.803,6.001,7.803,11.105v20.325c0,2.209,1.791,4,4,4
		c1.464,0,2.655,1.191,2.655,2.655v50.858h-2.655c-6.508,0-11.803-5.294-11.803-11.802V339.568z M177.631,436.512h6.655
		c2.209,0,4-1.791,4-4v-15.528h8.599v23.245h-22.269v-3.971C175.602,436.409,176.604,436.512,177.631,436.512z M189.27,454.309
		h-7.135v-6.08h7.135V454.309z M235.454,454.309h-7.134v-11.517h7.134V454.309z M245.795,434.792h-29.28V428.7h29.28V434.792z
		 M204.885,420.7v-230.14h52.538V420.7H204.885z M280.173,454.309h-7.134v-6.08h7.134V454.309z M287.692,440.229h-22.269v-23.245
		h8.599v15.528c0,2.209,1.791,4,4,4h6.656c1.027,0,2.028-0.103,3.014-0.254V440.229z M296.48,416.71
		c0,6.508-5.294,11.802-11.802,11.802h-2.656v-50.858c0-1.464,1.191-2.655,2.656-2.655c2.209,0,4-1.791,4-4v-20.325
		c0-5.104,3.257-9.463,7.802-11.104V416.71z M287.692,335.579c-4.283,3.635-7.014,9.049-7.014,15.094v17.104
		c-3.899,1.584-6.656,5.414-6.656,9.876v31.33h-8.599V221.701h8.599v32.127c0,2.209,1.791,4,4,4c0,0,9.627,0,9.67,0V335.579z"/>
	<path d="M212.602,104.043h37.104c2.209,0,4-1.791,4-4s-1.791-4-4-4h-37.104c-2.209,0-4,1.791-4,4S210.393,104.043,212.602,104.043z
		"/>
</g>
<g>
</g>
<g>
</g>
<g>
</g>
<g>
</g>
<g>
</g>
<g>
</g>
<g>
</g>
<g>
</g>
<g>
</g>
<g>
</g>
<g>
</g>
<g>
</g>
<g>
</g>
<g>
</g>
<g>
</g>
</svg>
