<?xml version="1.0" encoding="iso-8859-1"?>
<!-- Generator: Adobe Illustrator 18.0.0, SVG Export Plug-In . SVG Version: 6.00 Build 0)  -->
<!DOCTYPE svg PUBLIC "-//W3C//DTD SVG 1.1//EN" "http://www.w3.org/Graphics/SVG/1.1/DTD/svg11.dtd">
<svg version="1.1" id="Capa_1" xmlns="http://www.w3.org/2000/svg" xmlns:xlink="http://www.w3.org/1999/xlink" x="0px" y="0px"
	 viewBox="0 0 431.604 431.604" style="enable-background:new 0 0 431.604 431.604;" xml:space="preserve">
<g>
	<path d="M355.517,357.74v-28.411c0-12.308-4.486-24.165-12.631-33.388l-29.789-33.739c-2.401-2.722-4.738-5.548-6.991-8.401
		v-86.542c0-2.209-1.791-4-4-4h-38.768v-29.557c0-39.628-7.137-78.502-21.213-115.545C237.868,6.957,227.781,0,215.8,0
		c-11.981,0-22.068,6.957-26.324,18.157c-14.076,37.044-21.213,75.919-21.213,115.545v29.557h-38.768c-2.209,0-4,1.791-4,4v86.537
		c-2.248,2.847-4.586,5.674-6.997,8.406L88.72,295.938c-8.147,9.212-12.634,21.07-12.634,33.391v28.411l92.18,14.17l-0.005,55.693
		c0,2.209,1.791,4,4,4h32.734c2.209,0,4-1.791,4-4v-31.747h13.608v31.747c0,2.209,1.791,4,4,4h32.734c2.209,0,4-1.791,4-4
		l-0.001-55.693L355.517,357.74z M239.297,313.259h-47v-16h47V313.259z M243.297,289.259h-55c-2.209,0-4,1.791-4,4v20h-8.035v-89
		h79.076v89h-8.041v-20C247.297,291.05,245.506,289.259,243.297,289.259z M168.262,293.259h-34.768v-13.8h34.768V293.259z
		 M168.262,271.459h-34.768v-13.8h34.768V271.459z M168.262,206.059h-34.768v-13.8h34.768V206.059z M168.262,214.059v13.801h-34.768
		v-13.801H168.262z M168.262,235.859v13.8h-34.768v-13.8H168.262z M133.494,301.259h34.768v12h-34.768V301.259z M255.335,133.504
		h-79.071c0.019-30.263,4.323-60.073,12.786-88.93h53.5C251.012,73.431,255.317,103.239,255.335,133.504z M263.338,192.259h34.768
		v13.8h-34.768V192.259z M263.338,301.259h34.768v12h-34.768V301.259z M263.338,214.059h34.768v13.801h-34.768V214.059z
		 M263.338,235.859h34.768v13.8h-34.768V235.859z M263.338,257.659h34.768v13.8h-34.768V257.659z M263.338,279.459h34.768v13.8
		h-34.768V279.459z M176.262,171.259h79.076v45h-79.076V171.259z M255.338,141.504v21.755h-79.076v-21.755H255.338z
		 M263.338,363.817v-23.49h84.179v10.55L263.338,363.817z M307.098,267.496l29.791,33.74c6.854,7.761,10.628,17.737,10.628,28.093
		v2.998h-84.179v-11.068h38.768c2.209,0,4-1.791,4-4v-50.924C306.439,266.719,306.763,267.116,307.098,267.496z M298.106,171.259v13
		h-34.768v-13H298.106z M196.954,20.999C200.596,11.414,209.077,8,215.8,8c6.723,0,15.204,3.414,18.846,12.999
		c1.959,5.155,3.764,10.35,5.447,15.575h-48.585C193.19,31.35,194.995,26.154,196.954,20.999z M168.262,171.259v13h-34.768v-13
		H168.262z M94.716,301.235l29.781-33.74c0.338-0.383,0.662-0.781,0.998-1.167v50.931c0,2.209,1.791,4,4,4h38.768v11.068H84.087
		v-2.998C84.087,318.963,87.861,308.987,94.716,301.235z M84.087,340.327h84.175v23.489l-84.175-12.939V340.327z M200.996,423.604
		h-24.734l0.005-38.408c0.104-14.392,10.839-26.303,24.729-28.245V423.604z M222.604,352.673v35.184h-13.608v-35.184
		c0-2.209-1.791-4-4-4c-11.625,0-21.998,5.434-28.734,13.888v-41.302h79.076v41.302c-6.736-8.454-17.109-13.888-28.734-13.888
		C224.395,348.673,222.604,350.464,222.604,352.673z M230.604,423.604V356.95c13.944,1.95,24.712,13.946,24.733,28.414l0.001,38.239
		H230.604z"/>
	<path d="M186.588,105.537h8c0-8.977,7.303-16.279,16.28-16.279v-8C197.48,81.258,186.588,92.149,186.588,105.537z"/>
	<path d="M237.011,105.537h8c0-13.388-10.892-24.279-24.28-24.279v8C229.708,89.258,237.011,96.561,237.011,105.537z"/>
	<path d="M215.8,177.259c-9.649,0-17.5,7.851-17.5,17.5s7.851,17.5,17.5,17.5s17.5-7.851,17.5-17.5S225.449,177.259,215.8,177.259z
		 M215.8,204.259c-5.238,0-9.5-4.262-9.5-9.5s4.262-9.5,9.5-9.5s9.5,4.262,9.5,9.5S221.038,204.259,215.8,204.259z"/>
	<path d="M215.8,232.259c-14.612,0-26.5,11.888-26.5,26.5s11.888,26.5,26.5,26.5s26.5-11.888,26.5-26.5
		S230.412,232.259,215.8,232.259z M215.8,277.259c-10.201,0-18.5-8.299-18.5-18.5s8.299-18.5,18.5-18.5s18.5,8.299,18.5,18.5
		S226.001,277.259,215.8,277.259z"/>
	<circle cx="215.8" cy="258.759" r="9.342"/>
</g>
<g>
</g>
<g>
</g>
<g>
</g>
<g>
</g>
<g>
</g>
<g>
</g>
<g>
</g>
<g>
</g>
<g>
</g>
<g>
</g>
<g>
</g>
<g>
</g>
<g>
</g>
<g>
</g>
<g>
</g>
</svg>
