<?xml version="1.0" encoding="iso-8859-1"?>
<!-- Generator: Adobe Illustrator 18.0.0, SVG Export Plug-In . SVG Version: 6.00 Build 0)  -->
<!DOCTYPE svg PUBLIC "-//W3C//DTD SVG 1.1//EN" "http://www.w3.org/Graphics/SVG/1.1/DTD/svg11.dtd">
<svg version="1.1" id="Capa_1" xmlns="http://www.w3.org/2000/svg" xmlns:xlink="http://www.w3.org/1999/xlink" x="0px" y="0px"
	 viewBox="0 0 431 431" style="enable-background:new 0 0 431 431;" xml:space="preserve">
<path d="M427,175.041h-22.347h-76.789l-32.862-37.174c-0.76-0.869-1.857-1.367-3.011-1.367h-17.867l-14.715-16.648
	c-0.759-0.859-1.851-1.352-2.998-1.352H219.5V84.552c5.403-1.703,9.333-6.76,9.333-12.718c0-7.353-5.981-13.334-13.333-13.334
	s-13.333,5.981-13.333,13.334c0,5.958,3.93,11.015,9.333,12.718V118.5h-36.91c-1.146,0-2.238,0.492-2.998,1.352L156.877,136.5
	H139.01c-1.154,0-2.251,0.498-3.011,1.367l-32.862,37.174h-76.79H4c-2.209,0-4,1.791-4,4s1.791,4,4,4h21.002l36.117,27.399
	c0.695,0.528,1.544,0.813,2.417,0.813h24.416C90.926,221.863,100.691,229.5,112,229.5c2.182,0,4.301-0.3,6.332-0.834
	c2.608,1.756,5.359,3.429,8.246,5.014l-38.194,79.083c-0.891-0.166-1.806-0.263-2.744-0.263c-8.271,0-15,6.729-15,15s6.729,15,15,15
	s15-6.729,15-15c0-4.463-1.97-8.465-5.073-11.215l38.147-78.985c21.309,9.96,48.528,15.686,77.786,16.165v89.593
	c-6.332,1.757-11,7.557-11,14.442c0,8.271,6.729,15,15,15s15-6.729,15-15c0-6.885-4.668-12.685-11-14.442v-89.593
	c29.264-0.479,56.487-6.207,77.798-16.17l38.225,79.162c-2.993,2.744-4.884,6.672-4.884,11.043c0,8.271,6.729,15,15,15
	s15-6.729,15-15s-6.729-15-15-15c-1.026,0-2.029,0.105-2.997,0.302l-38.209-79.128c2.883-1.584,5.63-3.255,8.234-5.008
	c2.031,0.534,4.15,0.834,6.333,0.834c11.31,0,21.075-7.637,24.049-18.246h24.415c0.873,0,1.722-0.285,2.417-0.813l36.117-27.399H427
	c2.209,0,4-1.791,4-4S429.209,175.041,427,175.041z M215.5,66.5c2.94,0,5.333,2.393,5.333,5.334c0,2.94-2.393,5.333-5.333,5.333
	c-2.941,0-5.333-2.393-5.333-5.333C210.167,68.893,212.56,66.5,215.5,66.5z M85.64,334.5c-3.86,0-7-3.141-7-7s3.14-7,7-7
	s7,3.141,7,7S89.5,334.5,85.64,334.5z M352.64,327.5c0,3.859-3.14,7-7,7s-7-3.141-7-7s3.14-7,7-7S352.64,323.641,352.64,327.5z
	 M317.186,175.041h-6.4L288.005,144.5h2.179L317.186,175.041z M300.806,175.041h-20.903L264.78,144.5h13.245L300.806,175.041z
	 M160.025,175.041l15.122-30.541h23.497l-4.323,30.541H160.025z M206.725,144.5h17.55l4.325,30.541h-26.199L206.725,144.5z
	 M236.68,175.041l-4.324-30.541h23.498l15.122,30.541H236.68z M176.394,126.5h78.213l8.839,10h-95.892L176.394,126.5z
	 M166.219,144.5l-15.121,30.541h-20.903l22.781-30.541H166.219z M140.817,144.5h2.177l-22.778,30.541h-6.4L140.817,144.5z
	 M96.395,211.254h31.211c-2.631,6.069-8.701,10.246-15.606,10.246C105.096,221.5,99.027,217.323,96.395,211.254z M222.5,357.5
	c0,3.859-3.14,7-7,7s-7-3.141-7-7s3.14-7,7-7S222.5,353.641,222.5,357.5z M219.5,245.461V236.5c0-2.209-1.791-4-4-4s-4,1.791-4,4
	v8.961c-32.705-0.578-63.551-8.219-84.655-20.867c4.389-3.245,7.68-7.905,9.204-13.34h55.402
	c2.974,10.609,12.739,18.246,24.049,18.246c11.31,0,21.075-7.637,24.049-18.246h55.402c1.524,5.435,4.814,10.094,9.204,13.34
	C283.051,237.243,252.206,244.883,219.5,245.461z M199.895,211.254h31.211c-2.631,6.069-8.701,10.246-15.606,10.246
	C208.596,221.5,202.527,217.323,199.895,211.254z M319,221.5c-6.904,0-12.974-4.177-15.606-10.246h31.211
	C331.975,217.323,325.905,221.5,319,221.5z M366.118,203.254H64.882l-8.049-6.106h317.335L366.118,203.254z M384.713,189.147H46.287
	l-8.049-6.106h354.524L384.713,189.147z"/>
<g>
</g>
<g>
</g>
<g>
</g>
<g>
</g>
<g>
</g>
<g>
</g>
<g>
</g>
<g>
</g>
<g>
</g>
<g>
</g>
<g>
</g>
<g>
</g>
<g>
</g>
<g>
</g>
<g>
</g>
</svg>
