<?xml version="1.0" encoding="iso-8859-1"?>
<!-- Generator: Adobe Illustrator 18.0.0, SVG Export Plug-In . SVG Version: 6.00 Build 0)  -->
<!DOCTYPE svg PUBLIC "-//W3C//DTD SVG 1.1//EN" "http://www.w3.org/Graphics/SVG/1.1/DTD/svg11.dtd">
<svg version="1.1" id="Capa_1" xmlns="http://www.w3.org/2000/svg" xmlns:xlink="http://www.w3.org/1999/xlink" x="0px" y="0px"
	 viewBox="0 0 409.268 409.268" style="enable-background:new 0 0 409.268 409.268;" xml:space="preserve">
<g>
	<path d="M191.851,283.893c-2.209,0-4,1.791-4,4v23.519c0,2.209,1.791,4,4,4s4-1.791,4-4v-23.519
		C195.851,285.684,194.06,283.893,191.851,283.893z"/>
	<path d="M221.427,313.176v-24.693c0-2.209-1.791-4-4-4s-4,1.791-4,4v24.693c0,2.209,1.791,4,4,4S221.427,315.385,221.427,313.176z"
		/>
	<path d="M220.888,339.219c-0.58,0.156-1.155,0.235-1.708,0.235c-2.209,0-4,1.791-4,4s1.791,4,4,4c1.255,0,2.529-0.172,3.788-0.511
		c2.133-0.574,3.396-2.769,2.822-4.902C225.215,339.908,223.021,338.647,220.888,339.219z"/>
	<path d="M409.268,356.096c0-7.738-3.633-14.807-9.704-19.28c1.741-3.592,2.648-7.531,2.648-11.588
		c0-9.37-4.868-17.619-12.203-22.368c0.103-0.961,0.157-1.933,0.157-2.91c0-15.015-12.212-27.23-27.222-27.23
		c-14.286,0-26.028,11.069-27.128,25.082c-12.559,2.138-22.154,13.092-22.154,26.251c0,2.251,0.277,4.461,0.828,6.608
		c-3.481,1.901-6.06,5.164-7.093,9.016c-1.176-0.147-2.361-0.222-3.552-0.222c-12.41,0-23.178,8.059-26.956,19.458
		c-3.151-1.125-6.515-1.527-10.035-1.02c-2.271-8.326-9.81-14.322-18.865-14.322c-0.375,0-0.749,0.011-1.12,0.031
		c0.081-0.627,0.123-1.265,0.123-1.911c0-7.988-6.457-14.497-14.426-14.582c-2.255-5.224-7.466-8.82-13.387-8.82
		c-2.209,0-4,1.791-4,4s1.791,4,4,4c3.286,0,6.087,2.456,6.516,5.714c0.15,1.143,0.785,2.164,1.743,2.805
		c0.96,0.641,2.145,0.838,3.259,0.537c0.585-0.156,1.161-0.236,1.712-0.236c3.63,0,6.583,2.953,6.583,6.583
		c0,2.729-1.648,5.135-4.2,6.128c-1.131,0.44-2.026,1.363-2.364,2.528c-0.585,2.018,0.87,4.053,0.87,4.053
		c0.634,1.083,1.738,1.805,2.983,1.952c1.254,0.149,2.489-0.3,3.356-1.204c2.211-2.307,5.177-3.577,8.352-3.577
		c6.334,0,11.413,4.965,11.563,11.304c0.03,1.293,0.685,2.491,1.756,3.217c1.071,0.727,2.429,0.887,3.639,0.438
		c0.546-0.203,2.594-0.848,4.798-0.848c2.731,0,5.364,0.828,7.612,2.396c1.151,0.8,2.635,0.941,3.914,0.372
		c1.279-0.57,2.168-1.768,2.342-3.157c1.273-10.169,9.972-17.837,20.233-17.837c2.02,0,4.02,0.297,5.944,0.883
		c1.277,0.389,2.666,0.114,3.7-0.733c1.033-0.848,1.575-2.155,1.444-3.485c-0.021-0.219-0.034-0.439-0.034-0.664
		c0-2.21,1.115-4.184,2.838-5.383c3.324,4.813,8.73,8.035,14.823,8.435c0.09,0.006,0.179,0.009,0.267,0.009
		c2.09,0,3.849-1.623,3.987-3.737c0.145-2.205-1.524-4.109-3.729-4.254c-4.4-0.29-8.119-3.097-9.872-7.005
		c-0.434-0.967-1.552-3.592-1.552-7.467c0-10.275,8.36-18.636,18.636-18.636c5.031,0,9.709,1.971,13.187,5.472
		c-5.125,8.939-3.899,20.556,3.729,28.183c0.78,0.781,1.805,1.172,2.828,1.172s2.048-0.391,2.828-1.172
		c1.563-1.562,1.563-4.095,0-5.656c-5.883-5.884-6.002-15.382-0.358-21.413c0.117-0.125,0.403-0.429,0.429-0.456
		c3.428-3.167,7.924-4.954,12.635-4.954c10.276,0,18.637,8.36,18.637,18.636c0,3.836-1.159,7.521-3.352,10.657
		c-0.668,0.955-0.886,2.153-0.597,3.283c0.288,1.129,1.055,2.076,2.1,2.593c5.492,2.722,8.904,8.214,8.904,14.335
		c0,7.27-4.905,13.63-11.928,15.468c-1.044,0.273-1.933,0.957-2.466,1.895c-0.532,0.938-0.664,2.052-0.363,3.088
		c0.429,1.48,0.646,3.007,0.646,4.538c0,0.116-0.001,0.231-0.004,0.348H22.115c-0.002-0.116,0.011-1.16,0.042-1.565
		c0.084-1.121,0.285-2.233,0.6-3.321c0.3-1.036,0.169-2.149-0.364-3.088c-0.533-0.938-1.421-1.621-2.465-1.895
		C12.905,369.726,8,363.366,8,356.096c0-4.764,2.074-9.14,5.579-12.133c0.264-0.225,1.375-1.05,1.559-1.17
		c5.725-3.737,13.838-3.688,18.959,1.432c0.781,0.781,1.804,1.172,2.828,1.172s2.047-0.391,2.829-1.172
		c1.562-1.562,1.562-4.095,0-5.656c-6.196-6.197-15.128-8.003-22.941-5.459c-1.15-2.452-1.757-5.126-1.757-7.882
		c0-10.275,8.36-18.636,18.636-18.636c4.524,0,8.839,1.663,12.211,4.598c-1.564,3.173-2.396,6.684-2.396,10.323
		c0,6.248,2.436,12.125,6.859,16.548c0.781,0.781,1.804,1.172,2.828,1.172s2.047-0.391,2.829-1.172c1.562-1.562,1.562-4.095,0-5.656
		c-2.912-2.912-4.516-6.78-4.516-10.892c0-3.975,1.511-7.714,4.242-10.59c3.481-3.523,8.173-5.506,13.22-5.506
		c10.276,0,18.636,8.36,18.636,18.636c0,2.572-0.517,5.067-1.537,7.414c-0.485,1.117-0.435,2.395,0.136,3.47
		c0.571,1.076,1.601,1.832,2.798,2.056c2.56,0.479,4.519,2.415,5.138,4.848c-8.568,4.068-14.158,13.151-13.304,23.143
		c0.188,2.201,2.125,3.833,4.326,3.645s3.833-2.125,3.645-4.326c-0.62-7.256,3.928-13.771,10.57-15.941
		c2.372-0.746,5.243-0.906,6.044-0.906c10.261,0,18.959,7.668,20.233,17.837c0.174,1.39,1.063,2.588,2.342,3.157
		c1.279,0.569,2.765,0.428,3.913-0.372c2.325-1.621,5.282-2.425,8.215-2.361c1.812,0,3.68,0.514,4.603,0.867
		c0.004,0.001,0.008,0.002,0.012,0.004c3.393,1.458,5.776,4.832,5.776,8.752c0,2.209,1.791,4,4,4s4-1.791,4-4
		c0-6.341-3.397-11.89-8.456-14.966c1.26-5.034,5.84-8.803,11.217-8.803c3.175,0,6.142,1.271,8.353,3.577
		c0.868,0.904,2.11,1.349,3.355,1.204c1.246-0.147,2.35-0.869,2.984-1.952c0,0,1.634-2.233,0.87-4.053
		c-0.47-1.118-1.233-2.088-2.364-2.528c-2.552-0.993-4.2-3.399-4.2-6.128c0-3.63,2.953-6.583,6.583-6.583
		c0.55,0,1.126,0.079,1.711,0.236c1.113,0.3,2.3,0.103,3.258-0.537s1.594-1.662,1.744-2.804c0.429-3.258,3.23-5.715,6.516-5.715
		c2.209,0,4-1.791,4-4s-1.791-4-4-4c-5.92,0-11.13,3.597-13.386,8.82c-7.969,0.085-14.426,6.594-14.426,14.582
		c0,0.646,0.042,1.284,0.123,1.911c-0.372-0.021-0.745-0.031-1.121-0.031c-8.894,0-16.514,6.087-18.84,14.313
		c-3.396-0.474-6.879-0.107-10.06,1.028c-3.778-11.4-14.546-19.458-26.956-19.458c-1.191,0-2.376,0.074-3.552,0.222
		c-1.034-3.851-3.612-7.114-7.093-9.016c0.55-2.146,0.828-4.357,0.828-6.608c0-14.687-11.949-26.636-26.636-26.636
		c-6.935,0-13.405,2.61-18.313,7.283c-4.741-3.921-10.723-6.107-16.964-6.107c-14.688,0-26.636,11.949-26.636,26.636
		c0,4.057,0.907,7.996,2.648,11.588C3.633,341.29,0,348.358,0,356.096c0,9.615,5.723,18.172,14.302,21.953
		c-0.127,1.006-0.191,2.02-0.191,3.035c0,1.737,0.19,3.487,0.564,5.201c0.401,1.837,2.027,3.146,3.908,3.146h372.102
		c1.881,0,3.508-1.311,3.908-3.147c0.374-1.715,0.563-3.464,0.563-5.2c0-1.016-0.063-2.029-0.191-3.035
		C403.544,374.268,409.268,365.712,409.268,356.096z M358.612,304.7c-4.053-3.859-9.173-6.306-14.738-7.043
		c1.138-9.524,9.249-16.937,19.071-16.937c10.417,0,18.906,8.339,19.194,18.693c-2.1-0.534-4.299-0.82-6.564-0.82
		C369.334,298.593,363.353,300.778,358.612,304.7z"/>
	<path d="M186.813,373.23c-0.372,2.177,1.091,4.244,3.269,4.616c0.228,0.039,0.455,0.059,0.679,0.059
		c1.913,0,3.604-1.377,3.938-3.326c1.076-6.294,6.044-11.173,12.361-12.142c5.9-0.903,11.735,1.795,14.866,6.876
		c1.158,1.88,3.622,2.466,5.504,1.307c1.881-1.159,2.466-3.623,1.307-5.504c-4.821-7.824-13.805-11.97-22.89-10.587
		c-0.365,0.056-0.721,0.137-1.08,0.21c-2.276-7.815-9.263-13.504-17.499-14.047c-2.205-0.155-4.109,1.524-4.254,3.729
		c-0.146,2.204,1.524,4.109,3.729,4.254c5.12,0.337,9.419,4.039,10.525,9.025C191.836,361.069,187.94,366.643,186.813,373.23z"/>
	<path d="M177.299,281.31h54.68c2.209,0,4-1.791,4-4v-59.089c0-0.744-0.207-1.473-0.599-2.105l-13.953-22.537V58.861
		c0-0.468-0.082-0.933-0.242-1.372l-12.788-35.025c-0.576-1.578-2.078-2.628-3.758-2.628c-1.68,0-3.181,1.05-3.757,2.628
		l-12.788,35.025c-0.161,0.439-0.243,0.904-0.243,1.372V193.58l-13.953,22.536c-0.392,0.633-0.599,1.361-0.599,2.105v59.089
		C173.299,279.519,175.09,281.31,177.299,281.31z M213.427,62.861v5.229h-17.576v-5.229H213.427z M195.851,273.31V76.09h17.576
		V273.31H195.851z M227.979,219.359v53.951h-6.552v-64.533L227.979,219.359z M204.639,35.499l7.069,19.362H197.57L204.639,35.499z
		 M181.299,219.359l6.552-10.582v64.533h-6.552V219.359z"/>
</g>
<g>
</g>
<g>
</g>
<g>
</g>
<g>
</g>
<g>
</g>
<g>
</g>
<g>
</g>
<g>
</g>
<g>
</g>
<g>
</g>
<g>
</g>
<g>
</g>
<g>
</g>
<g>
</g>
<g>
</g>
</svg>
