<?xml version="1.0" encoding="iso-8859-1"?>
<!-- Generator: Adobe Illustrator 18.0.0, SVG Export Plug-In . SVG Version: 6.00 Build 0)  -->
<!DOCTYPE svg PUBLIC "-//W3C//DTD SVG 1.1//EN" "http://www.w3.org/Graphics/SVG/1.1/DTD/svg11.dtd">
<svg version="1.1" id="Capa_1" xmlns="http://www.w3.org/2000/svg" xmlns:xlink="http://www.w3.org/1999/xlink" x="0px" y="0px"
	 viewBox="0 0 305.245 305.245" style="enable-background:new 0 0 305.245 305.245;" xml:space="preserve">
<g>
	<path d="M304.522,224.795L264.009,58.588c-3.771-15.473-17.528-26.279-33.453-26.279h-27.047V20.37h7.447c2.209,0,4-1.791,4-4
		s-1.791-4-4-4h-11.447H105.72H94.274c-2.209,0-4,1.791-4,4s1.791,4,4,4h7.446v11.939H74.673c-15.925,0-29.682,10.807-33.453,26.279
		L0.718,224.752c-2.534,10.396,1.78,21.299,10.735,27.129c1.585,1.031,2.875,1.852,3.835,2.436
		c41.377,25.226,88.863,38.559,137.326,38.559c49.918,0,98.615-14.084,140.825-40.729c0.003-0.002,0.112-0.071,0.114-0.073
		C302.681,246.287,307.089,235.325,304.522,224.795z M22.214,170.342c2.248,1.974,4.867,3.253,7.689,3.677
		c0.741,0.114,1.483,0.171,2.225,0.171c3.344,0,6.666-1.154,9.722-3.396c5.554-4.077,9.624-11.456,10.887-19.733
		c1.273-8.276-0.4-16.533-4.478-22.087c-2.739-3.73-6.343-6.031-10.414-6.653c-1.3-0.202-2.609-0.212-3.911-0.06l7.616-31.245
		h32.919l-18.05,126.657H10.677L22.214,170.342z M31.734,131.282c1.642-0.946,3.282-1.306,4.895-1.055
		c2.443,0.373,4.166,2.099,5.181,3.481c2.848,3.879,3.977,9.911,3.019,16.14c-0.95,6.229-3.834,11.648-7.714,14.496
		c-1.383,1.014-3.543,2.147-6.008,1.766c-3.416-0.513-5.473-3.601-6.482-5.658L31.734,131.282z M46.348,71.327h212.532l2.849,11.688
		H43.499L46.348,71.327z M82.549,91.015h140.145l18.05,126.657H64.499L82.549,91.015z M248.825,217.672l-18.05-126.657h32.904
		l7.615,31.243c-1.296-0.151-2.599-0.14-3.891,0.061c-4.079,0.623-7.683,2.924-10.422,6.654c-4.077,5.554-5.751,13.811-4.479,22.082
		c1.265,8.283,5.335,15.662,10.89,19.738c3.056,2.244,6.379,3.398,9.717,3.398c0.737,0,1.477-0.057,2.213-0.17
		c2.827-0.425,5.446-1.702,7.695-3.673l11.535,47.323H248.825z M280.608,160.466c-1.012,2.057-3.068,5.133-6.49,5.647
		c-2.45,0.375-4.61-0.754-5.992-1.769c-3.88-2.847-6.764-8.267-7.716-14.501c-0.957-6.224,0.172-12.256,3.02-16.135
		c1.015-1.383,2.737-3.108,5.188-3.482c1.599-0.25,3.236,0.107,4.875,1.048L280.608,160.466z M109.72,20.37h85.789v11.939H109.72
		V20.37z M74.673,40.309h155.883c12.226,0,22.786,8.296,25.682,20.174l0.693,2.844H48.298l0.693-2.844
		C51.887,48.605,62.447,40.309,74.673,40.309z M289.271,245.318l-0.101,0.063c-40.931,25.837-88.151,39.494-136.556,39.494
		c-46.993,0-93.04-12.929-133.163-37.39c-0.968-0.59-2.236-1.399-3.633-2.31c-5.351-3.483-8.274-9.619-7.762-15.857
		c0.073-0.891,0.67-3.647,0.67-3.647h287.775c0,0,0.53,2.341,0.612,3.003C297.924,235.228,294.926,241.731,289.271,245.318z"/>
	<path d="M216.854,178.422c-4.672-18.243-9.158-36.818-13.339-55.224c-1.758-7.631-8.661-12.853-16.646-12.407
		c-11.357,0.681-22.883,1.026-34.256,1.026s-22.894-0.346-34.244-1.026c-7.944-0.449-14.886,4.774-16.647,12.42
		c-4.169,18.359-8.655,36.935-13.331,55.192c-1.097,4.198-0.232,8.693,2.372,12.335c2.984,4.173,7.812,6.797,13.243,7.197
		c16.107,1.189,32.463,1.792,48.614,1.792s32.507-0.603,48.614-1.792c5.431-0.401,10.257-3.025,13.242-7.199
		C217.08,187.095,217.945,182.6,216.854,178.422z M207.969,186.083c-1.6,2.236-4.269,3.648-7.324,3.874
		c-15.911,1.175-32.069,1.771-48.024,1.771s-32.113-0.596-48.025-1.771c-3.056-0.226-5.726-1.637-7.325-3.873
		c-1.236-1.729-1.641-3.738-1.134-5.678c4.698-18.347,9.202-36.994,13.384-55.411c0.833-3.611,4.15-6.232,7.888-6.232
		c0.162,0,0.324,0.005,0.485,0.015c11.507,0.689,23.188,1.04,34.721,1.04s23.219-0.351,34.732-1.04
		c3.974-0.236,7.492,2.392,8.371,6.205c4.193,18.464,8.697,37.11,13.392,55.442C209.61,182.345,209.205,184.355,207.969,186.083z"/>
	<path d="M152.62,130.606c-14.422,0-26.155,11.054-26.155,24.64s11.733,24.64,26.155,24.64s26.154-11.054,26.154-24.64
		S167.042,130.606,152.62,130.606z M152.62,171.885c-10.011,0-18.155-7.465-18.155-16.64s8.145-16.64,18.155-16.64
		s18.154,7.465,18.154,16.64S162.631,171.885,152.62,171.885z"/>
</g>
<g>
</g>
<g>
</g>
<g>
</g>
<g>
</g>
<g>
</g>
<g>
</g>
<g>
</g>
<g>
</g>
<g>
</g>
<g>
</g>
<g>
</g>
<g>
</g>
<g>
</g>
<g>
</g>
<g>
</g>
</svg>
