<?xml version="1.0" encoding="iso-8859-1"?>
<!-- Generator: Adobe Illustrator 18.0.0, SVG Export Plug-In . SVG Version: 6.00 Build 0)  -->
<!DOCTYPE svg PUBLIC "-//W3C//DTD SVG 1.1//EN" "http://www.w3.org/Graphics/SVG/1.1/DTD/svg11.dtd">
<svg version="1.1" id="Capa_1" xmlns="http://www.w3.org/2000/svg" xmlns:xlink="http://www.w3.org/1999/xlink" x="0px" y="0px"
	 viewBox="0 0 462.999 462.999" style="enable-background:new 0 0 462.999 462.999;" xml:space="preserve">
<g>
	<path d="M461.852,261.696c-34.981-35.586-81.676-56.835-131.482-59.833c-1.031-0.062-4.477-0.069-5.158-0.042
		C309.928,163.826,272.655,138.5,231.5,138.5c-41.156,0-78.429,25.327-93.712,63.321c-0.681-0.026-4.126-0.019-5.158,0.042
		c-49.807,2.998-96.501,24.247-131.482,59.833c-0.989,1.006-1.375,2.459-1.016,3.823c0.36,1.365,1.412,2.438,2.77,2.826
		c17.629,5.037,35.404,9.478,53.292,13.333C59.032,294.302,70.297,303.5,83.5,303.5c9.477,0,18.163-4.744,23.323-12.536
		c13.781,2.088,27.613,3.829,41.484,5.222c11.504,17.012,44.448,28.313,83.193,28.313c38.744,0,71.688-11.301,83.192-28.313
		c13.871-1.394,27.703-3.134,41.484-5.222c5.16,7.792,13.846,12.536,23.324,12.536c13.203,0,24.467-9.197,27.306-21.821
		c17.888-3.855,35.662-8.296,53.292-13.333c1.357-0.388,2.409-1.461,2.77-2.826C463.227,264.155,462.841,262.702,461.852,261.696z
		 M231.5,292.362c-71.769,0-143.172-9.37-212.471-27.862H443.97C374.672,282.992,303.269,292.362,231.5,292.362z M243.731,300.265
		c-3.458,2.698-7.765,4.234-12.292,4.234c-4.534,0-8.844-1.537-12.301-4.236c4.119,0.061,8.24,0.098,12.361,0.098
		C235.579,300.362,239.655,300.325,243.731,300.265z M231.5,146.5c37.165,0,70.889,22.431,85.45,56.294
		c-3.35,0.673-6.64,1.677-9.848,3.008c-24.088,9.994-49.524,15.062-75.603,15.062s-51.516-5.067-75.604-15.062
		c-3.207-1.331-6.498-2.334-9.848-3.008C160.611,168.931,194.334,146.5,231.5,146.5z M133.111,209.849
		c6.721-0.405,13.435,0.733,19.721,3.341c25.064,10.399,51.532,15.673,78.669,15.673c27.136,0,53.604-5.273,78.669-15.673
		c6.285-2.607,13.001-3.745,19.72-3.341c42.548,2.561,82.729,18.996,114.731,46.65H18.379
		C50.382,228.845,90.562,212.41,133.111,209.849z M83.5,295.5c-8.099,0-15.167-4.849-18.289-11.925
		c10.805,2.204,21.65,4.188,32.529,5.96C94.039,293.298,88.953,295.5,83.5,295.5z M231.5,316.5c-30.402,0-58.245-7.759-71.5-19.217
		c16.013,1.381,32.073,2.296,48.161,2.747c5.161,7.742,13.874,12.47,23.279,12.47c9.394,0,18.105-4.727,23.274-12.467
		c16.129-0.45,32.231-1.366,48.286-2.751C289.745,308.74,261.902,316.5,231.5,316.5z M379.5,295.5
		c-5.453,0-10.539-2.202-14.241-5.965c10.879-1.772,21.724-3.756,32.529-5.96C394.666,290.651,387.599,295.5,379.5,295.5z"/>
	<path d="M252.664,166.071c9.344,2.595,26.199,9.291,34.105,24.981c0.703,1.396,2.112,2.201,3.575,2.201
		c0.605,0,1.22-0.138,1.797-0.429c1.973-0.994,2.767-3.399,1.772-5.372c-9.293-18.441-28.492-26.142-39.109-29.091
		c-2.129-0.585-4.333,0.655-4.925,2.784C249.289,163.275,250.535,165.479,252.664,166.071z"/>
	<path d="M231.5,163.247c1.469,0,2.963,0.04,4.441,0.119c0.073,0.004,0.146,0.006,0.218,0.006c2.11,0,3.876-1.653,3.99-3.786
		c0.118-2.206-1.574-4.09-3.78-4.208c-1.62-0.087-3.259-0.131-4.869-0.131c-2.209,0-4,1.791-4,4S229.291,163.247,231.5,163.247z"/>
	<path d="M106,251.5c11.495,0,20.5-6.369,20.5-14.5s-9.005-14.5-20.5-14.5s-20.5,6.369-20.5,14.5S94.505,251.5,106,251.5z
		 M106,230.5c7.154,0,12.5,3.432,12.5,6.5s-5.346,6.5-12.5,6.5s-12.5-3.432-12.5-6.5S98.846,230.5,106,230.5z"/>
	<path d="M357,251.5c11.495,0,20.5-6.369,20.5-14.5s-9.005-14.5-20.5-14.5s-20.5,6.369-20.5,14.5S345.505,251.5,357,251.5z
		 M357,230.5c7.154,0,12.5,3.432,12.5,6.5s-5.346,6.5-12.5,6.5s-12.5-3.432-12.5-6.5S349.846,230.5,357,230.5z"/>
</g>
<g>
</g>
<g>
</g>
<g>
</g>
<g>
</g>
<g>
</g>
<g>
</g>
<g>
</g>
<g>
</g>
<g>
</g>
<g>
</g>
<g>
</g>
<g>
</g>
<g>
</g>
<g>
</g>
<g>
</g>
</svg>
