<?xml version="1.0" encoding="iso-8859-1"?>
<!-- Generator: Adobe Illustrator 18.0.0, SVG Export Plug-In . SVG Version: 6.00 Build 0)  -->
<!DOCTYPE svg PUBLIC "-//W3C//DTD SVG 1.1//EN" "http://www.w3.org/Graphics/SVG/1.1/DTD/svg11.dtd">
<svg version="1.1" id="Capa_1" xmlns="http://www.w3.org/2000/svg" xmlns:xlink="http://www.w3.org/1999/xlink" x="0px" y="0px"
	 viewBox="0 0 396 396" style="enable-background:new 0 0 396 396;" xml:space="preserve">
<g>
	<path d="M392,336.957h-18.636L331.265,234.36c-0.397-0.967-1.157-1.74-2.116-2.154l-32.92-14.2v-0.834c0-2.209-1.791-4-4-4h-26.173
		l-2.046-8.628h0.851c1.324,0,2.563-0.655,3.307-1.75s0.9-2.487,0.414-3.719l-15.589-39.493c-0.603-1.527-2.079-2.531-3.721-2.531
		h-5.21c11.111-11.732,17.524-27.462,17.524-43.808c0-11.216-2.963-22.241-8.567-31.893l-12.215-24.105
		C232.584,41.026,216.183,30.95,198,30.95s-34.584,10.076-42.804,26.295L142.981,81.35c-5.604,9.652-8.567,20.677-8.567,31.893
		c0,4.752,0.558,9.449,1.599,14.015h-23.234c-2.209,0-4,1.791-4,4v8.066C101.27,146.121,97,155.698,97,165.9
		s4.27,19.781,11.779,26.577v8.066c0,2.209,1.791,4,4,4h19.211l-2.046,8.628h-26.173c-2.209,0-4,1.791-4,4v0.834l-32.92,14.2
		c-0.959,0.414-1.719,1.188-2.116,2.154L22.636,336.957H4c-2.209,0-4,1.791-4,4c0,13.285,10.808,24.093,24.093,24.093h2.079
		c13.285,0,24.093-10.808,24.093-24.093c0-2.209-1.791-4-4-4H31.283l8.969-21.857l32.259-10.092h98.407l-2.165,14.822
		c-0.168,1.149,0.172,2.315,0.932,3.194s1.864,1.384,3.026,1.384H194v12.549h-17.479c-2.209,0-4,1.791-4,4
		c0,13.285,10.808,24.093,24.093,24.093h2.079c13.285,0,24.093-10.808,24.093-24.093c0-2.209-1.791-4-4-4H202v-12.549h21.289
		c1.162,0,2.266-0.505,3.026-1.384s1.1-2.045,0.932-3.194l-2.165-14.822h98.407l32.259,10.092l8.969,21.857h-14.981
		c-2.209,0-4,1.791-4,4c0,13.285,10.808,24.093,24.093,24.093h2.079c13.285,0,24.093-10.808,24.093-24.093
		C396,338.748,394.209,336.957,392,336.957z M26.171,357.05h-2.079c-7.493,0-13.807-5.148-15.59-12.093h33.258
		C39.978,351.901,33.665,357.05,26.171,357.05z M198.693,357.05h-2.079c-7.493,0-13.807-5.148-15.59-12.093h33.258
		C212.5,351.901,206.186,357.05,198.693,357.05z M321.174,237.479l-24.946,31.307v-42.067L321.174,237.479z M198,230.312
		l-17.225-9.14h34.45L198,230.312z M163.708,221.172l28.772,15.267l-34.611,60.569h-31.737v-75.836H163.708z M194,249.902v47.105
		h-26.917L194,249.902z M202,249.902l26.917,47.105H202V249.902z M203.521,236.438l28.772-15.267h37.576v75.836h-31.737
		L203.521,236.438z M258.981,196.544h-7.456l-6.163-31.493h1.188L258.981,196.544z M137.019,196.544l12.431-31.493h1.188
		l-6.163,31.493H137.019z M144.902,129.791l30.18,27.26h-11.272C154.701,149.939,148.201,140.472,144.902,129.791z M142.414,113.243
		c0-7.971,1.711-15.83,4.98-23.021h31.017v7.93l-35.98,15.669C142.429,113.627,142.414,113.437,142.414,113.243z M194,54.193v28.028
		h-21.141l10.09-28.028H194z M213.051,54.193l10.09,28.028H202V54.193H213.051z M253.586,113.243c0,0.193-0.015,0.384-0.017,0.577
		l-35.98-15.669v-7.93h31.017C251.875,97.413,253.586,105.272,253.586,113.243z M178.411,149.276l-31.672-28.606l31.672-13.793
		V149.276z M186.411,157.051V90.222h23.179v66.829H186.411z M217.589,106.877l31.672,13.793l-31.672,28.606V106.877z
		 M158.79,165.051h21.061l-2.641,31.493h-24.583L158.79,165.051z M187.879,165.051h20.243l2.641,31.493h-25.526L187.879,165.051z
		 M218.791,196.544l-2.641-31.493h21.061l6.163,31.493H218.791z M220.917,157.051l30.18-27.26
		c-3.298,10.681-9.799,20.148-18.908,27.26H220.917z M233.668,60.862l10.824,21.359h-12.849l-10.09-28.028h7.856
		C231.02,56.247,232.455,58.47,233.668,60.862z M220.993,46.193h-45.986C181.6,41.557,189.568,38.95,198,38.95
		S214.4,41.557,220.993,46.193z M162.332,60.862c1.213-2.393,2.648-4.615,4.259-6.669h7.856l-10.09,28.028h-12.849L162.332,60.862z
		 M105,165.9c0-5.008,1.333-9.817,3.779-14.016v28.032C106.333,175.719,105,170.909,105,165.9z M116.779,135.258h21.609
		c2.99,8.067,7.595,15.504,13.551,21.793h-5.21c-1.642,0-3.118,1.004-3.721,2.531l-14.59,36.962h-11.639V135.258z M140.212,204.544
		h115.576l2.046,8.628H138.166L140.212,204.544z M99.771,268.786l-24.946-31.307l24.946-10.76V268.786z M71.9,297.008
		c-0.405,0-0.808,0.062-1.194,0.183l-26.507,8.293l25.353-61.785l30.221,37.926v15.384H71.9z M107.771,221.172h10.361v75.836
		h-10.361V221.172z M177.337,316.408l1.665-11.4H194v11.4H177.337z M218.663,316.408H202v-11.4h14.997L218.663,316.408z
		 M288.229,297.008h-10.361v-75.836h10.361V297.008z M325.294,297.19c-0.387-0.121-0.789-0.183-1.194-0.183h-27.872v-15.384
		l30.221-37.926l25.353,61.785L325.294,297.19z M371.907,357.05h-2.079c-7.493,0-13.807-5.148-15.59-12.093h33.258
		C385.714,351.901,379.4,357.05,371.907,357.05z"/>
	<path d="M149.333,265.716c8.822,0,16-7.178,16-16s-7.178-16-16-16s-16,7.178-16,16S140.511,265.716,149.333,265.716z
		 M149.333,241.716c4.411,0,8,3.589,8,8s-3.589,8-8,8s-8-3.589-8-8S144.922,241.716,149.333,241.716z"/>
	<path d="M248,233.716c-8.822,0-16,7.178-16,16s7.178,16,16,16s16-7.178,16-16S256.822,233.716,248,233.716z M248,257.716
		c-4.411,0-8-3.589-8-8s3.589-8,8-8s8,3.589,8,8S252.411,257.716,248,257.716z"/>
</g>
<g>
</g>
<g>
</g>
<g>
</g>
<g>
</g>
<g>
</g>
<g>
</g>
<g>
</g>
<g>
</g>
<g>
</g>
<g>
</g>
<g>
</g>
<g>
</g>
<g>
</g>
<g>
</g>
<g>
</g>
</svg>
