<?xml version="1.0" encoding="iso-8859-1"?>
<!-- Generator: Adobe Illustrator 18.0.0, SVG Export Plug-In . SVG Version: 6.00 Build 0)  -->
<!DOCTYPE svg PUBLIC "-//W3C//DTD SVG 1.1//EN" "http://www.w3.org/Graphics/SVG/1.1/DTD/svg11.dtd">
<svg version="1.1" id="Capa_1" xmlns="http://www.w3.org/2000/svg" xmlns:xlink="http://www.w3.org/1999/xlink" x="0px" y="0px"
	 viewBox="0 0 421.781 421.781" style="enable-background:new 0 0 421.781 421.781;" xml:space="preserve">
<g>
	<path d="M210.891,386.4c10.216,0,18.528-8.312,18.528-18.528s-8.312-18.528-18.528-18.528s-18.528,8.312-18.528,18.528
		S200.674,386.4,210.891,386.4z M210.891,357.344c5.805,0,10.528,4.723,10.528,10.528s-4.723,10.528-10.528,10.528
		s-10.528-4.723-10.528-10.528S205.085,357.344,210.891,357.344z"/>
	<path d="M259.493,20.298C246.541,7.234,229.321,0.031,210.997,0.003c-0.007,0-0.013,0-0.02,0c-0.029,0-0.058-0.002-0.087-0.002
		c-0.052,0-0.103,0.004-0.155,0.004c-0.025,0.001-0.05,0.001-0.075,0.002c-37.781,0.126-68.481,31.155-68.481,69.283v33.907
		c0,0.056,64.879,217.396,64.879,217.396c0.002,0.007,0.004,0.014,0.006,0.02c0.26,0.852-0.319,1.722-1.21,1.722h-23.186
		c-6.925,0-12.953,4.735-14.593,11.463l-14.665,60.163c-1.174,4.814,0.825,9.864,4.977,12.567c0.557,0.361,1.063,0.685,1.449,0.92
		c15.383,9.378,33.036,14.334,51.05,14.334c18.558,0,36.66-5.235,52.295-15.107c0.034-0.021,0.068-0.041,0.102-0.063
		c4.229-2.682,6.272-7.76,5.083-12.636l-14.669-60.179c-1.64-6.728-7.667-11.462-14.592-11.462h-23.183
		c-0.891,0-1.47-0.87-1.21-1.722c0.002-0.007,0.004-0.014,0.006-0.02c0,0,64.879-217.339,64.879-217.396V69.289
		C279.602,50.777,272.46,33.379,259.493,20.298z M259.917,393.081h-11.52l-6.623-47.884h6.471L259.917,393.081z M233.693,345.197
		l6.623,47.884h-58.849l6.623-47.884H233.693z M173.386,393.081h-11.525l11.672-47.884h6.476L173.386,393.081z M164.794,401.081
		h92.188c-13.943,8.31-29.826,12.7-46.093,12.7C194.65,413.781,178.735,409.386,164.794,401.081z M245.928,335.691l0.367,1.506
		h-70.813l0.367-1.506c0.769-3.154,3.573-5.357,6.819-5.357h56.44C242.355,330.334,245.16,332.537,245.928,335.691z M271.602,69.289
		v20.833c-6.134-4.291-15.331-7.571-25.945-9.786v-20.88c0-19.17-7.735-37.001-21.195-49.91c11.029,2.529,21.157,8.122,29.35,16.385
		C265.284,37.503,271.602,52.901,271.602,69.289z M210.841,8.778c16.836,11.437,26.815,30.194,26.815,50.677v19.449
		c-8.581-1.295-17.748-1.961-26.766-1.961c-9.053,0-18.255,0.671-26.865,1.975V59.455C184.026,38.972,194.005,20.215,210.841,8.778z
		 M270.901,104.953c-2.766,4.768-13.744,10.119-31.008,13.093l3.844-30.073c17.708,3.608,27.822,9.759,27.862,14.647
		L270.901,104.953z M210.891,120.357c-7.539,0-14.484-0.42-20.787-1.142l-4.167-32.599c7.36-1.048,15.716-1.673,24.954-1.673
		s17.595,0.625,24.954,1.673l-4.167,32.599C225.374,119.938,218.43,120.357,210.891,120.357z M230.644,127.301l-19.754,154.534
		l-19.754-154.534c6.473,0.697,13.153,1.057,19.754,1.057S224.171,127.998,230.644,127.301z M178.045,87.974l3.844,30.073
		c-17.264-2.974-28.242-8.325-31.008-13.093l-0.698-2.333C150.223,97.733,160.337,91.582,178.045,87.974z M182.933,126.217
		l19.157,149.867l-47.329-158.163C162.071,121.693,171.982,124.479,182.933,126.217z M238.848,126.217
		c10.951-1.738,20.862-4.524,28.172-8.296l-47.329,158.163L238.848,126.217z M197.165,9.599
		c-13.425,12.904-21.139,30.712-21.139,49.856v20.901c-10.572,2.215-19.731,5.488-25.846,9.766V69.289
		C150.18,40.26,170.281,15.898,197.165,9.599z"/>
</g>
<g>
</g>
<g>
</g>
<g>
</g>
<g>
</g>
<g>
</g>
<g>
</g>
<g>
</g>
<g>
</g>
<g>
</g>
<g>
</g>
<g>
</g>
<g>
</g>
<g>
</g>
<g>
</g>
<g>
</g>
</svg>
