<?xml version="1.0" encoding="iso-8859-1"?>
<!-- Generator: Adobe Illustrator 18.0.0, SVG Export Plug-In . SVG Version: 6.00 Build 0)  -->
<!DOCTYPE svg PUBLIC "-//W3C//DTD SVG 1.1//EN" "http://www.w3.org/Graphics/SVG/1.1/DTD/svg11.dtd">
<svg version="1.1" id="Capa_1" xmlns="http://www.w3.org/2000/svg" xmlns:xlink="http://www.w3.org/1999/xlink" x="0px" y="0px"
	 viewBox="0 0 449.818 449.818" style="enable-background:new 0 0 449.818 449.818;" xml:space="preserve">
<path d="M345.835,441.818h-7.07l0.082-0.036l-27.126-61.205c-0.315-0.711-0.831-1.314-1.483-1.736l-20.853-13.5v-0.048
	c0-2.209-1.791-4-4-4h-15.283l-8.407-33.006c-0.451-1.772-2.047-3.013-3.876-3.013h-0.196c6.071-7.473,9.528-16.91,9.528-26.684
	c0-7.153-1.819-14.187-5.26-20.415c-0.122-0.22-8.233-16.173-8.233-16.173c-3.354-6.616-8.741-11.697-15.186-14.677l46.205-53.705
	c0.624-0.726,0.968-1.651,0.968-2.608V54.545c0-2.209-1.791-4-4-4h-31.119l11.013-45.606c0.287-1.191,0.013-2.449-0.746-3.413
	C260.038,0.563,258.879,0,257.653,0H188.86c-1.226,0-2.384,0.563-3.143,1.525c-0.758,0.964-1.033,2.222-0.745,3.414l11.014,45.605
	h-27.814c-2.209,0-4,1.791-4,4v136.467c0,0.957,0.343,1.883,0.968,2.608l46.205,53.705c-6.445,2.98-11.832,8.061-15.185,14.678
	c0,0-8.013,15.775-8.092,15.916c-3.532,6.289-5.401,13.419-5.401,20.671c0,2.553,0.24,5.083,0.696,7.562h-0.666
	c-8.703,0-15.784,7.081-15.784,15.784v20.9c0,7.936,5.892,14.503,13.528,15.604l-0.726,2.852h-15.283c-2.209,0-4,1.791-4,4v0.048
	l-20.852,13.5c-0.653,0.422-1.168,1.025-1.483,1.736l-27.125,61.205l0.082,0.036h-7.071c-2.209,0-4,1.791-4,4s1.791,4,4,4h22.934
	c2.209,0,4-1.791,4-4s-1.791-4-4-4h-7.21l5.627-12.697l19.255-6.024h76.32v18.721h-7.467c-2.209,0-4,1.791-4,4s1.791,4,4,4h22.935
	c2.209,0,4-1.791,4-4s-1.791-4-4-4h-7.467v-18.721h76.319l19.256,6.024l5.627,12.696h-7.211c-2.209,0-4,1.791-4,4s1.791,4,4,4
	h22.935c2.209,0,4-1.791,4-4S348.044,441.818,345.835,441.818z M301.812,382.915l-12.427,12.868V374.87L301.812,382.915z
	 M256.448,285.248c1.775,4.2,2.704,8.74,2.704,13.342c0,10.497-4.654,20.145-12.798,26.684h-7.44v-40.025H256.448z M224.909,252.342
	c5.988,0,11.585,2.175,15.911,5.952h-31.823C213.323,254.517,218.921,252.342,224.909,252.342z M228.91,277.248v-10.954h4.82
	l4.832,10.954H228.91z M220.909,266.294v10.954h-9.652l4.831-10.954H220.909z M230.915,285.248v40.025h-12.011v-40.025H230.915z
	 M247.306,277.248l-4.832-10.954h4.392l5.551,10.954H247.306z M172.171,187.012v-15.88h105.476v15.88H172.171z M172.171,163.132
	v-5.205h105.476v5.205H172.171z M172.171,149.927v-5.204h105.476v5.204H172.171z M272.928,195.012l-26.39,30.668h-43.264
	l-26.385-30.668H272.928z M239.661,233.68l-8.663,10.069h-12.176l-8.663-10.069H239.661z M277.647,104.059h-21.763V72.444h21.763
	V104.059z M196.918,20.325h52.677l-1.088,4.503h-50.502L196.918,20.325z M199.937,32.828h46.639l-1.09,4.513h-44.459L199.937,32.828
	z M252.572,8l-1.044,4.325h-56.541L193.941,8H252.572z M202.959,45.341h40.595l-1.257,5.204h-38.081L202.959,45.341z
	 M277.647,58.545v5.899h-25.763c-2.209,0-4,1.791-4,4v39.614c0,2.209,1.791,4,4,4h25.763v24.664H172.171v-24.664h25.759
	c2.209,0,4-1.791,4-4V68.444c0-2.209-1.791-4-4-4h-25.759v-5.899H277.647z M172.171,104.059V72.444h21.759v31.614H172.171z
	 M202.953,266.294h4.392l-4.831,10.954h-5.111L202.953,266.294z M210.904,285.248v40.025h-7.44
	c-8.143-6.539-12.797-16.187-12.797-26.684c0-4.603,0.929-9.143,2.703-13.342H210.904z M174.914,342.836v-20.9
	c0-4.292,3.492-7.784,7.784-7.784h2.982c1.594,4.006,3.786,7.763,6.515,11.122h-0.196c-1.829,0-3.425,1.24-3.876,3.013
	l-5.685,22.321C178.266,350.468,174.914,347.04,174.914,342.836z M195.107,333.273h59.603l7.137,28.019h-73.876L195.107,333.273z
	 M224.909,376.518l-9.565-7.226h19.129L224.909,376.518z M160.433,395.782l-12.426-12.867l12.426-8.045V395.782z M143.978,415.098
	c-0.405,0-0.808,0.062-1.194,0.183l-13.137,4.11l13.358-30.14l17.428,18.047v7.8H143.978z M168.433,369.292h33.641l17.457,13.189
	l-21.098,32.616h-30V369.292z M207.96,415.098l12.949-20.018v20.018H207.96z M228.91,395.081l12.948,20.017H228.91V395.081z
	 M281.385,415.098h-30l-21.098-32.616l17.457-13.189h33.64V415.098z M307.035,415.28c-0.387-0.121-0.789-0.183-1.194-0.183h-16.455
	v-7.8l17.429-18.048l13.358,30.141L307.035,415.28z"/>
<g>
</g>
<g>
</g>
<g>
</g>
<g>
</g>
<g>
</g>
<g>
</g>
<g>
</g>
<g>
</g>
<g>
</g>
<g>
</g>
<g>
</g>
<g>
</g>
<g>
</g>
<g>
</g>
<g>
</g>
</svg>
