<?xml version="1.0" encoding="iso-8859-1"?>
<!-- Generator: Adobe Illustrator 18.0.0, SVG Export Plug-In . SVG Version: 6.00 Build 0)  -->
<!DOCTYPE svg PUBLIC "-//W3C//DTD SVG 1.1//EN" "http://www.w3.org/Graphics/SVG/1.1/DTD/svg11.dtd">
<svg version="1.1" id="Capa_1" xmlns="http://www.w3.org/2000/svg" xmlns:xlink="http://www.w3.org/1999/xlink" x="0px" y="0px"
	 viewBox="0 0 368.258 368.258" style="enable-background:new 0 0 368.258 368.258;" xml:space="preserve">
<path d="M342.445,45.471l-28.98-43.683c-0.586-0.885-1.5-1.499-2.54-1.71c-1.039-0.209-2.12,0.001-3.004,0.588l-44.182,29.313
	c-1.841,1.221-2.344,3.703-1.122,5.544l1.066,1.607l-94.415,62.64l-1.929-2.908c-1.221-1.842-3.705-2.344-5.544-1.122l-14.791,9.813
	c-0.885,0.586-1.499,1.5-1.71,2.54c-0.21,1.039,0.001,2.12,0.588,3.004l1.93,2.909l-53.185,35.284c-0.885,0.586-1.499,1.5-1.71,2.54
	c-0.21,1.039,0.001,2.12,0.588,3.004l0.286,0.431l-36.284,24.073c-0.885,0.586-1.499,1.5-1.71,2.54
	c-0.21,1.04,0.001,2.12,0.588,3.005l2.219,3.344l-31.669,21.017c-1.353,0.897-2.028,2.523-1.711,4.115s1.565,2.834,3.158,3.145
	l21.834,4.251c0.254,0.049,0.51,0.073,0.765,0.073c0.781,0,1.552-0.229,2.212-0.667l18.468-12.254l2.156,3.25
	c0.586,0.885,1.5,1.499,2.54,1.71c0.263,0.053,0.528,0.079,0.793,0.079c0.781,0,1.551-0.229,2.211-0.667l36.285-24.073
	c0,0,1.371,1.956,2.826,2.141c0.266,0.034,0.528,0.079,0.793,0.079c0.781,0,1.551-0.229,2.211-0.667l53.185-35.286l13.45,20.273
	l-40.508,26.874c-0.884,0.586-1.499,1.5-1.71,2.54c-0.21,1.039,0.001,2.12,0.588,3.004l8.415,12.685c0.587,0.885,1.5,1.5,2.54,1.71
	c0.264,0.053,0.528,0.079,0.793,0.079c0.781,0,1.552-0.229,2.213-0.668l4.716-3.131v54.712l-88.869,88.88
	c-1.144,1.144-1.485,2.864-0.866,4.359c0.619,1.494,2.077,2.469,3.695,2.469h28.539c1.061,0,2.078-0.422,2.828-1.172l54.673-54.673
	v3.372c0,2.209,1.791,4,4,4h15.688c2.209,0,4-1.791,4-4v-3.373l54.664,54.674c0.751,0.75,1.769,1.172,2.829,1.172h28.551
	c1.618,0,3.076-0.975,3.695-2.469c0.619-1.495,0.277-3.216-0.867-4.359l-88.872-88.883v-70.424l12.1-8.031l4.097,6.176
	c0.77,1.161,2.041,1.789,3.337,1.789c0.759,0,1.527-0.216,2.207-0.667l14.791-9.813c0.885-0.586,1.499-1.5,1.71-2.54
	c0.21-1.039-0.001-2.12-0.588-3.004l-16.012-24.135l6.54-4.339l3.572,5.383c0.77,1.16,2.041,1.788,3.337,1.788
	c0.759,0,1.527-0.216,2.207-0.667c1.842-1.222,2.344-3.704,1.122-5.545l-11.565-17.432c-1.221-1.84-3.703-2.343-5.544-1.121
	c-1.842,1.222-2.344,3.704-1.122,5.545l3.571,5.382l-6.539,4.339l-9.948-14.994l94.416-62.64l1.066,1.607
	c0.77,1.161,2.041,1.789,3.337,1.789c0.759,0,1.527-0.216,2.207-0.667l44.182-29.312c0.885-0.586,1.499-1.5,1.71-2.54
	C343.243,47.436,343.032,46.355,342.445,45.471z M50.134,212.59l-10.647-2.073l23.54-15.622l4.21,6.345L50.134,212.59z
	 M78.271,203.401l-13.009-19.607l32.951-21.862l13.009,19.609L78.271,203.401z M120.385,180.881l-18.003-27.135l49.851-33.074
	l18.003,27.135L120.385,180.881z M159.348,212.091l-3.991-6.017l9.799-6.501v8.661L159.348,212.091z M105.997,360.258H88.772
	l76.384-76.395V301.1L105.997,360.258z M180.844,311.785h-7.688v-115c0-2.123,1.721-3.844,3.844-3.844l0,0
	c2.123,0,3.844,1.721,3.844,3.844V311.785z M265.232,360.258h-17.237l-59.15-59.161V283.86L265.232,360.258z M188.388,192.822
	c-0.71-2.399-2.218-4.454-4.215-5.865l8.359-5.545l3.99,6.014L188.388,192.822z M209.497,192.512l-54.737-82.504l8.124-5.391
	l54.737,82.504L209.497,192.512z M173.69,106.437l83.925-55.681l18.003,27.135l-83.926,55.68L173.69,106.437z M282.284,73.469
	l-18.003-27.135l3.824-2.537l18.003,27.135L282.284,73.469z M296.052,71.449l-24.558-37.015l37.515-24.89l24.558,37.016
	L296.052,71.449z"/>
<g>
</g>
<g>
</g>
<g>
</g>
<g>
</g>
<g>
</g>
<g>
</g>
<g>
</g>
<g>
</g>
<g>
</g>
<g>
</g>
<g>
</g>
<g>
</g>
<g>
</g>
<g>
</g>
<g>
</g>
</svg>
