<?xml version="1.0" encoding="iso-8859-1"?>
<!-- Generator: Adobe Illustrator 18.0.0, SVG Export Plug-In . SVG Version: 6.00 Build 0)  -->
<!DOCTYPE svg PUBLIC "-//W3C//DTD SVG 1.1//EN" "http://www.w3.org/Graphics/SVG/1.1/DTD/svg11.dtd">
<svg version="1.1" id="Capa_1" xmlns="http://www.w3.org/2000/svg" xmlns:xlink="http://www.w3.org/1999/xlink" x="0px" y="0px"
	 viewBox="0 0 315.019 315.019" style="enable-background:new 0 0 315.019 315.019;" xml:space="preserve">
<g>
	<path d="M150.663,42.849c-75.037,0-136.085,61.047-136.085,136.085s61.048,136.085,136.085,136.085s136.085-61.048,136.085-136.085
		S225.7,42.849,150.663,42.849z M245.182,92.586c-29.712,5.486-51.027,3.084-63.407-7.169
		c-15.656-12.975-38.951-22.615-69.365-28.733c12.085-3.79,24.935-5.835,38.253-5.835C188.051,50.849,221.745,66.953,245.182,92.586
		z M49.864,99.992c7.659,4.116,14.848,7.336,20.496,9.16l1.405,0.455c11.474,3.718,26.173,8.48,38.353,8.48
		c9.974,0,18.259-3.194,21.701-12.769c1.564-4.354,1.492-8.272-0.214-11.644c-3.639-7.188-13.464-10.107-25.902-13.801
		c-2.913-0.865-5.924-1.76-8.986-2.75c-4.31-1.395-10.33-3.021-17.181-4.657c5.813-3.896,11.958-7.332,18.388-10.249
		c35.034,5.547,62.249,15.687,78.747,29.361c9.52,7.883,23.149,11.833,40.721,11.833c9.978,0,21.246-1.291,33.734-3.842
		c3.017,3.811,5.819,7.799,8.394,11.942c-7.815,0.09-15.483,0.207-23.256,0.357c-32.772,0.63-51.646,9.594-69.899,18.262
		c-16.304,7.742-31.704,15.056-56.158,15.056c-19.363,0-45.543-6.853-75.875-19.812C38.528,116.292,43.752,107.779,49.864,99.992z
		 M71.002,78.711c9.393,2.083,17.789,4.256,23.251,6.023c3.154,1.021,6.213,1.929,9.171,2.808c9.751,2.896,18.96,5.631,21.043,9.745
		c0.436,0.861,0.892,2.351-0.177,5.326c-4.637,12.897-27.272,6.767-50.06-0.616l-1.41-0.457c-4.853-1.568-11.026-4.306-17.697-7.817
		C59.98,88.283,65.292,83.259,71.002,78.711z M23.02,168.333c35.942,5.647,57.003,15.954,59.452,29.178
		c0.284,1.535-0.071,2.922-1.119,4.364c-2.927,4.03-13.653,11.492-52.407,16.946c-4.126-12.559-6.367-25.966-6.367-39.887
		C22.578,175.364,22.732,171.83,23.02,168.333z M46.385,253.229c22.439-3.993,52.181-14.162,77.357-39.338
		c42.857-42.857,53.898-42.857,78.089-42.857c9.532,0,21.889,5.026,34.971,10.348c13.57,5.52,27.555,11.194,41.059,12.592
		c-0.781,6.647-2.069,13.141-3.832,19.44c-9.441,0.149-18.893-1.263-28.848-2.765c-23.035-3.475-49.144-7.414-80.863,8.749
		c-36.661,18.676-56.554,50.852-67.026,75.957C76.872,285.957,59.329,271.345,46.385,253.229z M115.316,302.056
		c-3.62-1.041-7.173-2.242-10.656-3.586c9.935-23.833,28.755-54.35,63.288-71.943c29.436-14.998,53.129-11.422,76.039-7.966
		c9.394,1.417,18.359,2.748,27.51,2.855c-2.915,8.266-6.65,16.149-11.117,23.543c-29.036-6.441-59.028-1.667-89.203,14.214
		C146.946,271.925,127.68,289.197,115.316,302.056z M150.663,307.019c-9.027,0-17.837-0.944-26.341-2.729
		c11.947-11.958,29.304-26.84,50.581-38.037c27.413-14.427,54.562-19.154,80.787-14.093
		C232.515,285.299,194.081,307.019,150.663,307.019z M278.55,186.003c-12.347-1.311-25.739-6.745-38.734-12.031
		c-13.827-5.625-26.889-10.938-37.985-10.938c-27.418,0-40.278,1.733-83.745,45.2c-25.043,25.043-54.972,34.354-76.548,37.691
		c-3.79-6.151-7.074-12.644-9.795-19.422c31.269-4.529,49.643-11.06,56.083-19.926c2.324-3.201,3.193-6.839,2.513-10.521
		c-3.943-21.297-37.42-31.136-66.412-35.676c1.399-9.598,3.865-18.853,7.275-27.643c31.702,13.558,58.277,20.448,79.003,20.448
		c26.258,0,42.448-7.689,59.59-15.83c17.488-8.305,35.571-16.893,66.622-17.49c9.222-0.177,18.305-0.308,27.659-0.402
		c9.362,17.782,14.672,38.016,14.672,59.47C278.748,181.306,278.678,183.662,278.55,186.003z"/>
	<path d="M269.668,0c-16.968,0-30.772,13.805-30.772,30.772c0,16.968,13.805,30.773,30.772,30.773s30.772-13.805,30.772-30.773
		C300.441,13.805,286.636,0,269.668,0z M269.668,53.545c-12.557,0-22.772-10.216-22.772-22.773C246.896,18.216,257.112,8,269.668,8
		s22.772,10.216,22.772,22.772C292.441,43.33,282.225,53.545,269.668,53.545z"/>
</g>
<g>
</g>
<g>
</g>
<g>
</g>
<g>
</g>
<g>
</g>
<g>
</g>
<g>
</g>
<g>
</g>
<g>
</g>
<g>
</g>
<g>
</g>
<g>
</g>
<g>
</g>
<g>
</g>
<g>
</g>
</svg>
