<?xml version="1.0" encoding="iso-8859-1"?>
<!-- Generator: Adobe Illustrator 18.0.0, SVG Export Plug-In . SVG Version: 6.00 Build 0)  -->
<!DOCTYPE svg PUBLIC "-//W3C//DTD SVG 1.1//EN" "http://www.w3.org/Graphics/SVG/1.1/DTD/svg11.dtd">
<svg version="1.1" id="Capa_1" xmlns="http://www.w3.org/2000/svg" xmlns:xlink="http://www.w3.org/1999/xlink" x="0px" y="0px"
	 viewBox="0 0 367.998 367.998" style="enable-background:new 0 0 367.998 367.998;" xml:space="preserve">
<g>
	<path d="M286.155,46.539c-16.026-21.428-38.851-37.581-64.27-45.484c-1.21-0.378-2.534-0.156-3.56,0.599
		c-1.023,0.754-1.628,1.949-1.628,3.221v5.746h-10.349C202.25,4.331,193.774,0,184,0s-18.251,4.331-22.349,10.62H151.3V4.874
		c0-1.271-0.604-2.467-1.628-3.221c-1.026-0.755-2.349-0.977-3.56-0.599c-25.419,7.903-48.243,24.057-64.27,45.484
		c-16.577,22.163-25.339,48.546-25.339,76.296c0,20.602,5.029,41.044,14.552,59.188v181.976c0,2.209,1.791,4,4,4h217.886
		c2.209,0,4-1.791,4-4V182.022c9.523-18.144,14.552-38.586,14.552-59.188C311.494,95.085,302.732,68.702,286.155,46.539z
		 M216.698,18.62v110.7h-15.499V97.083c4.782-3.49,7.771-8.411,7.771-13.86l-0.017-64.603H216.698z M200.97,83.224
		c0,6.041-7.771,11.146-16.971,11.146s-16.971-5.104-16.971-11.146v-50.05c4.458,3.173,10.423,5.118,16.971,5.118
		s12.512-1.945,16.971-5.118V83.224z M184,102.369c3.248,0,6.35-0.483,9.199-1.352v28.303h-18.399v-28.304
		C177.649,101.886,180.751,102.369,184,102.369z M184,8c9.199,0,16.971,5.104,16.971,11.146c0,6.041-7.771,11.146-16.971,11.146
		s-16.971-5.104-16.971-11.146C167.029,13.104,174.8,8,184,8z M159.046,18.62l-0.017,64.603c0,5.449,2.989,10.369,7.771,13.859
		v32.237H151.3V18.62H159.046z M288.942,185.025v15.362H79.056v-15.362H288.942z M79.056,208.388h209.886v67.145H79.056V208.388z
		 M176.503,359.998h-70.058V310.91h70.058V359.998z M184.503,359.998V306.91c0-2.209-1.791-4-4-4h-78.058c-2.209,0-4,1.791-4,4
		v53.088h-19.39v-76.466h209.886v76.466H184.503z M290.505,177.025H77.493c-8.496-16.681-12.988-35.36-12.988-54.19
		c0-26.01,8.211-50.735,23.745-71.505c13.925-18.617,33.322-32.987,55.051-40.888V133.32c0,2.209,1.791,4,4,4h73.397
		c2.209,0,4-1.791,4-4V10.442c21.729,7.9,41.126,22.271,55.051,40.888c15.534,20.77,23.745,45.495,23.745,71.505
		C303.494,141.665,299.001,160.345,290.505,177.025z"/>
	<path d="M107.942,237.96h-14c-2.209,0-4,1.791-4,4s1.791,4,4,4h14c2.209,0,4-1.791,4-4S110.151,237.96,107.942,237.96z"/>
	<path d="M247.942,237.96h-14c-2.209,0-4,1.791-4,4s1.791,4,4,4h14c2.209,0,4-1.791,4-4S250.151,237.96,247.942,237.96z"/>
	<path d="M219.942,237.96h-14c-2.209,0-4,1.791-4,4s1.791,4,4,4h14c2.209,0,4-1.791,4-4S222.151,237.96,219.942,237.96z"/>
	<path d="M275.942,237.96h-14c-2.209,0-4,1.791-4,4s1.791,4,4,4h14c2.209,0,4-1.791,4-4S278.151,237.96,275.942,237.96z"/>
	<path d="M191.942,237.96h-14c-2.209,0-4,1.791-4,4s1.791,4,4,4h14c2.209,0,4-1.791,4-4S194.151,237.96,191.942,237.96z"/>
	<path d="M163.942,237.96h-14c-2.209,0-4,1.791-4,4s1.791,4,4,4h14c2.209,0,4-1.791,4-4S166.151,237.96,163.942,237.96z"/>
	<path d="M135.942,237.96h-14c-2.209,0-4,1.791-4,4s1.791,4,4,4h14c2.209,0,4-1.791,4-4S138.151,237.96,135.942,237.96z"/>
	<path d="M240.76,27.255c-1.896-1.127-4.353-0.504-5.482,1.395c-1.129,1.899-0.504,4.354,1.395,5.482
		c5.265,3.129,10.287,6.757,14.927,10.781c0.757,0.656,1.69,0.979,2.619,0.979c1.119,0,2.232-0.467,3.023-1.379
		c1.447-1.669,1.269-4.195-0.4-5.643C251.843,34.534,246.433,30.627,240.76,27.255z"/>
	<path d="M268.833,50.994c-1.429-1.684-3.952-1.893-5.638-0.462c-1.685,1.429-1.892,3.953-0.462,5.638
		c15.78,18.597,24.471,42.292,24.471,66.721c0,2.209,1.791,4,4,4s4-1.791,4-4C295.205,96.568,285.839,71.035,268.833,50.994z"/>
</g>
<g>
</g>
<g>
</g>
<g>
</g>
<g>
</g>
<g>
</g>
<g>
</g>
<g>
</g>
<g>
</g>
<g>
</g>
<g>
</g>
<g>
</g>
<g>
</g>
<g>
</g>
<g>
</g>
<g>
</g>
</svg>
