<?xml version="1.0" encoding="iso-8859-1"?>
<!-- Generator: Adobe Illustrator 18.0.0, SVG Export Plug-In . SVG Version: 6.00 Build 0)  -->
<!DOCTYPE svg PUBLIC "-//W3C//DTD SVG 1.1//EN" "http://www.w3.org/Graphics/SVG/1.1/DTD/svg11.dtd">
<svg version="1.1" id="Capa_1" xmlns="http://www.w3.org/2000/svg" xmlns:xlink="http://www.w3.org/1999/xlink" x="0px" y="0px"
	 viewBox="0 0 337.9 337.9" style="enable-background:new 0 0 337.9 337.9;" xml:space="preserve">
<g>
	<path d="M304.834,260.561h-15.703c24.448-28.597,37.82-64.67,37.82-102.561c0-87.121-70.878-158-158-158
		c-42.235,0-81.91,16.326-111.715,45.971C27.388,75.657,10.95,115.23,10.95,157.4c0,38.254,13.376,74.537,37.83,103.16H33.076
		c-2.209,0-4,1.791-4,4v69.34c0,2.209,1.791,4,4,4h271.758c2.209,0,4-1.791,4-4v-69.34
		C308.834,262.352,307.043,260.561,304.834,260.561z M266.659,260.561l16.144-28.211l7.811,13.408
		c-3.729,5.154-7.808,10.098-12.219,14.803H266.659z M79.707,260.561l-18.344-32.21h62.373l-18.152,32.21H79.707z M168.951,33.438
		l31.73,54.212h-62.745L168.951,33.438z M131.187,83.337L99.847,29.3h62.255L131.187,83.337z M283.329,216.255L251.942,161.4h62.347
		L283.329,216.255z M175.847,161.4h62.347l-30.961,54.854L175.847,161.4z M99.752,161.4h62.347l-30.961,54.854L99.752,161.4z
		 M168.919,149.455L137.283,95.65h62.701L168.919,149.455z M206.762,99.909l31.308,53.491h-62.191L206.762,99.909z M161.958,153.4
		H99.799l30.867-53.219L161.958,153.4z M251.958,153.4l30.899-53.764l31.324,53.764H251.958z M245.014,149.428L213.539,95.65h62.382
		L245.014,149.428z M175.974,29.601h62.191l-30.883,53.491L175.974,29.601z M92.823,149.482L61.025,95.65h63.022L92.823,149.482z
		 M54.571,100.454L85.847,153.4H23.72L54.571,100.454z M86.004,161.4l-30.961,54.854L23.657,161.4H86.004z M92.879,165.496
		l31.386,54.855H61.917L92.879,165.496z M168.974,165.496l31.386,54.855h-62.348L168.974,165.496z M245.069,165.496l31.386,54.855
		h-62.348L245.069,165.496z M318.441,170.321c-1.982,24.385-9.828,47.664-22.843,68.099l-7.92-13.595L318.441,170.321z
		 M287.479,91.679l8.053-14.074c12.567,19.717,20.649,42.552,22.818,67.062L287.479,91.679z M213.888,87.65l31.395-54.378
		l31.684,54.378H213.888z M175.777,21.601l7.391-12.922c17.036,1.609,33.252,6.077,48.161,12.922H175.777z M106.803,21.3
		c15.033-6.798,31.182-11.086,47.922-12.637l7.365,12.637H106.803z M124.441,87.65H61.978l30.878-54.459L124.441,87.65z
		 M19.482,144.784c2.009-24.22,9.782-47.234,22.67-67.436l8.311,14.267L19.482,144.784z M50.184,223.871l-7.918,14.443
		c-12.924-20.377-20.742-43.644-22.774-68.084L50.184,223.871z M130.614,232.441l16.14,28.119h-31.986L130.614,232.441z
		 M155.978,260.561l-18.488-32.21h62.311l-18.288,32.21H155.978z M206.704,232.396l16.285,28.164h-32.276L206.704,232.396z
		 M232.23,260.561l-18.624-32.21h62.269l-18.432,32.21H232.23z M290.526,70.247l-7.154,12.504l-27.233-46.739
		C269.364,45.492,280.986,57.068,290.526,70.247z M174.279,8.105l-5.26,9.196l-5.362-9.2C165.417,8.041,167.18,8,168.95,8
		C170.735,8,172.509,8.043,174.279,8.105z M62.877,51.643c6.142-6.109,12.727-11.621,19.682-16.509L55.066,83.623l-7.92-13.594
		C51.845,63.55,57.091,57.397,62.877,51.643z M47.308,245.759l7.241-13.209l15.952,28.011H59.515
		C55.108,255.861,51.034,250.918,47.308,245.759z M300.834,329.9H37.076v-61.34h263.758V329.9z"/>
	<path d="M47.955,290.063h242c2.209,0,4-1.791,4-4s-1.791-4-4-4h-242c-2.209,0-4,1.791-4,4S45.746,290.063,47.955,290.063z"/>
	<path d="M47.955,316.397h242c2.209,0,4-1.791,4-4s-1.791-4-4-4h-242c-2.209,0-4,1.791-4,4S45.746,316.397,47.955,316.397z"/>
</g>
<g>
</g>
<g>
</g>
<g>
</g>
<g>
</g>
<g>
</g>
<g>
</g>
<g>
</g>
<g>
</g>
<g>
</g>
<g>
</g>
<g>
</g>
<g>
</g>
<g>
</g>
<g>
</g>
<g>
</g>
</svg>
