<?xml version="1.0" encoding="iso-8859-1"?>
<!-- Generator: Adobe Illustrator 18.0.0, SVG Export Plug-In . SVG Version: 6.00 Build 0)  -->
<!DOCTYPE svg PUBLIC "-//W3C//DTD SVG 1.1//EN" "http://www.w3.org/Graphics/SVG/1.1/DTD/svg11.dtd">
<svg version="1.1" id="Capa_1" xmlns="http://www.w3.org/2000/svg" xmlns:xlink="http://www.w3.org/1999/xlink" x="0px" y="0px"
	 viewBox="0 0 395.299 395.299" style="enable-background:new 0 0 395.299 395.299;" xml:space="preserve">
<path d="M340.412,387.299h-71.444v-36.17h15.795c2.209,0,4-1.791,4-4v-34.354c0-2.209-1.791-4-4-4h-17.02l-40.783-93.067
	c52.141-10.867,94.619-50.649,108.728-102.215c0.329-1.203,0.078-2.491-0.679-3.482c-0.756-0.991-1.933-1.573-3.18-1.573h-59.647
	l-70.528-70.527v-9.171c6.137-1.749,10.648-7.394,10.648-14.084c0-8.08-6.574-14.654-14.654-14.654s-14.654,6.574-14.654,14.654
	c0,6.694,4.517,12.341,10.659,14.086v9.167l-70.529,70.528H63.469c-1.248,0-2.423,0.582-3.18,1.574
	c-0.757,0.991-1.007,2.279-0.678,3.482c14.203,51.844,56.492,91.317,108.733,102.199l-40.789,93.082h-17.02c-2.209,0-4,1.791-4,4
	v34.354c0,2.209,1.791,4,4,4h15.795v36.17H54.887c-2.209,0-4,1.791-4,4s1.791,4,4,4h285.525c2.209,0,4-1.791,4-4
	S342.621,387.299,340.412,387.299z M197.654,51.19l20.978,57.246h-41.956L197.654,51.19z M227.153,108.437l-19.502-53.217
	l53.218,53.217H227.153z M190.995,14.654c0-3.669,2.985-6.654,6.654-6.654s6.654,2.985,6.654,6.654s-2.985,6.654-6.654,6.654
	S190.995,18.323,190.995,14.654z M187.658,55.219l-19.502,53.218h-33.717L187.658,55.219z M326.48,116.437
	c-0.535,1.689-1.111,3.359-1.711,5.019H70.525c-0.598-1.659-1.172-3.329-1.707-5.019H326.48z M73.698,129.455h247.897
	c-17.555,40.268-54.253,70.236-97.918,78.757l-2.061-4.703c-4.234-9.662-13.417-15.664-23.966-15.664s-19.732,6.002-23.966,15.664
	l-2.06,4.7C127.844,199.663,91.266,169.88,73.698,129.455z M181.01,206.72c2.939-6.708,9.315-10.875,16.639-10.875
	s13.7,4.167,16.639,10.875l44.721,102.055h-57.36V230.66c6.14-1.747,10.654-7.393,10.654-14.084c0-8.08-6.574-14.654-14.654-14.654
	s-14.654,6.574-14.654,14.654c0,6.692,4.514,12.338,10.654,14.084v78.115h-57.36L181.01,206.72z M197.649,223.229
	c-3.669,0-6.654-2.984-6.654-6.653s2.985-6.654,6.654-6.654s6.654,2.985,6.654,6.654S201.318,223.229,197.649,223.229z
	 M114.535,316.774h166.228v26.354H114.535V316.774z M260.968,351.129v12.731H134.33v-12.731H260.968z M134.33,387.299V371.86
	h126.638v15.438H134.33z"/>
<g>
</g>
<g>
</g>
<g>
</g>
<g>
</g>
<g>
</g>
<g>
</g>
<g>
</g>
<g>
</g>
<g>
</g>
<g>
</g>
<g>
</g>
<g>
</g>
<g>
</g>
<g>
</g>
<g>
</g>
</svg>
