<?xml version="1.0" encoding="iso-8859-1"?>
<!-- Generator: Adobe Illustrator 18.0.0, SVG Export Plug-In . SVG Version: 6.00 Build 0)  -->
<!DOCTYPE svg PUBLIC "-//W3C//DTD SVG 1.1//EN" "http://www.w3.org/Graphics/SVG/1.1/DTD/svg11.dtd">
<svg version="1.1" id="Capa_1" xmlns="http://www.w3.org/2000/svg" xmlns:xlink="http://www.w3.org/1999/xlink" x="0px" y="0px"
	 viewBox="0 0 435.015 435.015" style="enable-background:new 0 0 435.015 435.015;" xml:space="preserve">
<g>
	<path d="M135.961,174.815c21.243,0,38.526-16.865,38.526-37.595c0-18.951-14.762-30.724-38.526-30.724
		c-23.763,0-38.525,11.772-38.525,30.724C97.435,157.949,114.718,174.815,135.961,174.815z M135.961,114.496
		c27.551,0,30.526,15.892,30.526,22.724c0,16.318-13.694,29.595-30.526,29.595c-16.832,0-30.525-13.276-30.525-29.595
		C105.435,130.388,108.41,114.496,135.961,114.496z"/>
	<path d="M137.061,124.736c1.34,0,2.663,0.069,3.932,0.206c0.146,0.016,0.291,0.023,0.434,0.023c2.017,0,3.75-1.521,3.972-3.57
		c0.237-2.197-1.352-4.17-3.548-4.406c-1.553-0.168-3.165-0.253-4.79-0.253c-2.209,0-4,1.791-4,4S134.852,124.736,137.061,124.736z"
		/>
	<path d="M149.89,127.648c3.74,2.289,5.974,6.304,5.975,10.739c0,2.209,1.791,3.999,4,3.999c0,0,0.001,0,0.001,0
		c2.209-0.001,4-1.792,3.999-4.001c-0.002-7.242-3.665-13.807-9.798-17.562c-1.885-1.152-4.347-0.56-5.5,1.324
		C147.413,124.031,148.006,126.494,149.89,127.648z"/>
	<path d="M431.015,42.683H264.006c-2.209,0-4,1.791-4,4v118.945c-1.258-0.216-2.547-0.336-3.86-0.336H176.74
		c6.24-8.428,9.938-18.846,9.938-30.113c0-27.966-22.751-50.718-50.717-50.718c-27.965,0-50.717,22.752-50.717,50.718
		c0,11.268,3.698,21.686,9.938,30.113h-6.156c-8.997,0-17.806,3.649-24.168,10.011L6.536,233.615
		c-8.715,8.728-8.714,22.919,0.002,31.635c4.231,4.231,9.849,6.562,15.819,6.562c5.981,0,11.6-2.331,15.818-6.561l34.712-34.704
		v123.271c-9.536,1.217-16.93,9.383-16.93,19.243v15.271c0,2.209,1.791,4,4,4h66.14c2.13,0,3.886-1.669,3.995-3.796l4.096-80.204
		h4.718l4.096,80.204c0.108,2.127,1.865,3.796,3.995,3.796h64.96c2.209,0,4-1.791,4-4v-15.271c0-9.325-6.611-17.135-15.39-18.984
		V210.032h56.02c1.157,0,2.299-0.087,3.42-0.258v178.558c0,2.209,1.791,4,4,4s4-1.791,4-4V206.903
		c1.694-1.011,3.269-2.251,4.68-3.714c4.251-4.409,6.47-10.213,6.247-16.337c-0.269-7.665-4.617-14.404-10.927-18.228v-5.171
		h163.009c2.209,0,4-1.791,4-4V46.683C435.015,44.474,433.224,42.683,431.015,42.683z M252.145,202.032h-30v-28.74h30V202.032z
		 M151.383,207.665c-0.551-1.55-2.016-2.666-3.755-2.666h-23.333c-2.209,0-4,1.791-4,4v4.333h-16.113
		c-5.175,0-9.385-4.21-9.385-9.385v-30.655h7.759c8.93,7.837,20.618,12.604,33.405,12.604c9.431,0,18.263-2.595,25.835-7.098v19.801
		c0,4.999-4.067,9.066-9.066,9.066H151.383z M147.902,327.662h44.664v6.666h-44.323L147.902,327.662z M192.566,266.32
		c-6.878-0.124-12.437-5.749-12.437-12.655c0-11.396-9.271-20.666-20.667-20.666h-7.835v-4.634h40.938V266.32z M143.628,212.999
		v28.666h-15.333v-28.666H143.628z M135.961,92.461c23.554,0,42.717,19.163,42.717,42.718c0,23.554-19.163,42.717-42.717,42.717
		s-42.717-19.163-42.717-42.717C93.244,111.624,112.407,92.461,135.961,92.461z M35.346,256.766l-20.323-20.324l22.345-22.341
		l20.324,20.324L35.346,256.766z M12.195,259.594c-4.617-4.618-5.416-11.624-2.419-17.084l19.514,19.514
		c-2.099,1.163-4.466,1.788-6.934,1.788C18.523,263.812,14.914,262.314,12.195,259.594z M63.349,228.769l-20.324-20.324
		l27.49-27.485c4.345-4.346,10.182-7.032,16.282-7.564v30.552c0,9.586,7.799,17.385,17.385,17.385h16.113v24.333
		c0,2.209,1.791,4,4,4h23.333c2.209,0,4-1.791,4-4v-4.666h7.835c6.984,0,12.667,5.682,12.667,12.666
		c0,11.318,9.148,20.53,20.437,20.655v6.679H80.886v-42.667h1.577c6.25,0,11.333,5.084,11.333,11.333
		c0,10.661,8.673,19.334,19.333,19.334h11.532c1.653,4.653,6.087,8,11.3,8c6.617,0,12-5.383,12-12s-5.383-12-12-12
		c-5.213,0-9.647,3.347-11.3,8h-11.532c-6.249,0-11.333-5.084-11.333-11.334c0-10.66-8.673-19.333-19.333-19.333h-1.577v-9.44
		c0-1.618-0.975-3.076-2.469-3.695s-3.215-0.277-4.359,0.866L63.349,228.769z M124.849,334.328H80.886v-6.666h44.303
		L124.849,334.328z M131.961,264.999c0-2.206,1.794-4,4-4s4,1.794,4,4s-1.794,4-4,4S131.961,267.205,131.961,264.999z
		 M75.298,361.665h22.164c2.209,0,4-1.791,4-4s-1.791-4-4-4H80.886v-11.337h43.554l-1.498,29.334H64.051
		C64.742,366.054,69.513,361.695,75.298,361.665z M88.696,379.662v4.67H79.03v-4.67H88.696z M96.696,379.662h9.667v4.67h-9.667
		V379.662z M63.956,379.662h7.074v4.67h-7.074V379.662z M114.363,384.332v-4.67h8.171l-0.239,4.67H114.363z M130.386,300.332
		c-2.13,0-3.886,1.669-3.995,3.796l-0.793,15.534H80.886v-30.663h111.68v30.663h-45.072l-0.793-15.534
		c-0.108-2.127-1.865-3.796-3.995-3.796H130.386z M150.558,379.662h7.138v4.67h-6.899L150.558,379.662z M193.03,379.662v4.67h-9.667
		v-4.67H193.03z M175.363,384.332h-9.667v-4.67h9.667V384.332z M201.03,384.332v-4.67h6.926v4.67H201.03z M207.861,371.662H150.15
		l-1.498-29.334h43.915v11.337h-18.545c-2.209,0-4,1.791-4,4s1.791,4,4,4h22.603C202.404,361.695,207.171,366.054,207.861,371.662z
		 M196.566,202.032c-2.209,0-4,1.791-4,4v14.333h-40.938v-4.7h1.102c9.411,0,17.066-7.656,17.066-17.066v-25.307h44.349v28.74
		H196.566z M266.927,197.636c-1.886,1.956-4.225,3.289-6.782,3.938v-27.725c6.015,1.673,10.573,6.991,10.794,13.29
		C271.081,191.076,269.657,194.805,266.927,197.636z M427.015,155.453H268.006V50.683h159.009V155.453z"/>
</g>
<g>
</g>
<g>
</g>
<g>
</g>
<g>
</g>
<g>
</g>
<g>
</g>
<g>
</g>
<g>
</g>
<g>
</g>
<g>
</g>
<g>
</g>
<g>
</g>
<g>
</g>
<g>
</g>
<g>
</g>
</svg>
