<?xml version="1.0" encoding="iso-8859-1"?>
<!-- Generator: Adobe Illustrator 18.0.0, SVG Export Plug-In . SVG Version: 6.00 Build 0)  -->
<!DOCTYPE svg PUBLIC "-//W3C//DTD SVG 1.1//EN" "http://www.w3.org/Graphics/SVG/1.1/DTD/svg11.dtd">
<svg version="1.1" id="Capa_1" xmlns="http://www.w3.org/2000/svg" xmlns:xlink="http://www.w3.org/1999/xlink" x="0px" y="0px"
	 viewBox="0 0 435.73 435.73" style="enable-background:new 0 0 435.73 435.73;" xml:space="preserve">
<g>
	<path d="M281.825,214.622c-5.835-35.901-14.041-65.517-23.105-83.39c-2.12-4.178-7.76-5.977-16.113-7.765l21.302-29.81
		c3.437-4.811,4.123-10.555,1.902-15.811c-1.325-4.906-0.821-9.852,1.426-13.954c3.233-5.901,4.873-12.209,4.873-18.749
		C272.109,20.252,247.777,0,217.868,0s-54.241,20.252-54.241,45.145c0,6.54,1.64,12.848,4.873,18.749
		c2.248,4.103,2.751,9.048,1.426,13.954c-2.221,5.256-1.534,11.001,1.902,15.81l21.151,29.6c-7.498,1.147-15.064,2.478-17.774,8.03
		c-8.506,17.424-16.239,47.137-21.775,83.667c-4.798,31.659-7.523,65.528-7.291,90.599c0.057,5.904,4.526,10.852,10.176,11.263
		c0.019,0.002,0.037,0.003,0.057,0.004c0.028,0.003,0.058,0.005,0.087,0.007c2.966,0.211,5.819-0.812,8.028-2.889
		c2.343-2.203,3.665-5.362,3.63-8.665c-0.347-34.398,5.052-84.78,14.033-118.494l0.551,7.22c0.68,8.915,1.024,17.968,1.024,26.907
		v204.191c0,5.863,5.561,10.634,12.396,10.634c6.834,0,12.395-4.771,12.395-10.634V271.226c6.101,1.905,12.603,1.903,18.701,0.001
		v153.87c0,5.863,5.561,10.634,12.396,10.634c6.834,0,12.395-4.771,12.395-10.634V220.905c0-8.943,0.345-17.996,1.025-26.907
		l0.552-7.23c8.989,33.716,14.387,84.106,14.032,118.51c-0.029,3.308,1.3,6.468,3.646,8.669c2.208,2.071,5.058,3.092,8.014,2.88
		c0.029-0.002,0.058-0.004,0.086-0.007c0.019-0.001,0.037-0.002,0.056-0.004c5.648-0.41,10.118-5.36,10.177-11.273
		C289.832,280.009,286.927,246.021,281.825,214.622z M176.685,84.908c4.492,4.328,11.062,6.967,18.147,6.967
		c4.996,0,9.784-1.273,13.847-3.683c4.014-2.382,6.41-6.635,6.411-11.378c0-4.741-2.396-8.993-6.407-11.374
		c-4.065-2.413-8.855-3.688-13.851-3.688c-6.345,0-12.276,2.111-16.67,5.656c-0.501-2.573-1.384-5.051-2.648-7.358
		c-2.58-4.71-3.889-9.725-3.889-14.905C171.626,24.663,192.371,8,217.868,8s46.241,16.663,46.241,37.145
		c0,5.181-1.309,10.195-3.889,14.905c-1.264,2.307-2.147,4.785-2.648,7.358c-4.394-3.545-10.325-5.656-16.67-5.656
		c-4.995,0-9.785,1.275-13.851,3.688c-4.012,2.381-6.407,6.634-6.406,11.375c0,4.742,2.396,8.995,6.411,11.377
		c4.062,2.409,8.85,3.683,13.846,3.683c7.085,0,13.655-2.638,18.147-6.964c-0.14,1.263-0.618,2.649-1.652,4.096l-24.032,33.632
		c-3.621,5.067-9.27,7.974-15.498,7.974s-11.877-2.906-15.498-7.974l-24.033-33.633C177.302,87.559,176.824,86.171,176.685,84.908z
		 M180.304,76.815c2.654-4.284,8.253-7.063,14.528-7.063c3.56,0,6.937,0.888,9.768,2.567c1.559,0.926,2.49,2.606,2.49,4.495
		c-0.001,1.89-0.933,3.571-2.492,4.497c-2.828,1.677-6.205,2.563-9.766,2.563C188.565,83.875,182.966,81.098,180.304,76.815z
		 M255.431,76.815c-2.662,4.282-8.261,7.06-14.528,7.06c-3.561,0-6.938-0.887-9.765-2.563c-1.561-0.926-2.492-2.606-2.492-4.497
		c0-1.889,0.931-3.569,2.49-4.495c2.83-1.68,6.207-2.567,9.767-2.567C247.178,69.752,252.777,72.531,255.431,76.815z
		 M281.592,305.466c-0.017,1.75-1.189,3.212-2.682,3.364c-0.093,0.004-0.195,0.011-0.307,0.022c-0.879,0.033-1.487-0.381-1.869-0.74
		c-0.722-0.677-1.13-1.685-1.12-2.759c0.379-36.852-6.636-106.168-20.794-140.465c-0.706-1.712-2.491-2.718-4.325-2.424
		c-1.829,0.291-3.22,1.799-3.36,3.646l-2.081,27.278c-0.696,9.113-1.049,18.371-1.049,27.517v204.191
		c0,1.243-1.879,2.634-4.395,2.634s-4.396-1.391-4.396-2.634V265.188c0-1.415-0.748-2.726-1.967-3.445
		c-1.221-0.718-2.727-0.74-3.967-0.057c-7.147,3.946-15.685,3.947-22.834,0c-1.24-0.684-2.747-0.662-3.967,0.058
		c-1.219,0.719-1.967,2.029-1.967,3.444v159.908c0,1.243-1.879,2.634-4.395,2.634s-4.396-1.391-4.396-2.634V220.905
		c0-9.142-0.353-18.398-1.048-27.516l-2.082-27.279c-0.141-1.847-1.531-3.355-3.36-3.646c-1.827-0.293-3.62,0.713-4.325,2.425
		c-14.145,34.288-21.164,103.606-20.793,140.466c0.012,1.075-0.393,2.079-1.11,2.754c-0.384,0.36-1.025,0.779-1.879,0.743
		c-0.112-0.012-0.215-0.019-0.307-0.022c-1.493-0.153-2.665-1.609-2.682-3.353c-0.429-46.225,10.113-133.519,28.256-170.682
		c0.969-1.983,8.535-3.135,12.601-3.754c1.224-0.186,2.402-0.368,3.539-0.564c5.051,5.207,11.897,8.134,19.334,8.134
		c7.421,0,14.254-2.914,19.301-8.1c0.219,0.044,0.433,0.088,0.654,0.133c3.741,0.756,12.501,2.526,13.762,4.206
		C269.873,170.91,282.077,253.709,281.592,305.466z"/>
	<path d="M212.146,120.873h11.444c2.209,0,4-1.791,4-4s-1.791-4-4-4h-11.444c-2.209,0-4,1.791-4,4S209.937,120.873,212.146,120.873z
		"/>
	<path d="M217.865,234.19c-2.209,0-4,1.791-4,4v3.434c0,2.209,1.791,4,4,4s4-1.791,4-4v-3.434
		C221.865,235.981,220.074,234.19,217.865,234.19z"/>
</g>
<g>
</g>
<g>
</g>
<g>
</g>
<g>
</g>
<g>
</g>
<g>
</g>
<g>
</g>
<g>
</g>
<g>
</g>
<g>
</g>
<g>
</g>
<g>
</g>
<g>
</g>
<g>
</g>
<g>
</g>
</svg>
