<?xml version="1.0" encoding="iso-8859-1"?>
<!-- Generator: Adobe Illustrator 18.0.0, SVG Export Plug-In . SVG Version: 6.00 Build 0)  -->
<!DOCTYPE svg PUBLIC "-//W3C//DTD SVG 1.1//EN" "http://www.w3.org/Graphics/SVG/1.1/DTD/svg11.dtd">
<svg version="1.1" id="Capa_1" xmlns="http://www.w3.org/2000/svg" xmlns:xlink="http://www.w3.org/1999/xlink" x="0px" y="0px"
	 viewBox="0 0 435.31 435.31" style="enable-background:new 0 0 435.31 435.31;" xml:space="preserve">
<g>
	<path d="M142.698,162.894c-13.076,0-23.715,10.639-23.715,23.715s10.639,23.715,23.715,23.715s23.715-10.639,23.715-23.715
		S155.774,162.894,142.698,162.894z M158.413,186.609c0,2.883-0.794,5.578-2.154,7.903l-21.464-21.464
		c2.325-1.36,5.021-2.154,7.904-2.154C151.363,170.894,158.413,177.944,158.413,186.609z M126.983,186.609
		c0-2.883,0.794-5.578,2.154-7.904l21.464,21.464c-2.325,1.361-5.021,2.155-7.904,2.155
		C134.033,202.324,126.983,195.274,126.983,186.609z"/>
	<path d="M421.735,173.034c-6.094,0-11.261,4.036-12.972,9.575h-4.674v-13.782c0-2.209-1.791-4-4-4h-14.278v-1.313
		c0-2.209-1.791-4-4-4s-4,1.791-4,4v1.313h-11.997v-1.313c0-2.209-1.791-4-4-4s-4,1.791-4,4v1.313h-14.588c-2.209,0-4,1.791-4,4
		v1.672h-53.291c-5.404-9.598-15.672-18.29-30.192-25.327c-21.385-10.366-49.729-16.074-79.811-16.074
		c-2.2,0-4.388,0.04-6.567,0.101v-6.746h34.596c1.524,0,2.916-0.866,3.589-2.233c0.673-1.367,0.511-2.998-0.419-4.206L190.66,94.608
		c-0.757-0.984-1.928-1.561-3.17-1.561h-16.211c-30.393,0-60.646,7.564-87.489,21.875c-1.62,0.863-2.444,2.719-1.999,4.499
		c0.445,1.781,2.045,3.03,3.881,3.03h34.574v13.793c-8.708,2.411-16.829,5.39-24.125,8.927
		c-13.806,6.691-23.767,14.879-29.359,23.919H45.814c-2.209,0-4,1.791-4,4v27.037c0,2.209,1.791,4,4,4h20.947
		c1.995,3.226,4.548,6.342,7.633,9.321l-9.321,20.665c-0.923-0.101-1.854-0.152-2.793-0.152c-6.283,0-12.279,2.336-16.895,6.371
		l-0.685-0.316c-2.004-0.927-4.382-0.05-5.308,1.956c-0.729,1.582-0.327,3.381,0.853,4.531c-0.028,0.046-0.059,0.09-0.087,0.137
		l-5.132,8.765l-1.301-0.6c-2.005-0.927-4.382-0.05-5.308,1.957c-0.925,2.006-0.049,4.382,1.957,5.307l0.591,0.272l-5.09,8.693
		l-1.678-0.774c-2.005-0.927-4.382-0.048-5.308,1.956c-0.925,2.007-0.049,4.383,1.957,5.308l0.968,0.446l-5.09,8.693l-2.068-0.954
		c-2.005-0.926-4.382-0.049-5.308,1.956c-0.925,2.007-0.049,4.383,1.957,5.308l1.358,0.626l-3.171,5.417
		c-0.641,1.095-1.191,2.232-1.658,3.397l-2.161-0.997c-2.005-0.927-4.382-0.048-5.308,1.956c-0.925,2.007-0.049,4.383,1.957,5.308
		l3.712,1.712c-0.191,3.097,0.178,6.234,1.126,9.25c2.163,6.882,7.161,12.562,13.711,15.582l10.136,4.675
		c3.399,1.568,7.005,2.363,10.716,2.363c6.77,0,13.109-2.69,17.794-7.202l3.724,1.718c0.542,0.251,1.112,0.369,1.673,0.369
		c1.512,0,2.959-0.862,3.635-2.325c0.925-2.007,0.049-4.383-1.957-5.308l-2.172-1.002c0.539-1.027,1.024-2.09,1.424-3.202
		l2.216-6.16l1.462,0.674c0.542,0.251,1.112,0.369,1.673,0.369c1.512,0,2.959-0.862,3.635-2.325
		c0.925-2.007,0.049-4.383-1.957-5.308l-2.094-0.966l3.407-9.469l1.123,0.518c0.542,0.251,1.112,0.369,1.673,0.369
		c1.512,0,2.959-0.862,3.635-2.325c0.925-2.007,0.049-4.383-1.957-5.308l-1.755-0.809l3.408-9.47l0.77,0.355
		c0.542,0.251,1.112,0.369,1.673,0.369c1.512,0,2.96-0.862,3.635-2.326c0.925-2.006,0.049-4.382-1.957-5.307l-1.402-0.646
		c0,0,3.422-9.533,3.465-9.655c0.179,0.024,0.358,0.058,0.536,0.058c1.512,0,2.96-0.862,3.635-2.325
		c0.925-2.007,0.049-4.383-1.957-5.308l-0.798-0.368c0.079-4.316-0.943-8.529-2.907-12.271l9.267-20.547
		c0.608,0.308,1.221,0.615,1.845,0.917c1.478,0.716,2.997,1.405,4.539,2.077l-1.755,3.733c-3.047,6.485-3.386,13.769-0.953,20.507
		c2.432,6.736,7.341,12.122,13.821,15.163c3.673,1.729,7.543,2.546,11.358,2.546c10.073,0,19.747-5.704,24.315-15.415l6.381-13.587
		c7.206,0.694,14.601,1.05,22.105,1.05c3.381,0,6.852-0.077,10.315-0.23c2.139-0.095,3.824-1.855,3.824-3.996v-6.218
		c4.781-0.258,9.445-0.679,13.968-1.255v5.04c0,2.209,1.791,4,4,4s4-1.791,4-4v-6.247c4.651-0.808,9.134-1.774,13.404-2.902v4.085
		c0,2.209,1.791,4,4,4s4-1.791,4-4v-6.456c4.803-1.584,9.29-3.373,13.405-5.346v2.208c0,2.209,1.791,4,4,4s4-1.791,4-4v-6.571
		c6.5-4.016,11.681-8.568,15.246-13.513h69.132v1.673c0,2.209,1.791,4,4,4h14.588v1.312c0,2.209,1.791,4,4,4s4-1.791,4-4v-1.312
		h11.997v1.312c0,2.209,1.791,4,4,4s4-1.791,4-4v-1.312h14.278c2.209,0,4-1.791,4-4v-13.783h4.674
		c1.711,5.539,6.879,9.575,12.972,9.575c7.485,0,13.575-6.09,13.575-13.575S429.22,173.034,421.735,173.034z M103.561,114.452
		c21.431-8.804,44.532-13.404,67.718-13.404h14.242l10.315,13.404H103.561z M128.245,122.452h33.119v7.113
		c-11.545,0.722-22.692,2.289-33.119,4.657V122.452z M49.814,196.128v-19.037h13.224c-0.994,3.109-1.509,6.289-1.509,9.519
		s0.515,6.41,1.509,9.519H49.814z M41.727,334.262c-2.546,0-5.024-0.548-7.366-1.627l-10.136-4.675
		c-4.571-2.108-7.92-5.915-9.43-10.717c-0.324-1.032-0.533-2.075-0.666-3.12l37.3,17.204
		C48.606,333.192,45.254,334.262,41.727,334.262z M58.32,322.601c-0.321,0.893-0.713,1.747-1.163,2.56l-42.034-19.387
		c0.352-0.927,0.763-1.838,1.277-2.716l3.566-6.091l40.806,18.821L58.32,322.601z M63.49,308.232l-39.464-18.202l5.09-8.693
		l37.782,17.426L63.49,308.232z M69.616,291.208l-36.439-16.807l5.09-8.693l34.757,16.031L69.616,291.208z M42.327,258.772
		c0,0,4.985-8.487,5.111-8.684l31.673,14.608c-0.087,0.285-3.369,9.487-3.369,9.487L42.327,258.772z M53.739,244.185
		c2.578-1.429,5.511-2.224,8.542-2.224c2.554,0,5.033,0.546,7.368,1.622c5.321,2.455,8.847,7.173,9.912,12.511L53.739,244.185z
		 M79.446,240.55c-1.045-0.935-2.177-1.795-3.391-2.566c-0.967-0.614-2.237-1.285-3.176-1.716l7.867-17.441
		c2.021,1.513,4.194,2.98,6.515,4.397L79.446,240.55z M140.205,253.255c-4.419,9.395-15.646,13.445-25.03,9.032
		c-4.548-2.135-7.993-5.913-9.699-10.64c-1.707-4.728-1.469-9.837,0.669-14.388l1.957-4.164c1.201,0.441,2.424,0.864,3.656,1.279
		c-1.126,8.265,1.096,16.567,6.33,23.25c0.789,1.008,1.964,1.534,3.152,1.534c0.862,0,1.731-0.277,2.463-0.851
		c1.739-1.362,2.045-3.876,0.683-5.615c-3.601-4.598-5.28-10.229-4.841-15.914c8.156,2.295,16.847,4.073,25.907,5.304
		L140.205,253.255z M182.07,186.855v49.18c-2.065,0.058-4.119,0.086-6.139,0.086c-28.897,0-56.002-5.424-76.322-15.272
		c-19.397-9.402-30.081-21.562-30.081-34.239s10.683-24.837,30.081-34.239c20.174-9.778,47.038-15.188,75.702-15.265v8.122
		c0,2.209,1.791,4,4,4s4-1.791,4-4v-7.996c2.991,0.097,5.962,0.24,8.898,0.453v7.543c0,2.209,1.791,4,4,4s4-1.791,4-4v-6.801
		c3.007,0.332,5.975,0.723,8.898,1.177v5.625c0,2.209,1.791,4,4,4s4-1.791,4-4v-4.224c13.006,2.588,24.934,6.417,35.146,11.367
		c17.482,8.474,27.886,19.188,29.77,30.485H186.07C183.861,182.855,182.07,184.646,182.07,186.855z M190.07,225.67v-34.814h13.968
		v33.458C199.508,224.931,194.846,225.395,190.07,225.67z M212.039,223.028v-32.172h13.404v29.064
		C221.191,221.12,216.707,222.16,212.039,223.028z M233.443,217.38v-26.524h13.405v20.699
		C242.837,213.691,238.34,215.644,233.443,217.38z M254.848,206.58v-15.725h12.27C265.66,196.484,261.344,201.83,254.848,206.58z
		 M274.288,194.719c0.434-1.271,0.771-2.56,0.999-3.864h11.041c2.2,0,3.988-1.769,4-3.969c0.003-0.093-0.044-2.282-0.143-3.277
		c-0.171-1.721-0.488-3.426-0.944-5.111h49.984v16.221H274.288z M347.226,200.392v-27.565h10.588v27.565H347.226z M365.814,200.392
		v-27.565h11.997v27.565H365.814z M396.088,200.392h-10.278v-27.565h10.278V200.392z M421.735,192.184
		c-3.074,0-5.575-2.501-5.575-5.575s2.501-5.575,5.575-5.575s5.575,2.501,5.575,5.575S424.809,192.184,421.735,192.184z"/>
</g>
<g>
</g>
<g>
</g>
<g>
</g>
<g>
</g>
<g>
</g>
<g>
</g>
<g>
</g>
<g>
</g>
<g>
</g>
<g>
</g>
<g>
</g>
<g>
</g>
<g>
</g>
<g>
</g>
<g>
</g>
</svg>
