<?xml version="1.0" encoding="iso-8859-1"?>
<!-- Generator: Adobe Illustrator 18.0.0, SVG Export Plug-In . SVG Version: 6.00 Build 0)  -->
<!DOCTYPE svg PUBLIC "-//W3C//DTD SVG 1.1//EN" "http://www.w3.org/Graphics/SVG/1.1/DTD/svg11.dtd">
<svg version="1.1" id="Capa_1" xmlns="http://www.w3.org/2000/svg" xmlns:xlink="http://www.w3.org/1999/xlink" x="0px" y="0px"
	 viewBox="0 0 406.824 406.824" style="enable-background:new 0 0 406.824 406.824;" xml:space="preserve">
<g>
	<path d="M168.368,153.559c2.209,0,4-1.791,4-4v-14.955c0-2.209-1.791-4-4-4s-4,1.791-4,4v14.955
		C164.368,151.768,166.159,153.559,168.368,153.559z"/>
	<path d="M210.177,173.596c1.137-1.895,0.522-4.352-1.372-5.487c-1.896-1.138-4.352-0.522-5.488,1.372
		c-5.69,9.484-17.06,9.094-17.581,9.064c-2.191-0.073-4.078,1.573-4.2,3.773c-0.123,2.205,1.566,4.093,3.771,4.216
		c0.077,0.004,0.348,0.017,0.782,0.017C189.495,186.551,202.887,185.749,210.177,173.596z"/>
	<path d="M191.817,68.664c2.186,0,4.406,0.144,6.598,0.427c0.174,0.022,0.347,0.033,0.518,0.033c1.981,0,3.702-1.471,3.962-3.487
		c0.283-2.19-1.263-4.196-3.454-4.479c-2.531-0.327-5.096-0.493-7.624-0.493c-2.209,0-4,1.791-4,4S189.608,68.664,191.817,68.664z"
		/>
	<path d="M212.025,72.785c13.249,5.597,23.77,16.36,28.864,29.531c0.613,1.586,2.127,2.558,3.731,2.558
		c0.479,0,0.968-0.087,1.442-0.271c2.061-0.797,3.084-3.113,2.287-5.174c-5.872-15.181-17.978-27.578-33.212-34.014
		c-2.038-0.86-4.382,0.095-5.241,2.128C209.038,69.579,209.99,71.926,212.025,72.785z"/>
	<path d="M326.003,238.547h-16.361c-11.521,0-20.896-9.374-20.896-20.896c0-5.575,2.176-10.82,6.129-14.773
		c3.938-3.948,9.182-6.122,14.767-6.122c2.209,0,4-1.791,4-4s-1.791-4-4-4c-7.726,0-14.981,3.009-20.427,8.469
		c-5.461,5.461-8.469,12.715-8.469,20.427c0,15.933,12.963,28.896,28.896,28.896h16.361c40.153,0,72.82,32.667,72.82,72.82v2.853
		c0,19.455-7.571,37.741-21.317,51.488c-13.769,13.756-32.06,21.332-51.503,21.332c-32.852,0-61.613-22.223-70.206-53.495h22.463
		c2.209,0,4-1.791,4-4v-39.489c0-2.209-1.791-4-4-4h-10.888V118.254c0-40.741-32.089-74.126-72.32-76.214V5.426c0-2.209-1.791-4-4-4
		s-4,1.791-4,4V42.04c-40.23,2.088-72.319,35.473-72.319,76.214v175.802h-10.888c-2.209,0-4,1.791-4,4v39.489c0,2.209,1.791,4,4,4
		h23.328c-1.969,31.127-27.904,55.853-59.52,55.853c-15.94,0-30.918-6.206-42.178-17.478C14.206,368.662,8,353.684,8,337.744v-2.357
		c0-32.893,26.761-59.653,59.654-59.653h13.556c13.58,0,24.628-11.048,24.628-24.628c0-6.571-2.563-12.755-7.219-17.41
		s-10.838-7.219-17.41-7.219c-2.209,0-4,1.791-4,4s1.791,4,4,4c4.435,0,8.609,1.731,11.752,4.875
		c3.145,3.145,4.876,7.319,4.876,11.754c0,9.169-7.459,16.628-16.628,16.628H67.654C30.35,267.734,0,298.083,0,335.387v2.357
		c0,18.078,7.04,35.066,19.818,47.833c12.769,12.781,29.757,19.82,47.835,19.82c14.047,0,27.105-4.306,37.93-11.663
		c0.35-0.13,2.25-1.444,4.478-2.868c7.201-4.602,25.183-14.872,50.052-20.622c40.938-9.464,81.291-3.127,120.067,18.835
		c2.435,1.379,8.177,4.755,8.646,4.844c11.217,5.838,23.895,9.115,37.176,9.115c21.579,0,41.878-8.407,57.158-23.674
		c15.259-15.26,23.662-35.555,23.662-57.146v-2.853C406.824,274.803,370.568,238.547,326.003,238.547z M122.733,118.254
		c0-37.672,30.648-68.319,68.319-68.319s68.32,30.647,68.32,68.319v175.802H230.72l-4.854-39.591v-75.313
		c11.906-1.276,21.21-11.387,21.21-23.633v-21.735c0-1.922-1.367-3.572-3.256-3.931c-1.888-0.354-3.765,0.679-4.468,2.469
		c-1.611,4.101-7.277,14.858-13.486,15.089v-32.813c0-15.48-12.594-28.074-28.074-28.074h-27.491
		c-15.48,0-28.074,12.594-28.074,28.074v4.893c-7.385,5.758-11.986,13.799-11.986,22.69s4.601,16.933,11.986,22.69v24.962h-3.374
		c-2.209,0-4,1.791-4,4s1.791,4,4,4h7.374h3.084v9.069c0,2.209,1.791,4,4,4s4-1.791,4-4v-9.069h5.644
		c0.961,0,1.914,0.065,2.859,0.167v8.903c0,2.209,1.791,4,4,4s4-1.791,4-4v-6.779c5.184,2.264,9.648,6.106,12.605,11.104
		c1.204,2.036,1.214,4.397,0.027,6.478c-1.203,2.109-3.362,3.369-5.776,3.369h-23.74c-2.209,0-4,1.734-4,3.943s1.791,4,4,4h0.35
		l-9.77,65.04h-24.776V118.254z M200.461,273.627c-2.209,0-4,1.791-4,4v16.429h-14.79v-25.858c0-2.209-1.791-4-4-4s-4,1.791-4,4
		v25.858h-18.073l7.415-49.363h13.872c2.209,0,4-1.791,4-4s-1.791-4-4-4h-12.67l1.145-7.619h15.31
		c5.324,0,10.081-2.769,12.726-7.405c2.611-4.578,2.577-10.004-0.091-14.515c-6.321-10.684-17.951-17.321-30.35-17.321h-12.728
		v-20.136c5.764,2.638,12.426,4.154,19.525,4.154c21.787,0,39.511-14.207,39.511-31.671s-17.725-31.671-39.511-31.671
		c-7.099,0-13.761,1.516-19.525,4.154v-0.066c0-11.069,9.005-20.074,20.074-20.074h27.491c11.069,0,20.074,9.005,20.074,20.074
		v127.597h-14.261c-2.209,0-4,1.791-4,4s1.791,4,4,4h14.261v4.516c0,0.163,4.794,39.347,4.794,39.347h-18.198v-16.429
		C204.461,275.418,202.67,273.627,200.461,273.627z M169.752,118.509c17.375,0,31.511,10.619,31.511,23.671
		s-14.136,23.671-31.511,23.671s-31.511-10.619-31.511-23.671S152.376,118.509,169.752,118.509z M225.866,155.435
		c5.14-0.064,9.628-3.177,13.21-7.266v7.35c0,7.827-5.731,14.322-13.21,15.546V155.435z M107.846,302.056H274.26v31.489H107.846
		V302.056z M157.961,362.532c-13.078,3.052-24.246,7.235-33.107,11.27c5.973-9.441,9.682-20.445,10.34-32.257h112.327
		c2.711,11.039,7.679,21.104,14.334,29.76C220.305,354.288,183.458,356.583,157.961,362.532z"/>
</g>
<g>
</g>
<g>
</g>
<g>
</g>
<g>
</g>
<g>
</g>
<g>
</g>
<g>
</g>
<g>
</g>
<g>
</g>
<g>
</g>
<g>
</g>
<g>
</g>
<g>
</g>
<g>
</g>
<g>
</g>
</svg>
