<?xml version="1.0" encoding="iso-8859-1"?>
<!-- Generator: Adobe Illustrator 18.0.0, SVG Export Plug-In . SVG Version: 6.00 Build 0)  -->
<!DOCTYPE svg PUBLIC "-//W3C//DTD SVG 1.1//EN" "http://www.w3.org/Graphics/SVG/1.1/DTD/svg11.dtd">
<svg version="1.1" id="Capa_1" xmlns="http://www.w3.org/2000/svg" xmlns:xlink="http://www.w3.org/1999/xlink" x="0px" y="0px"
	 viewBox="0 0 354.105 354.105" style="enable-background:new 0 0 354.105 354.105;" xml:space="preserve">
<g>
	<path d="M339.474,122.371c-2.388,0-4.637,0.587-6.63,1.605v-6.907c0-1.25-0.584-2.429-1.58-3.185l-22.147-16.832
		c-1.208-0.918-2.836-1.073-4.197-0.398s-2.223,2.063-2.223,3.583v3.382l-8.64-6.566c-1.208-0.918-2.836-1.073-4.197-0.398
		s-2.223,2.063-2.223,3.583v3.865c-19.495-17.869-56.661-27.248-108.596-27.248c-15.869,0-32.347,1.96-48.641,5.123L46.381,58.96
		c-5.281-1.453-10.802,0.461-14.049,4.882c-3.246,4.42-3.424,10.255-0.455,14.864l17.737,27.54
		c-12.313,4.837-23.218,9.59-32.046,13.648C10.802,123,6.6,129.555,6.599,137.001c0,7.447,4.203,14.004,10.968,17.11
		c5.967,2.742,12.899,5.804,20.555,8.991c5.011,12.245,3.238,26.223-4.795,36.831c-10.114,13.355-19.316,25.329-27.351,35.59
		c-4.885,6.237-6.915,14.29-5.571,22.093c1.333,7.736,5.889,14.578,12.499,18.771c10.793,6.84,24.116,12.851,39.597,17.866
		c2.828,0.917,5.742,1.37,8.642,1.37c5.18-0.001,10.312-1.444,14.819-4.261c7.037-4.398,11.737-11.632,12.895-19.847
		c2.678-19.03,4.844-35.036,6.438-47.576c0.777-6.151,3.908-11.604,8.641-15.357c3.177,12.389,12.436,22.451,24.881,26.513
		c0.457,0.175,0.941,0.263,1.427,0.263c0.935,0,1.875-0.327,2.635-0.991c0.902-0.79,1.363-1.897,1.364-3.011
		c0-0.74-0.204-1.482-0.617-2.136c-3.005-4.972-8.016-15.744-8.29-25.051c1.971,0.246,3.939,0.491,5.915,0.739
		c28.408,3.567,57.782,7.256,75.427,5.51c8.079-0.794,15.409-6.313,22.369-16.831c30.396-4.904,48.191-14.213,58.59-23.717v3.894
		c0,1.52,0.861,2.908,2.223,3.583c0.563,0.279,1.171,0.417,1.776,0.417c0.859,0,1.712-0.276,2.421-0.815l8.64-6.566v3.382
		c0,1.52,0.861,2.908,2.223,3.583c0.563,0.279,1.171,0.417,1.776,0.417c0.859,0,1.712-0.276,2.421-0.815l22.147-16.832
		c0.996-0.756,1.58-1.935,1.58-3.185v-6.907c1.993,1.019,4.242,1.605,6.63,1.605c8.067,0,14.631-6.563,14.631-14.63
		S347.541,122.371,339.474,122.371z M36.8,134.002h250.837v6H36.8c0.102-0.992,0.159-1.993,0.159-3S36.902,134.994,36.8,134.002z
		 M287.637,115.929v10.073H34.807c-0.579-1.424-1.264-2.805-2.064-4.124c36.353-15.788,94.819-37.023,146.298-37.023
		C233.988,84.855,272.447,95.883,287.637,115.929z M38.603,74.374c-1.769-2.746-0.312-5.131,0.178-5.797
		c0.488-0.667,2.329-2.77,5.479-1.904l69.182,19.025c-19.959,4.869-39.196,11.204-56.2,17.615L38.603,74.374z M14.599,137.002
		c0-4.348,2.358-8.025,6.309-9.839c1.412-0.649,2.897-1.322,4.414-2.004c2.349,3.477,3.638,7.584,3.638,11.843
		s-1.289,8.367-3.638,11.844c-1.518-0.683-3.003-1.355-4.416-2.004C16.956,145.027,14.599,141.35,14.599,137.002z M111.241,204.655
		c1.965-0.641,4.006-1.012,6.078-1.113c0.019,6.454,1.854,13.003,3.914,18.334C116.086,217.511,112.513,211.466,111.241,204.655z
		 M205.892,202.459c-16.746,1.658-45.672-1.973-73.644-5.486c-3.299-0.414-10.216-1.268-10.216-1.268
		c-5.784-0.665-11.623,0.291-16.881,2.765c-9.789,4.608-16.441,13.756-17.793,24.465c-1.59,12.502-3.751,28.472-6.424,47.466
		c-0.827,5.868-4.185,11.036-9.213,14.179c-5.021,3.137-11.127,3.891-16.754,2.064c-14.844-4.809-27.555-10.533-37.779-17.013
		c-4.774-3.028-7.935-7.778-8.899-13.373c-0.961-5.58,0.492-11.34,3.986-15.803c8.061-10.294,17.289-22.303,27.429-35.691
		c8.258-10.903,11.075-24.744,8.054-37.745c36.66,14.539,86.424,30.13,131.283,30.13c14.618,0,27.497-0.735,38.856-2.034
		C213.9,199.642,209.935,202.062,205.892,202.459z M179.041,189.149c-51.445,0-109.928-21.236-146.298-37.024
		c0.799-1.319,1.485-2.7,2.063-4.124h252.83v10.073C272.441,178.121,233.983,189.149,179.041,189.149z M295.637,165.701v-57.399
		l7.06,5.365v46.67L295.637,165.701z M324.844,154.949l-14.147,10.752v-57.399l14.147,10.752V154.949z M339.474,143.632
		c-3.655,0-6.63-2.975-6.63-6.63c0-3.656,2.975-6.631,6.63-6.631c3.656,0,6.631,2.975,6.631,6.631
		C346.105,140.657,343.13,143.632,339.474,143.632z"/>
	<path d="M145.023,121.448c7.823,0,14.188-6.364,14.188-14.188s-6.364-14.188-14.188-14.188s-14.188,6.364-14.188,14.188
		S137.2,121.448,145.023,121.448z M145.023,101.073c3.412,0,6.188,2.775,6.188,6.188s-2.775,6.188-6.188,6.188
		s-6.188-2.775-6.188-6.188S141.611,101.073,145.023,101.073z"/>
	<path d="M189.76,121.448c7.823,0,14.188-6.364,14.188-14.188s-6.364-14.188-14.188-14.188s-14.188,6.364-14.188,14.188
		S181.937,121.448,189.76,121.448z M189.76,101.073c3.412,0,6.188,2.775,6.188,6.188s-2.775,6.188-6.188,6.188
		s-6.188-2.775-6.188-6.188S186.348,101.073,189.76,101.073z"/>
	<path d="M234.497,121.448c7.823,0,14.188-6.364,14.188-14.188s-6.364-14.188-14.188-14.188s-14.188,6.364-14.188,14.188
		S226.674,121.448,234.497,121.448z M234.497,101.073c3.412,0,6.188,2.775,6.188,6.188s-2.775,6.188-6.188,6.188
		s-6.188-2.775-6.188-6.188S231.085,101.073,234.497,101.073z"/>
	<path d="M62.893,199.701c-4.345,0-8.447,1.757-11.553,4.946l-20.287,20.836c-6.28,6.449-8.999,15.575-7.273,24.411
		c1.726,8.836,7.68,16.269,15.926,19.882c3.529,1.546,7.236,2.329,11.021,2.33c0.001,0,0.001,0,0.002,0
		c14.822,0,26.868-11.616,27.424-26.445l1.09-29.06c0.168-4.481-1.412-8.686-4.449-11.839
		C71.695,201.546,67.357,199.701,62.893,199.701z M70.158,245.362c-0.394,10.512-8.929,18.745-19.432,18.744
		c-2.672,0-5.3-0.559-7.81-1.658c-5.931-2.598-10.044-7.732-11.285-14.087s0.638-12.659,5.154-17.298l20.287-20.836
		c2.033-2.088,4.287-2.526,5.82-2.526c2.303,0,4.539,0.952,6.138,2.611c1.072,1.113,2.327,3.056,2.217,5.988L70.158,245.362z"/>
</g>
<g>
</g>
<g>
</g>
<g>
</g>
<g>
</g>
<g>
</g>
<g>
</g>
<g>
</g>
<g>
</g>
<g>
</g>
<g>
</g>
<g>
</g>
<g>
</g>
<g>
</g>
<g>
</g>
<g>
</g>
</svg>
