<?xml version="1.0" encoding="iso-8859-1"?>
<!-- Generator: Adobe Illustrator 18.0.0, SVG Export Plug-In . SVG Version: 6.00 Build 0)  -->
<!DOCTYPE svg PUBLIC "-//W3C//DTD SVG 1.1//EN" "http://www.w3.org/Graphics/SVG/1.1/DTD/svg11.dtd">
<svg version="1.1" id="Capa_1" xmlns="http://www.w3.org/2000/svg" xmlns:xlink="http://www.w3.org/1999/xlink" x="0px" y="0px"
	 viewBox="0 0 337.757 337.757" style="enable-background:new 0 0 337.757 337.757;" xml:space="preserve">
<g>
	<path d="M297.897,72.652c-25.702-25.703-59.877-39.858-96.227-39.858s-70.523,14.155-96.227,39.858
		c-53.06,53.06-53.06,139.394,0,192.454c25.703,25.703,59.877,39.858,96.227,39.858s70.524-14.155,96.227-39.858
		c25.704-25.703,39.859-59.877,39.859-96.227S323.602,98.355,297.897,72.652z M207.052,224.059
		c-7.091,6.32-15.602,10.246-22.212,10.246c-2.153,0-5.11-0.438-6.968-2.522c-2.11-2.366-2.379-6.524-0.738-11.407
		c1.923-5.726,6.097-11.656,11.751-16.696c7.091-6.32,15.602-10.246,22.212-10.246c2.153,0,5.11,0.438,6.968,2.521
		C223.418,201.961,216.557,215.586,207.052,224.059z M174.203,239.17c2.829,2.053,6.443,3.135,10.637,3.135
		c8.619,0,18.912-4.588,27.534-12.274c13.006-11.593,18.486-26.565,13.85-36.111c0.038-0.038,0.076-0.074,0.113-0.112l0.135-0.135
		c31.101-31.102,57.888-66.098,77.779-101.528c5.327,7.091,9.867,14.661,13.575,22.604c-19.461,33.846-44.439,66.133-74.292,95.985
		c-29.856,29.857-62.147,54.837-95.993,74.297c-7.944-3.708-15.514-8.248-22.606-13.576
		C141.59,262.107,158.124,251.271,174.203,239.17z M257.597,53.584c-19.526,34.071-44.608,66.547-74.638,96.576
		c-30.017,30.017-62.479,55.092-96.534,74.614c-3.177-6.566-5.762-13.348-7.754-20.268c31.178-19.018,60.939-42.596,88.489-70.145
		c27.571-27.571,51.162-57.353,70.184-88.552C244.313,47.819,251.084,50.419,257.597,53.584z M111.101,78.309
		c24.192-24.192,56.357-37.516,90.57-37.516c3.997,0,7.964,0.189,11.896,0.549c-17.238,26.539-37.89,51.994-61.448,75.706
		c-1.557,1.567-1.549,4.1,0.019,5.657c0.78,0.775,1.8,1.163,2.819,1.163c1.028,0,2.056-0.394,2.838-1.181
		c24.595-24.756,46.713-52.417,64.548-80.236c2.311,0.373,4.606,0.805,6.883,1.302c-18.465,29.892-41.222,58.451-67.722,84.951
		c-26.48,26.48-55.018,49.224-84.892,67.685C67.609,155.155,79.105,110.304,111.101,78.309z M90.136,231.867
		c34.767-19.896,67.885-45.455,98.479-76.049c30.606-30.606,56.172-63.736,76.071-98.516c9.968,5.65,19.233,12.685,27.555,21.007
		c2.298,2.298,4.497,4.669,6.597,7.105c-19.678,35.745-46.591,71.163-77.992,102.571c-2.685-1.666-5.979-2.551-9.749-2.551
		c-8.619,0-18.913,4.588-27.535,12.274c-6.676,5.951-11.652,13.097-14.012,20.12c-1.908,5.681-1.973,10.853-0.273,15.038
		c-16.666,12.533-33.818,23.677-51.072,33.176c-2.436-2.099-4.806-4.297-7.104-6.595C102.696,251.043,95.712,241.748,90.136,231.867
		z M292.241,259.448c-24.192,24.192-56.357,37.516-90.57,37.516c-8.367,0-16.611-0.802-24.647-2.36
		c10.411-6.551,20.785-13.705,30.905-21.317c1.766-1.328,2.12-3.836,0.792-5.601c-1.328-1.766-3.837-2.119-5.601-0.792
		c-10.958,8.242-25.604,17.909-37.177,25.038c-3.094-0.894-6.149-1.903-9.159-3.028c32.544-19.343,63.598-43.704,92.406-72.512
		c28.804-28.803,53.165-59.855,72.508-92.399c1.131,3.027,2.145,6.099,3.042,9.211c-13.213,21.413-30.832,45.808-48.296,65.644
		c-1.46,1.658-1.3,4.186,0.358,5.645c0.761,0.669,1.703,0.998,2.642,0.998c1.109,0,2.214-0.459,3.004-1.357
		c16.928-19.226,32.027-39.354,44.949-59.9c1.557,8.035,2.36,16.277,2.36,24.643C329.757,203.091,316.434,235.256,292.241,259.448z"
		/>
	<path d="M23.634,108.119C10.603,108.119,0,118.721,0,131.752s10.603,23.633,23.634,23.633s23.633-10.602,23.633-23.633
		S36.665,108.119,23.634,108.119z M23.634,147.385c-8.62,0-15.634-7.013-15.634-15.633s7.014-15.633,15.634-15.633
		s15.633,7.013,15.633,15.633S32.254,147.385,23.634,147.385z"/>
	<ellipse transform="matrix(-0.6654 -0.7465 0.7465 -0.6654 170.0463 503.9596)" cx="197.968" cy="213.87" rx="7.252" ry="15.453"/>
</g>
<g>
</g>
<g>
</g>
<g>
</g>
<g>
</g>
<g>
</g>
<g>
</g>
<g>
</g>
<g>
</g>
<g>
</g>
<g>
</g>
<g>
</g>
<g>
</g>
<g>
</g>
<g>
</g>
<g>
</g>
</svg>
