<?xml version="1.0" encoding="iso-8859-1"?>
<!-- Generator: Adobe Illustrator 18.0.0, SVG Export Plug-In . SVG Version: 6.00 Build 0)  -->
<!DOCTYPE svg PUBLIC "-//W3C//DTD SVG 1.1//EN" "http://www.w3.org/Graphics/SVG/1.1/DTD/svg11.dtd">
<svg version="1.1" id="Capa_1" xmlns="http://www.w3.org/2000/svg" xmlns:xlink="http://www.w3.org/1999/xlink" x="0px" y="0px"
	 viewBox="0 0 338.767 338.767" style="enable-background:new 0 0 338.767 338.767;" xml:space="preserve">
<g>
	<path d="M298.973,73.157c-25.702-25.703-59.877-39.858-96.227-39.858s-70.523,14.155-96.227,39.858
		c-53.06,53.06-53.06,139.394,0,192.454c25.703,25.703,59.877,39.858,96.227,39.858s70.524-14.155,96.227-39.858
		C352.032,212.55,352.032,126.216,298.973,73.157z M293.316,259.953c-11.681,11.681-25.225,20.819-39.956,27.156
		c17.744-11.698,34.215-26.208,48.558-42.92c1.438-1.676,1.246-4.202-0.43-5.64c-1.678-1.44-4.202-1.247-5.641,0.43
		c-20.23,23.57-48.084,44.664-75.601,57.302c-5.753,0.781-11.595,1.188-17.501,1.188c-4.154,0-8.276-0.2-12.359-0.589
		c17.939-6.343,34.995-14.887,50.872-25.52c1.836-1.229,2.327-3.714,1.098-5.549c-1.229-1.835-3.712-2.328-5.549-1.098
		c-19.625,13.143-41.113,22.987-63.873,29.279c-5.029-1.193-9.966-2.688-14.791-4.477c4.071-0.974,8.123-2.079,12.128-3.313
		c2.111-0.651,3.296-2.89,2.645-5.001c-0.649-2.11-2.89-3.294-5-2.645c-7.405,2.282-14.973,4.095-22.518,5.427
		c-11.638-5.838-22.419-13.502-31.997-22.834c4.553-0.896,9.091-1.914,13.555-3.076c2.138-0.556,3.421-2.74,2.864-4.878
		c-0.555-2.138-2.736-3.42-4.878-2.864c-5.959,1.55-12.05,2.85-18.137,3.902c-10.388-11.731-18.255-24.923-23.597-38.872
		c7.844-2.009,15.644-4.451,23.246-7.289c2.069-0.772,3.121-3.077,2.348-5.146c-0.772-2.069-3.079-3.122-5.146-2.348
		c-7.545,2.817-15.292,5.233-23.078,7.202c-1.7-5.44-3.033-10.971-3.992-16.555c17.341-5.604,33.99-13.242,49.518-22.786
		c1.882-1.157,2.47-3.62,1.313-5.502c-1.158-1.881-3.62-2.47-5.503-1.313c-14.584,8.964-30.193,16.189-46.445,21.555
		c-0.793-7.386-0.95-14.826-0.465-22.234c8.314-3.591,16.365-7.688,23.955-12.209c1.897-1.13,2.521-3.585,1.39-5.483
		c-1.13-1.898-3.585-2.521-5.483-1.39c-6.041,3.597-12.387,6.918-18.932,9.917c1.118-8.127,3.015-16.165,5.69-23.995
		c12.924-7.601,26.339-17.69,37.186-27.603c1.631-1.49,1.745-4.02,0.255-5.651c-1.491-1.632-4.021-1.745-5.651-0.254
		c-8.4,7.676-17.365,14.679-26.729,20.916c6.137-13.178,14.632-25.519,25.492-36.379c24.192-24.192,56.357-37.516,90.57-37.516
		c4.656,0,9.271,0.255,13.836,0.743c-1.347,4.072-2.817,8.13-4.393,12.113c-0.813,2.054,0.193,4.378,2.248,5.191
		c0.482,0.191,0.98,0.282,1.471,0.282c1.593,0,3.099-0.958,3.721-2.529c1.813-4.582,3.485-9.26,5.002-13.947
		c5.613,0.961,11.128,2.297,16.52,3.984c-6.004,23.81-15.831,46.266-29.255,66.792c-1.209,1.849-0.69,4.328,1.158,5.537
		c0.676,0.442,1.435,0.653,2.186,0.653c1.305,0,2.584-0.638,3.352-1.811c13.785-21.077,23.913-44.115,30.148-68.536
		c14.147,5.434,27.287,13.409,38.866,23.679c-2.015,11.874-5.07,23.73-9.118,35.272c-0.731,2.084,0.365,4.367,2.45,5.099
		c0.438,0.154,0.885,0.227,1.324,0.227c1.651,0,3.197-1.03,3.774-2.677c3.599-10.259,6.438-20.76,8.495-31.309
		c16.699,17.153,27.627,37.862,32.781,59.675c-6.798,23.85-17.03,45.879-30.438,65.486c-1.247,1.823-0.779,4.313,1.044,5.56
		c0.69,0.472,1.477,0.699,2.254,0.699c1.276,0,2.531-0.61,3.306-1.743c11.018-16.112,19.958-33.794,26.699-52.727
		C333.716,193.8,321.43,231.839,293.316,259.953z"/>
	<path d="M23.633,96.726C10.602,96.726,0,107.328,0,120.359s10.602,23.633,23.633,23.633s23.634-10.602,23.634-23.633
		S36.664,96.726,23.633,96.726z M23.633,135.992c-8.62,0-15.633-7.013-15.633-15.633s7.013-15.633,15.633-15.633
		s15.634,7.013,15.634,15.633S32.253,135.992,23.633,135.992z"/>
	<path d="M197.27,216.666c-1.811,1.267-2.251,3.761-0.984,5.571c0.778,1.112,2.02,1.707,3.281,1.707
		c0.791,0,1.592-0.235,2.289-0.723c22.879-16.008,42.555-36.287,58.479-60.273c4.438-6.686,8.573-13.669,12.288-20.754
		c1.025-1.957,0.271-4.375-1.686-5.4c-1.952-1.025-4.374-0.272-5.4,1.685c-3.587,6.843-7.58,13.587-11.866,20.044
		C238.301,181.672,219.324,201.234,197.27,216.666z"/>
	<path d="M164.66,235.919c-4.826,2.292-9.791,4.417-14.757,6.314c-2.063,0.789-3.098,3.101-2.309,5.164
		c0.609,1.594,2.127,2.573,3.737,2.573c0.475,0,0.957-0.085,1.427-0.265c5.16-1.972,10.319-4.179,15.333-6.561
		c1.996-0.948,2.845-3.334,1.897-5.329C169.042,235.821,166.655,234.973,164.66,235.919z"/>
	<path d="M240.418,146.561c1.275-1.804,0.846-4.3-0.958-5.575c-1.803-1.275-4.3-0.845-5.575,0.958
		c-30.046,42.51-72.305,73.713-118.993,87.863c-2.114,0.641-3.309,2.874-2.668,4.988c0.523,1.728,2.11,2.841,3.826,2.841
		c0.385,0,0.775-0.056,1.162-0.173C165.595,222.8,209.35,190.517,240.418,146.561z"/>
	<path d="M131.021,125.104c22.662-18.894,41.814-42.449,55.387-68.119c1.032-1.953,0.286-4.373-1.667-5.406
		c-1.954-1.035-4.373-0.286-5.405,1.667c-13.09,24.758-31.568,47.481-53.438,65.714c-1.696,1.415-1.926,3.937-0.511,5.634
		c0.791,0.949,1.929,1.438,3.074,1.438C129.364,126.032,130.272,125.728,131.021,125.104z"/>
	<path d="M304.583,162.73c0.537,0.244,1.1,0.359,1.653,0.359c1.52,0,2.974-0.872,3.644-2.346c0.838-1.843,1.658-3.714,2.44-5.563
		c0.861-2.034-0.091-4.381-2.125-5.242c-2.035-0.861-4.382,0.09-5.242,2.125c-0.755,1.784-1.548,3.59-2.356,5.37
		C301.683,159.445,302.572,161.816,304.583,162.73z"/>
	<path d="M301.081,169.845c-1.931-1.072-4.365-0.374-5.438,1.557c-5.468,9.855-11.719,19.443-18.58,28.495
		c-25.229,33.293-57.633,58.594-93.705,73.166c-2.049,0.828-3.038,3.159-2.211,5.207c0.629,1.558,2.128,2.503,3.71,2.503
		c0.499,0,1.007-0.094,1.497-0.292c37.412-15.114,70.983-41.308,97.085-75.752c7.089-9.353,13.548-19.26,19.2-29.446
		C303.71,173.351,303.013,170.917,301.081,169.845z"/>
	<path d="M190.943,141.11c-4.038,4.545-8.354,8.994-12.827,13.222c-1.605,1.518-1.678,4.049-0.16,5.655
		c0.787,0.833,1.846,1.252,2.908,1.252c0.985,0,1.974-0.362,2.746-1.093c4.643-4.387,9.122-9.004,13.313-13.723
		c1.468-1.652,1.318-4.18-0.334-5.647C194.938,139.31,192.41,139.458,190.943,141.11z"/>
	<path d="M161.323,130.713c-1.609,1.514-1.688,4.045-0.174,5.654c0.787,0.837,1.85,1.26,2.915,1.26c0.982,0,1.967-0.36,2.739-1.086
		c18.801-17.681,32.125-35.242,40.733-53.688c0.934-2.001,0.068-4.382-1.934-5.316c-2.001-0.934-4.382-0.069-5.316,1.933
		C192.116,96.979,179.371,113.741,161.323,130.713z"/>
	<path d="M148.218,142.343c-3.322,2.801-6.804,5.649-10.644,8.706c-1.729,1.376-2.014,3.893-0.638,5.621
		c0.789,0.992,1.955,1.508,3.132,1.508c0.873,0,1.752-0.285,2.488-0.871c3.899-3.104,7.438-5.999,10.817-8.849
		c1.689-1.424,1.904-3.948,0.479-5.637C152.43,141.134,149.905,140.919,148.218,142.343z"/>
</g>
<g>
</g>
<g>
</g>
<g>
</g>
<g>
</g>
<g>
</g>
<g>
</g>
<g>
</g>
<g>
</g>
<g>
</g>
<g>
</g>
<g>
</g>
<g>
</g>
<g>
</g>
<g>
</g>
<g>
</g>
</svg>
