<?xml version="1.0" encoding="UTF-8" standalone="no"?>
<!DOCTYPE svg PUBLIC "-//W3C//DTD SVG 1.1//EN"
"http://www.w3.org/Graphics/SVG/1.1/DTD/svg11.dtd">


<!-- Page 1 -->
<svg x="0" y="0" width="572" height="572" viewBox="0 0 572 572" version="1.1" xmlns="http://www.w3.org/2000/svg" xmlns:xlink="http://www.w3.org/1999/xlink"
style="display: block;margin-left: auto;margin-right: auto;">
<defs>
<clipPath id="c0_1"><path d="M0,572.9V0H572.9V572.9Z" /></clipPath>

<style type="text/css"><![CDATA[
text { white-space: pre; }
path, image { pointer-events: none; }
text::-moz-selection {
	color: transparent;
	background: rgba(0, 106, 173, 0.4);
}
text::selection {
	color: transparent;
	background: rgba(0, 106, 173, 0.4);
}

.s1_1{
font-size: 55.34px;
font-family: LilitaOne_f;
fill: TRANSPARENT;
}
.s2_1{
font-size: 56.13px;
font-family: LilitaOne_f;
fill: TRANSPARENT;
}

.g0_1{
fill: #FFFFFF;
}
.g1_1{
fill: #2B475E;
}
.g2_1{
fill: #FFFFFF;
fill-opacity: 0.8;
}
.g3_1{
fill: #FFD43D;
}
.g4_1{
fill: #C0D0D2;
fill-opacity: 0.8;
}
.g5_1{
fill: #FFAC33;
}

]]></style>

</defs>
<path d="M0,0
L0,572
L572,572
L572,0 Z " 
fill="#FFFFFF" stroke="none" />
<path d="M0,0H572.9V574.1H0V0Z" class="g0_1" />
<path d="M0,0H572.9V572.9H0V0Z" class="g0_1" />
<path d="M0,0H572.9V572.9H0V0Z" class="g1_1" />
<g clip-path="url(#c0_1)">
<g fill="#FFFFFF" >
<use xlink:href="#f0_15" transform="matrix(36.2,0,0,36.2,86.7,327.1)" />
<use xlink:href="#f0_1o" transform="matrix(36.2,0,0,36.2,118.9,327.1)" />
<use xlink:href="#f0_1g" transform="matrix(36.2,0,0,36.2,161.7,327.1)" />
<use xlink:href="#f0_1f" transform="matrix(36.2,0,0,36.2,198.2,327.1)" />
<use xlink:href="#f0_1e" transform="matrix(36.2,0,0,36.2,241.7,327.1)" />
<use xlink:href="#f0_15" transform="matrix(36.2,0,0,36.2,282.6,327.1)" />
<use xlink:href="#f0_1e" transform="matrix(36.2,0,0,36.2,314.8,327.1)" />
<use xlink:href="#f0_1k" transform="matrix(36.2,0,0,36.2,355.7,327.1)" />
<use xlink:href="#f0_19" transform="matrix(36.2,0,0,36.2,388.4,327.1)" />
<use xlink:href="#f0_11" transform="matrix(36.2,0,0,36.2,417.1,327.1)" />
<use xlink:href="#f0_1c" transform="matrix(36.2,0,0,36.2,458.3,327.1)" />
</g>
<g fill="#FFD43D" >
<use xlink:href="#f0_14" transform="matrix(36.7,0,0,36.7,116.7,407.5)" />
</g>
</g>
<text x="86" y="327" dx="0,5,5,5,5,5,5,5,5,5,5" class="s1_1">EXPONENTIAL</text>
<g clip-path="url(#c0_1)">
<g fill="#FFD43D" >
<use xlink:href="#f0_15" transform="matrix(36.7,0,0,36.7,156.4,407.5)" />
<use xlink:href="#f0_15" transform="matrix(36.7,0,0,36.7,189.1,407.5)" />
<use xlink:href="#f0_1g" transform="matrix(36.7,0,0,36.7,221.8,407.5)" />
<use xlink:href="#f0_1j" transform="matrix(36.7,0,0,36.7,274.4,407.5)" />
<use xlink:href="#f0_1g" transform="matrix(36.7,0,0,36.7,309.2,407.5)" />
<use xlink:href="#f0_11" transform="matrix(36.7,0,0,36.7,346.3,407.5)" />
<use xlink:href="#f0_13" transform="matrix(36.7,0,0,36.7,388.1,407.5)" />
<use xlink:href="#f0_15" transform="matrix(36.7,0,0,36.7,424.6,407.5)" />
</g>
</g>
<text x="116" y="407" dx="0,5,5,5,5,5,5,5,5,5" class="s2_1">DEEP SPACE</text>
<path d="M452.9,207.1h-3.4v-3.4c0,-1.8,-1.4,-3.2,-3.2,-3.2c-1.8,0,-3.2,1.4,-3.2,3.2v3.4h-3.4c-1.7,0,-3.1,1.4,-3.1,3.2c0,1.7,1.4,3.1,3.1,3.1h3.4v3.4c0,1.8,1.4,3.2,3.2,3.2c1.8,0,3.2,-1.4,3.2,-3.2v-3.4h3.4c1.7,0,3.1,-1.4,3.1,-3.1c0,-1.8,-1.4,-3.2,-3.1,-3.2Z" class="g2_1" />
<path d="M408.2,230h-3.4v-3.4c0,-1.8,-1.4,-3.2,-3.2,-3.2c-1.8,0,-3.2,1.4,-3.2,3.2V230h-3.3c-1.8,0,-3.2,1.4,-3.2,3.2c0,1.8,1.4,3.2,3.2,3.2h3.3v3.3c0,1.8,1.4,3.2,3.2,3.2c1.8,0,3.2,-1.4,3.2,-3.2v-3.3h3.4c1.8,0,3.2,-1.4,3.2,-3.2c0,-1.8,-1.5,-3.2,-3.2,-3.2Z" class="g3_1" />
<path d="M374.9,187.6h-3.3v-3.4c0,-1.8,-1.4,-3.2,-3.2,-3.2c-1.8,0,-3.2,1.4,-3.2,3.2v3.4h-3.4c-1.8,0,-3.2,1.4,-3.2,3.2c0,1.8,1.4,3.2,3.2,3.2h3.4v3.3c0,1.8,1.4,3.2,3.2,3.2c1.8,0,3.2,-1.4,3.2,-3.2V194h3.3c1.8,0,3.2,-1.4,3.2,-3.2c0,-1.8,-1.4,-3.2,-3.2,-3.2Z" class="g4_1" />
<path d="M214.5,210.5h-3.3v-3.4c0,-1.7,-1.4,-3.1,-3.2,-3.1c-1.8,0,-3.2,1.4,-3.2,3.1v3.4h-3.4c-1.8,0,-3.2,1.4,-3.2,3.2c0,1.8,1.4,3.2,3.2,3.2h3.4v3.4c0,1.7,1.4,3.1,3.2,3.1c1.8,0,3.2,-1.4,3.2,-3.1v-3.4h3.3c1.8,0,3.2,-1.4,3.2,-3.2c0,-1.8,-1.5,-3.2,-3.2,-3.2Z" class="g2_1" />
<path d="M163,187.6h-3.4v-3.4c0,-1.8,-1.4,-3.2,-3.2,-3.2c-1.8,0,-3.2,1.4,-3.2,3.2v3.4h-3.4c-1.7,0,-3.1,1.4,-3.1,3.2c0,1.8,1.4,3.2,3.1,3.2h3.4v3.3c0,1.8,1.4,3.2,3.2,3.2c1.8,0,3.2,-1.4,3.2,-3.2V194H163c1.7,0,3.1,-1.4,3.1,-3.2c0,-1.8,-1.4,-3.2,-3.1,-3.2Z" class="g4_1" />
<path d="M128.6,230h-3.4v-3.4c0,-1.8,-1.4,-3.2,-3.2,-3.2c-1.8,0,-3.2,1.4,-3.2,3.2V230h-3.3c-1.8,0,-3.2,1.4,-3.2,3.2c0,1.8,1.4,3.2,3.2,3.2h3.3v3.3c0,1.8,1.4,3.2,3.2,3.2c1.8,0,3.2,-1.4,3.2,-3.2v-3.3h3.4c1.8,0,3.2,-1.4,3.2,-3.2c0,-1.8,-1.5,-3.2,-3.2,-3.2Z" class="g3_1" />
<path d="M283,189.6c0,0,0,-2.8,2.9,-2.8c2.9,0,2.9,2.8,2.9,2.8v2.9c0,0,0,2.9,-2.9,2.9c-2.9,0,-2.9,-2.9,-2.9,-2.9v-2.9Zm25.8,20.1c0,0,2.9,0,2.9,2.9c0,2.8,-2.9,2.8,-2.9,2.8h-2.9c0,0,-2.8,0,-2.8,-2.8c0,-2.9,2.8,-2.9,2.8,-2.9h2.9Zm-43,0c0,0,2.9,0,2.9,2.9c0,2.8,-2.9,2.8,-2.9,2.8H263c0,0,-2.9,0,-2.9,-2.8c0,-2.9,2.9,-2.9,2.9,-2.9h2.8Zm7.4,-12.5c0,0,2,2,0,4.1c-2.1,2,-4.1,0,-4.1,0l-2,-2.1c0,0,-2,-2,0,-4c2,-2,4,0,4,0l2.1,2Zm30,30.1c0,0,2.1,2,0,4c-2,2.1,-4,0,-4,0l-2,-2c0,0,-2.1,-2,0,-4c2,-2.1,4,0,4,0l2,2Zm-.5,-26c0,0,-2.1,2,-4.1,0c-2,-2.1,0,-4.1,0,-4.1l2,-2c0,0,2.1,-2,4.1,0c2,2,0,4,0,4l-2,2.1Zm-30.1,30c0,0,-2,2.1,-4.1,0c-2,-2,0,-4,0,-4l2.1,-2c0,0,2,-2.1,4,0c2,2,0,4,0,4l-2,2Zm10.4,1.3c0,0,0,-2.9,2.9,-2.9c2.9,0,2.9,2.9,2.9,2.9v2.9c0,0,0,2.8,-2.9,2.8c-2.9,0,-2.9,-2.8,-2.9,-2.8v-2.9Z" class="g5_1" />
<path d="M300.2,212.6c0,1.9,-.4,3.7,-1.1,5.4c-.7,1.8,-1.7,3.3,-3.1,4.7c-1.3,1.3,-2.9,2.4,-4.6,3.1c-1.8,.7,-3.6,1.1,-5.5,1.1c-1.9,0,-3.7,-.4,-5.5,-1.1c-1.8,-.7,-3.3,-1.8,-4.6,-3.1c-1.4,-1.4,-2.4,-2.9,-3.1,-4.7c-.8,-1.7,-1.1,-3.5,-1.1,-5.4c0,-1.9,.3,-3.8,1.1,-5.5c.7,-1.8,1.7,-3.3,3.1,-4.7c1.3,-1.3,2.8,-2.4,4.6,-3.1c1.8,-.7,3.6,-1.1,5.5,-1.1c1.9,0,3.7,.4,5.5,1.1c1.7,.7,3.3,1.8,4.6,3.1c1.4,1.4,2.4,2.9,3.1,4.7c.7,1.7,1.1,3.6,1.1,5.5Z" class="g5_1" />

<defs>
<path d="M134,0C134,0,76,0,76,47v983c0,0,0,39,36,39H658c0,0,33,0,33,-135c0,0,0,-135,-33,-135H376V645H573c0,0,29,0,29,-107c0,0,0,-32,-7,-76c0,0,-7,-43,-25,-43H376V266H657c0,0,26,0,35,-67c0,0,5,-29,5,-62c0,0,0,-33,-9,-85C688,52,678,0,657,0Z" 
id="f0_15"
transform="scale(0.001,-0.001)" />

<path d="M206,-1c0,0,-44,0,-110,6C96,5,31,11,37,21L275,550L28,1054c0,0,-5,8,63,15c0,0,68,7,115,7c0,0,193,0,211,-55L523,764l120,264c0,0,19,46,191,46c0,0,44,0,109,-7c0,0,65,-7,65,-13L749,526L1018,20c0,0,4,-8,-66,-15c0,0,-70,-6,-119,-6c0,0,-194,0,-213,51L506,342L402,41C402,41,387,-1,206,-1Z" 
id="f0_1o"
transform="scale(0.001,-0.001)" />

<path d="M385,562c0,0,53,0,90,34c0,0,37,33,37,95c0,0,0,61,-25,87c0,0,-26,26,-90,26H365V562ZM209,-2C209,-2,70,-2,70,28v990c0,0,0,51,48,51H387c0,0,226,0,326,-93c0,0,100,-93,100,-270c0,0,0,-147,-95,-269c0,0,-47,-61,-139,-98c0,0,-92,-36,-214,-36V29c0,0,0,-18,-57,-25c0,0,-57,-6,-99,-6Z" 
id="f0_1g"
transform="scale(0.001,-0.001)" />

<path d="M531,283c0,0,77,0,125,65c0,0,48,66,48,188c0,0,0,122,-49,188c0,0,-50,66,-123,66H458C508,652,523,608,520,608c-5,0,-62,122,-98,122c-5,0,-9,-2,-13,-7c0,0,-50,-68,-50,-189c0,0,0,-121,47,-186c0,0,48,-65,125,-65Zm0,-297c0,0,-215,0,-350,139C181,125,46,266,46,535c0,0,0,270,137,409c0,0,136,139,352,139c0,0,217,0,350,-137c0,0,133,-136,133,-414c0,0,0,-277,-136,-412C882,120,746,-14,531,-14Z" 
id="f0_1f"
transform="scale(0.001,-0.001)" />

<path d="M218,-1C218,-1,76,-1,76,26V1048c0,0,0,23,121,23c0,0,47,0,111,-8c0,0,63,-9,77,-32L629,561v479c0,0,0,29,143,29c0,0,142,0,142,-29V34C914,34,914,2,770,2C770,2,626,2,614,24L359,501V26c0,0,0,-27,-141,-27Z" 
id="f0_1e"
transform="scale(0.001,-0.001)" />

<path d="M385,-5c0,0,-151,0,-151,29V791H50c0,0,-26,0,-36,71c0,0,-5,33,-5,68c0,0,0,36,5,69c0,0,10,70,36,70H715c0,0,26,0,37,-70c0,0,4,-33,4,-69c0,0,0,-35,-4,-68c0,0,-11,-71,-37,-71H536V24c0,0,0,-29,-151,-29Z" 
id="f0_1k"
transform="scale(0.001,-0.001)" />

<path d="M72,0C72,0,46,0,37,66c0,0,-6,32,-6,65c0,0,0,34,6,66c0,0,9,66,35,66H177V807H69c0,0,-26,0,-37,65c0,0,-4,32,-4,66c0,0,0,34,4,66c0,0,11,65,37,65H582c0,0,26,0,35,-65c0,0,6,-32,6,-66c0,0,0,-34,-6,-66c0,0,-9,-65,-35,-65H480V263H587c0,0,26,0,36,-66c0,0,6,-32,6,-66c0,0,0,-33,-6,-65C623,66,613,0,587,0Z" 
id="f0_19"
transform="scale(0.001,-0.001)" />

<path d="M556,431L487,747h-9L396,431ZM794,-2c0,0,-132,0,-143,42L600,237H358L313,47C313,47,304,0,167,0C167,0,93,0,58,8C58,8,23,17,23,21L293,1056c0,0,0,12,210,12c0,0,209,0,209,-12L976,20c0,0,0,-11,-70,-17c0,0,-70,-5,-112,-5Z" 
id="f0_11"
transform="scale(0.001,-0.001)" />

<path d="M134,0c0,0,-33,0,-53,28C81,28,61,55,61,90v950c0,0,0,33,155,33c0,0,155,0,155,-33V292H607c0,0,27,0,38,-72c0,0,4,-35,4,-72c0,0,0,-36,-4,-75C645,73,633,0,605,0Z" 
id="f0_1c"
transform="scale(0.001,-0.001)" />

<path d="M402,273c0,0,84,0,127,63c0,0,44,63,44,209c0,0,0,146,-45,190c0,0,-45,44,-143,44H370V322c0,0,0,-32,4,-40c0,0,5,-9,28,-9ZM154,0C154,0,76,0,76,70V987c0,0,0,38,19,60c0,0,20,22,50,22H400c0,0,243,0,369,-122c0,0,126,-122,126,-385C895,562,895,0,416,0Z" 
id="f0_14"
transform="scale(0.001,-0.001)" />

<path d="M394,-14c0,0,-91,0,-166,14C228,0,154,15,99,60c0,0,-55,44,-55,107c0,0,0,62,23,124c0,0,23,62,49,82c0,0,29,-23,100,-63c0,0,71,-40,136,-40c0,0,65,0,65,51c0,0,0,23,-18,40c0,0,-19,18,-67,41c0,0,-49,23,-74,36c0,0,-24,13,-65,42c0,0,-40,30,-62,62c0,0,-61,87,-61,222c0,0,0,134,100,227c0,0,100,92,262,92c0,0,110,0,204,-23c0,0,93,-24,96,-62c0,0,0,-5,0,-10c0,0,0,-53,-34,-135c0,0,-33,-81,-47,-91c0,0,-98,51,-175,51c0,0,-77,0,-77,-55c0,0,0,-34,56,-60c0,0,13,-6,35,-17c0,0,23,-10,53,-25c0,0,30,-14,64,-36c0,0,35,-23,74,-59c0,0,81,-77,81,-202c0,0,0,-163,-90,-267C672,92,582,-11,394,-14Z" 
id="f0_1j"
transform="scale(0.001,-0.001)" />

<path d="M507,-14c0,0,-201,0,-331,141C176,127,46,269,46,528c0,0,0,259,134,407c0,0,133,148,333,148c0,0,112,0,197,-31c0,0,84,-31,84,-85c0,0,0,-53,-40,-132c0,0,-41,-79,-68,-79c0,0,-8,0,-18,9c0,0,-10,8,-45,18c0,0,-36,10,-62,10c0,0,-89,0,-143,-63c0,0,-54,-62,-54,-191c0,0,0,-130,55,-192c0,0,56,-63,142,-63c0,0,35,0,78,10c0,0,44,10,62,28c0,0,3,3,12,3c0,0,10,0,35,-34c0,0,25,-34,46,-90c0,0,22,-56,22,-86c0,0,0,-60,-92,-95c0,0,-91,-34,-217,-34Z" 
id="f0_13"
transform="scale(0.001,-0.001)" />


</defs>

<!-- Any embedded fonts defined here -->
<style type="text/css" ><![CDATA[

@font-face {
	font-family: LilitaOne_f;
	src: url("fonts/LilitaOne_f.woff") format("woff");
}

]]></style>

</svg>
