<?xml version="1.0" encoding="UTF-8" standalone="no"?>
<!DOCTYPE svg PUBLIC "-//W3C//DTD SVG 1.1//EN"
"http://www.w3.org/Graphics/SVG/1.1/DTD/svg11.dtd">


<!-- Page 1 -->
<svg x="0" y="0" width="572" height="572" viewBox="0 0 572 572" version="1.1" xmlns="http://www.w3.org/2000/svg" xmlns:xlink="http://www.w3.org/1999/xlink"
style="display: block;margin-left: auto;margin-right: auto;">
<defs>
<clipPath id="c0_1"><path d="M0,572.9V0H572.9V572.9Z" /></clipPath>
<clipPath id="c1_1"><path d="M0,195.9V2.3H193.6V195.9Z" /></clipPath>

<style type="text/css"><![CDATA[
text { white-space: pre; }
path, image { pointer-events: none; }
text::-moz-selection {
	color: transparent;
	background: rgba(0, 106, 173, 0.4);
}
text::selection {
	color: transparent;
	background: rgba(0, 106, 173, 0.4);
}

.s1_1{
font-size: 221.38px;
font-family: CabinSketch-Regular_a;
fill: TRANSPARENT;
}

.g0_1{
fill: #FFFFFF;
}
.g1_1{
}

]]></style>

</defs>
<path d="M0,0
L0,572
L572,572
L572,0 Z " 
fill="#FFFFFF" stroke="none" />
<path d="M0,0H572.9V574.1H0V0Z" class="g0_1" />
<path d="M0,0H572.9V572.9H0V0Z" class="g0_1" />
<g clip-path="url(#c0_1)">
<g fill="#222222" >
<use xlink:href="#f0_26" transform="matrix(144.9,0,0,144.9,41.8,147.8)" />
</g>
</g>
<text x="41" y="147" class="s1_1">e</text>
<path d="M66,191.4c-6.5,0,-12.3,-3.9,-14.8,-9.8l-6,-14C41.4,160,35.2,154.4,27.5,151.3l-11,-4.4C11.2,144.8,7.4,140,6.5,134.4c-.4,-2.9,-.1,-5.8,1,-8.4l4.4,-10.9C15.1,107,15.1,98,11.9,89.9c-.2,-.6,-.5,-1.3,-.8,-1.9L5.5,74.9C4.2,71.8,3.9,68.4,4.6,65.1C5.8,60.1,9.3,55.9,14,53.8L29.2,47.4c7.6,-3.7,13.6,-10,16.9,-17.7L50.7,18.2C53.1,12.1,59,8.1,65.6,8.1c2.1,0,4.1,.4,6,1.2l12.6,5.1c3.5,1.2,7.2,1.8,10.8,1.8c4.6,0,9.2,-1,13.5,-2.8L120.7,8.2c2,-.9,4.1,-1.3,6.3,-1.3c6.4,0,12.2,3.8,14.8,9.7l5.6,13.2c3.6,7.7,10,13.7,17.8,17l14.1,5.7c4,1.6,7.1,4.6,8.8,8.6c1.7,3.9,1.8,8.3,.2,12.3l-5.9,14.8c-2.9,8,-2.7,16.8,.6,24.6l4.5,10.5c3.5,8.2,-.3,17.6,-8.5,21.1l-11.9,5.1c-7.5,3.7,-13.3,10.1,-16.5,17.9l-5.5,13.7c-2.5,6.2,-8.3,10.1,-14.9,10.1c-2.1,0,-4.1,-.3,-6,-1.1l-14.8,-5.9c-3.7,-1.4,-7.6,-2.1,-11.6,-2.1c-4.5,0,-9,.9,-13.3,2.7l-12.3,5.3c-1.9,.8,-4.1,1.3,-6.2,1.3ZM65.6,8.5C59.1,8.5,53.4,12.4,51,18.4L46.4,29.8C43.1,37.6,37,44,29.2,47.6L14.1,54.1C9.5,56,6,60.2,4.9,65.1c-.7,3.2,-.4,6.6,.9,9.6l5.6,13.1c.3,.6,.6,1.3,.8,2c3.3,8.2,3.2,17.2,0,25.4L7.8,126.1c-1,2.6,-1.4,5.4,-.9,8.2c.8,5.5,4.5,10.2,9.7,12.2l11,4.5c7.8,3.1,14,8.8,17.9,16.4l6,14c2.4,5.9,8.1,9.6,14.5,9.6c2.1,0,4.2,-.4,6.2,-1.3l12.3,-5.2c4.3,-1.9,8.8,-2.7,13.3,-2.7c4.1,0,8,.7,11.8,2l14.7,5.9c1.9,.8,3.9,1.2,5.9,1.2c6.4,0,12.2,-3.9,14.6,-9.9l5.5,-13.7c3.1,-7.9,9.1,-14.3,16.7,-18.1l11.8,-5.1c8,-3.4,11.7,-12.7,8.3,-20.7L182.6,113c-3.3,-8,-3.5,-16.8,-.6,-24.9l5.9,-14.9c1.6,-3.9,1.6,-8.1,-.1,-12c-1.6,-3.9,-4.7,-6.9,-8.6,-8.4L165,47.1C157.1,43.8,150.7,37.6,147.1,29.9L141.4,16.7C139,10.9,133.3,7.2,127,7.2c-2.2,0,-4.3,.4,-6.2,1.2l-12.2,5.3c-4.4,1.8,-9,2.8,-13.6,2.8c-3.8,0,-7.4,-.7,-11,-1.9L71.4,9.6C69.6,8.9,67.6,8.5,65.6,8.5Z" class="g1_1" />
<g clip-path="url(#c1_1)">
<path d="M85.4,195.6C79,196.9,72.6,194.3,68.9,189L60.2,176.4C55,169.8,47.9,165.5,39.7,164L28,161.9c-5.6,-1.1,-10.3,-5,-12.2,-10.3c-1,-2.7,-1.3,-5.6,-.8,-8.4l2.1,-11.5c1.6,-8.6,-.2,-17.4,-4.9,-24.7c-.4,-.6,-.8,-1.2,-1.2,-1.8L2.9,93.6C.9,90.8,0,87.5,0,84.1C.1,78.9,2.7,74.1,6.9,71.2L20.5,61.8C27.3,56.8,32,49.4,33.6,41.1L35.8,29C37,22.5,41.9,17.5,48.4,16.1c2,-.4,4.1,-.4,6.1,-.1l13.4,2.5c3.6,.4,7.3,.3,10.9,-.4c4.5,-1,8.8,-2.8,12.7,-5.5L102.4,5.1c1.7,-1.2,3.8,-2.1,5.9,-2.5c6.3,-1.3,12.8,1.3,16.4,6.6L132.9,21c5,6.8,12.4,11.5,20.8,13.1l15,2.7c4.2,.8,7.9,3.1,10.3,6.7c2.4,3.5,3.4,7.7,2.6,12l-2.9,15.7c-1.2,8.4,.8,16.9,5.6,24l6.4,9.4c5.1,7.2,3.2,17.3,-4,22.3l-10.6,7.4c-6.7,5.2,-11.2,12.6,-12.7,20.9l-2.6,14.5c-1.2,6.5,-6.2,11.6,-12.6,12.9c-2,.4,-4.1,.4,-6.1,0l-15.6,-2.8c-3.9,-.6,-7.9,-.4,-11.8,.3c-4.4,.9,-8.6,2.7,-12.4,5.3L91.2,193c-1.7,1.3,-3.7,2.2,-5.8,2.6ZM48.5,16.5C42.1,17.8,37.3,22.7,36.1,29.1L33.9,41.2C32.2,49.6,27.5,57,20.7,62.1L7.1,71.5C3,74.3,.5,79.1,.4,84.1c-.1,3.4,.8,6.6,2.7,9.3l8.1,11.7c.5,.5,.8,1.1,1.2,1.7c4.8,7.4,6.6,16.3,5,25l-2.1,11.4c-.5,2.8,-.2,5.6,.7,8.3c2,5.2,6.5,9.1,12,10l11.7,2.2c8.3,1.5,15.5,5.8,20.8,12.6l8.7,12.5c3.5,5.2,9.9,7.7,16.1,6.5c2.1,-.5,4,-1.3,5.8,-2.5l11,-7.6c3.9,-2.7,8.1,-4.4,12.6,-5.3c3.9,-.9,7.9,-1,11.9,-.3l15.6,2.8c1.9,.3,4,.3,5.9,-.1c6.4,-1.3,11.2,-6.2,12.4,-12.6l2.6,-14.5c1.5,-8.4,6.1,-15.9,12.8,-21.1l10.6,-7.4c7.1,-4.9,8.9,-14.7,4,-21.8L184,95.5c-4.8,-7.1,-6.8,-15.7,-5.6,-24.2l2.8,-15.8c.8,-4.1,-.1,-8.3,-2.5,-11.7c-2.4,-3.5,-6,-5.8,-10.1,-6.5l-15,-2.8c-8.4,-1.7,-15.9,-6.4,-21,-13.2L124.5,9.5C120.9,4.3,114.6,1.7,108.4,3c-2.1,.5,-4.1,1.3,-5.8,2.5L91.7,13c-3.9,2.7,-8.2,4.5,-12.8,5.5c-3.7,.7,-7.4,.9,-11.1,.4L54.4,16.5c-2,-.5,-4,-.4,-5.9,0Z" class="g1_1" />
<path d="M2.6,122.9C-.8,117.4,-.6,110.5,2.9,105.2L11.5,92.6c4.3,-7.3,5.8,-15.5,4.2,-23.7L13.5,57.2c-1,-5.5,1,-11.3,5.3,-15.1c2.1,-1.9,4.7,-3.1,7.6,-3.6L37.8,36.3C46.4,34.7,54,29.9,59.2,22.9c.4,-.6,.8,-1.2,1.2,-1.8l8,-11.7C70.3,6.6,73,4.5,76.2,3.4C81,1.6,86.5,2.3,90.7,5.2l13.6,9.3c7.2,4.5,15.7,6.2,24,4.8L140.4,17c6.5,-1.2,13,1.6,16.6,7.2c1.1,1.7,1.9,3.6,2.2,5.7l2.5,13.4c.9,3.5,2.4,6.9,4.3,10c2.5,3.9,5.7,7.3,9.6,9.9l11,7.5c1.7,1.2,3.3,2.8,4.4,4.6c3.5,5.5,3.4,12.4,-.3,17.8l-8.1,11.8c-4.5,7.2,-6.2,15.7,-4.8,24.1l2.8,15c.8,4.2,-.1,8.4,-2.5,12c-2.4,3.6,-6.1,5.9,-10.3,6.7l-15.7,3c-8.3,1.9,-15.6,6.8,-20.5,13.7l-6.4,9.4c-5,7.4,-15,9.3,-22.3,4.3L92.2,185.8c-7.2,-4.4,-15.7,-5.9,-24,-4.4l-14.5,2.8c-6.5,1.2,-13,-1.6,-16.5,-7.2c-1.1,-1.7,-1.9,-3.6,-2.3,-5.7L32,155.8c-.9,-3.9,-2.4,-7.6,-4.5,-10.9c-2.4,-3.9,-5.6,-7.2,-9.4,-9.8l-11,-7.5C5.3,126.3,3.8,124.7,2.6,122.9ZM156.7,24.4c-3.5,-5.5,-9.8,-8.2,-16.2,-7l-12.1,2.3c-8.4,1.4,-17.1,-.3,-24.3,-4.9L90.5,5.5C86.4,2.6,81.1,1.9,76.3,3.7C73.2,4.8,70.6,6.9,68.7,9.6L60.6,21.3c-.3,.6,-.7,1.2,-1.2,1.8c-5.1,7.1,-12.8,12,-21.5,13.6L26.5,38.9c-2.8,.5,-5.4,1.7,-7.5,3.6c-4.2,3.7,-6.1,9.3,-5.1,14.8L16.1,69c1.6,8.3,.1,16.5,-4.3,23.9L3.2,105.4c-3.5,5.2,-3.6,12,-.3,17.3c1.1,1.8,2.6,3.3,4.3,4.5l11.1,7.6c3.9,2.6,7,5.9,9.5,9.8c2.2,3.4,3.7,7.1,4.6,11.1l2.9,15.5c.4,2,1.1,3.9,2.2,5.6c3.5,5.4,9.8,8.2,16.2,7l14.5,-2.7c8.3,-1.5,16.9,0,24.2,4.4l10.7,7.3c7.2,4.9,17,3,21.9,-4.1l6.4,-9.4c5,-7.1,12.3,-12,20.7,-13.9l15.7,-3c4.1,-.7,7.7,-3.1,10.1,-6.5c2.3,-3.5,3.2,-7.7,2.5,-11.8l-2.9,-15c-1.4,-8.5,.3,-17.1,4.9,-24.4l8.1,-11.8c3.6,-5.2,3.7,-12,.3,-17.3c-1.1,-1.8,-2.6,-3.3,-4.4,-4.5l-11,-7.6c-3.9,-2.7,-7.1,-6,-9.6,-10C163.7,50.4,162.3,47,161.4,43.3L158.9,29.9c-.4,-1.9,-1.1,-3.8,-2.2,-5.5Z" class="g1_1" />
</g>

<defs>
<path d="M388,49c0,0,26,0,61,6c0,0,35,6,44,8c0,0,65,12,85,12l18,-8c0,0,18,0,33,8c0,0,16,8,16,24c0,0,-31,0,-83,-12c0,0,-7,-1,-26,-6c0,0,-18,-5,-35,-6c0,0,-30,0,-65,-2c0,0,-34,-3,-48,-6L379,57c0,0,8,-8,9,-8Zm-66,0c0,0,23,0,41,14c0,0,17,15,17,36c0,0,-58,0,-58,-13c0,0,0,4,-5,12c0,0,-5,7,-8,7c0,0,-3,0,-19,-14c0,0,-17,-15,-17,-19l2,-5c0,0,34,-7,38,-10c0,0,8,-8,9,-8ZM248,86c0,0,13,3,30,13c0,0,17,11,17,16c0,0,0,7,-5,13c0,0,-6,5,-9,5c0,0,-14,0,-29,-13c0,0,-15,-13,-15,-25c0,0,1,-3,4,-6c0,0,3,-2,7,-3Zm-28,18c0,0,18,27,18,35l-1,5l-55,7l-11,-7l49,-40Zm-58,47c0,0,35,19,35,58c0,0,-43,0,-53,-20c0,0,7,-4,12,-17c0,0,4,-13,6,-21Zm-29,63c0,0,44,0,58,12c0,0,-5,11,-15,25c0,0,-11,15,-14,24c0,0,-3,-5,-16,-24c0,0,-13,-19,-13,-37Zm-21,35c0,0,18,0,31,15c0,0,13,14,13,32c0,0,-29,0,-37,-8c0,0,-7,-8,-7,-39ZM388,377c0,0,3,0,54,4c0,0,51,4,59,25H449c0,0,-21,0,-42,-5c0,0,-20,-5,-20,-19l1,-5Zm-30,10c0,0,13,0,23,9c0,0,10,9,10,23c0,0,-76,0,-87,-22c0,0,31,-10,54,-10Zm-149,0l32,6c0,0,3,0,21,3c0,0,18,4,42,20c0,0,-5,1,-47,9h-6c0,0,-3,0,-18,-14c0,0,-15,-14,-24,-24Zm-21,16c0,0,20,0,27,8c0,0,7,8,7,27c0,0,-14,0,-24,-10c0,0,-10,-11,-10,-25Zm339,-9c0,0,51,0,80,3c0,0,29,3,35,19c0,0,7,-13,21,-13c0,0,0,13,-5,27c0,0,-6,15,-6,22c0,0,0,6,7,11c0,0,7,5,11,11c0,0,4,6,4,24c0,0,0,60,-35,60c0,0,-16,0,-19,-9c0,0,-4,-8,-4,-31c0,0,17,-50,20,-55v-6c0,0,0,-23,-16,-30c0,0,-15,-7,-44,-7c0,0,-24,-1,-37,-6c0,0,-12,-5,-12,-20Zm-92,69c0,0,28,0,74,6c0,0,43,6,70,6c0,0,0,8,-11,31c0,0,-10,24,-16,24l-4,-1c0,0,-10,32,-68,53c0,0,-57,21,-97,21c0,0,-61,0,-106,-29c0,0,-46,-29,-68,-85c0,0,8,-15,90,-21c0,0,81,-5,136,-5ZM121,310c0,0,13,0,28,7c0,0,14,7,14,19c0,0,0,3,-4,10c0,0,-5,7,-5,13c0,0,3,11,11,27c0,0,8,16,8,33c0,0,0,12,-6,17c0,0,-5,6,-15,10c0,0,-10,5,-10,11c0,0,0,6,10,28c0,0,10,22,10,30c0,0,0,15,29,50c0,0,17,23,26,37c0,0,9,14,9,27c0,0,6,0,17,-3c0,0,11,-3,21,-3c0,0,5,0,6,9c0,0,2,8,5,10c0,0,12,4,49,4c0,0,35,2,53,4c0,0,19,2,20,10c0,0,-17,8,-32,10c0,0,-15,2,-40,2c0,0,-103,0,-158,-70c0,0,-54,-70,-54,-177h49v-9L105,359V330l19,11L105,312l16,-2ZM596,565c0,0,9,0,24,6c0,0,16,7,16,14c0,0,0,9,-7,27c0,0,-6,17,-6,21c0,0,0,-5,-7,-7c0,0,-6,-3,-11,-3c0,0,-12,2,-28,13c0,0,-16,10,-16,24c0,0,-45,0,-45,21c0,0,-3,0,-12,-10c0,0,-9,-11,-33,-11c0,0,-8,0,-16,6c0,0,-7,6,-20,6l-19,-1c0,0,3,-2,14,-20c0,0,12,-18,19,-20c0,0,3,0,12,5c0,0,8,6,14,6c0,0,6,-2,23,-9c0,0,17,-7,34,-7c0,0,0,-12,27,-36c0,0,28,-25,37,-25ZM463,0c0,0,-64,0,-114,3c0,0,-50,3,-92,17c0,0,-48,15,-96,72c0,0,-48,56,-80,125c0,0,-32,69,-32,118c0,0,0,76,27,168c0,0,28,91,68,157l3,-2c0,0,9,0,38,20c0,0,27,19,35,19c0,0,11,3,56,13c0,0,45,11,85,11V707c0,0,21,8,39,10c0,0,17,1,35,1c0,0,48,0,93,-9c0,0,45,-9,45,-32c0,0,38,0,60,-27c0,0,22,-27,44,-72c0,0,7,-17,16,-31c0,0,8,-14,16,-18V397L681,377l8,-9c0,0,-41,-32,-180,-32H429c0,0,-76,0,-100,2c0,0,-23,1,-92,12c0,0,-2,9,-9,9c0,0,-3,0,-8,-1c0,0,-5,-2,-9,-2c0,0,0,-44,11,-98c0,0,12,-53,35,-78c0,0,12,-13,67,-33c0,0,27,-9,37,-14c0,0,27,-20,47,-20c0,0,35,0,76,9c0,0,42,9,48,11c0,0,73,20,117,20c0,0,20,0,27,-18c0,0,7,-17,7,-45c0,0,0,-29,-5,-37c0,0,-4,-7,-16,-9c0,0,-13,-3,-20,-13c0,0,-9,-3,-179,-31Z" 
id="f0_26"
transform="scale(0.001,-0.001)" />


</defs>

<!-- Any embedded fonts defined here -->
<style type="text/css" ><![CDATA[

@font-face {
	font-family: CabinSketch-Regular_a;
	src: url("fonts/CabinSketch-Regular_a.woff") format("woff");
}

]]></style>

</svg>
