<?xml version="1.0" encoding="UTF-8" standalone="no"?>
<svg
   xmlns:dc="http://purl.org/dc/elements/1.1/"
   xmlns:cc="http://creativecommons.org/ns#"
   xmlns:rdf="http://www.w3.org/1999/02/22-rdf-syntax-ns#"
   xmlns:svg="http://www.w3.org/2000/svg"
   xmlns="http://www.w3.org/2000/svg"
   viewBox="0 0 170.45972 175.31387"
   height="175.31387"
   width="170.45972"
   xml:space="preserve"
   id="svg2"
   version="1.1"><metadata
     id="metadata8"><rdf:RDF><cc:Work
         rdf:about=""><dc:format>image/svg+xml</dc:format><dc:type
           rdf:resource="http://purl.org/dc/dcmitype/StillImage" /></cc:Work></rdf:RDF></metadata><defs
     id="defs6"><clipPath
       id="clipPath14"
       clipPathUnits="userSpaceOnUse"><path
         id="path12"
         d="M 0,0 H 375 V 375 H 0 Z" /></clipPath><clipPath
       id="clipPath24"
       clipPathUnits="userSpaceOnUse"><path
         id="path22"
         d="M 0,0 H 375 V 375 H 0 Z" /></clipPath><clipPath
       id="clipPath42"
       clipPathUnits="userSpaceOnUse"><path
         id="path40"
         d="M 0,246.75 H 126.75 V 373.5 H 0 Z" /></clipPath></defs><g
     clip-path="url(#clipPath14)"
     transform="matrix(1.3333333,0,0,-1.3333333,-0.89374547,499.78213)"
     id="g10"><g
       id="g16" /><g
       id="g18"><g
         clip-path="url(#clipPath24)"
         id="g20"><path
           id="path26"
           style="fill:#ffffff;fill-opacity:1;fill-rule:nonzero;stroke:none"
           d="M 0,-0.7500112 H 375 V 374.99999 H 0 Z" /><path
           id="path28"
           style="fill:#ffffff;fill-opacity:1;fill-rule:nonzero;stroke:none"
           d="M 0,-1.12e-5 H 375 V 374.99999 H 0 Z" /><g
           transform="matrix(0.75,0,0,-0.75,-60.75,420.75)"
           id="g30"><g
             id="text34"
             style="font-variant:normal;font-weight:normal;font-size:193.19999695px;font-family:'Cabin Sketch';-inkscape-font-specification:CabinSketch-Regular;writing-mode:lr-tb;fill:#222222;fill-opacity:1;fill-rule:nonzero;stroke:none"
             transform="translate(117.5156,190)"
             aria-label="e"><path
               id="path50"
               style=""
               d="m 6.1823999,-42.310799 q 0,-9.66 3.4775999,-21.252 3.4776002,-11.592 8.5008002,-19.8996 l 0.3864,0.1932 q 1.1592,0 4.83,-2.5116 3.4776,-2.3184 4.4436,-2.3184 1.3524,-0.3864 6.955199,-1.7388 5.796,-1.3524 10.8192,-1.3524 v 1.7388 q 2.7048,-0.966 4.83,-1.1592 2.3184,-0.1932 4.6368,-0.1932 5.9892,0 11.592,1.1592 5.796,1.1592 5.796,4.0572 4.83,0 7.5348,3.4776 2.898,3.2844 5.6028,9.0804 0.966,2.1252 1.932,3.864 1.1592,1.7388 2.1252,2.3184 v 16.6152 l -3.4776,2.5116 0.966,1.1592 q -5.2164,4.0572 -22.7976,4.0572 h -10.0464 q -9.66,0 -12.7512,-0.1932 -2.898,-0.1932 -11.591999,-1.5456 -0.1932,-1.1592 -1.1592,-1.1592 -0.3864,0 -0.966,0.1932 -0.5796,0.1932 -1.1592,0.1932 0,5.6028 1.3524,12.3648 1.5456,6.761999 4.443599,9.853199 1.5456,1.7388 8.5008,4.2504 3.4776,1.1592 4.6368,1.7388 3.4776,2.5116 5.9892,2.5116 4.4436,0 9.66,-1.1592 5.2164,-1.1592 5.9892,-1.3524 9.2736,-2.5116 14.8764,-2.5116 2.5116,0 3.2844,2.3184 0.966,2.1252 0.966,5.6028 0,3.6708001 -0.5796,4.6368001 -0.5796,0.966 -2.1252,1.3524 -1.5456,0.1932 -2.5116,1.5456 -1.1592,0.3864 -22.6044,3.8639999 -8.1144,0 -14.49,-0.38639999 -6.1824,-0.3864 -11.592,-2.12520001 Q 26.4684,-4.4435999 20.286,-11.592 14.2968,-18.7404 10.2396,-27.4344 6.1823999,-36.128399 6.1823999,-42.310799 Z m 61.0511991,-36.9012 q 0,1.5456 3.4776,4.6368 3.4776,3.0912 4.6368,3.0912 1.1592,0 3.0912,-0.7728 1.932,-0.7728 1.932,-1.7388 0,-1.1592 -0.7728,-3.2844 -0.7728,-2.3184 -0.7728,-2.7048 0,0.5796 -0.966,0.966 -0.7728,0.1932 -1.3524,0.1932 -1.5456,-0.1932 -3.6708,-1.5456 -1.932,-1.3524 -1.932,-3.0912 -5.6028,0 -5.6028,-2.7048 -0.3864,0 -1.5456,1.3524 -1.1592,1.3524 -4.2504,1.3524 -0.966,0 -1.932,-0.7728 -0.966,-0.7728 -2.5116,-0.7728 l -2.5116,0.1932 q 0.3864,0.1932 1.7388,2.5116 1.5456,2.3184 2.5116,2.5116 0.3864,0 1.3524,-0.5796 1.1592,-0.7728 1.932,-0.7728 0.7728,0.1932 2.898,1.1592 2.1252,0.7728 4.2504,0.7728 z m -51.970799,39.9924 q 1.7388,0 3.4776,-0.7728 1.932,-0.966 1.932,-2.5116 0,-0.3864 -0.5796,-1.1592 -0.5796,-0.966 -0.5796,-1.7388 0.3864,-1.3524 1.3524,-3.2844 0.966,-2.1252 0.966,-4.2504 0,-1.5456 -0.7728,-2.1252 -0.5796,-0.7728 -1.932,-1.3524 -1.1592,-0.5796 -1.1592,-1.3524 0,-0.7728 1.1592,-3.4776 1.3524,-2.898 1.3524,-3.864 0,-1.932 3.6708,-6.3756 2.1252,-2.898 3.2844,-4.6368 1.1592,-1.7388 1.1592,-3.4776 0.7728,0 2.1252,0.3864 1.352399,0.3864 2.704799,0.3864 0.5796,0 0.7728,-0.966 0.1932,-1.1592 0.5796,-1.3524 1.5456,-0.5796 6.1824,-0.5796 4.4436,-0.1932 6.762,-0.3864 2.3184,-0.3864 2.5116,-1.3524 -2.1252,-0.966 -4.0572,-1.1592 -1.932,-0.3864 -5.0232,-0.3864 -13.137599,0 -20.092799,8.8872 -6.762,8.8872 -6.762,22.4112 h 6.1824 v 1.1592 l -7.1484,7.1484 v 3.6708 l 2.3184,-1.3524 -2.3184,3.6708 z m 11.2056,-22.6044 q 0.966,1.932 11.205599,2.7048 10.4328,0.5796 17.388,0.5796 3.4776,0 9.2736,-0.7728 5.4096,-0.7728 8.8872,-0.7728 0,-0.966 -1.3524,-3.864 -1.3524,-3.0912 -2.1252,-3.0912 l -0.3864,0.1932 q -1.3524,-4.0572 -8.694,-6.762 -7.1484,-2.7048 -12.1716,-2.7048 -7.728,0 -13.524,3.6708 -5.795999,3.6708 -8.500799,10.8192 z m 53.902799,4.0572 q 0,2.898 -1.932,3.864 -1.932,0.7728 -5.6028,0.7728 -3.0912,0.1932 -4.6368,0.7728 -1.5456,0.5796 -1.5456,2.5116 6.3756,0 10.0464,-0.3864 3.6708,-0.3864 4.4436,-2.3184 0.966,1.5456 2.7048,1.5456 0,-1.5456 -0.7728,-3.2844 -0.5796,-1.932 -0.5796,-2.898 0,-0.7728 0.7728,-1.3524 0.966,-0.5796 1.3524,-1.3524 0.5796,-0.7728 0.5796,-3.0912 0,-7.5348 -4.4436,-7.5348 -1.932,0 -2.5116,1.1592 -0.3864,0.966 -0.3864,3.864 2.1252,6.3756 2.5116,6.9552 z m -52.357199,2.3184 q -1.7388,0 -3.0912,1.3524 -1.1592,1.3524 -1.1592,3.0912 2.5116,0 3.2844,-0.966 0.966,-0.966 0.966,-3.4776 z m 3.670799,1.7388 q -0.386399,0 -2.318399,1.7388 -1.7388,1.7388 -2.898,3.0912 l 4.0572,-0.7728 q 0.3864,0 2.511599,-0.3864 2.3184,-0.5796 5.4096,-2.5116 -0.5796,-0.1932 -5.9892,-1.1592 z m 6.762,3.4776 q 3.864,1.3524 6.762,1.3524 1.7388,0 2.898,-1.1592 1.3524,-1.1592 1.3524,-2.898 -9.66,0 -11.0124,2.7048 z m 18.354,-1.1592 q -2.7048,0 -5.4096,0.7728 -2.5116,0.5796 -2.5116,2.3184 l 0.1932,0.5796 q 0.3864,0 6.762,-0.3864 6.5688,-0.5796 7.5348,-3.2844 h -5.4096 z m -37.094399,13.9104 q -3.6708,0 -4.6368,1.1592 -0.966,0.966 -0.966,4.829999 2.3184,0 3.864,-1.738799 1.7388,-1.932 1.7388,-4.2504 z m 0.7728,2.7048 q -0.3864,0.5796 -2.1252,3.0912 -1.5456,2.318399 -1.5456,4.636799 5.6028,0 7.3416,-1.5456 -0.5796,-1.3524 -1.932,-3.091199 -1.3524,-1.932 -1.7388,-3.0912 z M 18.1608,-23.9568 q 0.966,0.5796 1.5456,2.3184 0.5796,1.5456 0.7728,2.5116 4.4436,-2.3184 4.4436,-7.3416 -5.4096,0 -6.762,2.5116 z m 9.66,10.8192 q 2.3184,-3.4776 2.3184,-4.4436 l -0.1932,-0.5796 -6.9552,-0.966 -1.3524,0.966 z m 2.1252,1.1592 q 0.1932,0.3864 0.5796,0.7728 0.3864,0.1932 0.7728,0.3864 1.738799,-0.3864 3.863999,-1.7388 2.1252,-1.3524 2.1252,-1.932 0,-0.966 -0.7728,-1.5456 -0.5796,-0.7728 -0.966,-0.7728 -1.7388,0 -3.6708,1.7388 Q 29.946,-13.524 29.946,-11.9784 Z m 4.829999,3.4776001 q 4.2504,0.966 4.83,1.3524 0.966,0.966 1.1592,0.966 2.898,0 5.0232,-1.7388 2.3184,-1.9319999 2.3184,-4.6368001 -7.3416,0 -7.3416,1.7388 0,-0.5796 -0.7728,-1.5456 -0.5796,-0.966 -0.966,-0.966 -0.3864,0 -2.5116,1.932 -1.932,1.7388002 -1.932,2.3184001 z m 13.1376,1.3524 q 0.966,0.966 1.1592,0.966 3.2844,0 7.728,-0.7728 4.4436,-0.7728 5.6028,-0.966 8.1144,-1.5456 10.626,-1.5456 l 2.3184,0.966 q 2.3184,0 4.2504,-0.966 1.932,-0.9660001 1.932,-3.0912001 -3.864,0 -10.4328,1.5456 -0.966,0.1932 -3.2844,0.7728 -2.3184,0.5796002 -4.4436,0.7728001 -3.864,0 -8.3076,0.3864 -4.2504,0.1932 -5.9892,0.5796 z" /></g></g></g></g><g
       id="g36"><g
         clip-path="url(#clipPath42)"
         id="g38"><path
           id="path44"
           style="fill:#000000;fill-opacity:1;fill-rule:nonzero;stroke:none"
           d="m 43.17135,249.7407 c -4.20803,0 -8.03582,2.5091 -9.68355,6.3869 l -3.92919,9.1749 c -2.48426,4.9422 -6.4895,8.6426 -11.55942,10.6702 l -7.22464,2.8893 c -3.472904,1.3686 -5.957166,4.5114 -6.514858,8.1864 -0.278846,1.8502 -0.050699,3.7511 0.633741,5.4999 l 2.864506,7.0966 c 2.129368,5.3224 2.154718,11.1771 0.0507,16.4995 -0.177448,0.4309 -0.354895,0.8617 -0.532342,1.2673 l -3.650345,8.5412 c -0.861887,2.0276 -1.064684,4.2579 -0.583041,6.4123 0.735139,3.3202 3.016604,6.0574 6.134607,7.4007 l 9.911702,4.2326 c 4.99387,2.3824 8.92306,6.4883 11.07778,11.5826 l 2.99126,7.4768 c 1.62237,4.0045 5.45016,6.615 9.78495,6.615 1.34353,0 2.66171,-0.2534 3.92919,-0.7603 l 8.26397,-3.3202 c 2.28147,-0.7857 4.66433,-1.1659 7.07254,-1.1659 3.01661,0 5.98252,0.6083 8.82167,1.8248 l 7.95978,3.3963 c 1.31818,0.5829 2.71241,0.8617 4.13198,0.8617 4.20804,0 8.01048,-2.5092 9.68356,-6.3869 l 3.70104,-8.6173 c 2.35752,-5.0437 6.48946,-8.9721 11.61016,-11.1264 l 9.2526,-3.7257 c 2.611,-1.0392 4.6643,-3.0414 5.7797,-5.6266 1.09,-2.5852 1.1407,-5.4492 0.1014,-8.0597 l -3.8785,-9.7071 c -1.8759,-5.2464 -1.7238,-10.9744 0.4056,-16.1194 l 2.9405,-6.8685 c 2.2815,-5.3478 -0.2027,-11.5319 -5.5262,-13.813 l -7.7823,-3.3201 c -4.9178,-2.4332 -8.771,-6.6151 -10.82429,-11.7347 l -3.59965,-8.9721 c -1.62237,-4.0299 -5.45017,-6.6151 -9.78495,-6.6151 -1.34353,0 -2.66171,0.2535 -3.92919,0.7604 l -9.63286,3.8524 c -2.45892,0.8871 -5.01922,1.3433 -7.63024,1.3433 -2.9659,0 -5.88111,-0.583 -8.66956,-1.7488 l -8.06117,-3.4469 c -1.29283,-0.5576 -2.68706,-0.8364 -4.10664,-0.8364 z m -0.22814,119.7041 c -4.23339,0 -7.98513,-2.5345 -9.58216,-6.463 l -2.99125,-7.4767 c -2.18007,-5.145 -6.15996,-9.3016 -11.22988,-11.6587 l -9.911702,-4.2326 c -3.041954,-1.2926 -5.29807,-4.0045 -6.00786,-7.2486 -0.481642,-2.1037 -0.278845,-4.2833 0.583042,-6.2856 l 3.650345,-8.5412 c 0.202796,-0.4055 0.380244,-0.8617 0.557691,-1.2926 2.104014,-5.3731 2.078674,-11.3039 -0.050699,-16.677 L 5.12158,292.4722 c -0.68444,-1.6981 -0.912587,-3.5736 -0.633741,-5.3731 0.557692,-3.599 2.991255,-6.6657 6.362751,-8.009 l 7.22464,-2.9147 c 5.12063,-2.0529 9.17657,-5.7786 11.68618,-10.7715 l 3.92919,-9.1749 c 1.62237,-3.8018 5.34877,-6.2602 9.48075,-6.2602 1.39423,0 2.76311,0.2788 4.05594,0.8364 l 8.06118,3.4469 c 2.81381,1.1912 5.75436,1.7741 8.74562,1.7741 2.63636,0 5.22202,-0.4562 7.70628,-1.3433 l 9.63286,-3.8777 c 1.24213,-0.4816 2.50961,-0.735 3.82779,-0.735 4.23339,0 7.98513,2.5345 9.55681,6.4629 l 3.59965,8.9721 c 2.07862,5.1704 5.95712,9.3777 10.92572,11.8361 l 7.7823,3.3202 c 5.222,2.2304 7.6556,8.3131 5.4248,13.5342 l -2.9405,6.8685 c -2.1548,5.1957 -2.3069,10.9743 -0.4056,16.2968 l 3.8785,9.7071 c 1.0139,2.5598 0.9886,5.3478 -0.1014,7.8823 -1.0647,2.5344 -3.0927,4.486 -5.6277,5.4998 l -9.2779,3.7257 c -5.1713,2.1797 -9.35403,6.1842 -11.73689,11.2532 l -3.70105,8.6172 c -1.62237,3.8018 -5.34877,6.2602 -9.48075,6.2602 -1.39423,0 -2.76311,-0.2788 -4.05594,-0.8364 l -7.95978,-3.4215 c -2.8645,-1.2166 -5.85576,-1.8249 -8.92306,-1.8249 -2.43357,0 -4.84178,0.4056 -7.1486,1.1913 l -8.28932,3.3201 c -1.16609,0.4563 -2.45892,0.7097 -3.7771,0.7097 z" /><path
           id="path46"
           style="fill:#000000;fill-opacity:1;fill-rule:nonzero;stroke:none"
           d="m 55.87151,246.9781 c -4.13199,-0.8364 -8.36537,0.8617 -10.77359,4.334 l -5.67831,8.2117 c -3.4222,4.334 -8.08653,7.1473 -13.46064,8.1358 l -7.65559,1.3939 c -3.65035,0.6843 -6.71765,3.2442 -7.98513,6.7418 -0.65909,1.7488 -0.811188,3.6496 -0.481643,5.4998 l 1.368883,7.5021 c 1.03933,5.6266 -0.12675,11.3799 -3.219405,16.1701 -0.253496,0.3802 -0.532342,0.7603 -0.785838,1.1405 l -5.32342,7.6542 c -1.2674804,1.8248 -1.90122085,3.9538 -1.8758712557,6.1841 C 0.0770046,323.3424 1.750079,326.4851 4.538537,328.4114 l 8.872363,6.1334 c 4.43619,3.2949 7.50349,8.1104 8.56817,13.5342 l 1.44493,7.933 c 0.78584,4.2579 4.00524,7.5528 8.26398,8.4398 1.31818,0.2535 2.66171,0.2788 3.97989,0.0507 l 8.74562,-1.5967 c 2.38286,-0.3041 4.81642,-0.2028 7.17394,0.2788 2.9659,0.6083 5.75436,1.7995 8.28932,3.5483 l 7.12324,4.9169 c 1.16608,0.811 2.48426,1.3686 3.87849,1.6728 4.13198,0.8364 8.36537,-0.8618 10.77359,-4.334 l 5.32342,-7.7049 c 3.3208,-4.4607 8.13722,-7.5274 13.61271,-8.5919 l 9.8103,-1.7741 c 2.7631,-0.5069 5.1714,-2.053 6.7684,-4.3594 1.597,-2.3064 2.2054,-5.0943 1.6984,-7.8823 l -1.8759,-10.2646 c -0.7858,-5.4999 0.4817,-11.1011 3.625,-15.7139 l 4.2334,-6.1335 c 3.2955,-4.7648 2.104,-11.3292 -2.6617,-14.6493 l -6.9458,-4.8156 c -4.3348,-3.3962 -7.2753,-8.2371 -8.264,-13.6609 l -1.7237,-9.5043 c -0.7859,-4.258 -4.0306,-7.5782 -8.264,-8.4399 -1.31818,-0.2788 -2.66171,-0.2788 -3.97989,-0.0507 l -10.19055,1.8502 c -2.58567,0.3801 -5.17132,0.3041 -7.73164,-0.2028 -2.9152,-0.5829 -5.65296,-1.7488 -8.13722,-3.4469 l -7.22464,-4.9929 c -1.16609,-0.8364 -2.45892,-1.394 -3.85315,-1.6728 z M 31.73868,364.2237 c -4.15734,-0.8617 -7.32604,-4.0805 -8.08653,-8.2624 l -1.44493,-7.933 c -1.11538,-5.4745 -4.18268,-10.3407 -8.66957,-13.6862 l -8.872362,-6.1335 c -2.712409,-1.8755 -4.3601346,-4.9676 -4.4361833,-8.2878 -0.0253496,-2.1797 0.5830412,-4.2579 1.8251723,-6.0574 l 5.298069,-7.6289 c 0.278846,-0.3801 0.532342,-0.7603 0.785837,-1.1405 3.143357,-4.8409 4.284087,-10.6449 3.270097,-16.3475 l -1.36888,-7.5021 c -0.32954,-1.8248 -0.177443,-3.675 0.4563,-5.3984 1.26748,-3.4216 4.25873,-5.9561 7.83303,-6.5897 l 7.65558,-1.394 c 5.45017,-0.9884 10.1652,-3.8271 13.61275,-8.2371 l 5.67831,-8.2117 c 2.33217,-3.3963 6.4895,-5.069 10.54544,-4.2326 1.36888,0.2787 2.63636,0.8363 3.80244,1.622 l 7.22464,4.993 c 2.50961,1.7234 5.27272,2.8893 8.21328,3.4722 2.56031,0.5323 5.19667,0.6083 7.80767,0.2028 l 10.19056,-1.8502 c 1.29283,-0.2281 2.611,-0.2281 3.90383,0.0507 4.15737,0.8364 7.32607,4.0805 8.08657,8.2625 l 1.7237,9.5043 c 0.9887,5.4745 3.9546,10.3661 8.3654,13.7877 l 6.9458,4.8155 c 4.6643,3.2441 5.8304,9.6564 2.611,14.3199 l -4.2587,6.1334 c -3.1687,4.6635 -4.4616,10.2901 -3.6757,15.866 l 1.8758,10.29 c 0.4817,2.7119 -0.1013,5.4492 -1.6477,7.7049 -1.5717,2.2557 -3.9292,3.7764 -6.6162,4.2579 l -9.8357,1.7995 c -5.50085,1.0898 -10.39332,4.1819 -13.73947,8.668 l -5.32342,7.7048 c -2.35751,3.3963 -6.4895,5.069 -10.54544,4.2326 -1.36888,-0.2788 -2.63636,-0.8363 -3.80245,-1.622 l -7.12324,-4.917 c -2.56031,-1.7741 -5.37412,-2.9653 -8.36537,-3.5736 -2.38287,-0.4815 -4.81643,-0.5829 -7.25,-0.2788 l -8.77096,1.5968 c -1.29281,0.2787 -2.61099,0.2534 -3.87847,-10e-5 z" /><path
           id="path48"
           style="fill:#000000;fill-opacity:1;fill-rule:nonzero;stroke:none"
           d="m 1.699381,294.5505 c -2.2561157,3.5737 -2.180067,8.1104 0.177447,11.608 l 5.627615,8.2371 c 2.839157,4.7649 3.802447,10.1126 2.788457,15.4858 l -1.444927,7.6541 c -0.68444,3.6497 0.63374,7.4261 3.447547,9.8846 1.39423,1.2419 3.118,2.0782 4.96853,2.4077 l 7.50348,1.394 c 5.62762,1.0645 10.59614,4.1819 13.96764,8.7947 0.27885,0.3802 0.53234,0.7603 0.78584,1.1405 l 5.24737,7.6795 c 1.24213,1.8249 3.0166,3.1935 5.09527,3.9538 3.16871,1.1406 6.743,0.7097 9.53146,-1.1912 l 8.89771,-6.0828 c 4.66433,-2.9653 10.2666,-4.0805 15.71677,-3.1681 l 7.90908,1.4954 c 4.25873,0.811 8.51743,-1.0392 10.84963,-4.6888 0.7098,-1.1152 1.2168,-2.3825 1.4703,-3.7004 l 1.6224,-8.7694 c 0.583,-2.3317 1.5209,-4.562 2.8138,-6.5896 1.6223,-2.5599 3.7264,-4.7395 6.2867,-6.463 l 7.1486,-4.8916 c 1.166,-0.811 2.18,-1.8248 2.9405,-3.0414 2.2561,-3.5736 2.1801,-8.1103 -0.2028,-11.6079 l -5.298,-7.7556 c -2.9913,-4.6888 -4.1067,-10.29 -3.1687,-15.7645 l 1.8505,-9.8085 c 0.507,-2.7626 -0.0761,-5.5506 -1.6731,-7.8823 -1.5717,-2.3317 -3.9799,-3.8778 -6.743,-4.41 l -10.2666,-1.9262 c -5.42482,-1.2419 -10.19055,-4.4354 -13.3846,-8.9975 l -4.20803,-6.1588 c -3.2701,-4.7902 -9.83565,-6.0321 -14.62674,-2.7626 l -6.97114,4.7649 c -4.71503,2.8386 -10.29195,3.8524 -15.71676,2.8386 l -9.48076,-1.7742 c -4.25874,-0.811 -8.51747,1.0392 -10.82428,4.6889 -0.73514,1.1405 -1.21679,2.3824 -1.47028,3.7003 l -1.90122,10.1887 c -0.58305,2.5598 -1.57168,4.9422 -2.96591,7.1473 -1.59703,2.5091 -3.67569,4.6634 -6.13461,6.3615 l -7.224637,4.9423 c -1.191428,0.8617 -2.180063,1.8755 -2.940552,3.0667 z M 102.5655,359.028 c -2.2815,3.5737 -6.43879,5.3732 -10.59613,4.5875 l -7.93443,-1.4954 c -5.50086,-0.9377 -11.15383,0.2028 -15.86886,3.1935 l -8.89771,6.0828 c -2.73777,1.8755 -6.21066,2.3317 -9.32867,1.1912 -2.02797,-0.735 -3.75174,-2.0783 -4.99387,-3.8778 l -5.24737,-7.6795 c -0.22815,-0.3802 -0.50699,-0.7857 -0.78584,-1.1659 -3.39685,-4.6635 -8.41607,-7.8316 -14.09439,-8.8961 l -7.50348,-1.4193 c -1.82518,-0.3295 -3.49825,-1.1405 -4.86713,-2.357 -2.737759,-2.4078 -4.030589,-6.1082 -3.34615,-9.6818 l 1.44493,-7.6542 c 1.03933,-5.4238 0.0507,-10.8476 -2.813809,-15.6378 l -5.652966,-8.1864 c -2.3321643,-3.4216 -2.4082132,-7.857 -0.202797,-11.3545 0.760489,-1.1659 1.723774,-2.1797 2.864507,-2.9654 l 7.249995,-4.9423 c 2.50961,-1.7234 4.58828,-3.8777 6.21065,-6.4376 1.41958,-2.205 2.40822,-4.6381 2.99126,-7.2233 L 23.11981,262.92 c 0.22815,-1.3179 0.70979,-2.5344 1.41958,-3.6243 2.28146,-3.5736 6.4388,-5.3731 10.59614,-4.6128 l 9.48075,1.7742 c 5.47552,1.0138 11.10313,0 15.86887,-2.864 l 6.99649,-4.7902 c 4.68968,-3.1934 11.10313,-1.9769 14.32253,2.6866 l 4.20804,6.1588 c 3.24475,4.6128 8.03583,7.8569 13.5367,9.0988 l 10.26659,1.9262 c 2.7124,0.5069 5.0446,2.0276 6.6163,4.3087 1.5463,2.281 2.1293,5.0183 1.6223,7.7048 l -1.8505,9.8085 c -0.9379,5.5506 0.2028,11.2025 3.1941,15.942 l 5.298,7.7302 c 2.3322,3.4216 2.4082,7.8569 0.1775,11.3545 -0.7352,1.1659 -1.6984,2.1797 -2.8645,2.9654 l -7.174,4.9422 c -2.5603,1.7488 -4.6897,3.9539 -6.3374,6.539 -1.3182,2.053 -2.2561,4.2833 -2.8645,6.6658 l -1.6477,8.7693 c -0.2282,1.2926 -0.7098,2.5092 -1.4196,3.6243 z" /></g></g></g></svg>